M48
METRIC
T1C0.700
T2C0.800
T3C0.900
T4C1.000
T5C1.100
T6C2.700
%
G90
G05
T1
X148260Y-090805
X148260Y-093305
X150165Y-105450
X150165Y-107950
X152070Y-099695
X157150Y-099695
X159690Y-099695
X160960Y-125730
X160960Y-128270
X160960Y-130810
X160960Y-133350
X160960Y-135890
X160960Y-138430
X160960Y-140970
X160960Y-143510
X160960Y-148590
X163754Y-156250
X163754Y-158750
X164770Y-099695
X164770Y-102235
X164770Y-107315
X166040Y-125730
X166040Y-128270
X166040Y-130810
X166040Y-133350
X166040Y-135890
X166040Y-138430
X166040Y-140970
X166040Y-143510
X166040Y-148590
X168580Y-090805
X168580Y-093305
X189535Y-148590
X189535Y-151130
X189535Y-153670
X194615Y-148590
X194615Y-151130
X194615Y-153670
T2
X138862Y-089916
X138862Y-097536
X154610Y-102870
X154610Y-105410
X154610Y-107950
X154610Y-110490
X162230Y-102870
X162230Y-105410
X162230Y-107950
X162230Y-110490
X167310Y-110490
X167310Y-118110
X169850Y-110490
X169850Y-118110
X172390Y-110490
X172390Y-118110
X174930Y-110490
X174930Y-118110
X177470Y-110490
X177470Y-118110
X180010Y-110490
X180010Y-118110
X182042Y-093218
X182550Y-110490
X182550Y-118110
X185090Y-110490
X185090Y-118110
X187122Y-093218
X192202Y-093218
X194742Y-093218
T3
X152070Y-146050
X152070Y-148590
X202616Y-102616
X202616Y-106426
X202616Y-110236
X205156Y-102616
X205156Y-106426
X205156Y-110236
T4
X138862Y-105410
X138862Y-107950
X145000Y-116250
X145000Y-119750
X145000Y-123250
X145000Y-126750
X145000Y-130250
X145000Y-133750
X145000Y-137250
X145000Y-140750
X202000Y-116250
X202000Y-119750
X202000Y-123250
X202000Y-126750
X202000Y-130250
X202000Y-133750
X202000Y-137250
X202000Y-140750
X207940Y-095250
X207950Y-090170
T5
X153340Y-093980
X155880Y-093980
X158420Y-093980
X160960Y-093980
X163500Y-093980
X168580Y-123190
X168580Y-125730
X168580Y-128270
X168580Y-130810
X168580Y-133350
X168580Y-135890
X168580Y-138430
X168580Y-140970
X168580Y-143510
X168580Y-146050
X168580Y-148590
X168580Y-151130
X168580Y-153670
X168580Y-156210
X183820Y-123190
X183820Y-125730
X183820Y-128270
X183820Y-130810
X183820Y-133350
X183820Y-135890
X183820Y-138430
X183820Y-140970
X183820Y-143510
X183820Y-146050
X183820Y-148590
X183820Y-151130
X183820Y-153670
X183820Y-156210
X194996Y-103482
X194996Y-109982
X199496Y-103482
X199496Y-109982
T6
X147000Y-098000
X147000Y-151000
X200000Y-098000
X200000Y-151000
T0
M30
