M48
; DRILL file {KiCad 5.1.5-1.fc31} date Tue 15 Sep 2020 14:49:04 BST
; FORMAT={-:-/ absolute / metric / decimal}
; #@! TF.CreationDate,2020-09-15T14:49:04+01:00
; #@! TF.GenerationSoftware,Kicad,Pcbnew,5.1.5-1.fc31
FMAT,2
METRIC
T1C0.700
T2C0.800
T3C0.900
T4C1.000
T5C1.100
T6C1.143
T7C2.700
%
G90
G05
T1
X52.07Y-72.39
X19.05Y-36.195
X24.13Y-36.195
X19.05Y-33.655
X24.13Y-33.655
X19.05Y-31.115
X24.13Y-31.115
X48.26Y-64.135
X48.26Y-69.215
X52.07Y-77.47
X48.26Y-55.245
X48.26Y-60.325
T2
X15.0Y-45.085
X15.0Y-47.585
X15.0Y-39.0
X15.0Y-41.5
X1.27Y-33.02
X1.27Y-37.64
X1.27Y-43.64
X1.27Y-48.26
X-13.335Y-62.88
X-13.335Y-70.5
X-10.795Y-62.88
X-10.795Y-70.5
X-8.255Y-62.88
X-8.255Y-70.5
X-5.715Y-62.88
X-5.715Y-70.5
X-3.175Y-62.88
X-3.175Y-70.5
X-0.635Y-62.88
X-0.635Y-70.5
X1.905Y-62.88
X1.905Y-70.5
X4.445Y-62.88
X4.445Y-70.5
X7.66Y-69.215
X10.16Y-69.215
X6.985Y-33.02
X6.985Y-37.64
X6.985Y-43.64
X6.985Y-48.26
X8.255Y-74.93
X8.255Y-77.47
X1.905Y-74.93
X1.905Y-77.47
X27.305Y-28.575
X27.305Y-31.115
X27.305Y-33.655
X27.305Y-36.195
X34.925Y-28.575
X34.925Y-31.115
X34.925Y-33.655
X34.925Y-36.195
X-1.27Y-74.93
X-1.27Y-77.47
X34.925Y-52.07
X34.925Y-54.61
X34.925Y-57.15
X34.925Y-59.69
X34.925Y-62.23
X34.925Y-64.77
X34.925Y-67.31
X42.545Y-52.07
X42.545Y-54.61
X42.545Y-57.15
X42.545Y-59.69
X42.545Y-62.23
X42.545Y-64.77
X42.545Y-67.31
X40.005Y-33.02
X40.005Y-35.52
X-15.875Y-33.02
X-15.875Y-37.64
X-15.875Y-43.64
X-15.875Y-48.26
X11.43Y-74.93
X11.43Y-77.47
X-10.16Y-33.02
X-10.16Y-37.64
X-10.16Y-43.64
X-10.16Y-48.26
X-4.445Y-33.02
X-4.445Y-37.64
X-4.445Y-43.64
X-4.445Y-48.26
X5.08Y-74.93
X5.08Y-77.47
T3
X52.07Y-60.325
X52.07Y-62.865
X52.07Y-66.675
X52.07Y-69.215
X52.07Y-53.975
X52.07Y-56.515
T4
X1.27Y-53.34
X1.27Y-55.88
X15.24Y-31.75
X15.24Y-34.29
X6.985Y-53.34
X6.985Y-55.88
X51.425Y-22.86
X51.435Y-17.78
X-10.16Y-53.34
X-10.16Y-55.88
X51.0Y-31.115
X51.0Y-33.655
X51.0Y-36.195
X51.0Y-41.275
X51.0Y-43.815
X51.0Y-46.355
X51.0Y-48.895
X-4.445Y-53.34
X-4.445Y-55.88
T5
X27.305Y-22.225
X29.845Y-22.225
X32.385Y-22.225
X34.925Y-22.225
X37.465Y-22.225
X-1.905Y-22.225
X0.635Y-22.225
X3.175Y-22.225
X5.715Y-22.225
X8.255Y-22.225
X10.795Y-22.225
X13.335Y-22.225
X15.875Y-22.225
X18.415Y-22.225
X20.955Y-22.225
X-1.27Y-83.185
X1.27Y-83.185
X3.81Y-83.185
X6.35Y-83.185
X8.89Y-83.185
X15.875Y-52.07
X15.875Y-54.61
X15.875Y-57.15
X15.875Y-59.69
X15.875Y-62.23
X15.875Y-64.77
X15.875Y-67.31
X15.875Y-69.85
X15.875Y-72.39
X15.875Y-74.93
X15.875Y-77.47
X15.875Y-80.01
X15.875Y-82.55
X15.875Y-85.09
X31.115Y-52.07
X31.115Y-54.61
X31.115Y-57.15
X31.115Y-59.69
X31.115Y-62.23
X31.115Y-64.77
X31.115Y-67.31
X31.115Y-69.85
X31.115Y-72.39
X31.115Y-74.93
X31.115Y-77.47
X31.115Y-80.01
X31.115Y-82.55
X31.115Y-85.09
T6
X23.495Y-40.005
X23.495Y-45.085
X31.115Y-40.005
X31.115Y-42.545
X31.115Y-45.085
X34.925Y-40.005
X34.925Y-45.085
X42.545Y-40.005
X42.545Y-42.545
X42.545Y-45.085
T7
X-9.0Y-79.0
X44.0Y-79.0
X-9.0Y-26.0
X44.0Y-26.0
T0
M30
