G04 #@! TF.GenerationSoftware,KiCad,Pcbnew,5.1.9-73d0e3b20d~88~ubuntu20.04.1*
G04 #@! TF.CreationDate,2021-04-08T14:20:02+01:00*
G04 #@! TF.ProjectId,tsense-1.0,7473656e-7365-42d3-912e-302e6b696361,1.0*
G04 #@! TF.SameCoordinates,Original*
G04 #@! TF.FileFunction,Legend,Top*
G04 #@! TF.FilePolarity,Positive*
%FSLAX46Y46*%
G04 Gerber Fmt 4.6, Leading zero omitted, Abs format (unit mm)*
G04 Created by KiCad (PCBNEW 5.1.9-73d0e3b20d~88~ubuntu20.04.1) date 2021-04-08 14:20:02*
%MOMM*%
%LPD*%
G01*
G04 APERTURE LIST*
%ADD10C,0.150000*%
%ADD11C,0.300000*%
%ADD12C,0.200000*%
%ADD13C,0.120000*%
%ADD14C,0.100000*%
G04 APERTURE END LIST*
D10*
X152340095Y-124674380D02*
X152911523Y-124674380D01*
X152625809Y-125674380D02*
X152625809Y-124674380D01*
X153435333Y-124674380D02*
X153625809Y-124674380D01*
X153721047Y-124722000D01*
X153816285Y-124817238D01*
X153863904Y-125007714D01*
X153863904Y-125341047D01*
X153816285Y-125531523D01*
X153721047Y-125626761D01*
X153625809Y-125674380D01*
X153435333Y-125674380D01*
X153340095Y-125626761D01*
X153244857Y-125531523D01*
X153197238Y-125341047D01*
X153197238Y-125007714D01*
X153244857Y-124817238D01*
X153340095Y-124722000D01*
X153435333Y-124674380D01*
X154340095Y-125674380D02*
X154530571Y-125674380D01*
X154625809Y-125626761D01*
X154673428Y-125579142D01*
X154768666Y-125436285D01*
X154816285Y-125245809D01*
X154816285Y-124864857D01*
X154768666Y-124769619D01*
X154721047Y-124722000D01*
X154625809Y-124674380D01*
X154435333Y-124674380D01*
X154340095Y-124722000D01*
X154292476Y-124769619D01*
X154244857Y-124864857D01*
X154244857Y-125102952D01*
X154292476Y-125198190D01*
X154340095Y-125245809D01*
X154435333Y-125293428D01*
X154625809Y-125293428D01*
X154721047Y-125245809D01*
X154768666Y-125198190D01*
X154816285Y-125102952D01*
X155197238Y-124769619D02*
X155244857Y-124722000D01*
X155340095Y-124674380D01*
X155578190Y-124674380D01*
X155673428Y-124722000D01*
X155721047Y-124769619D01*
X155768666Y-124864857D01*
X155768666Y-124960095D01*
X155721047Y-125102952D01*
X155149619Y-125674380D01*
X155768666Y-125674380D01*
X150411142Y-128563714D02*
X150411142Y-129230380D01*
X150411142Y-128658952D02*
X150458761Y-128611333D01*
X150554000Y-128563714D01*
X150696857Y-128563714D01*
X150792095Y-128611333D01*
X150839714Y-128706571D01*
X150839714Y-129230380D01*
X151744476Y-129182761D02*
X151649238Y-129230380D01*
X151458761Y-129230380D01*
X151363523Y-129182761D01*
X151315904Y-129135142D01*
X151268285Y-129039904D01*
X151268285Y-128754190D01*
X151315904Y-128658952D01*
X151363523Y-128611333D01*
X151458761Y-128563714D01*
X151649238Y-128563714D01*
X151744476Y-128611333D01*
X153840095Y-129484380D02*
X153840095Y-128484380D01*
X154221047Y-128484380D01*
X154316285Y-128532000D01*
X154363904Y-128579619D01*
X154411523Y-128674857D01*
X154411523Y-128817714D01*
X154363904Y-128912952D01*
X154316285Y-128960571D01*
X154221047Y-129008190D01*
X153840095Y-129008190D01*
X157157904Y-128532000D02*
X157062666Y-128484380D01*
X156919809Y-128484380D01*
X156776952Y-128532000D01*
X156681714Y-128627238D01*
X156634095Y-128722476D01*
X156586476Y-128912952D01*
X156586476Y-129055809D01*
X156634095Y-129246285D01*
X156681714Y-129341523D01*
X156776952Y-129436761D01*
X156919809Y-129484380D01*
X157015047Y-129484380D01*
X157157904Y-129436761D01*
X157205523Y-129389142D01*
X157205523Y-129055809D01*
X157015047Y-129055809D01*
X157150000Y-127762000D02*
G75*
G03*
X157150000Y-127762000I-254000J0D01*
G01*
X151308000Y-127762000D02*
G75*
G03*
X151308000Y-127762000I-254000J0D01*
G01*
X154356000Y-127762000D02*
G75*
G03*
X154356000Y-127762000I-254000J0D01*
G01*
X157784998Y-126365000D02*
G75*
G02*
X150165001Y-126365001I-3809998J-1905000D01*
G01*
X150165000Y-126365000D02*
X157785000Y-126365000D01*
X149865595Y-118198380D02*
X149865595Y-119007904D01*
X149913214Y-119103142D01*
X149960833Y-119150761D01*
X150056071Y-119198380D01*
X150246547Y-119198380D01*
X150341785Y-119150761D01*
X150389404Y-119103142D01*
X150437023Y-119007904D01*
X150437023Y-118198380D01*
X150865595Y-119150761D02*
X151008452Y-119198380D01*
X151246547Y-119198380D01*
X151341785Y-119150761D01*
X151389404Y-119103142D01*
X151437023Y-119007904D01*
X151437023Y-118912666D01*
X151389404Y-118817428D01*
X151341785Y-118769809D01*
X151246547Y-118722190D01*
X151056071Y-118674571D01*
X150960833Y-118626952D01*
X150913214Y-118579333D01*
X150865595Y-118484095D01*
X150865595Y-118388857D01*
X150913214Y-118293619D01*
X150960833Y-118246000D01*
X151056071Y-118198380D01*
X151294166Y-118198380D01*
X151437023Y-118246000D01*
X151865595Y-118674571D02*
X152198928Y-118674571D01*
X152341785Y-119198380D02*
X151865595Y-119198380D01*
X151865595Y-118198380D01*
X152341785Y-118198380D01*
X153722738Y-118198380D02*
X153913214Y-118198380D01*
X154008452Y-118246000D01*
X154103690Y-118341238D01*
X154151309Y-118531714D01*
X154151309Y-118865047D01*
X154103690Y-119055523D01*
X154008452Y-119150761D01*
X153913214Y-119198380D01*
X153722738Y-119198380D01*
X153627500Y-119150761D01*
X153532261Y-119055523D01*
X153484642Y-118865047D01*
X153484642Y-118531714D01*
X153532261Y-118341238D01*
X153627500Y-118246000D01*
X153722738Y-118198380D01*
X154579880Y-119198380D02*
X154579880Y-118198380D01*
X155151309Y-119198380D01*
X155151309Y-118198380D01*
X156103690Y-119198380D02*
X155627500Y-119198380D01*
X155627500Y-118198380D01*
X156627500Y-118722190D02*
X156627500Y-119198380D01*
X156294166Y-118198380D02*
X156627500Y-118722190D01*
X156960833Y-118198380D01*
X158532261Y-119198380D02*
X158056071Y-119198380D01*
X158056071Y-118198380D01*
X158865595Y-119198380D02*
X158865595Y-118198380D01*
X159198928Y-118912666D01*
X159532261Y-118198380D01*
X159532261Y-119198380D01*
X159913214Y-118198380D02*
X160532261Y-118198380D01*
X160198928Y-118579333D01*
X160341785Y-118579333D01*
X160437023Y-118626952D01*
X160484642Y-118674571D01*
X160532261Y-118769809D01*
X160532261Y-119007904D01*
X160484642Y-119103142D01*
X160437023Y-119150761D01*
X160341785Y-119198380D01*
X160056071Y-119198380D01*
X159960833Y-119150761D01*
X159913214Y-119103142D01*
X160865595Y-118198380D02*
X161484642Y-118198380D01*
X161151309Y-118579333D01*
X161294166Y-118579333D01*
X161389404Y-118626952D01*
X161437023Y-118674571D01*
X161484642Y-118769809D01*
X161484642Y-119007904D01*
X161437023Y-119103142D01*
X161389404Y-119150761D01*
X161294166Y-119198380D01*
X161008452Y-119198380D01*
X160913214Y-119150761D01*
X160865595Y-119103142D01*
X162389404Y-118198380D02*
X161913214Y-118198380D01*
X161865595Y-118674571D01*
X161913214Y-118626952D01*
X162008452Y-118579333D01*
X162246547Y-118579333D01*
X162341785Y-118626952D01*
X162389404Y-118674571D01*
X162437023Y-118769809D01*
X162437023Y-119007904D01*
X162389404Y-119103142D01*
X162341785Y-119150761D01*
X162246547Y-119198380D01*
X162008452Y-119198380D01*
X161913214Y-119150761D01*
X161865595Y-119103142D01*
X162770357Y-118198380D02*
X163437023Y-118198380D01*
X162770357Y-119198380D01*
X163437023Y-119198380D01*
X150008452Y-120848380D02*
X149913214Y-120800761D01*
X149865595Y-120753142D01*
X149817976Y-120657904D01*
X149817976Y-120372190D01*
X149865595Y-120276952D01*
X149913214Y-120229333D01*
X150008452Y-120181714D01*
X150151309Y-120181714D01*
X150246547Y-120229333D01*
X150294166Y-120276952D01*
X150341785Y-120372190D01*
X150341785Y-120657904D01*
X150294166Y-120753142D01*
X150246547Y-120800761D01*
X150151309Y-120848380D01*
X150008452Y-120848380D01*
X150770357Y-120848380D02*
X150770357Y-120181714D01*
X150770357Y-120372190D02*
X150817976Y-120276952D01*
X150865595Y-120229333D01*
X150960833Y-120181714D01*
X151056071Y-120181714D01*
X152532261Y-120800761D02*
X152437023Y-120848380D01*
X152246547Y-120848380D01*
X152151309Y-120800761D01*
X152103690Y-120705523D01*
X152103690Y-120324571D01*
X152151309Y-120229333D01*
X152246547Y-120181714D01*
X152437023Y-120181714D01*
X152532261Y-120229333D01*
X152579880Y-120324571D01*
X152579880Y-120419809D01*
X152103690Y-120515047D01*
X153437023Y-120181714D02*
X153437023Y-121181714D01*
X153437023Y-120800761D02*
X153341785Y-120848380D01*
X153151309Y-120848380D01*
X153056071Y-120800761D01*
X153008452Y-120753142D01*
X152960833Y-120657904D01*
X152960833Y-120372190D01*
X153008452Y-120276952D01*
X153056071Y-120229333D01*
X153151309Y-120181714D01*
X153341785Y-120181714D01*
X153437023Y-120229333D01*
X154341785Y-120181714D02*
X154341785Y-120848380D01*
X153913214Y-120181714D02*
X153913214Y-120705523D01*
X153960833Y-120800761D01*
X154056071Y-120848380D01*
X154198928Y-120848380D01*
X154294166Y-120800761D01*
X154341785Y-120753142D01*
X154817976Y-120848380D02*
X154817976Y-120181714D01*
X154817976Y-119848380D02*
X154770357Y-119896000D01*
X154817976Y-119943619D01*
X154865595Y-119896000D01*
X154817976Y-119848380D01*
X154817976Y-119943619D01*
X155198928Y-120181714D02*
X155437023Y-120848380D01*
X155675119Y-120181714D01*
X156484642Y-120848380D02*
X156484642Y-120324571D01*
X156437023Y-120229333D01*
X156341785Y-120181714D01*
X156151309Y-120181714D01*
X156056071Y-120229333D01*
X156484642Y-120800761D02*
X156389404Y-120848380D01*
X156151309Y-120848380D01*
X156056071Y-120800761D01*
X156008452Y-120705523D01*
X156008452Y-120610285D01*
X156056071Y-120515047D01*
X156151309Y-120467428D01*
X156389404Y-120467428D01*
X156484642Y-120419809D01*
X157103690Y-120848380D02*
X157008452Y-120800761D01*
X156960833Y-120705523D01*
X156960833Y-119848380D01*
X157865595Y-120800761D02*
X157770357Y-120848380D01*
X157579880Y-120848380D01*
X157484642Y-120800761D01*
X157437023Y-120705523D01*
X157437023Y-120324571D01*
X157484642Y-120229333D01*
X157579880Y-120181714D01*
X157770357Y-120181714D01*
X157865595Y-120229333D01*
X157913214Y-120324571D01*
X157913214Y-120419809D01*
X157437023Y-120515047D01*
X158341785Y-120181714D02*
X158341785Y-120848380D01*
X158341785Y-120276952D02*
X158389404Y-120229333D01*
X158484642Y-120181714D01*
X158627500Y-120181714D01*
X158722738Y-120229333D01*
X158770357Y-120324571D01*
X158770357Y-120848380D01*
X159103690Y-120181714D02*
X159484642Y-120181714D01*
X159246547Y-119848380D02*
X159246547Y-120705523D01*
X159294166Y-120800761D01*
X159389404Y-120848380D01*
X159484642Y-120848380D01*
X160437023Y-120181714D02*
X160817976Y-120181714D01*
X160579880Y-119848380D02*
X160579880Y-120705523D01*
X160627500Y-120800761D01*
X160722738Y-120848380D01*
X160817976Y-120848380D01*
X161532261Y-120800761D02*
X161437023Y-120848380D01*
X161246547Y-120848380D01*
X161151309Y-120800761D01*
X161103690Y-120705523D01*
X161103690Y-120324571D01*
X161151309Y-120229333D01*
X161246547Y-120181714D01*
X161437023Y-120181714D01*
X161532261Y-120229333D01*
X161579880Y-120324571D01*
X161579880Y-120419809D01*
X161103690Y-120515047D01*
X162008452Y-120848380D02*
X162008452Y-120181714D01*
X162008452Y-120276952D02*
X162056071Y-120229333D01*
X162151309Y-120181714D01*
X162294166Y-120181714D01*
X162389404Y-120229333D01*
X162437023Y-120324571D01*
X162437023Y-120848380D01*
X162437023Y-120324571D02*
X162484642Y-120229333D01*
X162579880Y-120181714D01*
X162722738Y-120181714D01*
X162817976Y-120229333D01*
X162865595Y-120324571D01*
X162865595Y-120848380D01*
X163341785Y-120181714D02*
X163341785Y-121181714D01*
X163341785Y-120229333D02*
X163437023Y-120181714D01*
X163627500Y-120181714D01*
X163722738Y-120229333D01*
X163770357Y-120276952D01*
X163817976Y-120372190D01*
X163817976Y-120657904D01*
X163770357Y-120753142D01*
X163722738Y-120800761D01*
X163627500Y-120848380D01*
X163437023Y-120848380D01*
X163341785Y-120800761D01*
X164627500Y-120800761D02*
X164532261Y-120848380D01*
X164341785Y-120848380D01*
X164246547Y-120800761D01*
X164198928Y-120705523D01*
X164198928Y-120324571D01*
X164246547Y-120229333D01*
X164341785Y-120181714D01*
X164532261Y-120181714D01*
X164627500Y-120229333D01*
X164675119Y-120324571D01*
X164675119Y-120419809D01*
X164198928Y-120515047D01*
X165103690Y-120848380D02*
X165103690Y-120181714D01*
X165103690Y-120372190D02*
X165151309Y-120276952D01*
X165198928Y-120229333D01*
X165294166Y-120181714D01*
X165389404Y-120181714D01*
X166151309Y-120848380D02*
X166151309Y-120324571D01*
X166103690Y-120229333D01*
X166008452Y-120181714D01*
X165817976Y-120181714D01*
X165722738Y-120229333D01*
X166151309Y-120800761D02*
X166056071Y-120848380D01*
X165817976Y-120848380D01*
X165722738Y-120800761D01*
X165675119Y-120705523D01*
X165675119Y-120610285D01*
X165722738Y-120515047D01*
X165817976Y-120467428D01*
X166056071Y-120467428D01*
X166151309Y-120419809D01*
X166484642Y-120181714D02*
X166865595Y-120181714D01*
X166627500Y-119848380D02*
X166627500Y-120705523D01*
X166675119Y-120800761D01*
X166770357Y-120848380D01*
X166865595Y-120848380D01*
X167627500Y-120181714D02*
X167627500Y-120848380D01*
X167198928Y-120181714D02*
X167198928Y-120705523D01*
X167246547Y-120800761D01*
X167341785Y-120848380D01*
X167484642Y-120848380D01*
X167579880Y-120800761D01*
X167627500Y-120753142D01*
X168103690Y-120848380D02*
X168103690Y-120181714D01*
X168103690Y-120372190D02*
X168151309Y-120276952D01*
X168198928Y-120229333D01*
X168294166Y-120181714D01*
X168389404Y-120181714D01*
X169103690Y-120800761D02*
X169008452Y-120848380D01*
X168817976Y-120848380D01*
X168722738Y-120800761D01*
X168675119Y-120705523D01*
X168675119Y-120324571D01*
X168722738Y-120229333D01*
X168817976Y-120181714D01*
X169008452Y-120181714D01*
X169103690Y-120229333D01*
X169151309Y-120324571D01*
X169151309Y-120419809D01*
X168675119Y-120515047D01*
X149817976Y-122450761D02*
X149913214Y-122498380D01*
X150103690Y-122498380D01*
X150198928Y-122450761D01*
X150246547Y-122355523D01*
X150246547Y-122307904D01*
X150198928Y-122212666D01*
X150103690Y-122165047D01*
X149960833Y-122165047D01*
X149865595Y-122117428D01*
X149817976Y-122022190D01*
X149817976Y-121974571D01*
X149865595Y-121879333D01*
X149960833Y-121831714D01*
X150103690Y-121831714D01*
X150198928Y-121879333D01*
X151056071Y-122450761D02*
X150960833Y-122498380D01*
X150770357Y-122498380D01*
X150675119Y-122450761D01*
X150627500Y-122355523D01*
X150627500Y-121974571D01*
X150675119Y-121879333D01*
X150770357Y-121831714D01*
X150960833Y-121831714D01*
X151056071Y-121879333D01*
X151103690Y-121974571D01*
X151103690Y-122069809D01*
X150627500Y-122165047D01*
X151532261Y-121831714D02*
X151532261Y-122498380D01*
X151532261Y-121926952D02*
X151579880Y-121879333D01*
X151675119Y-121831714D01*
X151817976Y-121831714D01*
X151913214Y-121879333D01*
X151960833Y-121974571D01*
X151960833Y-122498380D01*
X152389404Y-122450761D02*
X152484642Y-122498380D01*
X152675119Y-122498380D01*
X152770357Y-122450761D01*
X152817976Y-122355523D01*
X152817976Y-122307904D01*
X152770357Y-122212666D01*
X152675119Y-122165047D01*
X152532261Y-122165047D01*
X152437023Y-122117428D01*
X152389404Y-122022190D01*
X152389404Y-121974571D01*
X152437023Y-121879333D01*
X152532261Y-121831714D01*
X152675119Y-121831714D01*
X152770357Y-121879333D01*
X153389404Y-122498380D02*
X153294166Y-122450761D01*
X153246547Y-122403142D01*
X153198928Y-122307904D01*
X153198928Y-122022190D01*
X153246547Y-121926952D01*
X153294166Y-121879333D01*
X153389404Y-121831714D01*
X153532261Y-121831714D01*
X153627500Y-121879333D01*
X153675119Y-121926952D01*
X153722738Y-122022190D01*
X153722738Y-122307904D01*
X153675119Y-122403142D01*
X153627500Y-122450761D01*
X153532261Y-122498380D01*
X153389404Y-122498380D01*
X154151309Y-122498380D02*
X154151309Y-121831714D01*
X154151309Y-122022190D02*
X154198928Y-121926952D01*
X154246547Y-121879333D01*
X154341785Y-121831714D01*
X154437023Y-121831714D01*
X154722738Y-122450761D02*
X154817976Y-122498380D01*
X155008452Y-122498380D01*
X155103690Y-122450761D01*
X155151309Y-122355523D01*
X155151309Y-122307904D01*
X155103690Y-122212666D01*
X155008452Y-122165047D01*
X154865595Y-122165047D01*
X154770357Y-122117428D01*
X154722738Y-122022190D01*
X154722738Y-121974571D01*
X154770357Y-121879333D01*
X154865595Y-121831714D01*
X155008452Y-121831714D01*
X155103690Y-121879333D01*
X155579880Y-122403142D02*
X155627500Y-122450761D01*
X155579880Y-122498380D01*
X155532261Y-122450761D01*
X155579880Y-122403142D01*
X155579880Y-122498380D01*
X140830666Y-107402380D02*
X141164000Y-108402380D01*
X141497333Y-107402380D01*
X142402095Y-108307142D02*
X142354476Y-108354761D01*
X142211619Y-108402380D01*
X142116380Y-108402380D01*
X141973523Y-108354761D01*
X141878285Y-108259523D01*
X141830666Y-108164285D01*
X141783047Y-107973809D01*
X141783047Y-107830952D01*
X141830666Y-107640476D01*
X141878285Y-107545238D01*
X141973523Y-107450000D01*
X142116380Y-107402380D01*
X142211619Y-107402380D01*
X142354476Y-107450000D01*
X142402095Y-107497619D01*
X143402095Y-108307142D02*
X143354476Y-108354761D01*
X143211619Y-108402380D01*
X143116380Y-108402380D01*
X142973523Y-108354761D01*
X142878285Y-108259523D01*
X142830666Y-108164285D01*
X142783047Y-107973809D01*
X142783047Y-107830952D01*
X142830666Y-107640476D01*
X142878285Y-107545238D01*
X142973523Y-107450000D01*
X143116380Y-107402380D01*
X143211619Y-107402380D01*
X143354476Y-107450000D01*
X143402095Y-107497619D01*
X141402095Y-104910000D02*
X141306857Y-104862380D01*
X141164000Y-104862380D01*
X141021142Y-104910000D01*
X140925904Y-105005238D01*
X140878285Y-105100476D01*
X140830666Y-105290952D01*
X140830666Y-105433809D01*
X140878285Y-105624285D01*
X140925904Y-105719523D01*
X141021142Y-105814761D01*
X141164000Y-105862380D01*
X141259238Y-105862380D01*
X141402095Y-105814761D01*
X141449714Y-105767142D01*
X141449714Y-105433809D01*
X141259238Y-105433809D01*
X141878285Y-105862380D02*
X141878285Y-104862380D01*
X142449714Y-105862380D01*
X142449714Y-104862380D01*
X142925904Y-105862380D02*
X142925904Y-104862380D01*
X143164000Y-104862380D01*
X143306857Y-104910000D01*
X143402095Y-105005238D01*
X143449714Y-105100476D01*
X143497333Y-105290952D01*
X143497333Y-105433809D01*
X143449714Y-105624285D01*
X143402095Y-105719523D01*
X143306857Y-105814761D01*
X143164000Y-105862380D01*
X142925904Y-105862380D01*
X187021380Y-145114309D02*
X187021380Y-144657166D01*
X188021380Y-144885738D02*
X187021380Y-144885738D01*
X187021380Y-144238119D02*
X187021380Y-144085738D01*
X187069000Y-144009547D01*
X187164238Y-143933357D01*
X187354714Y-143895261D01*
X187688047Y-143895261D01*
X187878523Y-143933357D01*
X187973761Y-144009547D01*
X188021380Y-144085738D01*
X188021380Y-144238119D01*
X187973761Y-144314309D01*
X187878523Y-144390500D01*
X187688047Y-144428595D01*
X187354714Y-144428595D01*
X187164238Y-144390500D01*
X187069000Y-144314309D01*
X187021380Y-144238119D01*
X188021380Y-142942880D02*
X187021380Y-142942880D01*
X187021380Y-142638119D01*
X187069000Y-142561928D01*
X187116619Y-142523833D01*
X187211857Y-142485738D01*
X187354714Y-142485738D01*
X187449952Y-142523833D01*
X187497571Y-142561928D01*
X187545190Y-142638119D01*
X187545190Y-142942880D01*
X188021380Y-141685738D02*
X187545190Y-141952404D01*
X188021380Y-142142880D02*
X187021380Y-142142880D01*
X187021380Y-141838119D01*
X187069000Y-141761928D01*
X187116619Y-141723833D01*
X187211857Y-141685738D01*
X187354714Y-141685738D01*
X187449952Y-141723833D01*
X187497571Y-141761928D01*
X187545190Y-141838119D01*
X187545190Y-142142880D01*
X187021380Y-141190500D02*
X187021380Y-141038119D01*
X187069000Y-140961928D01*
X187164238Y-140885738D01*
X187354714Y-140847642D01*
X187688047Y-140847642D01*
X187878523Y-140885738D01*
X187973761Y-140961928D01*
X188021380Y-141038119D01*
X188021380Y-141190500D01*
X187973761Y-141266690D01*
X187878523Y-141342880D01*
X187688047Y-141380976D01*
X187354714Y-141380976D01*
X187164238Y-141342880D01*
X187069000Y-141266690D01*
X187021380Y-141190500D01*
X187069000Y-140085738D02*
X187021380Y-140161928D01*
X187021380Y-140276214D01*
X187069000Y-140390500D01*
X187164238Y-140466690D01*
X187259476Y-140504785D01*
X187449952Y-140542880D01*
X187592809Y-140542880D01*
X187783285Y-140504785D01*
X187878523Y-140466690D01*
X187973761Y-140390500D01*
X188021380Y-140276214D01*
X188021380Y-140200023D01*
X187973761Y-140085738D01*
X187926142Y-140047642D01*
X187592809Y-140047642D01*
X187592809Y-140200023D01*
X188021380Y-139247642D02*
X187545190Y-139514309D01*
X188021380Y-139704785D02*
X187021380Y-139704785D01*
X187021380Y-139400023D01*
X187069000Y-139323833D01*
X187116619Y-139285738D01*
X187211857Y-139247642D01*
X187354714Y-139247642D01*
X187449952Y-139285738D01*
X187497571Y-139323833D01*
X187545190Y-139400023D01*
X187545190Y-139704785D01*
X187735666Y-138942880D02*
X187735666Y-138561928D01*
X188021380Y-139019071D02*
X187021380Y-138752404D01*
X188021380Y-138485738D01*
X188021380Y-138219071D02*
X187021380Y-138219071D01*
X187735666Y-137952404D01*
X187021380Y-137685738D01*
X188021380Y-137685738D01*
X191321380Y-144580976D02*
X191321380Y-145038119D01*
X191321380Y-144809547D02*
X190321380Y-144809547D01*
X190464238Y-144885738D01*
X190559476Y-144961928D01*
X190607095Y-145038119D01*
X191226142Y-144238119D02*
X191273761Y-144200023D01*
X191321380Y-144238119D01*
X191273761Y-144276214D01*
X191226142Y-144238119D01*
X191321380Y-144238119D01*
X191273761Y-143285738D02*
X191321380Y-143171452D01*
X191321380Y-142980976D01*
X191273761Y-142904785D01*
X191226142Y-142866690D01*
X191130904Y-142828595D01*
X191035666Y-142828595D01*
X190940428Y-142866690D01*
X190892809Y-142904785D01*
X190845190Y-142980976D01*
X190797571Y-143133357D01*
X190749952Y-143209547D01*
X190702333Y-143247642D01*
X190607095Y-143285738D01*
X190511857Y-143285738D01*
X190416619Y-143247642D01*
X190369000Y-143209547D01*
X190321380Y-143133357D01*
X190321380Y-142942880D01*
X190369000Y-142828595D01*
X191273761Y-142180976D02*
X191321380Y-142257166D01*
X191321380Y-142409547D01*
X191273761Y-142485738D01*
X191178523Y-142523833D01*
X190797571Y-142523833D01*
X190702333Y-142485738D01*
X190654714Y-142409547D01*
X190654714Y-142257166D01*
X190702333Y-142180976D01*
X190797571Y-142142880D01*
X190892809Y-142142880D01*
X190988047Y-142523833D01*
X191321380Y-141685738D02*
X191273761Y-141761928D01*
X191178523Y-141800023D01*
X190321380Y-141800023D01*
X191273761Y-141076214D02*
X191321380Y-141152404D01*
X191321380Y-141304785D01*
X191273761Y-141380976D01*
X191178523Y-141419071D01*
X190797571Y-141419071D01*
X190702333Y-141380976D01*
X190654714Y-141304785D01*
X190654714Y-141152404D01*
X190702333Y-141076214D01*
X190797571Y-141038119D01*
X190892809Y-141038119D01*
X190988047Y-141419071D01*
X191273761Y-140352404D02*
X191321380Y-140428595D01*
X191321380Y-140580976D01*
X191273761Y-140657166D01*
X191226142Y-140695261D01*
X191130904Y-140733357D01*
X190845190Y-140733357D01*
X190749952Y-140695261D01*
X190702333Y-140657166D01*
X190654714Y-140580976D01*
X190654714Y-140428595D01*
X190702333Y-140352404D01*
X190654714Y-140123833D02*
X190654714Y-139819071D01*
X190321380Y-140009547D02*
X191178523Y-140009547D01*
X191273761Y-139971452D01*
X191321380Y-139895261D01*
X191321380Y-139819071D01*
X191273761Y-138980976D02*
X191321380Y-138904785D01*
X191321380Y-138752404D01*
X191273761Y-138676214D01*
X191178523Y-138638119D01*
X191130904Y-138638119D01*
X191035666Y-138676214D01*
X190988047Y-138752404D01*
X190988047Y-138866690D01*
X190940428Y-138942880D01*
X190845190Y-138980976D01*
X190797571Y-138980976D01*
X190702333Y-138942880D01*
X190654714Y-138866690D01*
X190654714Y-138752404D01*
X190702333Y-138676214D01*
X191273761Y-137990500D02*
X191321380Y-138066690D01*
X191321380Y-138219071D01*
X191273761Y-138295261D01*
X191178523Y-138333357D01*
X190797571Y-138333357D01*
X190702333Y-138295261D01*
X190654714Y-138219071D01*
X190654714Y-138066690D01*
X190702333Y-137990500D01*
X190797571Y-137952404D01*
X190892809Y-137952404D01*
X190988047Y-138333357D01*
X190654714Y-137609547D02*
X191321380Y-137609547D01*
X190749952Y-137609547D02*
X190702333Y-137571452D01*
X190654714Y-137495261D01*
X190654714Y-137380976D01*
X190702333Y-137304785D01*
X190797571Y-137266690D01*
X191321380Y-137266690D01*
X191273761Y-136923833D02*
X191321380Y-136847642D01*
X191321380Y-136695261D01*
X191273761Y-136619071D01*
X191178523Y-136580976D01*
X191130904Y-136580976D01*
X191035666Y-136619071D01*
X190988047Y-136695261D01*
X190988047Y-136809547D01*
X190940428Y-136885738D01*
X190845190Y-136923833D01*
X190797571Y-136923833D01*
X190702333Y-136885738D01*
X190654714Y-136809547D01*
X190654714Y-136695261D01*
X190702333Y-136619071D01*
X191321380Y-136123833D02*
X191273761Y-136200023D01*
X191226142Y-136238119D01*
X191130904Y-136276214D01*
X190845190Y-136276214D01*
X190749952Y-136238119D01*
X190702333Y-136200023D01*
X190654714Y-136123833D01*
X190654714Y-136009547D01*
X190702333Y-135933357D01*
X190749952Y-135895261D01*
X190845190Y-135857166D01*
X191130904Y-135857166D01*
X191226142Y-135895261D01*
X191273761Y-135933357D01*
X191321380Y-136009547D01*
X191321380Y-136123833D01*
X191321380Y-135514309D02*
X190654714Y-135514309D01*
X190845190Y-135514309D02*
X190749952Y-135476214D01*
X190702333Y-135438119D01*
X190654714Y-135361928D01*
X190654714Y-135285738D01*
X190654714Y-134066690D02*
X191321380Y-134066690D01*
X190654714Y-134409547D02*
X191178523Y-134409547D01*
X191273761Y-134371452D01*
X191321380Y-134295261D01*
X191321380Y-134180976D01*
X191273761Y-134104785D01*
X191226142Y-134066690D01*
X191273761Y-133723833D02*
X191321380Y-133647642D01*
X191321380Y-133495261D01*
X191273761Y-133419071D01*
X191178523Y-133380976D01*
X191130904Y-133380976D01*
X191035666Y-133419071D01*
X190988047Y-133495261D01*
X190988047Y-133609547D01*
X190940428Y-133685738D01*
X190845190Y-133723833D01*
X190797571Y-133723833D01*
X190702333Y-133685738D01*
X190654714Y-133609547D01*
X190654714Y-133495261D01*
X190702333Y-133419071D01*
X191321380Y-133038119D02*
X190654714Y-133038119D01*
X190321380Y-133038119D02*
X190369000Y-133076214D01*
X190416619Y-133038119D01*
X190369000Y-133000023D01*
X190321380Y-133038119D01*
X190416619Y-133038119D01*
X190654714Y-132657166D02*
X191321380Y-132657166D01*
X190749952Y-132657166D02*
X190702333Y-132619071D01*
X190654714Y-132542880D01*
X190654714Y-132428595D01*
X190702333Y-132352404D01*
X190797571Y-132314309D01*
X191321380Y-132314309D01*
X190654714Y-131590500D02*
X191464238Y-131590500D01*
X191559476Y-131628595D01*
X191607095Y-131666690D01*
X191654714Y-131742880D01*
X191654714Y-131857166D01*
X191607095Y-131933357D01*
X191273761Y-131590500D02*
X191321380Y-131666690D01*
X191321380Y-131819071D01*
X191273761Y-131895261D01*
X191226142Y-131933357D01*
X191130904Y-131971452D01*
X190845190Y-131971452D01*
X190749952Y-131933357D01*
X190702333Y-131895261D01*
X190654714Y-131819071D01*
X190654714Y-131666690D01*
X190702333Y-131590500D01*
X191321380Y-130600023D02*
X190321380Y-130600023D01*
X190321380Y-130295261D01*
X190369000Y-130219071D01*
X190416619Y-130180976D01*
X190511857Y-130142880D01*
X190654714Y-130142880D01*
X190749952Y-130180976D01*
X190797571Y-130219071D01*
X190845190Y-130295261D01*
X190845190Y-130600023D01*
X191321380Y-129342880D02*
X190845190Y-129609547D01*
X191321380Y-129800023D02*
X190321380Y-129800023D01*
X190321380Y-129495261D01*
X190369000Y-129419071D01*
X190416619Y-129380976D01*
X190511857Y-129342880D01*
X190654714Y-129342880D01*
X190749952Y-129380976D01*
X190797571Y-129419071D01*
X190845190Y-129495261D01*
X190845190Y-129800023D01*
X190369000Y-128580976D02*
X190321380Y-128657166D01*
X190321380Y-128771452D01*
X190369000Y-128885738D01*
X190464238Y-128961928D01*
X190559476Y-129000023D01*
X190749952Y-129038119D01*
X190892809Y-129038119D01*
X191083285Y-129000023D01*
X191178523Y-128961928D01*
X191273761Y-128885738D01*
X191321380Y-128771452D01*
X191321380Y-128695261D01*
X191273761Y-128580976D01*
X191226142Y-128542880D01*
X190892809Y-128542880D01*
X190892809Y-128695261D01*
X190940428Y-128200023D02*
X190940428Y-127590500D01*
X190321380Y-127323833D02*
X191321380Y-127057166D01*
X190321380Y-126790500D01*
X191035666Y-126561928D02*
X191035666Y-126180976D01*
X191321380Y-126638119D02*
X190321380Y-126371452D01*
X191321380Y-126104785D01*
X191321380Y-125457166D02*
X191321380Y-125838119D01*
X190321380Y-125838119D01*
X190321380Y-125190500D02*
X191130904Y-125190500D01*
X191226142Y-125152404D01*
X191273761Y-125114309D01*
X191321380Y-125038119D01*
X191321380Y-124885738D01*
X191273761Y-124809547D01*
X191226142Y-124771452D01*
X191130904Y-124733357D01*
X190321380Y-124733357D01*
X190797571Y-124352404D02*
X190797571Y-124085738D01*
X191321380Y-123971452D02*
X191321380Y-124352404D01*
X190321380Y-124352404D01*
X190321380Y-123971452D01*
X191226142Y-123628595D02*
X191273761Y-123590500D01*
X191321380Y-123628595D01*
X191273761Y-123666690D01*
X191226142Y-123628595D01*
X191321380Y-123628595D01*
X191321380Y-122638119D02*
X190321380Y-122638119D01*
X190321380Y-122333357D01*
X190369000Y-122257166D01*
X190416619Y-122219071D01*
X190511857Y-122180976D01*
X190654714Y-122180976D01*
X190749952Y-122219071D01*
X190797571Y-122257166D01*
X190845190Y-122333357D01*
X190845190Y-122638119D01*
X191321380Y-121838119D02*
X190654714Y-121838119D01*
X190845190Y-121838119D02*
X190749952Y-121800023D01*
X190702333Y-121761928D01*
X190654714Y-121685738D01*
X190654714Y-121609547D01*
X191273761Y-121038119D02*
X191321380Y-121114309D01*
X191321380Y-121266690D01*
X191273761Y-121342880D01*
X191178523Y-121380976D01*
X190797571Y-121380976D01*
X190702333Y-121342880D01*
X190654714Y-121266690D01*
X190654714Y-121114309D01*
X190702333Y-121038119D01*
X190797571Y-121000023D01*
X190892809Y-121000023D01*
X190988047Y-121380976D01*
X191273761Y-120695261D02*
X191321380Y-120619071D01*
X191321380Y-120466690D01*
X191273761Y-120390500D01*
X191178523Y-120352404D01*
X191130904Y-120352404D01*
X191035666Y-120390500D01*
X190988047Y-120466690D01*
X190988047Y-120580976D01*
X190940428Y-120657166D01*
X190845190Y-120695261D01*
X190797571Y-120695261D01*
X190702333Y-120657166D01*
X190654714Y-120580976D01*
X190654714Y-120466690D01*
X190702333Y-120390500D01*
X191273761Y-120047642D02*
X191321380Y-119971452D01*
X191321380Y-119819071D01*
X191273761Y-119742880D01*
X191178523Y-119704785D01*
X191130904Y-119704785D01*
X191035666Y-119742880D01*
X190988047Y-119819071D01*
X190988047Y-119933357D01*
X190940428Y-120009547D01*
X190845190Y-120047642D01*
X190797571Y-120047642D01*
X190702333Y-120009547D01*
X190654714Y-119933357D01*
X190654714Y-119819071D01*
X190702333Y-119742880D01*
X191321380Y-118752404D02*
X190321380Y-118752404D01*
X190321380Y-118447642D01*
X190369000Y-118371452D01*
X190416619Y-118333357D01*
X190511857Y-118295261D01*
X190654714Y-118295261D01*
X190749952Y-118333357D01*
X190797571Y-118371452D01*
X190845190Y-118447642D01*
X190845190Y-118752404D01*
X191321380Y-117495261D02*
X190845190Y-117761928D01*
X191321380Y-117952404D02*
X190321380Y-117952404D01*
X190321380Y-117647642D01*
X190369000Y-117571452D01*
X190416619Y-117533357D01*
X190511857Y-117495261D01*
X190654714Y-117495261D01*
X190749952Y-117533357D01*
X190797571Y-117571452D01*
X190845190Y-117647642D01*
X190845190Y-117952404D01*
X190369000Y-116733357D02*
X190321380Y-116809547D01*
X190321380Y-116923833D01*
X190369000Y-117038119D01*
X190464238Y-117114309D01*
X190559476Y-117152404D01*
X190749952Y-117190500D01*
X190892809Y-117190500D01*
X191083285Y-117152404D01*
X191178523Y-117114309D01*
X191273761Y-117038119D01*
X191321380Y-116923833D01*
X191321380Y-116847642D01*
X191273761Y-116733357D01*
X191226142Y-116695261D01*
X190892809Y-116695261D01*
X190892809Y-116847642D01*
X191226142Y-116352404D02*
X191273761Y-116314309D01*
X191321380Y-116352404D01*
X191273761Y-116390500D01*
X191226142Y-116352404D01*
X191321380Y-116352404D01*
X192066619Y-145038119D02*
X192019000Y-145000023D01*
X191971380Y-144923833D01*
X191971380Y-144733357D01*
X192019000Y-144657166D01*
X192066619Y-144619071D01*
X192161857Y-144580976D01*
X192257095Y-144580976D01*
X192399952Y-144619071D01*
X192971380Y-145076214D01*
X192971380Y-144580976D01*
X192876142Y-144238119D02*
X192923761Y-144200023D01*
X192971380Y-144238119D01*
X192923761Y-144276214D01*
X192876142Y-144238119D01*
X192971380Y-144238119D01*
X192923761Y-143285738D02*
X192971380Y-143171452D01*
X192971380Y-142980976D01*
X192923761Y-142904785D01*
X192876142Y-142866690D01*
X192780904Y-142828595D01*
X192685666Y-142828595D01*
X192590428Y-142866690D01*
X192542809Y-142904785D01*
X192495190Y-142980976D01*
X192447571Y-143133357D01*
X192399952Y-143209547D01*
X192352333Y-143247642D01*
X192257095Y-143285738D01*
X192161857Y-143285738D01*
X192066619Y-143247642D01*
X192019000Y-143209547D01*
X191971380Y-143133357D01*
X191971380Y-142942880D01*
X192019000Y-142828595D01*
X192923761Y-142180976D02*
X192971380Y-142257166D01*
X192971380Y-142409547D01*
X192923761Y-142485738D01*
X192828523Y-142523833D01*
X192447571Y-142523833D01*
X192352333Y-142485738D01*
X192304714Y-142409547D01*
X192304714Y-142257166D01*
X192352333Y-142180976D01*
X192447571Y-142142880D01*
X192542809Y-142142880D01*
X192638047Y-142523833D01*
X192304714Y-141914309D02*
X192304714Y-141609547D01*
X191971380Y-141800023D02*
X192828523Y-141800023D01*
X192923761Y-141761928D01*
X192971380Y-141685738D01*
X192971380Y-141609547D01*
X192971380Y-140733357D02*
X191971380Y-140733357D01*
X192352333Y-140733357D02*
X192304714Y-140657166D01*
X192304714Y-140504785D01*
X192352333Y-140428595D01*
X192399952Y-140390500D01*
X192495190Y-140352404D01*
X192780904Y-140352404D01*
X192876142Y-140390500D01*
X192923761Y-140428595D01*
X192971380Y-140504785D01*
X192971380Y-140657166D01*
X192923761Y-140733357D01*
X192971380Y-140009547D02*
X192304714Y-140009547D01*
X191971380Y-140009547D02*
X192019000Y-140047642D01*
X192066619Y-140009547D01*
X192019000Y-139971452D01*
X191971380Y-140009547D01*
X192066619Y-140009547D01*
X192304714Y-139628595D02*
X192971380Y-139628595D01*
X192399952Y-139628595D02*
X192352333Y-139590500D01*
X192304714Y-139514309D01*
X192304714Y-139400023D01*
X192352333Y-139323833D01*
X192447571Y-139285738D01*
X192971380Y-139285738D01*
X192971380Y-138561928D02*
X192447571Y-138561928D01*
X192352333Y-138600023D01*
X192304714Y-138676214D01*
X192304714Y-138828595D01*
X192352333Y-138904785D01*
X192923761Y-138561928D02*
X192971380Y-138638119D01*
X192971380Y-138828595D01*
X192923761Y-138904785D01*
X192828523Y-138942880D01*
X192733285Y-138942880D01*
X192638047Y-138904785D01*
X192590428Y-138828595D01*
X192590428Y-138638119D01*
X192542809Y-138561928D01*
X192971380Y-138180976D02*
X192304714Y-138180976D01*
X192495190Y-138180976D02*
X192399952Y-138142880D01*
X192352333Y-138104785D01*
X192304714Y-138028595D01*
X192304714Y-137952404D01*
X192304714Y-137761928D02*
X192971380Y-137571452D01*
X192304714Y-137380976D02*
X192971380Y-137571452D01*
X193209476Y-137647642D01*
X193257095Y-137685738D01*
X193304714Y-137761928D01*
X192971380Y-136466690D02*
X192304714Y-136466690D01*
X191971380Y-136466690D02*
X192019000Y-136504785D01*
X192066619Y-136466690D01*
X192019000Y-136428595D01*
X191971380Y-136466690D01*
X192066619Y-136466690D01*
X192304714Y-136085738D02*
X192971380Y-136085738D01*
X192399952Y-136085738D02*
X192352333Y-136047642D01*
X192304714Y-135971452D01*
X192304714Y-135857166D01*
X192352333Y-135780976D01*
X192447571Y-135742880D01*
X192971380Y-135742880D01*
X192923761Y-135400023D02*
X192971380Y-135323833D01*
X192971380Y-135171452D01*
X192923761Y-135095261D01*
X192828523Y-135057166D01*
X192780904Y-135057166D01*
X192685666Y-135095261D01*
X192638047Y-135171452D01*
X192638047Y-135285738D01*
X192590428Y-135361928D01*
X192495190Y-135400023D01*
X192447571Y-135400023D01*
X192352333Y-135361928D01*
X192304714Y-135285738D01*
X192304714Y-135171452D01*
X192352333Y-135095261D01*
X192304714Y-134828595D02*
X192304714Y-134523833D01*
X191971380Y-134714309D02*
X192828523Y-134714309D01*
X192923761Y-134676214D01*
X192971380Y-134600023D01*
X192971380Y-134523833D01*
X192971380Y-133914309D02*
X192447571Y-133914309D01*
X192352333Y-133952404D01*
X192304714Y-134028595D01*
X192304714Y-134180976D01*
X192352333Y-134257166D01*
X192923761Y-133914309D02*
X192971380Y-133990500D01*
X192971380Y-134180976D01*
X192923761Y-134257166D01*
X192828523Y-134295261D01*
X192733285Y-134295261D01*
X192638047Y-134257166D01*
X192590428Y-134180976D01*
X192590428Y-133990500D01*
X192542809Y-133914309D01*
X192304714Y-133533357D02*
X192971380Y-133533357D01*
X192399952Y-133533357D02*
X192352333Y-133495261D01*
X192304714Y-133419071D01*
X192304714Y-133304785D01*
X192352333Y-133228595D01*
X192447571Y-133190500D01*
X192971380Y-133190500D01*
X192923761Y-132466690D02*
X192971380Y-132542880D01*
X192971380Y-132695261D01*
X192923761Y-132771452D01*
X192876142Y-132809547D01*
X192780904Y-132847642D01*
X192495190Y-132847642D01*
X192399952Y-132809547D01*
X192352333Y-132771452D01*
X192304714Y-132695261D01*
X192304714Y-132542880D01*
X192352333Y-132466690D01*
X192923761Y-131819071D02*
X192971380Y-131895261D01*
X192971380Y-132047642D01*
X192923761Y-132123833D01*
X192828523Y-132161928D01*
X192447571Y-132161928D01*
X192352333Y-132123833D01*
X192304714Y-132047642D01*
X192304714Y-131895261D01*
X192352333Y-131819071D01*
X192447571Y-131780976D01*
X192542809Y-131780976D01*
X192638047Y-132161928D01*
X192304714Y-130485738D02*
X192971380Y-130485738D01*
X192304714Y-130828595D02*
X192828523Y-130828595D01*
X192923761Y-130790500D01*
X192971380Y-130714309D01*
X192971380Y-130600023D01*
X192923761Y-130523833D01*
X192876142Y-130485738D01*
X192923761Y-130142880D02*
X192971380Y-130066690D01*
X192971380Y-129914309D01*
X192923761Y-129838119D01*
X192828523Y-129800023D01*
X192780904Y-129800023D01*
X192685666Y-129838119D01*
X192638047Y-129914309D01*
X192638047Y-130028595D01*
X192590428Y-130104785D01*
X192495190Y-130142880D01*
X192447571Y-130142880D01*
X192352333Y-130104785D01*
X192304714Y-130028595D01*
X192304714Y-129914309D01*
X192352333Y-129838119D01*
X192971380Y-129457166D02*
X192304714Y-129457166D01*
X191971380Y-129457166D02*
X192019000Y-129495261D01*
X192066619Y-129457166D01*
X192019000Y-129419071D01*
X191971380Y-129457166D01*
X192066619Y-129457166D01*
X192304714Y-129076214D02*
X192971380Y-129076214D01*
X192399952Y-129076214D02*
X192352333Y-129038119D01*
X192304714Y-128961928D01*
X192304714Y-128847642D01*
X192352333Y-128771452D01*
X192447571Y-128733357D01*
X192971380Y-128733357D01*
X192304714Y-128009547D02*
X193114238Y-128009547D01*
X193209476Y-128047642D01*
X193257095Y-128085738D01*
X193304714Y-128161928D01*
X193304714Y-128276214D01*
X193257095Y-128352404D01*
X192923761Y-128009547D02*
X192971380Y-128085738D01*
X192971380Y-128238119D01*
X192923761Y-128314309D01*
X192876142Y-128352404D01*
X192780904Y-128390500D01*
X192495190Y-128390500D01*
X192399952Y-128352404D01*
X192352333Y-128314309D01*
X192304714Y-128238119D01*
X192304714Y-128085738D01*
X192352333Y-128009547D01*
X192971380Y-127019071D02*
X191971380Y-127019071D01*
X191971380Y-126714309D01*
X192019000Y-126638119D01*
X192066619Y-126600023D01*
X192161857Y-126561928D01*
X192304714Y-126561928D01*
X192399952Y-126600023D01*
X192447571Y-126638119D01*
X192495190Y-126714309D01*
X192495190Y-127019071D01*
X192971380Y-125761928D02*
X192495190Y-126028595D01*
X192971380Y-126219071D02*
X191971380Y-126219071D01*
X191971380Y-125914309D01*
X192019000Y-125838119D01*
X192066619Y-125800023D01*
X192161857Y-125761928D01*
X192304714Y-125761928D01*
X192399952Y-125800023D01*
X192447571Y-125838119D01*
X192495190Y-125914309D01*
X192495190Y-126219071D01*
X192019000Y-125000023D02*
X191971380Y-125076214D01*
X191971380Y-125190500D01*
X192019000Y-125304785D01*
X192114238Y-125380976D01*
X192209476Y-125419071D01*
X192399952Y-125457166D01*
X192542809Y-125457166D01*
X192733285Y-125419071D01*
X192828523Y-125380976D01*
X192923761Y-125304785D01*
X192971380Y-125190500D01*
X192971380Y-125114309D01*
X192923761Y-125000023D01*
X192876142Y-124961928D01*
X192542809Y-124961928D01*
X192542809Y-125114309D01*
X192590428Y-124619071D02*
X192590428Y-124009547D01*
X191971380Y-123742880D02*
X192971380Y-123476214D01*
X191971380Y-123209547D01*
X192685666Y-122980976D02*
X192685666Y-122600023D01*
X192971380Y-123057166D02*
X191971380Y-122790500D01*
X192971380Y-122523833D01*
X192971380Y-121876214D02*
X192971380Y-122257166D01*
X191971380Y-122257166D01*
X191971380Y-121609547D02*
X192780904Y-121609547D01*
X192876142Y-121571452D01*
X192923761Y-121533357D01*
X192971380Y-121457166D01*
X192971380Y-121304785D01*
X192923761Y-121228595D01*
X192876142Y-121190500D01*
X192780904Y-121152404D01*
X191971380Y-121152404D01*
X192447571Y-120771452D02*
X192447571Y-120504785D01*
X192971380Y-120390500D02*
X192971380Y-120771452D01*
X191971380Y-120771452D01*
X191971380Y-120390500D01*
X192876142Y-120047642D02*
X192923761Y-120009547D01*
X192971380Y-120047642D01*
X192923761Y-120085738D01*
X192876142Y-120047642D01*
X192971380Y-120047642D01*
X192971380Y-119057166D02*
X191971380Y-119057166D01*
X191971380Y-118752404D01*
X192019000Y-118676214D01*
X192066619Y-118638119D01*
X192161857Y-118600023D01*
X192304714Y-118600023D01*
X192399952Y-118638119D01*
X192447571Y-118676214D01*
X192495190Y-118752404D01*
X192495190Y-119057166D01*
X192971380Y-118257166D02*
X192304714Y-118257166D01*
X192495190Y-118257166D02*
X192399952Y-118219071D01*
X192352333Y-118180976D01*
X192304714Y-118104785D01*
X192304714Y-118028595D01*
X192923761Y-117457166D02*
X192971380Y-117533357D01*
X192971380Y-117685738D01*
X192923761Y-117761928D01*
X192828523Y-117800023D01*
X192447571Y-117800023D01*
X192352333Y-117761928D01*
X192304714Y-117685738D01*
X192304714Y-117533357D01*
X192352333Y-117457166D01*
X192447571Y-117419071D01*
X192542809Y-117419071D01*
X192638047Y-117800023D01*
X192923761Y-117114309D02*
X192971380Y-117038119D01*
X192971380Y-116885738D01*
X192923761Y-116809547D01*
X192828523Y-116771452D01*
X192780904Y-116771452D01*
X192685666Y-116809547D01*
X192638047Y-116885738D01*
X192638047Y-117000023D01*
X192590428Y-117076214D01*
X192495190Y-117114309D01*
X192447571Y-117114309D01*
X192352333Y-117076214D01*
X192304714Y-117000023D01*
X192304714Y-116885738D01*
X192352333Y-116809547D01*
X192923761Y-116466690D02*
X192971380Y-116390500D01*
X192971380Y-116238119D01*
X192923761Y-116161928D01*
X192828523Y-116123833D01*
X192780904Y-116123833D01*
X192685666Y-116161928D01*
X192638047Y-116238119D01*
X192638047Y-116352404D01*
X192590428Y-116428595D01*
X192495190Y-116466690D01*
X192447571Y-116466690D01*
X192352333Y-116428595D01*
X192304714Y-116352404D01*
X192304714Y-116238119D01*
X192352333Y-116161928D01*
X192971380Y-115171452D02*
X191971380Y-115171452D01*
X191971380Y-114866690D01*
X192019000Y-114790500D01*
X192066619Y-114752404D01*
X192161857Y-114714309D01*
X192304714Y-114714309D01*
X192399952Y-114752404D01*
X192447571Y-114790500D01*
X192495190Y-114866690D01*
X192495190Y-115171452D01*
X192971380Y-113914309D02*
X192495190Y-114180976D01*
X192971380Y-114371452D02*
X191971380Y-114371452D01*
X191971380Y-114066690D01*
X192019000Y-113990500D01*
X192066619Y-113952404D01*
X192161857Y-113914309D01*
X192304714Y-113914309D01*
X192399952Y-113952404D01*
X192447571Y-113990500D01*
X192495190Y-114066690D01*
X192495190Y-114371452D01*
X192019000Y-113152404D02*
X191971380Y-113228595D01*
X191971380Y-113342880D01*
X192019000Y-113457166D01*
X192114238Y-113533357D01*
X192209476Y-113571452D01*
X192399952Y-113609547D01*
X192542809Y-113609547D01*
X192733285Y-113571452D01*
X192828523Y-113533357D01*
X192923761Y-113457166D01*
X192971380Y-113342880D01*
X192971380Y-113266690D01*
X192923761Y-113152404D01*
X192876142Y-113114309D01*
X192542809Y-113114309D01*
X192542809Y-113266690D01*
X192876142Y-112771452D02*
X192923761Y-112733357D01*
X192971380Y-112771452D01*
X192923761Y-112809547D01*
X192876142Y-112771452D01*
X192971380Y-112771452D01*
X193621380Y-145076214D02*
X193621380Y-144580976D01*
X194002333Y-144847642D01*
X194002333Y-144733357D01*
X194049952Y-144657166D01*
X194097571Y-144619071D01*
X194192809Y-144580976D01*
X194430904Y-144580976D01*
X194526142Y-144619071D01*
X194573761Y-144657166D01*
X194621380Y-144733357D01*
X194621380Y-144961928D01*
X194573761Y-145038119D01*
X194526142Y-145076214D01*
X194526142Y-144238119D02*
X194573761Y-144200023D01*
X194621380Y-144238119D01*
X194573761Y-144276214D01*
X194526142Y-144238119D01*
X194621380Y-144238119D01*
X194573761Y-143285738D02*
X194621380Y-143171452D01*
X194621380Y-142980976D01*
X194573761Y-142904785D01*
X194526142Y-142866690D01*
X194430904Y-142828595D01*
X194335666Y-142828595D01*
X194240428Y-142866690D01*
X194192809Y-142904785D01*
X194145190Y-142980976D01*
X194097571Y-143133357D01*
X194049952Y-143209547D01*
X194002333Y-143247642D01*
X193907095Y-143285738D01*
X193811857Y-143285738D01*
X193716619Y-143247642D01*
X193669000Y-143209547D01*
X193621380Y-143133357D01*
X193621380Y-142942880D01*
X193669000Y-142828595D01*
X194573761Y-142180976D02*
X194621380Y-142257166D01*
X194621380Y-142409547D01*
X194573761Y-142485738D01*
X194478523Y-142523833D01*
X194097571Y-142523833D01*
X194002333Y-142485738D01*
X193954714Y-142409547D01*
X193954714Y-142257166D01*
X194002333Y-142180976D01*
X194097571Y-142142880D01*
X194192809Y-142142880D01*
X194288047Y-142523833D01*
X193954714Y-141914309D02*
X193954714Y-141609547D01*
X193621380Y-141800023D02*
X194478523Y-141800023D01*
X194573761Y-141761928D01*
X194621380Y-141685738D01*
X194621380Y-141609547D01*
X194621380Y-140733357D02*
X193621380Y-140733357D01*
X194002333Y-140733357D02*
X193954714Y-140657166D01*
X193954714Y-140504785D01*
X194002333Y-140428595D01*
X194049952Y-140390500D01*
X194145190Y-140352404D01*
X194430904Y-140352404D01*
X194526142Y-140390500D01*
X194573761Y-140428595D01*
X194621380Y-140504785D01*
X194621380Y-140657166D01*
X194573761Y-140733357D01*
X194621380Y-140009547D02*
X193954714Y-140009547D01*
X193621380Y-140009547D02*
X193669000Y-140047642D01*
X193716619Y-140009547D01*
X193669000Y-139971452D01*
X193621380Y-140009547D01*
X193716619Y-140009547D01*
X193954714Y-139628595D02*
X194621380Y-139628595D01*
X194049952Y-139628595D02*
X194002333Y-139590500D01*
X193954714Y-139514309D01*
X193954714Y-139400023D01*
X194002333Y-139323833D01*
X194097571Y-139285738D01*
X194621380Y-139285738D01*
X194621380Y-138561928D02*
X194097571Y-138561928D01*
X194002333Y-138600023D01*
X193954714Y-138676214D01*
X193954714Y-138828595D01*
X194002333Y-138904785D01*
X194573761Y-138561928D02*
X194621380Y-138638119D01*
X194621380Y-138828595D01*
X194573761Y-138904785D01*
X194478523Y-138942880D01*
X194383285Y-138942880D01*
X194288047Y-138904785D01*
X194240428Y-138828595D01*
X194240428Y-138638119D01*
X194192809Y-138561928D01*
X194621380Y-138180976D02*
X193954714Y-138180976D01*
X194145190Y-138180976D02*
X194049952Y-138142880D01*
X194002333Y-138104785D01*
X193954714Y-138028595D01*
X193954714Y-137952404D01*
X193954714Y-137761928D02*
X194621380Y-137571452D01*
X193954714Y-137380976D02*
X194621380Y-137571452D01*
X194859476Y-137647642D01*
X194907095Y-137685738D01*
X194954714Y-137761928D01*
X194573761Y-136504785D02*
X194621380Y-136428595D01*
X194621380Y-136276214D01*
X194573761Y-136200023D01*
X194478523Y-136161928D01*
X194430904Y-136161928D01*
X194335666Y-136200023D01*
X194288047Y-136276214D01*
X194288047Y-136390500D01*
X194240428Y-136466690D01*
X194145190Y-136504785D01*
X194097571Y-136504785D01*
X194002333Y-136466690D01*
X193954714Y-136390500D01*
X193954714Y-136276214D01*
X194002333Y-136200023D01*
X194621380Y-135704785D02*
X194573761Y-135780976D01*
X194526142Y-135819071D01*
X194430904Y-135857166D01*
X194145190Y-135857166D01*
X194049952Y-135819071D01*
X194002333Y-135780976D01*
X193954714Y-135704785D01*
X193954714Y-135590500D01*
X194002333Y-135514309D01*
X194049952Y-135476214D01*
X194145190Y-135438119D01*
X194430904Y-135438119D01*
X194526142Y-135476214D01*
X194573761Y-135514309D01*
X194621380Y-135590500D01*
X194621380Y-135704785D01*
X193954714Y-134752404D02*
X194621380Y-134752404D01*
X193954714Y-135095261D02*
X194478523Y-135095261D01*
X194573761Y-135057166D01*
X194621380Y-134980976D01*
X194621380Y-134866690D01*
X194573761Y-134790500D01*
X194526142Y-134752404D01*
X194621380Y-134371452D02*
X193954714Y-134371452D01*
X194145190Y-134371452D02*
X194049952Y-134333357D01*
X194002333Y-134295261D01*
X193954714Y-134219071D01*
X193954714Y-134142880D01*
X194573761Y-133533357D02*
X194621380Y-133609547D01*
X194621380Y-133761928D01*
X194573761Y-133838119D01*
X194526142Y-133876214D01*
X194430904Y-133914309D01*
X194145190Y-133914309D01*
X194049952Y-133876214D01*
X194002333Y-133838119D01*
X193954714Y-133761928D01*
X193954714Y-133609547D01*
X194002333Y-133533357D01*
X194573761Y-132885738D02*
X194621380Y-132961928D01*
X194621380Y-133114309D01*
X194573761Y-133190500D01*
X194478523Y-133228595D01*
X194097571Y-133228595D01*
X194002333Y-133190500D01*
X193954714Y-133114309D01*
X193954714Y-132961928D01*
X194002333Y-132885738D01*
X194097571Y-132847642D01*
X194192809Y-132847642D01*
X194288047Y-133228595D01*
X193954714Y-131552404D02*
X194621380Y-131552404D01*
X193954714Y-131895261D02*
X194478523Y-131895261D01*
X194573761Y-131857166D01*
X194621380Y-131780976D01*
X194621380Y-131666690D01*
X194573761Y-131590500D01*
X194526142Y-131552404D01*
X194573761Y-131209547D02*
X194621380Y-131133357D01*
X194621380Y-130980976D01*
X194573761Y-130904785D01*
X194478523Y-130866690D01*
X194430904Y-130866690D01*
X194335666Y-130904785D01*
X194288047Y-130980976D01*
X194288047Y-131095261D01*
X194240428Y-131171452D01*
X194145190Y-131209547D01*
X194097571Y-131209547D01*
X194002333Y-131171452D01*
X193954714Y-131095261D01*
X193954714Y-130980976D01*
X194002333Y-130904785D01*
X194621380Y-130523833D02*
X193954714Y-130523833D01*
X193621380Y-130523833D02*
X193669000Y-130561928D01*
X193716619Y-130523833D01*
X193669000Y-130485738D01*
X193621380Y-130523833D01*
X193716619Y-130523833D01*
X193954714Y-130142880D02*
X194621380Y-130142880D01*
X194049952Y-130142880D02*
X194002333Y-130104785D01*
X193954714Y-130028595D01*
X193954714Y-129914309D01*
X194002333Y-129838119D01*
X194097571Y-129800023D01*
X194621380Y-129800023D01*
X193954714Y-129076214D02*
X194764238Y-129076214D01*
X194859476Y-129114309D01*
X194907095Y-129152404D01*
X194954714Y-129228595D01*
X194954714Y-129342880D01*
X194907095Y-129419071D01*
X194573761Y-129076214D02*
X194621380Y-129152404D01*
X194621380Y-129304785D01*
X194573761Y-129380976D01*
X194526142Y-129419071D01*
X194430904Y-129457166D01*
X194145190Y-129457166D01*
X194049952Y-129419071D01*
X194002333Y-129380976D01*
X193954714Y-129304785D01*
X193954714Y-129152404D01*
X194002333Y-129076214D01*
X194621380Y-128085738D02*
X193621380Y-128085738D01*
X193621380Y-127780976D01*
X193669000Y-127704785D01*
X193716619Y-127666690D01*
X193811857Y-127628595D01*
X193954714Y-127628595D01*
X194049952Y-127666690D01*
X194097571Y-127704785D01*
X194145190Y-127780976D01*
X194145190Y-128085738D01*
X194621380Y-126828595D02*
X194145190Y-127095261D01*
X194621380Y-127285738D02*
X193621380Y-127285738D01*
X193621380Y-126980976D01*
X193669000Y-126904785D01*
X193716619Y-126866690D01*
X193811857Y-126828595D01*
X193954714Y-126828595D01*
X194049952Y-126866690D01*
X194097571Y-126904785D01*
X194145190Y-126980976D01*
X194145190Y-127285738D01*
X193669000Y-126066690D02*
X193621380Y-126142880D01*
X193621380Y-126257166D01*
X193669000Y-126371452D01*
X193764238Y-126447642D01*
X193859476Y-126485738D01*
X194049952Y-126523833D01*
X194192809Y-126523833D01*
X194383285Y-126485738D01*
X194478523Y-126447642D01*
X194573761Y-126371452D01*
X194621380Y-126257166D01*
X194621380Y-126180976D01*
X194573761Y-126066690D01*
X194526142Y-126028595D01*
X194192809Y-126028595D01*
X194192809Y-126180976D01*
X194240428Y-125685738D02*
X194240428Y-125076214D01*
X193621380Y-124809547D02*
X194621380Y-124542880D01*
X193621380Y-124276214D01*
X194335666Y-124047642D02*
X194335666Y-123666690D01*
X194621380Y-124123833D02*
X193621380Y-123857166D01*
X194621380Y-123590500D01*
X194621380Y-122942880D02*
X194621380Y-123323833D01*
X193621380Y-123323833D01*
X193621380Y-122676214D02*
X194430904Y-122676214D01*
X194526142Y-122638119D01*
X194573761Y-122600023D01*
X194621380Y-122523833D01*
X194621380Y-122371452D01*
X194573761Y-122295261D01*
X194526142Y-122257166D01*
X194430904Y-122219071D01*
X193621380Y-122219071D01*
X194097571Y-121838119D02*
X194097571Y-121571452D01*
X194621380Y-121457166D02*
X194621380Y-121838119D01*
X193621380Y-121838119D01*
X193621380Y-121457166D01*
X194526142Y-121114309D02*
X194573761Y-121076214D01*
X194621380Y-121114309D01*
X194573761Y-121152404D01*
X194526142Y-121114309D01*
X194621380Y-121114309D01*
X194621380Y-120123833D02*
X193621380Y-120123833D01*
X193621380Y-119819071D01*
X193669000Y-119742880D01*
X193716619Y-119704785D01*
X193811857Y-119666690D01*
X193954714Y-119666690D01*
X194049952Y-119704785D01*
X194097571Y-119742880D01*
X194145190Y-119819071D01*
X194145190Y-120123833D01*
X194621380Y-119323833D02*
X193954714Y-119323833D01*
X194145190Y-119323833D02*
X194049952Y-119285738D01*
X194002333Y-119247642D01*
X193954714Y-119171452D01*
X193954714Y-119095261D01*
X194573761Y-118523833D02*
X194621380Y-118600023D01*
X194621380Y-118752404D01*
X194573761Y-118828595D01*
X194478523Y-118866690D01*
X194097571Y-118866690D01*
X194002333Y-118828595D01*
X193954714Y-118752404D01*
X193954714Y-118600023D01*
X194002333Y-118523833D01*
X194097571Y-118485738D01*
X194192809Y-118485738D01*
X194288047Y-118866690D01*
X194573761Y-118180976D02*
X194621380Y-118104785D01*
X194621380Y-117952404D01*
X194573761Y-117876214D01*
X194478523Y-117838119D01*
X194430904Y-117838119D01*
X194335666Y-117876214D01*
X194288047Y-117952404D01*
X194288047Y-118066690D01*
X194240428Y-118142880D01*
X194145190Y-118180976D01*
X194097571Y-118180976D01*
X194002333Y-118142880D01*
X193954714Y-118066690D01*
X193954714Y-117952404D01*
X194002333Y-117876214D01*
X194573761Y-117533357D02*
X194621380Y-117457166D01*
X194621380Y-117304785D01*
X194573761Y-117228595D01*
X194478523Y-117190500D01*
X194430904Y-117190500D01*
X194335666Y-117228595D01*
X194288047Y-117304785D01*
X194288047Y-117419071D01*
X194240428Y-117495261D01*
X194145190Y-117533357D01*
X194097571Y-117533357D01*
X194002333Y-117495261D01*
X193954714Y-117419071D01*
X193954714Y-117304785D01*
X194002333Y-117228595D01*
X194621380Y-116238119D02*
X193621380Y-116238119D01*
X193621380Y-115933357D01*
X193669000Y-115857166D01*
X193716619Y-115819071D01*
X193811857Y-115780976D01*
X193954714Y-115780976D01*
X194049952Y-115819071D01*
X194097571Y-115857166D01*
X194145190Y-115933357D01*
X194145190Y-116238119D01*
X194621380Y-114980976D02*
X194145190Y-115247642D01*
X194621380Y-115438119D02*
X193621380Y-115438119D01*
X193621380Y-115133357D01*
X193669000Y-115057166D01*
X193716619Y-115019071D01*
X193811857Y-114980976D01*
X193954714Y-114980976D01*
X194049952Y-115019071D01*
X194097571Y-115057166D01*
X194145190Y-115133357D01*
X194145190Y-115438119D01*
X193669000Y-114219071D02*
X193621380Y-114295261D01*
X193621380Y-114409547D01*
X193669000Y-114523833D01*
X193764238Y-114600023D01*
X193859476Y-114638119D01*
X194049952Y-114676214D01*
X194192809Y-114676214D01*
X194383285Y-114638119D01*
X194478523Y-114600023D01*
X194573761Y-114523833D01*
X194621380Y-114409547D01*
X194621380Y-114333357D01*
X194573761Y-114219071D01*
X194526142Y-114180976D01*
X194192809Y-114180976D01*
X194192809Y-114333357D01*
X194526142Y-113838119D02*
X194573761Y-113800023D01*
X194621380Y-113838119D01*
X194573761Y-113876214D01*
X194526142Y-113838119D01*
X194621380Y-113838119D01*
X195604714Y-144657166D02*
X196271380Y-144657166D01*
X195223761Y-144847642D02*
X195938047Y-145038119D01*
X195938047Y-144542880D01*
X196176142Y-144238119D02*
X196223761Y-144200023D01*
X196271380Y-144238119D01*
X196223761Y-144276214D01*
X196176142Y-144238119D01*
X196271380Y-144238119D01*
X196223761Y-143285738D02*
X196271380Y-143171452D01*
X196271380Y-142980976D01*
X196223761Y-142904785D01*
X196176142Y-142866690D01*
X196080904Y-142828595D01*
X195985666Y-142828595D01*
X195890428Y-142866690D01*
X195842809Y-142904785D01*
X195795190Y-142980976D01*
X195747571Y-143133357D01*
X195699952Y-143209547D01*
X195652333Y-143247642D01*
X195557095Y-143285738D01*
X195461857Y-143285738D01*
X195366619Y-143247642D01*
X195319000Y-143209547D01*
X195271380Y-143133357D01*
X195271380Y-142942880D01*
X195319000Y-142828595D01*
X196223761Y-142180976D02*
X196271380Y-142257166D01*
X196271380Y-142409547D01*
X196223761Y-142485738D01*
X196128523Y-142523833D01*
X195747571Y-142523833D01*
X195652333Y-142485738D01*
X195604714Y-142409547D01*
X195604714Y-142257166D01*
X195652333Y-142180976D01*
X195747571Y-142142880D01*
X195842809Y-142142880D01*
X195938047Y-142523833D01*
X195604714Y-141914309D02*
X195604714Y-141609547D01*
X195271380Y-141800023D02*
X196128523Y-141800023D01*
X196223761Y-141761928D01*
X196271380Y-141685738D01*
X196271380Y-141609547D01*
X196271380Y-140733357D02*
X195271380Y-140733357D01*
X195652333Y-140733357D02*
X195604714Y-140657166D01*
X195604714Y-140504785D01*
X195652333Y-140428595D01*
X195699952Y-140390500D01*
X195795190Y-140352404D01*
X196080904Y-140352404D01*
X196176142Y-140390500D01*
X196223761Y-140428595D01*
X196271380Y-140504785D01*
X196271380Y-140657166D01*
X196223761Y-140733357D01*
X196271380Y-140009547D02*
X195604714Y-140009547D01*
X195271380Y-140009547D02*
X195319000Y-140047642D01*
X195366619Y-140009547D01*
X195319000Y-139971452D01*
X195271380Y-140009547D01*
X195366619Y-140009547D01*
X195604714Y-139628595D02*
X196271380Y-139628595D01*
X195699952Y-139628595D02*
X195652333Y-139590500D01*
X195604714Y-139514309D01*
X195604714Y-139400023D01*
X195652333Y-139323833D01*
X195747571Y-139285738D01*
X196271380Y-139285738D01*
X196271380Y-138561928D02*
X195747571Y-138561928D01*
X195652333Y-138600023D01*
X195604714Y-138676214D01*
X195604714Y-138828595D01*
X195652333Y-138904785D01*
X196223761Y-138561928D02*
X196271380Y-138638119D01*
X196271380Y-138828595D01*
X196223761Y-138904785D01*
X196128523Y-138942880D01*
X196033285Y-138942880D01*
X195938047Y-138904785D01*
X195890428Y-138828595D01*
X195890428Y-138638119D01*
X195842809Y-138561928D01*
X196271380Y-138180976D02*
X195604714Y-138180976D01*
X195795190Y-138180976D02*
X195699952Y-138142880D01*
X195652333Y-138104785D01*
X195604714Y-138028595D01*
X195604714Y-137952404D01*
X195604714Y-137761928D02*
X196271380Y-137571452D01*
X195604714Y-137380976D02*
X196271380Y-137571452D01*
X196509476Y-137647642D01*
X196557095Y-137685738D01*
X196604714Y-137761928D01*
X196223761Y-136504785D02*
X196271380Y-136428595D01*
X196271380Y-136276214D01*
X196223761Y-136200023D01*
X196128523Y-136161928D01*
X196080904Y-136161928D01*
X195985666Y-136200023D01*
X195938047Y-136276214D01*
X195938047Y-136390500D01*
X195890428Y-136466690D01*
X195795190Y-136504785D01*
X195747571Y-136504785D01*
X195652333Y-136466690D01*
X195604714Y-136390500D01*
X195604714Y-136276214D01*
X195652333Y-136200023D01*
X196223761Y-135514309D02*
X196271380Y-135590500D01*
X196271380Y-135742880D01*
X196223761Y-135819071D01*
X196128523Y-135857166D01*
X195747571Y-135857166D01*
X195652333Y-135819071D01*
X195604714Y-135742880D01*
X195604714Y-135590500D01*
X195652333Y-135514309D01*
X195747571Y-135476214D01*
X195842809Y-135476214D01*
X195938047Y-135857166D01*
X195604714Y-135247642D02*
X195604714Y-134942880D01*
X195271380Y-135133357D02*
X196128523Y-135133357D01*
X196223761Y-135095261D01*
X196271380Y-135019071D01*
X196271380Y-134942880D01*
X195604714Y-134180976D02*
X195604714Y-133876214D01*
X195271380Y-134066690D02*
X196128523Y-134066690D01*
X196223761Y-134028595D01*
X196271380Y-133952404D01*
X196271380Y-133876214D01*
X196223761Y-133304785D02*
X196271380Y-133380976D01*
X196271380Y-133533357D01*
X196223761Y-133609547D01*
X196128523Y-133647642D01*
X195747571Y-133647642D01*
X195652333Y-133609547D01*
X195604714Y-133533357D01*
X195604714Y-133380976D01*
X195652333Y-133304785D01*
X195747571Y-133266690D01*
X195842809Y-133266690D01*
X195938047Y-133647642D01*
X196271380Y-132923833D02*
X195604714Y-132923833D01*
X195699952Y-132923833D02*
X195652333Y-132885738D01*
X195604714Y-132809547D01*
X195604714Y-132695261D01*
X195652333Y-132619071D01*
X195747571Y-132580976D01*
X196271380Y-132580976D01*
X195747571Y-132580976D02*
X195652333Y-132542880D01*
X195604714Y-132466690D01*
X195604714Y-132352404D01*
X195652333Y-132276214D01*
X195747571Y-132238119D01*
X196271380Y-132238119D01*
X195604714Y-131857166D02*
X196604714Y-131857166D01*
X195652333Y-131857166D02*
X195604714Y-131780976D01*
X195604714Y-131628595D01*
X195652333Y-131552404D01*
X195699952Y-131514309D01*
X195795190Y-131476214D01*
X196080904Y-131476214D01*
X196176142Y-131514309D01*
X196223761Y-131552404D01*
X196271380Y-131628595D01*
X196271380Y-131780976D01*
X196223761Y-131857166D01*
X195604714Y-130180976D02*
X196271380Y-130180976D01*
X195604714Y-130523833D02*
X196128523Y-130523833D01*
X196223761Y-130485738D01*
X196271380Y-130409547D01*
X196271380Y-130295261D01*
X196223761Y-130219071D01*
X196176142Y-130180976D01*
X196223761Y-129838119D02*
X196271380Y-129761928D01*
X196271380Y-129609547D01*
X196223761Y-129533357D01*
X196128523Y-129495261D01*
X196080904Y-129495261D01*
X195985666Y-129533357D01*
X195938047Y-129609547D01*
X195938047Y-129723833D01*
X195890428Y-129800023D01*
X195795190Y-129838119D01*
X195747571Y-129838119D01*
X195652333Y-129800023D01*
X195604714Y-129723833D01*
X195604714Y-129609547D01*
X195652333Y-129533357D01*
X196271380Y-129152404D02*
X195604714Y-129152404D01*
X195271380Y-129152404D02*
X195319000Y-129190500D01*
X195366619Y-129152404D01*
X195319000Y-129114309D01*
X195271380Y-129152404D01*
X195366619Y-129152404D01*
X195604714Y-128771452D02*
X196271380Y-128771452D01*
X195699952Y-128771452D02*
X195652333Y-128733357D01*
X195604714Y-128657166D01*
X195604714Y-128542880D01*
X195652333Y-128466690D01*
X195747571Y-128428595D01*
X196271380Y-128428595D01*
X195604714Y-127704785D02*
X196414238Y-127704785D01*
X196509476Y-127742880D01*
X196557095Y-127780976D01*
X196604714Y-127857166D01*
X196604714Y-127971452D01*
X196557095Y-128047642D01*
X196223761Y-127704785D02*
X196271380Y-127780976D01*
X196271380Y-127933357D01*
X196223761Y-128009547D01*
X196176142Y-128047642D01*
X196080904Y-128085738D01*
X195795190Y-128085738D01*
X195699952Y-128047642D01*
X195652333Y-128009547D01*
X195604714Y-127933357D01*
X195604714Y-127780976D01*
X195652333Y-127704785D01*
X196271380Y-126714309D02*
X195271380Y-126714309D01*
X195271380Y-126409547D01*
X195319000Y-126333357D01*
X195366619Y-126295261D01*
X195461857Y-126257166D01*
X195604714Y-126257166D01*
X195699952Y-126295261D01*
X195747571Y-126333357D01*
X195795190Y-126409547D01*
X195795190Y-126714309D01*
X196271380Y-125457166D02*
X195795190Y-125723833D01*
X196271380Y-125914309D02*
X195271380Y-125914309D01*
X195271380Y-125609547D01*
X195319000Y-125533357D01*
X195366619Y-125495261D01*
X195461857Y-125457166D01*
X195604714Y-125457166D01*
X195699952Y-125495261D01*
X195747571Y-125533357D01*
X195795190Y-125609547D01*
X195795190Y-125914309D01*
X195319000Y-124695261D02*
X195271380Y-124771452D01*
X195271380Y-124885738D01*
X195319000Y-125000023D01*
X195414238Y-125076214D01*
X195509476Y-125114309D01*
X195699952Y-125152404D01*
X195842809Y-125152404D01*
X196033285Y-125114309D01*
X196128523Y-125076214D01*
X196223761Y-125000023D01*
X196271380Y-124885738D01*
X196271380Y-124809547D01*
X196223761Y-124695261D01*
X196176142Y-124657166D01*
X195842809Y-124657166D01*
X195842809Y-124809547D01*
X195890428Y-124314309D02*
X195890428Y-123704785D01*
X195271380Y-123438119D02*
X196271380Y-123171452D01*
X195271380Y-122904785D01*
X195985666Y-122676214D02*
X195985666Y-122295261D01*
X196271380Y-122752404D02*
X195271380Y-122485738D01*
X196271380Y-122219071D01*
X196271380Y-121571452D02*
X196271380Y-121952404D01*
X195271380Y-121952404D01*
X195271380Y-121304785D02*
X196080904Y-121304785D01*
X196176142Y-121266690D01*
X196223761Y-121228595D01*
X196271380Y-121152404D01*
X196271380Y-121000023D01*
X196223761Y-120923833D01*
X196176142Y-120885738D01*
X196080904Y-120847642D01*
X195271380Y-120847642D01*
X195747571Y-120466690D02*
X195747571Y-120200023D01*
X196271380Y-120085738D02*
X196271380Y-120466690D01*
X195271380Y-120466690D01*
X195271380Y-120085738D01*
X196176142Y-119742880D02*
X196223761Y-119704785D01*
X196271380Y-119742880D01*
X196223761Y-119780976D01*
X196176142Y-119742880D01*
X196271380Y-119742880D01*
X196271380Y-118752404D02*
X195271380Y-118752404D01*
X195271380Y-118447642D01*
X195319000Y-118371452D01*
X195366619Y-118333357D01*
X195461857Y-118295261D01*
X195604714Y-118295261D01*
X195699952Y-118333357D01*
X195747571Y-118371452D01*
X195795190Y-118447642D01*
X195795190Y-118752404D01*
X196271380Y-117952404D02*
X195604714Y-117952404D01*
X195795190Y-117952404D02*
X195699952Y-117914309D01*
X195652333Y-117876214D01*
X195604714Y-117800023D01*
X195604714Y-117723833D01*
X196223761Y-117152404D02*
X196271380Y-117228595D01*
X196271380Y-117380976D01*
X196223761Y-117457166D01*
X196128523Y-117495261D01*
X195747571Y-117495261D01*
X195652333Y-117457166D01*
X195604714Y-117380976D01*
X195604714Y-117228595D01*
X195652333Y-117152404D01*
X195747571Y-117114309D01*
X195842809Y-117114309D01*
X195938047Y-117495261D01*
X196223761Y-116809547D02*
X196271380Y-116733357D01*
X196271380Y-116580976D01*
X196223761Y-116504785D01*
X196128523Y-116466690D01*
X196080904Y-116466690D01*
X195985666Y-116504785D01*
X195938047Y-116580976D01*
X195938047Y-116695261D01*
X195890428Y-116771452D01*
X195795190Y-116809547D01*
X195747571Y-116809547D01*
X195652333Y-116771452D01*
X195604714Y-116695261D01*
X195604714Y-116580976D01*
X195652333Y-116504785D01*
X196223761Y-116161928D02*
X196271380Y-116085738D01*
X196271380Y-115933357D01*
X196223761Y-115857166D01*
X196128523Y-115819071D01*
X196080904Y-115819071D01*
X195985666Y-115857166D01*
X195938047Y-115933357D01*
X195938047Y-116047642D01*
X195890428Y-116123833D01*
X195795190Y-116161928D01*
X195747571Y-116161928D01*
X195652333Y-116123833D01*
X195604714Y-116047642D01*
X195604714Y-115933357D01*
X195652333Y-115857166D01*
X196271380Y-114866690D02*
X195271380Y-114866690D01*
X195271380Y-114561928D01*
X195319000Y-114485738D01*
X195366619Y-114447642D01*
X195461857Y-114409547D01*
X195604714Y-114409547D01*
X195699952Y-114447642D01*
X195747571Y-114485738D01*
X195795190Y-114561928D01*
X195795190Y-114866690D01*
X196271380Y-113609547D02*
X195795190Y-113876214D01*
X196271380Y-114066690D02*
X195271380Y-114066690D01*
X195271380Y-113761928D01*
X195319000Y-113685738D01*
X195366619Y-113647642D01*
X195461857Y-113609547D01*
X195604714Y-113609547D01*
X195699952Y-113647642D01*
X195747571Y-113685738D01*
X195795190Y-113761928D01*
X195795190Y-114066690D01*
X195319000Y-112847642D02*
X195271380Y-112923833D01*
X195271380Y-113038119D01*
X195319000Y-113152404D01*
X195414238Y-113228595D01*
X195509476Y-113266690D01*
X195699952Y-113304785D01*
X195842809Y-113304785D01*
X196033285Y-113266690D01*
X196128523Y-113228595D01*
X196223761Y-113152404D01*
X196271380Y-113038119D01*
X196271380Y-112961928D01*
X196223761Y-112847642D01*
X196176142Y-112809547D01*
X195842809Y-112809547D01*
X195842809Y-112961928D01*
X196176142Y-112466690D02*
X196223761Y-112428595D01*
X196271380Y-112466690D01*
X196223761Y-112504785D01*
X196176142Y-112466690D01*
X196271380Y-112466690D01*
X137000000Y-142000000D02*
X138000000Y-142000000D01*
X137000000Y-136000000D02*
X137000000Y-142000000D01*
X138000000Y-136000000D02*
X137000000Y-136000000D01*
X137000000Y-135000000D02*
X138000000Y-135000000D01*
X137000000Y-129000000D02*
X137000000Y-135000000D01*
X138000000Y-129000000D02*
X137000000Y-129000000D01*
X137000000Y-128000000D02*
X138000000Y-128000000D01*
X137000000Y-122000000D02*
X137000000Y-128000000D01*
X138000000Y-122000000D02*
X137000000Y-122000000D01*
X137000000Y-115000000D02*
X138000000Y-115000000D01*
X137000000Y-121000000D02*
X137000000Y-115000000D01*
X138000000Y-121000000D02*
X137000000Y-121000000D01*
X210000000Y-142000000D02*
X209000000Y-142000000D01*
X210000000Y-136000000D02*
X210000000Y-142000000D01*
X209000000Y-136000000D02*
X210000000Y-136000000D01*
X210000000Y-135000000D02*
X209000000Y-135000000D01*
X210000000Y-129000000D02*
X210000000Y-135000000D01*
X209000000Y-129000000D02*
X210000000Y-129000000D01*
X210000000Y-128000000D02*
X209000000Y-128000000D01*
X210000000Y-122000000D02*
X210000000Y-128000000D01*
X209000000Y-122000000D02*
X210000000Y-122000000D01*
X210000000Y-121000000D02*
X209000000Y-121000000D01*
X210000000Y-115000000D02*
X210000000Y-121000000D01*
X209000000Y-115000000D02*
X210000000Y-115000000D01*
D11*
X208678571Y-138178571D02*
X208821428Y-138178571D01*
X208964285Y-138250000D01*
X209035714Y-138321428D01*
X209107142Y-138464285D01*
X209178571Y-138750000D01*
X209178571Y-139107142D01*
X209107142Y-139392857D01*
X209035714Y-139535714D01*
X208964285Y-139607142D01*
X208821428Y-139678571D01*
X208678571Y-139678571D01*
X208535714Y-139607142D01*
X208464285Y-139535714D01*
X208392857Y-139392857D01*
X208321428Y-139107142D01*
X208321428Y-138750000D01*
X208392857Y-138464285D01*
X208464285Y-138321428D01*
X208535714Y-138250000D01*
X208678571Y-138178571D01*
X209178571Y-132678571D02*
X208321428Y-132678571D01*
X208750000Y-132678571D02*
X208750000Y-131178571D01*
X208607142Y-131392857D01*
X208464285Y-131535714D01*
X208321428Y-131607142D01*
X208321428Y-124321428D02*
X208392857Y-124250000D01*
X208535714Y-124178571D01*
X208892857Y-124178571D01*
X209035714Y-124250000D01*
X209107142Y-124321428D01*
X209178571Y-124464285D01*
X209178571Y-124607142D01*
X209107142Y-124821428D01*
X208250000Y-125678571D01*
X209178571Y-125678571D01*
X208250000Y-117178571D02*
X209178571Y-117178571D01*
X208678571Y-117750000D01*
X208892857Y-117750000D01*
X209035714Y-117821428D01*
X209107142Y-117892857D01*
X209178571Y-118035714D01*
X209178571Y-118392857D01*
X209107142Y-118535714D01*
X209035714Y-118607142D01*
X208892857Y-118678571D01*
X208464285Y-118678571D01*
X208321428Y-118607142D01*
X208250000Y-118535714D01*
X206607142Y-141428571D02*
X206607142Y-139928571D01*
X207178571Y-139928571D01*
X207321428Y-140000000D01*
X207392857Y-140071428D01*
X207464285Y-140214285D01*
X207464285Y-140428571D01*
X207392857Y-140571428D01*
X207321428Y-140642857D01*
X207178571Y-140714285D01*
X206607142Y-140714285D01*
X207392857Y-136500000D02*
X207250000Y-136428571D01*
X207035714Y-136428571D01*
X206821428Y-136500000D01*
X206678571Y-136642857D01*
X206607142Y-136785714D01*
X206535714Y-137071428D01*
X206535714Y-137285714D01*
X206607142Y-137571428D01*
X206678571Y-137714285D01*
X206821428Y-137857142D01*
X207035714Y-137928571D01*
X207178571Y-137928571D01*
X207392857Y-137857142D01*
X207464285Y-137785714D01*
X207464285Y-137285714D01*
X207178571Y-137285714D01*
X206607142Y-134428571D02*
X206607142Y-132928571D01*
X207178571Y-132928571D01*
X207321428Y-133000000D01*
X207392857Y-133071428D01*
X207464285Y-133214285D01*
X207464285Y-133428571D01*
X207392857Y-133571428D01*
X207321428Y-133642857D01*
X207178571Y-133714285D01*
X206607142Y-133714285D01*
X207392857Y-129500000D02*
X207250000Y-129428571D01*
X207035714Y-129428571D01*
X206821428Y-129500000D01*
X206678571Y-129642857D01*
X206607142Y-129785714D01*
X206535714Y-130071428D01*
X206535714Y-130285714D01*
X206607142Y-130571428D01*
X206678571Y-130714285D01*
X206821428Y-130857142D01*
X207035714Y-130928571D01*
X207178571Y-130928571D01*
X207392857Y-130857142D01*
X207464285Y-130785714D01*
X207464285Y-130285714D01*
X207178571Y-130285714D01*
X206607142Y-127428571D02*
X206607142Y-125928571D01*
X207178571Y-125928571D01*
X207321428Y-126000000D01*
X207392857Y-126071428D01*
X207464285Y-126214285D01*
X207464285Y-126428571D01*
X207392857Y-126571428D01*
X207321428Y-126642857D01*
X207178571Y-126714285D01*
X206607142Y-126714285D01*
X207392857Y-122500000D02*
X207250000Y-122428571D01*
X207035714Y-122428571D01*
X206821428Y-122500000D01*
X206678571Y-122642857D01*
X206607142Y-122785714D01*
X206535714Y-123071428D01*
X206535714Y-123285714D01*
X206607142Y-123571428D01*
X206678571Y-123714285D01*
X206821428Y-123857142D01*
X207035714Y-123928571D01*
X207178571Y-123928571D01*
X207392857Y-123857142D01*
X207464285Y-123785714D01*
X207464285Y-123285714D01*
X207178571Y-123285714D01*
X207392857Y-115500000D02*
X207250000Y-115428571D01*
X207035714Y-115428571D01*
X206821428Y-115500000D01*
X206678571Y-115642857D01*
X206607142Y-115785714D01*
X206535714Y-116071428D01*
X206535714Y-116285714D01*
X206607142Y-116571428D01*
X206678571Y-116714285D01*
X206821428Y-116857142D01*
X207035714Y-116928571D01*
X207178571Y-116928571D01*
X207392857Y-116857142D01*
X207464285Y-116785714D01*
X207464285Y-116285714D01*
X207178571Y-116285714D01*
X206607142Y-120428571D02*
X206607142Y-118928571D01*
X207178571Y-118928571D01*
X207321428Y-119000000D01*
X207392857Y-119071428D01*
X207464285Y-119214285D01*
X207464285Y-119428571D01*
X207392857Y-119571428D01*
X207321428Y-119642857D01*
X207178571Y-119714285D01*
X206607142Y-119714285D01*
X137750000Y-138178571D02*
X138750000Y-138178571D01*
X138107142Y-139678571D01*
X138535714Y-131178571D02*
X138250000Y-131178571D01*
X138107142Y-131250000D01*
X138035714Y-131321428D01*
X137892857Y-131535714D01*
X137821428Y-131821428D01*
X137821428Y-132392857D01*
X137892857Y-132535714D01*
X137964285Y-132607142D01*
X138107142Y-132678571D01*
X138392857Y-132678571D01*
X138535714Y-132607142D01*
X138607142Y-132535714D01*
X138678571Y-132392857D01*
X138678571Y-132035714D01*
X138607142Y-131892857D01*
X138535714Y-131821428D01*
X138392857Y-131750000D01*
X138107142Y-131750000D01*
X137964285Y-131821428D01*
X137892857Y-131892857D01*
X137821428Y-132035714D01*
X138607142Y-124178571D02*
X137892857Y-124178571D01*
X137821428Y-124892857D01*
X137892857Y-124821428D01*
X138035714Y-124750000D01*
X138392857Y-124750000D01*
X138535714Y-124821428D01*
X138607142Y-124892857D01*
X138678571Y-125035714D01*
X138678571Y-125392857D01*
X138607142Y-125535714D01*
X138535714Y-125607142D01*
X138392857Y-125678571D01*
X138035714Y-125678571D01*
X137892857Y-125607142D01*
X137821428Y-125535714D01*
X138535714Y-117678571D02*
X138535714Y-118678571D01*
X138178571Y-117107142D02*
X137821428Y-118178571D01*
X138750000Y-118178571D01*
X140392857Y-136500000D02*
X140250000Y-136428571D01*
X140035714Y-136428571D01*
X139821428Y-136500000D01*
X139678571Y-136642857D01*
X139607142Y-136785714D01*
X139535714Y-137071428D01*
X139535714Y-137285714D01*
X139607142Y-137571428D01*
X139678571Y-137714285D01*
X139821428Y-137857142D01*
X140035714Y-137928571D01*
X140178571Y-137928571D01*
X140392857Y-137857142D01*
X140464285Y-137785714D01*
X140464285Y-137285714D01*
X140178571Y-137285714D01*
X140392857Y-115500000D02*
X140250000Y-115428571D01*
X140035714Y-115428571D01*
X139821428Y-115500000D01*
X139678571Y-115642857D01*
X139607142Y-115785714D01*
X139535714Y-116071428D01*
X139535714Y-116285714D01*
X139607142Y-116571428D01*
X139678571Y-116714285D01*
X139821428Y-116857142D01*
X140035714Y-116928571D01*
X140178571Y-116928571D01*
X140392857Y-116857142D01*
X140464285Y-116785714D01*
X140464285Y-116285714D01*
X140178571Y-116285714D01*
X140392857Y-122500000D02*
X140250000Y-122428571D01*
X140035714Y-122428571D01*
X139821428Y-122500000D01*
X139678571Y-122642857D01*
X139607142Y-122785714D01*
X139535714Y-123071428D01*
X139535714Y-123285714D01*
X139607142Y-123571428D01*
X139678571Y-123714285D01*
X139821428Y-123857142D01*
X140035714Y-123928571D01*
X140178571Y-123928571D01*
X140392857Y-123857142D01*
X140464285Y-123785714D01*
X140464285Y-123285714D01*
X140178571Y-123285714D01*
X140392857Y-129500000D02*
X140250000Y-129428571D01*
X140035714Y-129428571D01*
X139821428Y-129500000D01*
X139678571Y-129642857D01*
X139607142Y-129785714D01*
X139535714Y-130071428D01*
X139535714Y-130285714D01*
X139607142Y-130571428D01*
X139678571Y-130714285D01*
X139821428Y-130857142D01*
X140035714Y-130928571D01*
X140178571Y-130928571D01*
X140392857Y-130857142D01*
X140464285Y-130785714D01*
X140464285Y-130285714D01*
X140178571Y-130285714D01*
X139607142Y-141428571D02*
X139607142Y-139928571D01*
X140178571Y-139928571D01*
X140321428Y-140000000D01*
X140392857Y-140071428D01*
X140464285Y-140214285D01*
X140464285Y-140428571D01*
X140392857Y-140571428D01*
X140321428Y-140642857D01*
X140178571Y-140714285D01*
X139607142Y-140714285D01*
X139607142Y-134428571D02*
X139607142Y-132928571D01*
X140178571Y-132928571D01*
X140321428Y-133000000D01*
X140392857Y-133071428D01*
X140464285Y-133214285D01*
X140464285Y-133428571D01*
X140392857Y-133571428D01*
X140321428Y-133642857D01*
X140178571Y-133714285D01*
X139607142Y-133714285D01*
X139607142Y-127428571D02*
X139607142Y-125928571D01*
X140178571Y-125928571D01*
X140321428Y-126000000D01*
X140392857Y-126071428D01*
X140464285Y-126214285D01*
X140464285Y-126428571D01*
X140392857Y-126571428D01*
X140321428Y-126642857D01*
X140178571Y-126714285D01*
X139607142Y-126714285D01*
X139607142Y-120428571D02*
X139607142Y-118928571D01*
X140178571Y-118928571D01*
X140321428Y-119000000D01*
X140392857Y-119071428D01*
X140464285Y-119214285D01*
X140464285Y-119428571D01*
X140392857Y-119571428D01*
X140321428Y-119642857D01*
X140178571Y-119714285D01*
X139607142Y-119714285D01*
D12*
X167043333Y-107128571D02*
X167576666Y-107128571D01*
X167233809Y-108628571D01*
X152311428Y-89507142D02*
X152425714Y-89578571D01*
X152616190Y-89578571D01*
X152692380Y-89507142D01*
X152730476Y-89435714D01*
X152768571Y-89292857D01*
X152768571Y-89150000D01*
X152730476Y-89007142D01*
X152692380Y-88935714D01*
X152616190Y-88864285D01*
X152463809Y-88792857D01*
X152387619Y-88721428D01*
X152349523Y-88650000D01*
X152311428Y-88507142D01*
X152311428Y-88364285D01*
X152349523Y-88221428D01*
X152387619Y-88150000D01*
X152463809Y-88078571D01*
X152654285Y-88078571D01*
X152768571Y-88150000D01*
X153568571Y-89435714D02*
X153530476Y-89507142D01*
X153416190Y-89578571D01*
X153340000Y-89578571D01*
X153225714Y-89507142D01*
X153149523Y-89364285D01*
X153111428Y-89221428D01*
X153073333Y-88935714D01*
X153073333Y-88721428D01*
X153111428Y-88435714D01*
X153149523Y-88292857D01*
X153225714Y-88150000D01*
X153340000Y-88078571D01*
X153416190Y-88078571D01*
X153530476Y-88150000D01*
X153568571Y-88221428D01*
X154368571Y-89578571D02*
X154101904Y-88864285D01*
X153911428Y-89578571D02*
X153911428Y-88078571D01*
X154216190Y-88078571D01*
X154292380Y-88150000D01*
X154330476Y-88221428D01*
X154368571Y-88364285D01*
X154368571Y-88578571D01*
X154330476Y-88721428D01*
X154292380Y-88792857D01*
X154216190Y-88864285D01*
X153911428Y-88864285D01*
X175120476Y-107628571D02*
X175120476Y-108628571D01*
X174882380Y-107057142D02*
X174644285Y-108128571D01*
X175263333Y-108128571D01*
X170040476Y-107128571D02*
X169850000Y-107128571D01*
X169754761Y-107200000D01*
X169707142Y-107271428D01*
X169611904Y-107485714D01*
X169564285Y-107771428D01*
X169564285Y-108342857D01*
X169611904Y-108485714D01*
X169659523Y-108557142D01*
X169754761Y-108628571D01*
X169945238Y-108628571D01*
X170040476Y-108557142D01*
X170088095Y-108485714D01*
X170135714Y-108342857D01*
X170135714Y-107985714D01*
X170088095Y-107842857D01*
X170040476Y-107771428D01*
X169945238Y-107700000D01*
X169754761Y-107700000D01*
X169659523Y-107771428D01*
X169611904Y-107842857D01*
X169564285Y-107985714D01*
X172628095Y-107128571D02*
X172151904Y-107128571D01*
X172104285Y-107842857D01*
X172151904Y-107771428D01*
X172247142Y-107700000D01*
X172485238Y-107700000D01*
X172580476Y-107771428D01*
X172628095Y-107842857D01*
X172675714Y-107985714D01*
X172675714Y-108342857D01*
X172628095Y-108485714D01*
X172580476Y-108557142D01*
X172485238Y-108628571D01*
X172247142Y-108628571D01*
X172151904Y-108557142D01*
X172104285Y-108485714D01*
X179724285Y-107271428D02*
X179771904Y-107200000D01*
X179867142Y-107128571D01*
X180105238Y-107128571D01*
X180200476Y-107200000D01*
X180248095Y-107271428D01*
X180295714Y-107414285D01*
X180295714Y-107557142D01*
X180248095Y-107771428D01*
X179676666Y-108628571D01*
X180295714Y-108628571D01*
D11*
X138480714Y-158321428D02*
X138552142Y-158250000D01*
X138695000Y-158178571D01*
X139052142Y-158178571D01*
X139195000Y-158250000D01*
X139266428Y-158321428D01*
X139337857Y-158464285D01*
X139337857Y-158607142D01*
X139266428Y-158821428D01*
X138409285Y-159678571D01*
X139337857Y-159678571D01*
X140266428Y-158178571D02*
X140409285Y-158178571D01*
X140552142Y-158250000D01*
X140623571Y-158321428D01*
X140695000Y-158464285D01*
X140766428Y-158750000D01*
X140766428Y-159107142D01*
X140695000Y-159392857D01*
X140623571Y-159535714D01*
X140552142Y-159607142D01*
X140409285Y-159678571D01*
X140266428Y-159678571D01*
X140123571Y-159607142D01*
X140052142Y-159535714D01*
X139980714Y-159392857D01*
X139909285Y-159107142D01*
X139909285Y-158750000D01*
X139980714Y-158464285D01*
X140052142Y-158321428D01*
X140123571Y-158250000D01*
X140266428Y-158178571D01*
X141337857Y-158321428D02*
X141409285Y-158250000D01*
X141552142Y-158178571D01*
X141909285Y-158178571D01*
X142052142Y-158250000D01*
X142123571Y-158321428D01*
X142195000Y-158464285D01*
X142195000Y-158607142D01*
X142123571Y-158821428D01*
X141266428Y-159678571D01*
X142195000Y-159678571D01*
X143623571Y-159678571D02*
X142766428Y-159678571D01*
X143195000Y-159678571D02*
X143195000Y-158178571D01*
X143052142Y-158392857D01*
X142909285Y-158535714D01*
X142766428Y-158607142D01*
X145837857Y-160250000D02*
X145766428Y-160178571D01*
X145623571Y-159964285D01*
X145552142Y-159821428D01*
X145480714Y-159607142D01*
X145409285Y-159250000D01*
X145409285Y-158964285D01*
X145480714Y-158607142D01*
X145552142Y-158392857D01*
X145623571Y-158250000D01*
X145766428Y-158035714D01*
X145837857Y-157964285D01*
X147052142Y-159607142D02*
X146909285Y-159678571D01*
X146623571Y-159678571D01*
X146480714Y-159607142D01*
X146409285Y-159535714D01*
X146337857Y-159392857D01*
X146337857Y-158964285D01*
X146409285Y-158821428D01*
X146480714Y-158750000D01*
X146623571Y-158678571D01*
X146909285Y-158678571D01*
X147052142Y-158750000D01*
X147552142Y-160250000D02*
X147623571Y-160178571D01*
X147766428Y-159964285D01*
X147837857Y-159821428D01*
X147909285Y-159607142D01*
X147980714Y-159250000D01*
X147980714Y-158964285D01*
X147909285Y-158607142D01*
X147837857Y-158392857D01*
X147766428Y-158250000D01*
X147623571Y-158035714D01*
X147552142Y-157964285D01*
X149837857Y-159678571D02*
X149837857Y-158178571D01*
X150409285Y-158178571D01*
X150552142Y-158250000D01*
X150623571Y-158321428D01*
X150695000Y-158464285D01*
X150695000Y-158678571D01*
X150623571Y-158821428D01*
X150552142Y-158892857D01*
X150409285Y-158964285D01*
X149837857Y-158964285D01*
X151337857Y-159678571D02*
X151337857Y-158178571D01*
X151695000Y-158178571D01*
X151909285Y-158250000D01*
X152052142Y-158392857D01*
X152123571Y-158535714D01*
X152195000Y-158821428D01*
X152195000Y-159035714D01*
X152123571Y-159321428D01*
X152052142Y-159464285D01*
X151909285Y-159607142D01*
X151695000Y-159678571D01*
X151337857Y-159678571D01*
X153266428Y-158178571D02*
X153266428Y-159250000D01*
X153195000Y-159464285D01*
X153052142Y-159607142D01*
X152837857Y-159678571D01*
X152695000Y-159678571D01*
X154837857Y-159678571D02*
X154337857Y-158964285D01*
X153980714Y-159678571D02*
X153980714Y-158178571D01*
X154552142Y-158178571D01*
X154695000Y-158250000D01*
X154766428Y-158321428D01*
X154837857Y-158464285D01*
X154837857Y-158678571D01*
X154766428Y-158821428D01*
X154695000Y-158892857D01*
X154552142Y-158964285D01*
X153980714Y-158964285D01*
D12*
X177136666Y-107128571D02*
X177755714Y-107128571D01*
X177422380Y-107700000D01*
X177565238Y-107700000D01*
X177660476Y-107771428D01*
X177708095Y-107842857D01*
X177755714Y-107985714D01*
X177755714Y-108342857D01*
X177708095Y-108485714D01*
X177660476Y-108557142D01*
X177565238Y-108628571D01*
X177279523Y-108628571D01*
X177184285Y-108557142D01*
X177136666Y-108485714D01*
X182835714Y-108628571D02*
X182264285Y-108628571D01*
X182550000Y-108628571D02*
X182550000Y-107128571D01*
X182454761Y-107342857D01*
X182359523Y-107485714D01*
X182264285Y-107557142D01*
D11*
X138337857Y-154904761D02*
X139195000Y-154904761D01*
X138766428Y-156904761D02*
X138766428Y-154904761D01*
X139623571Y-156809523D02*
X139837857Y-156904761D01*
X140195000Y-156904761D01*
X140337857Y-156809523D01*
X140409285Y-156714285D01*
X140480714Y-156523809D01*
X140480714Y-156333333D01*
X140409285Y-156142857D01*
X140337857Y-156047619D01*
X140195000Y-155952380D01*
X139909285Y-155857142D01*
X139766428Y-155761904D01*
X139695000Y-155666666D01*
X139623571Y-155476190D01*
X139623571Y-155285714D01*
X139695000Y-155095238D01*
X139766428Y-155000000D01*
X139909285Y-154904761D01*
X140266428Y-154904761D01*
X140480714Y-155000000D01*
X141123571Y-155857142D02*
X141623571Y-155857142D01*
X141837857Y-156904761D02*
X141123571Y-156904761D01*
X141123571Y-154904761D01*
X141837857Y-154904761D01*
X142480714Y-156904761D02*
X142480714Y-154904761D01*
X143337857Y-156904761D01*
X143337857Y-154904761D01*
X143980714Y-156809523D02*
X144195000Y-156904761D01*
X144552142Y-156904761D01*
X144695000Y-156809523D01*
X144766428Y-156714285D01*
X144837857Y-156523809D01*
X144837857Y-156333333D01*
X144766428Y-156142857D01*
X144695000Y-156047619D01*
X144552142Y-155952380D01*
X144266428Y-155857142D01*
X144123571Y-155761904D01*
X144052142Y-155666666D01*
X143980714Y-155476190D01*
X143980714Y-155285714D01*
X144052142Y-155095238D01*
X144123571Y-155000000D01*
X144266428Y-154904761D01*
X144623571Y-154904761D01*
X144837857Y-155000000D01*
X145480714Y-155857142D02*
X145980714Y-155857142D01*
X146195000Y-156904761D02*
X145480714Y-156904761D01*
X145480714Y-154904761D01*
X146195000Y-154904761D01*
X148766428Y-156904761D02*
X147909285Y-156904761D01*
X148337857Y-156904761D02*
X148337857Y-154904761D01*
X148195000Y-155190476D01*
X148052142Y-155380952D01*
X147909285Y-155476190D01*
X149409285Y-156714285D02*
X149480714Y-156809523D01*
X149409285Y-156904761D01*
X149337857Y-156809523D01*
X149409285Y-156714285D01*
X149409285Y-156904761D01*
X150409285Y-154904761D02*
X150552142Y-154904761D01*
X150695000Y-155000000D01*
X150766428Y-155095238D01*
X150837857Y-155285714D01*
X150909285Y-155666666D01*
X150909285Y-156142857D01*
X150837857Y-156523809D01*
X150766428Y-156714285D01*
X150695000Y-156809523D01*
X150552142Y-156904761D01*
X150409285Y-156904761D01*
X150266428Y-156809523D01*
X150195000Y-156714285D01*
X150123571Y-156523809D01*
X150052142Y-156142857D01*
X150052142Y-155666666D01*
X150123571Y-155285714D01*
X150195000Y-155095238D01*
X150266428Y-155000000D01*
X150409285Y-154904761D01*
D12*
X156189523Y-89578571D02*
X155713333Y-89578571D01*
X155713333Y-88078571D01*
X158134285Y-89578571D02*
X158134285Y-88078571D01*
X158134285Y-88792857D02*
X158705714Y-88792857D01*
X158705714Y-89578571D02*
X158705714Y-88078571D01*
X163214285Y-89507142D02*
X163357142Y-89578571D01*
X163595238Y-89578571D01*
X163690476Y-89507142D01*
X163738095Y-89435714D01*
X163785714Y-89292857D01*
X163785714Y-89150000D01*
X163738095Y-89007142D01*
X163690476Y-88935714D01*
X163595238Y-88864285D01*
X163404761Y-88792857D01*
X163309523Y-88721428D01*
X163261904Y-88650000D01*
X163214285Y-88507142D01*
X163214285Y-88364285D01*
X163261904Y-88221428D01*
X163309523Y-88150000D01*
X163404761Y-88078571D01*
X163642857Y-88078571D01*
X163785714Y-88150000D01*
X161269523Y-89435714D02*
X161221904Y-89507142D01*
X161079047Y-89578571D01*
X160983809Y-89578571D01*
X160840952Y-89507142D01*
X160745714Y-89364285D01*
X160698095Y-89221428D01*
X160650476Y-88935714D01*
X160650476Y-88721428D01*
X160698095Y-88435714D01*
X160745714Y-88292857D01*
X160840952Y-88150000D01*
X160983809Y-88078571D01*
X161079047Y-88078571D01*
X161221904Y-88150000D01*
X161269523Y-88221428D01*
X185042380Y-107128571D02*
X185137619Y-107128571D01*
X185232857Y-107200000D01*
X185280476Y-107271428D01*
X185328095Y-107414285D01*
X185375714Y-107700000D01*
X185375714Y-108057142D01*
X185328095Y-108342857D01*
X185280476Y-108485714D01*
X185232857Y-108557142D01*
X185137619Y-108628571D01*
X185042380Y-108628571D01*
X184947142Y-108557142D01*
X184899523Y-108485714D01*
X184851904Y-108342857D01*
X184804285Y-108057142D01*
X184804285Y-107700000D01*
X184851904Y-107414285D01*
X184899523Y-107271428D01*
X184947142Y-107200000D01*
X185042380Y-107128571D01*
D10*
X194742000Y-88118000D02*
X196892000Y-88118000D01*
X194742000Y-88118000D02*
X179892000Y-88118000D01*
X194742000Y-95718000D02*
X196892000Y-95718000D01*
X194742000Y-95718000D02*
X179892000Y-95718000D01*
X179892000Y-90618000D02*
X179892000Y-88118000D01*
X179892000Y-90618000D02*
X179892000Y-95718000D01*
X196892000Y-90968000D02*
X196892000Y-88118000D01*
X196892000Y-90618000D02*
X196892000Y-95718000D01*
D13*
X193472000Y-94718000D02*
X193472000Y-91718000D01*
X195842000Y-91718000D02*
X195842000Y-94718000D01*
X180942000Y-91718000D02*
X195842000Y-91718000D01*
X180942000Y-94718000D02*
X180942000Y-91718000D01*
X195842000Y-94718000D02*
X180942000Y-94718000D01*
X137532000Y-109280000D02*
X140192000Y-109280000D01*
X137532000Y-106680000D02*
X137532000Y-109280000D01*
X140192000Y-106680000D02*
X140192000Y-109280000D01*
X137532000Y-106680000D02*
X140192000Y-106680000D01*
X137532000Y-105410000D02*
X137532000Y-104080000D01*
X137532000Y-104080000D02*
X138862000Y-104080000D01*
X161070000Y-101540000D02*
X159420000Y-101540000D01*
X161070000Y-111820000D02*
X161070000Y-101540000D01*
X155770000Y-111820000D02*
X161070000Y-111820000D01*
X155770000Y-101540000D02*
X155770000Y-111820000D01*
X157420000Y-101540000D02*
X155770000Y-101540000D01*
X159420000Y-101540000D02*
G75*
G02*
X157420000Y-101540000I-1000000J0D01*
G01*
X149880000Y-89635000D02*
X149880000Y-94475000D01*
X146640000Y-89635000D02*
X146640000Y-94475000D01*
X149880000Y-89635000D02*
X146640000Y-89635000D01*
X149880000Y-94475000D02*
X146640000Y-94475000D01*
X170200000Y-89635000D02*
X170200000Y-94475000D01*
X166960000Y-89635000D02*
X166960000Y-94475000D01*
X170200000Y-89635000D02*
X166960000Y-89635000D01*
X170200000Y-94475000D02*
X166960000Y-94475000D01*
X148545000Y-109120000D02*
X148545000Y-104280000D01*
X151785000Y-109120000D02*
X151785000Y-104280000D01*
X148545000Y-109120000D02*
X151785000Y-109120000D01*
X148545000Y-104280000D02*
X151785000Y-104280000D01*
X165374000Y-155080000D02*
X165374000Y-159920000D01*
X162134000Y-155080000D02*
X162134000Y-159920000D01*
X165374000Y-155080000D02*
X162134000Y-155080000D01*
X165374000Y-159920000D02*
X162134000Y-159920000D01*
X165420000Y-132430000D02*
X161580000Y-132430000D01*
X165420000Y-134270000D02*
X161580000Y-134270000D01*
X165420000Y-129890000D02*
X161580000Y-129890000D01*
X165420000Y-131730000D02*
X161580000Y-131730000D01*
X165420000Y-124810000D02*
X161580000Y-124810000D01*
X165420000Y-126650000D02*
X161580000Y-126650000D01*
X165420000Y-140050000D02*
X161580000Y-140050000D01*
X165420000Y-141890000D02*
X161580000Y-141890000D01*
X165420000Y-127350000D02*
X161580000Y-127350000D01*
X165420000Y-129190000D02*
X161580000Y-129190000D01*
X165420000Y-137510000D02*
X161580000Y-137510000D01*
X165420000Y-139350000D02*
X161580000Y-139350000D01*
X165420000Y-134970000D02*
X161580000Y-134970000D01*
X165420000Y-136810000D02*
X161580000Y-136810000D01*
X165420000Y-142590000D02*
X161580000Y-142590000D01*
X165420000Y-144430000D02*
X161580000Y-144430000D01*
X200496000Y-108982000D02*
X200496000Y-104482000D01*
X196496000Y-110232000D02*
X197996000Y-110232000D01*
X193996000Y-104482000D02*
X193996000Y-108982000D01*
X197996000Y-103232000D02*
X196496000Y-103232000D01*
X136752000Y-97136000D02*
X136752000Y-90315000D01*
X140972000Y-97136000D02*
X140972000Y-90315000D01*
X136752000Y-97136000D02*
X137822000Y-97136000D01*
X139902000Y-97136000D02*
X140972000Y-97136000D01*
X136752000Y-90315000D02*
X137872000Y-90315000D01*
X139852000Y-90315000D02*
X140972000Y-90315000D01*
X136512000Y-97376000D02*
X136512000Y-95993000D01*
X136512000Y-97376000D02*
X137822000Y-97376000D01*
X138227000Y-95536000D02*
X139497000Y-95536000D01*
X139497000Y-95536000D02*
X139497000Y-91916000D01*
X139497000Y-91916000D02*
X138227000Y-91916000D01*
X138227000Y-91916000D02*
X138227000Y-95536000D01*
X138347000Y-95536000D02*
X138347000Y-94329333D01*
X138467000Y-95536000D02*
X138467000Y-94329333D01*
X138587000Y-95536000D02*
X138587000Y-94329333D01*
X138707000Y-95536000D02*
X138707000Y-94329333D01*
X138827000Y-95536000D02*
X138827000Y-94329333D01*
X138947000Y-95536000D02*
X138947000Y-94329333D01*
X139067000Y-95536000D02*
X139067000Y-94329333D01*
X139187000Y-95536000D02*
X139187000Y-94329333D01*
X139307000Y-95536000D02*
X139307000Y-94329333D01*
X139427000Y-95536000D02*
X139427000Y-94329333D01*
X138227000Y-94329333D02*
X139497000Y-94329333D01*
D10*
X198500000Y-141900000D02*
X205500000Y-141900000D01*
X198500000Y-113400000D02*
X205500000Y-113400000D01*
X205500000Y-113400000D02*
X205500000Y-141900000D01*
X198500000Y-141900000D02*
X198500000Y-113400000D01*
X202000000Y-141900000D02*
X198500000Y-141900000D01*
D13*
X200500000Y-139000000D02*
X203500000Y-139000000D01*
X203500000Y-141850000D02*
X200500000Y-141850000D01*
X203500000Y-115150000D02*
X203500000Y-141850000D01*
X200500000Y-115150000D02*
X203500000Y-115150000D01*
X200500000Y-141850000D02*
X200500000Y-115150000D01*
D10*
X141500000Y-141900000D02*
X148500000Y-141900000D01*
X141500000Y-113400000D02*
X148500000Y-113400000D01*
X148500000Y-113400000D02*
X148500000Y-141900000D01*
X141500000Y-141900000D02*
X141500000Y-113400000D01*
X145000000Y-141900000D02*
X141500000Y-141900000D01*
D13*
X143500000Y-139000000D02*
X146500000Y-139000000D01*
X146500000Y-141850000D02*
X143500000Y-141850000D01*
X146500000Y-115150000D02*
X146500000Y-141850000D01*
X143500000Y-115150000D02*
X146500000Y-115150000D01*
X143500000Y-141850000D02*
X143500000Y-115150000D01*
X190155000Y-152750000D02*
X193995000Y-152750000D01*
X190155000Y-154590000D02*
X193995000Y-154590000D01*
X202176000Y-101356000D02*
X205596000Y-101356000D01*
X202176000Y-103876000D02*
X205596000Y-103876000D01*
X202176000Y-101356000D02*
X202176000Y-101536000D01*
X202176000Y-103696000D02*
X202176000Y-103876000D01*
X205596000Y-101356000D02*
X205596000Y-101521000D01*
X205596000Y-103711000D02*
X205596000Y-103876000D01*
X202296000Y-101356000D02*
X202296000Y-101536000D01*
X202296000Y-103696000D02*
X202296000Y-103876000D01*
X202416000Y-101356000D02*
X202416000Y-101536000D01*
X202416000Y-103696000D02*
X202416000Y-103876000D01*
X202176000Y-105166000D02*
X205596000Y-105166000D01*
X202176000Y-107686000D02*
X205596000Y-107686000D01*
X202176000Y-105166000D02*
X202176000Y-105346000D01*
X202176000Y-107506000D02*
X202176000Y-107686000D01*
X205596000Y-105166000D02*
X205596000Y-105331000D01*
X205596000Y-107521000D02*
X205596000Y-107686000D01*
X202296000Y-105166000D02*
X202296000Y-105346000D01*
X202296000Y-107506000D02*
X202296000Y-107686000D01*
X202416000Y-105166000D02*
X202416000Y-105346000D01*
X202416000Y-107506000D02*
X202416000Y-107686000D01*
X202176000Y-108976000D02*
X205596000Y-108976000D01*
X202176000Y-111496000D02*
X205596000Y-111496000D01*
X202176000Y-108976000D02*
X202176000Y-109156000D01*
X202176000Y-111316000D02*
X202176000Y-111496000D01*
X205596000Y-108976000D02*
X205596000Y-109141000D01*
X205596000Y-111331000D02*
X205596000Y-111496000D01*
X202296000Y-108976000D02*
X202296000Y-109156000D01*
X202296000Y-111316000D02*
X202296000Y-111496000D01*
X202416000Y-108976000D02*
X202416000Y-109156000D01*
X202416000Y-111316000D02*
X202416000Y-111496000D01*
X190155000Y-147670000D02*
X193995000Y-147670000D01*
X190155000Y-149510000D02*
X193995000Y-149510000D01*
D10*
X180010000Y-157480000D02*
X180010000Y-158750000D01*
X180010000Y-158750000D02*
X172390000Y-158750000D01*
X172390000Y-158750000D02*
X172390000Y-157480000D01*
X181280000Y-146050000D02*
X181280000Y-142240000D01*
X181280000Y-142240000D02*
X178740000Y-142240000D01*
X178740000Y-142240000D02*
X178740000Y-146050000D01*
X178740000Y-146050000D02*
X181280000Y-146050000D01*
X180010000Y-152400000D02*
X172390000Y-152400000D01*
X172390000Y-152400000D02*
X172390000Y-157480000D01*
X180010000Y-152400000D02*
X180010000Y-157480000D01*
X181280000Y-151130000D02*
X181280000Y-148590000D01*
X181280000Y-148590000D02*
X178740000Y-148590000D01*
X178740000Y-148590000D02*
X178740000Y-151130000D01*
X178740000Y-151130000D02*
X181280000Y-151130000D01*
X173660000Y-124460000D02*
X178740000Y-124460000D01*
X178740000Y-124460000D02*
X178740000Y-127000000D01*
X178740000Y-127000000D02*
X173660000Y-127000000D01*
X173660000Y-127000000D02*
X173660000Y-124460000D01*
X181280000Y-130810000D02*
X171120000Y-130810000D01*
X171120000Y-139700000D02*
X181280000Y-139700000D01*
X171120000Y-130810000D02*
X171120000Y-139700000D01*
X181280000Y-130810000D02*
X181280000Y-139700000D01*
X167310000Y-157480000D02*
X167310000Y-121920000D01*
X167310000Y-121920000D02*
X185090000Y-121920000D01*
X185090000Y-121920000D02*
X185090000Y-157480000D01*
X185090000Y-157480000D02*
X167310000Y-157480000D01*
D14*
G36*
X179121000Y-135763000D02*
G01*
X178867000Y-136017000D01*
X178613000Y-135636000D01*
X178867000Y-135382000D01*
X179121000Y-135763000D01*
G37*
X179121000Y-135763000D02*
X178867000Y-136017000D01*
X178613000Y-135636000D01*
X178867000Y-135382000D01*
X179121000Y-135763000D01*
G36*
X179502000Y-135382000D02*
G01*
X179248000Y-135636000D01*
X178994000Y-135255000D01*
X179248000Y-135001000D01*
X179502000Y-135382000D01*
G37*
X179502000Y-135382000D02*
X179248000Y-135636000D01*
X178994000Y-135255000D01*
X179248000Y-135001000D01*
X179502000Y-135382000D01*
G36*
X178359000Y-134747000D02*
G01*
X178105000Y-135001000D01*
X177851000Y-134620000D01*
X178105000Y-134366000D01*
X178359000Y-134747000D01*
G37*
X178359000Y-134747000D02*
X178105000Y-135001000D01*
X177851000Y-134620000D01*
X178105000Y-134366000D01*
X178359000Y-134747000D01*
G36*
X180264000Y-135509000D02*
G01*
X180010000Y-135763000D01*
X179756000Y-135382000D01*
X180010000Y-135128000D01*
X180264000Y-135509000D01*
G37*
X180264000Y-135509000D02*
X180010000Y-135763000D01*
X179756000Y-135382000D01*
X180010000Y-135128000D01*
X180264000Y-135509000D01*
G36*
X178740000Y-135255000D02*
G01*
X178486000Y-135509000D01*
X178232000Y-135128000D01*
X178486000Y-134874000D01*
X178740000Y-135255000D01*
G37*
X178740000Y-135255000D02*
X178486000Y-135509000D01*
X178232000Y-135128000D01*
X178486000Y-134874000D01*
X178740000Y-135255000D01*
G36*
X180645000Y-135128000D02*
G01*
X180391000Y-135382000D01*
X180137000Y-135001000D01*
X180391000Y-134747000D01*
X180645000Y-135128000D01*
G37*
X180645000Y-135128000D02*
X180391000Y-135382000D01*
X180137000Y-135001000D01*
X180391000Y-134747000D01*
X180645000Y-135128000D01*
G36*
X179883000Y-135890000D02*
G01*
X179629000Y-136144000D01*
X179375000Y-135763000D01*
X179629000Y-135509000D01*
X179883000Y-135890000D01*
G37*
X179883000Y-135890000D02*
X179629000Y-136144000D01*
X179375000Y-135763000D01*
X179629000Y-135509000D01*
X179883000Y-135890000D01*
G36*
X179121000Y-134874000D02*
G01*
X178867000Y-135128000D01*
X178613000Y-134747000D01*
X178867000Y-134493000D01*
X179121000Y-134874000D01*
G37*
X179121000Y-134874000D02*
X178867000Y-135128000D01*
X178613000Y-134747000D01*
X178867000Y-134493000D01*
X179121000Y-134874000D01*
D13*
X150990000Y-145760000D02*
X150834000Y-145760000D01*
X153306000Y-145760000D02*
X153150000Y-145760000D01*
X150990163Y-148361130D02*
G75*
G02*
X150990000Y-146279039I1079837J1041130D01*
G01*
X153149837Y-148361130D02*
G75*
G03*
X153150000Y-146279039I-1079837J1041130D01*
G01*
X150991392Y-148992335D02*
G75*
G02*
X150834484Y-145760000I1078608J1672335D01*
G01*
X153148608Y-148992335D02*
G75*
G03*
X153305516Y-145760000I-1078608J1672335D01*
G01*
X152690000Y-98775000D02*
X156530000Y-98775000D01*
X152690000Y-100615000D02*
X156530000Y-100615000D01*
X160310000Y-98775000D02*
X164150000Y-98775000D01*
X160310000Y-100615000D02*
X164150000Y-100615000D01*
X163850000Y-106695000D02*
X163850000Y-102855000D01*
X165690000Y-106695000D02*
X165690000Y-102855000D01*
X165420000Y-149510000D02*
X161580000Y-149510000D01*
X165420000Y-147670000D02*
X161580000Y-147670000D01*
X190155000Y-150210000D02*
X193995000Y-150210000D01*
X190155000Y-152050000D02*
X193995000Y-152050000D01*
X186420000Y-116950000D02*
X186420000Y-115300000D01*
X165980000Y-116950000D02*
X186420000Y-116950000D01*
X165980000Y-111650000D02*
X165980000Y-116950000D01*
X186420000Y-111650000D02*
X165980000Y-111650000D01*
X186420000Y-113300000D02*
X186420000Y-111650000D01*
X186420000Y-115300000D02*
G75*
G02*
X186420000Y-113300000I0J1000000D01*
G01*
X165300000Y-90580000D02*
X164800000Y-90580000D01*
X165300000Y-91320000D02*
X165300000Y-90580000D01*
X151780000Y-97140000D02*
X151780000Y-90820000D01*
X165060000Y-97140000D02*
X165060000Y-90820000D01*
X165060000Y-90820000D02*
X151780000Y-90820000D01*
X165060000Y-97140000D02*
X151780000Y-97140000D01*
X165060000Y-96680000D02*
X151780000Y-96680000D01*
X165060000Y-91380000D02*
X151780000Y-91380000D01*
X205830000Y-97080000D02*
X205830000Y-88340000D01*
X205830000Y-97080000D02*
X210070000Y-97080000D01*
X210070000Y-88340000D02*
X205830000Y-88340000D01*
X210070000Y-88340000D02*
X210070000Y-97080000D01*
D10*
X187630095Y-90170380D02*
X187630095Y-90979904D01*
X187677714Y-91075142D01*
X187725333Y-91122761D01*
X187820571Y-91170380D01*
X188011047Y-91170380D01*
X188106285Y-91122761D01*
X188153904Y-91075142D01*
X188201523Y-90979904D01*
X188201523Y-90170380D01*
X188630095Y-90265619D02*
X188677714Y-90218000D01*
X188772952Y-90170380D01*
X189011047Y-90170380D01*
X189106285Y-90218000D01*
X189153904Y-90265619D01*
X189201523Y-90360857D01*
X189201523Y-90456095D01*
X189153904Y-90598952D01*
X188582476Y-91170380D01*
X189201523Y-91170380D01*
X137266761Y-102068380D02*
X137838190Y-102068380D01*
X137552476Y-103068380D02*
X137552476Y-102068380D01*
X138171523Y-102544571D02*
X138504857Y-102544571D01*
X138647714Y-103068380D02*
X138171523Y-103068380D01*
X138171523Y-102068380D01*
X138647714Y-102068380D01*
X139028666Y-103020761D02*
X139171523Y-103068380D01*
X139409619Y-103068380D01*
X139504857Y-103020761D01*
X139552476Y-102973142D01*
X139600095Y-102877904D01*
X139600095Y-102782666D01*
X139552476Y-102687428D01*
X139504857Y-102639809D01*
X139409619Y-102592190D01*
X139219142Y-102544571D01*
X139123904Y-102496952D01*
X139076285Y-102449333D01*
X139028666Y-102354095D01*
X139028666Y-102258857D01*
X139076285Y-102163619D01*
X139123904Y-102116000D01*
X139219142Y-102068380D01*
X139457238Y-102068380D01*
X139600095Y-102116000D01*
X139885809Y-102068380D02*
X140457238Y-102068380D01*
X140171523Y-103068380D02*
X140171523Y-102068380D01*
X157658095Y-106132380D02*
X157658095Y-106941904D01*
X157705714Y-107037142D01*
X157753333Y-107084761D01*
X157848571Y-107132380D01*
X158039047Y-107132380D01*
X158134285Y-107084761D01*
X158181904Y-107037142D01*
X158229523Y-106941904D01*
X158229523Y-106132380D01*
X158610476Y-106132380D02*
X159229523Y-106132380D01*
X158896190Y-106513333D01*
X159039047Y-106513333D01*
X159134285Y-106560952D01*
X159181904Y-106608571D01*
X159229523Y-106703809D01*
X159229523Y-106941904D01*
X159181904Y-107037142D01*
X159134285Y-107084761D01*
X159039047Y-107132380D01*
X158753333Y-107132380D01*
X158658095Y-107084761D01*
X158610476Y-107037142D01*
X144918333Y-92432142D02*
X144870714Y-92479761D01*
X144727857Y-92527380D01*
X144632619Y-92527380D01*
X144489761Y-92479761D01*
X144394523Y-92384523D01*
X144346904Y-92289285D01*
X144299285Y-92098809D01*
X144299285Y-91955952D01*
X144346904Y-91765476D01*
X144394523Y-91670238D01*
X144489761Y-91575000D01*
X144632619Y-91527380D01*
X144727857Y-91527380D01*
X144870714Y-91575000D01*
X144918333Y-91622619D01*
X145775476Y-91860714D02*
X145775476Y-92527380D01*
X145537380Y-91479761D02*
X145299285Y-92194047D01*
X145918333Y-92194047D01*
X171163333Y-92412142D02*
X171115714Y-92459761D01*
X170972857Y-92507380D01*
X170877619Y-92507380D01*
X170734761Y-92459761D01*
X170639523Y-92364523D01*
X170591904Y-92269285D01*
X170544285Y-92078809D01*
X170544285Y-91935952D01*
X170591904Y-91745476D01*
X170639523Y-91650238D01*
X170734761Y-91555000D01*
X170877619Y-91507380D01*
X170972857Y-91507380D01*
X171115714Y-91555000D01*
X171163333Y-91602619D01*
X171496666Y-91507380D02*
X172115714Y-91507380D01*
X171782380Y-91888333D01*
X171925238Y-91888333D01*
X172020476Y-91935952D01*
X172068095Y-91983571D01*
X172115714Y-92078809D01*
X172115714Y-92316904D01*
X172068095Y-92412142D01*
X172020476Y-92459761D01*
X171925238Y-92507380D01*
X171639523Y-92507380D01*
X171544285Y-92459761D01*
X171496666Y-92412142D01*
X146823333Y-107057142D02*
X146775714Y-107104761D01*
X146632857Y-107152380D01*
X146537619Y-107152380D01*
X146394761Y-107104761D01*
X146299523Y-107009523D01*
X146251904Y-106914285D01*
X146204285Y-106723809D01*
X146204285Y-106580952D01*
X146251904Y-106390476D01*
X146299523Y-106295238D01*
X146394761Y-106200000D01*
X146537619Y-106152380D01*
X146632857Y-106152380D01*
X146775714Y-106200000D01*
X146823333Y-106247619D01*
X147204285Y-106247619D02*
X147251904Y-106200000D01*
X147347142Y-106152380D01*
X147585238Y-106152380D01*
X147680476Y-106200000D01*
X147728095Y-106247619D01*
X147775714Y-106342857D01*
X147775714Y-106438095D01*
X147728095Y-106580952D01*
X147156666Y-107152380D01*
X147775714Y-107152380D01*
X160793333Y-157837142D02*
X160745714Y-157884761D01*
X160602857Y-157932380D01*
X160507619Y-157932380D01*
X160364761Y-157884761D01*
X160269523Y-157789523D01*
X160221904Y-157694285D01*
X160174285Y-157503809D01*
X160174285Y-157360952D01*
X160221904Y-157170476D01*
X160269523Y-157075238D01*
X160364761Y-156980000D01*
X160507619Y-156932380D01*
X160602857Y-156932380D01*
X160745714Y-156980000D01*
X160793333Y-157027619D01*
X161745714Y-157932380D02*
X161174285Y-157932380D01*
X161460000Y-157932380D02*
X161460000Y-156932380D01*
X161364761Y-157075238D01*
X161269523Y-157170476D01*
X161174285Y-157218095D01*
X163333333Y-133802380D02*
X163000000Y-133326190D01*
X162761904Y-133802380D02*
X162761904Y-132802380D01*
X163142857Y-132802380D01*
X163238095Y-132850000D01*
X163285714Y-132897619D01*
X163333333Y-132992857D01*
X163333333Y-133135714D01*
X163285714Y-133230952D01*
X163238095Y-133278571D01*
X163142857Y-133326190D01*
X162761904Y-133326190D01*
X164238095Y-132802380D02*
X163761904Y-132802380D01*
X163714285Y-133278571D01*
X163761904Y-133230952D01*
X163857142Y-133183333D01*
X164095238Y-133183333D01*
X164190476Y-133230952D01*
X164238095Y-133278571D01*
X164285714Y-133373809D01*
X164285714Y-133611904D01*
X164238095Y-133707142D01*
X164190476Y-133754761D01*
X164095238Y-133802380D01*
X163857142Y-133802380D01*
X163761904Y-133754761D01*
X163714285Y-133707142D01*
X163333333Y-131262380D02*
X163000000Y-130786190D01*
X162761904Y-131262380D02*
X162761904Y-130262380D01*
X163142857Y-130262380D01*
X163238095Y-130310000D01*
X163285714Y-130357619D01*
X163333333Y-130452857D01*
X163333333Y-130595714D01*
X163285714Y-130690952D01*
X163238095Y-130738571D01*
X163142857Y-130786190D01*
X162761904Y-130786190D01*
X164190476Y-130595714D02*
X164190476Y-131262380D01*
X163952380Y-130214761D02*
X163714285Y-130929047D01*
X164333333Y-130929047D01*
X163333333Y-126182380D02*
X163000000Y-125706190D01*
X162761904Y-126182380D02*
X162761904Y-125182380D01*
X163142857Y-125182380D01*
X163238095Y-125230000D01*
X163285714Y-125277619D01*
X163333333Y-125372857D01*
X163333333Y-125515714D01*
X163285714Y-125610952D01*
X163238095Y-125658571D01*
X163142857Y-125706190D01*
X162761904Y-125706190D01*
X163714285Y-125277619D02*
X163761904Y-125230000D01*
X163857142Y-125182380D01*
X164095238Y-125182380D01*
X164190476Y-125230000D01*
X164238095Y-125277619D01*
X164285714Y-125372857D01*
X164285714Y-125468095D01*
X164238095Y-125610952D01*
X163666666Y-126182380D01*
X164285714Y-126182380D01*
X163333333Y-141422380D02*
X163000000Y-140946190D01*
X162761904Y-141422380D02*
X162761904Y-140422380D01*
X163142857Y-140422380D01*
X163238095Y-140470000D01*
X163285714Y-140517619D01*
X163333333Y-140612857D01*
X163333333Y-140755714D01*
X163285714Y-140850952D01*
X163238095Y-140898571D01*
X163142857Y-140946190D01*
X162761904Y-140946190D01*
X163666666Y-140422380D02*
X164333333Y-140422380D01*
X163904761Y-141422380D01*
X163333333Y-128722380D02*
X163000000Y-128246190D01*
X162761904Y-128722380D02*
X162761904Y-127722380D01*
X163142857Y-127722380D01*
X163238095Y-127770000D01*
X163285714Y-127817619D01*
X163333333Y-127912857D01*
X163333333Y-128055714D01*
X163285714Y-128150952D01*
X163238095Y-128198571D01*
X163142857Y-128246190D01*
X162761904Y-128246190D01*
X163666666Y-127722380D02*
X164285714Y-127722380D01*
X163952380Y-128103333D01*
X164095238Y-128103333D01*
X164190476Y-128150952D01*
X164238095Y-128198571D01*
X164285714Y-128293809D01*
X164285714Y-128531904D01*
X164238095Y-128627142D01*
X164190476Y-128674761D01*
X164095238Y-128722380D01*
X163809523Y-128722380D01*
X163714285Y-128674761D01*
X163666666Y-128627142D01*
X163333333Y-138882380D02*
X163000000Y-138406190D01*
X162761904Y-138882380D02*
X162761904Y-137882380D01*
X163142857Y-137882380D01*
X163238095Y-137930000D01*
X163285714Y-137977619D01*
X163333333Y-138072857D01*
X163333333Y-138215714D01*
X163285714Y-138310952D01*
X163238095Y-138358571D01*
X163142857Y-138406190D01*
X162761904Y-138406190D01*
X163904761Y-138310952D02*
X163809523Y-138263333D01*
X163761904Y-138215714D01*
X163714285Y-138120476D01*
X163714285Y-138072857D01*
X163761904Y-137977619D01*
X163809523Y-137930000D01*
X163904761Y-137882380D01*
X164095238Y-137882380D01*
X164190476Y-137930000D01*
X164238095Y-137977619D01*
X164285714Y-138072857D01*
X164285714Y-138120476D01*
X164238095Y-138215714D01*
X164190476Y-138263333D01*
X164095238Y-138310952D01*
X163904761Y-138310952D01*
X163809523Y-138358571D01*
X163761904Y-138406190D01*
X163714285Y-138501428D01*
X163714285Y-138691904D01*
X163761904Y-138787142D01*
X163809523Y-138834761D01*
X163904761Y-138882380D01*
X164095238Y-138882380D01*
X164190476Y-138834761D01*
X164238095Y-138787142D01*
X164285714Y-138691904D01*
X164285714Y-138501428D01*
X164238095Y-138406190D01*
X164190476Y-138358571D01*
X164095238Y-138310952D01*
X163333333Y-136342380D02*
X163000000Y-135866190D01*
X162761904Y-136342380D02*
X162761904Y-135342380D01*
X163142857Y-135342380D01*
X163238095Y-135390000D01*
X163285714Y-135437619D01*
X163333333Y-135532857D01*
X163333333Y-135675714D01*
X163285714Y-135770952D01*
X163238095Y-135818571D01*
X163142857Y-135866190D01*
X162761904Y-135866190D01*
X163809523Y-136342380D02*
X164000000Y-136342380D01*
X164095238Y-136294761D01*
X164142857Y-136247142D01*
X164238095Y-136104285D01*
X164285714Y-135913809D01*
X164285714Y-135532857D01*
X164238095Y-135437619D01*
X164190476Y-135390000D01*
X164095238Y-135342380D01*
X163904761Y-135342380D01*
X163809523Y-135390000D01*
X163761904Y-135437619D01*
X163714285Y-135532857D01*
X163714285Y-135770952D01*
X163761904Y-135866190D01*
X163809523Y-135913809D01*
X163904761Y-135961428D01*
X164095238Y-135961428D01*
X164190476Y-135913809D01*
X164238095Y-135866190D01*
X164285714Y-135770952D01*
X163333333Y-143962380D02*
X163000000Y-143486190D01*
X162761904Y-143962380D02*
X162761904Y-142962380D01*
X163142857Y-142962380D01*
X163238095Y-143010000D01*
X163285714Y-143057619D01*
X163333333Y-143152857D01*
X163333333Y-143295714D01*
X163285714Y-143390952D01*
X163238095Y-143438571D01*
X163142857Y-143486190D01*
X162761904Y-143486190D01*
X164190476Y-142962380D02*
X164000000Y-142962380D01*
X163904761Y-143010000D01*
X163857142Y-143057619D01*
X163761904Y-143200476D01*
X163714285Y-143390952D01*
X163714285Y-143771904D01*
X163761904Y-143867142D01*
X163809523Y-143914761D01*
X163904761Y-143962380D01*
X164095238Y-143962380D01*
X164190476Y-143914761D01*
X164238095Y-143867142D01*
X164285714Y-143771904D01*
X164285714Y-143533809D01*
X164238095Y-143438571D01*
X164190476Y-143390952D01*
X164095238Y-143343333D01*
X163904761Y-143343333D01*
X163809523Y-143390952D01*
X163761904Y-143438571D01*
X163714285Y-143533809D01*
X195948666Y-107136761D02*
X196091523Y-107184380D01*
X196329619Y-107184380D01*
X196424857Y-107136761D01*
X196472476Y-107089142D01*
X196520095Y-106993904D01*
X196520095Y-106898666D01*
X196472476Y-106803428D01*
X196424857Y-106755809D01*
X196329619Y-106708190D01*
X196139142Y-106660571D01*
X196043904Y-106612952D01*
X195996285Y-106565333D01*
X195948666Y-106470095D01*
X195948666Y-106374857D01*
X195996285Y-106279619D01*
X196043904Y-106232000D01*
X196139142Y-106184380D01*
X196377238Y-106184380D01*
X196520095Y-106232000D01*
X196853428Y-106184380D02*
X197091523Y-107184380D01*
X197282000Y-106470095D01*
X197472476Y-107184380D01*
X197710571Y-106184380D01*
X198615333Y-107184380D02*
X198043904Y-107184380D01*
X198329619Y-107184380D02*
X198329619Y-106184380D01*
X198234380Y-106327238D01*
X198139142Y-106422476D01*
X198043904Y-106470095D01*
D12*
X189924095Y-103294571D02*
X189924095Y-101794571D01*
X190305047Y-101794571D01*
X190400285Y-101866000D01*
X190447904Y-101937428D01*
X190495523Y-102080285D01*
X190495523Y-102294571D01*
X190447904Y-102437428D01*
X190400285Y-102508857D01*
X190305047Y-102580285D01*
X189924095Y-102580285D01*
X191495523Y-103294571D02*
X191162190Y-102580285D01*
X190924095Y-103294571D02*
X190924095Y-101794571D01*
X191305047Y-101794571D01*
X191400285Y-101866000D01*
X191447904Y-101937428D01*
X191495523Y-102080285D01*
X191495523Y-102294571D01*
X191447904Y-102437428D01*
X191400285Y-102508857D01*
X191305047Y-102580285D01*
X190924095Y-102580285D01*
X192447904Y-101866000D02*
X192352666Y-101794571D01*
X192209809Y-101794571D01*
X192066952Y-101866000D01*
X191971714Y-102008857D01*
X191924095Y-102151714D01*
X191876476Y-102437428D01*
X191876476Y-102651714D01*
X191924095Y-102937428D01*
X191971714Y-103080285D01*
X192066952Y-103223142D01*
X192209809Y-103294571D01*
X192305047Y-103294571D01*
X192447904Y-103223142D01*
X192495523Y-103151714D01*
X192495523Y-102651714D01*
X192305047Y-102651714D01*
D10*
X137528666Y-94130761D02*
X137671523Y-94178380D01*
X137909619Y-94178380D01*
X138004857Y-94130761D01*
X138052476Y-94083142D01*
X138100095Y-93987904D01*
X138100095Y-93892666D01*
X138052476Y-93797428D01*
X138004857Y-93749809D01*
X137909619Y-93702190D01*
X137719142Y-93654571D01*
X137623904Y-93606952D01*
X137576285Y-93559333D01*
X137528666Y-93464095D01*
X137528666Y-93368857D01*
X137576285Y-93273619D01*
X137623904Y-93226000D01*
X137719142Y-93178380D01*
X137957238Y-93178380D01*
X138100095Y-93226000D01*
X138433428Y-93178380D02*
X138671523Y-94178380D01*
X138862000Y-93464095D01*
X139052476Y-94178380D01*
X139290571Y-93178380D01*
X139623904Y-93273619D02*
X139671523Y-93226000D01*
X139766761Y-93178380D01*
X140004857Y-93178380D01*
X140100095Y-93226000D01*
X140147714Y-93273619D01*
X140195333Y-93368857D01*
X140195333Y-93464095D01*
X140147714Y-93606952D01*
X139576285Y-94178380D01*
X140195333Y-94178380D01*
D12*
X137576285Y-100683142D02*
X137719142Y-100754571D01*
X137957238Y-100754571D01*
X138052476Y-100683142D01*
X138100095Y-100611714D01*
X138147714Y-100468857D01*
X138147714Y-100326000D01*
X138100095Y-100183142D01*
X138052476Y-100111714D01*
X137957238Y-100040285D01*
X137766761Y-99968857D01*
X137671523Y-99897428D01*
X137623904Y-99826000D01*
X137576285Y-99683142D01*
X137576285Y-99540285D01*
X137623904Y-99397428D01*
X137671523Y-99326000D01*
X137766761Y-99254571D01*
X138004857Y-99254571D01*
X138147714Y-99326000D01*
X139147714Y-100611714D02*
X139100095Y-100683142D01*
X138957238Y-100754571D01*
X138862000Y-100754571D01*
X138719142Y-100683142D01*
X138623904Y-100540285D01*
X138576285Y-100397428D01*
X138528666Y-100111714D01*
X138528666Y-99897428D01*
X138576285Y-99611714D01*
X138623904Y-99468857D01*
X138719142Y-99326000D01*
X138862000Y-99254571D01*
X138957238Y-99254571D01*
X139100095Y-99326000D01*
X139147714Y-99397428D01*
X140147714Y-100754571D02*
X139814380Y-100040285D01*
X139576285Y-100754571D02*
X139576285Y-99254571D01*
X139957238Y-99254571D01*
X140052476Y-99326000D01*
X140100095Y-99397428D01*
X140147714Y-99540285D01*
X140147714Y-99754571D01*
X140100095Y-99897428D01*
X140052476Y-99968857D01*
X139957238Y-100040285D01*
X139576285Y-100040285D01*
D10*
X203952380Y-128833333D02*
X204666666Y-128833333D01*
X204809523Y-128880952D01*
X204904761Y-128976190D01*
X204952380Y-129119047D01*
X204952380Y-129214285D01*
X204952380Y-127833333D02*
X204952380Y-128404761D01*
X204952380Y-128119047D02*
X203952380Y-128119047D01*
X204095238Y-128214285D01*
X204190476Y-128309523D01*
X204238095Y-128404761D01*
X146952380Y-128833333D02*
X147666666Y-128833333D01*
X147809523Y-128880952D01*
X147904761Y-128976190D01*
X147952380Y-129119047D01*
X147952380Y-129214285D01*
X147047619Y-128404761D02*
X147000000Y-128357142D01*
X146952380Y-128261904D01*
X146952380Y-128023809D01*
X147000000Y-127928571D01*
X147047619Y-127880952D01*
X147142857Y-127833333D01*
X147238095Y-127833333D01*
X147380952Y-127880952D01*
X147952380Y-128452380D01*
X147952380Y-127833333D01*
X191432142Y-154122380D02*
X191098809Y-153646190D01*
X190860714Y-154122380D02*
X190860714Y-153122380D01*
X191241666Y-153122380D01*
X191336904Y-153170000D01*
X191384523Y-153217619D01*
X191432142Y-153312857D01*
X191432142Y-153455714D01*
X191384523Y-153550952D01*
X191336904Y-153598571D01*
X191241666Y-153646190D01*
X190860714Y-153646190D01*
X192384523Y-154122380D02*
X191813095Y-154122380D01*
X192098809Y-154122380D02*
X192098809Y-153122380D01*
X192003571Y-153265238D01*
X191908333Y-153360476D01*
X191813095Y-153408095D01*
X193336904Y-154122380D02*
X192765476Y-154122380D01*
X193051190Y-154122380D02*
X193051190Y-153122380D01*
X192955952Y-153265238D01*
X192860714Y-153360476D01*
X192765476Y-153408095D01*
X199083904Y-105100380D02*
X199083904Y-104100380D01*
X199322000Y-104100380D01*
X199464857Y-104148000D01*
X199560095Y-104243238D01*
X199607714Y-104338476D01*
X199655333Y-104528952D01*
X199655333Y-104671809D01*
X199607714Y-104862285D01*
X199560095Y-104957523D01*
X199464857Y-105052761D01*
X199322000Y-105100380D01*
X199083904Y-105100380D01*
X199988666Y-104100380D02*
X200607714Y-104100380D01*
X200274380Y-104481333D01*
X200417238Y-104481333D01*
X200512476Y-104528952D01*
X200560095Y-104576571D01*
X200607714Y-104671809D01*
X200607714Y-104909904D01*
X200560095Y-105005142D01*
X200512476Y-105052761D01*
X200417238Y-105100380D01*
X200131523Y-105100380D01*
X200036285Y-105052761D01*
X199988666Y-105005142D01*
X206965952Y-103274761D02*
X207108809Y-103322380D01*
X207346904Y-103322380D01*
X207442142Y-103274761D01*
X207489761Y-103227142D01*
X207537380Y-103131904D01*
X207537380Y-103036666D01*
X207489761Y-102941428D01*
X207442142Y-102893809D01*
X207346904Y-102846190D01*
X207156428Y-102798571D01*
X207061190Y-102750952D01*
X207013571Y-102703333D01*
X206965952Y-102608095D01*
X206965952Y-102512857D01*
X207013571Y-102417619D01*
X207061190Y-102370000D01*
X207156428Y-102322380D01*
X207394523Y-102322380D01*
X207537380Y-102370000D01*
X207965952Y-102798571D02*
X208299285Y-102798571D01*
X208442142Y-103322380D02*
X207965952Y-103322380D01*
X207965952Y-102322380D01*
X208442142Y-102322380D01*
X208727857Y-102322380D02*
X209299285Y-102322380D01*
X209013571Y-103322380D02*
X209013571Y-102322380D01*
X209632619Y-103322380D02*
X209632619Y-102322380D01*
X210013571Y-102322380D01*
X210108809Y-102370000D01*
X210156428Y-102417619D01*
X210204047Y-102512857D01*
X210204047Y-102655714D01*
X210156428Y-102750952D01*
X210108809Y-102798571D01*
X210013571Y-102846190D01*
X209632619Y-102846190D01*
X199083904Y-106878380D02*
X199083904Y-105878380D01*
X199322000Y-105878380D01*
X199464857Y-105926000D01*
X199560095Y-106021238D01*
X199607714Y-106116476D01*
X199655333Y-106306952D01*
X199655333Y-106449809D01*
X199607714Y-106640285D01*
X199560095Y-106735523D01*
X199464857Y-106830761D01*
X199322000Y-106878380D01*
X199083904Y-106878380D01*
X200036285Y-105973619D02*
X200083904Y-105926000D01*
X200179142Y-105878380D01*
X200417238Y-105878380D01*
X200512476Y-105926000D01*
X200560095Y-105973619D01*
X200607714Y-106068857D01*
X200607714Y-106164095D01*
X200560095Y-106306952D01*
X199988666Y-106878380D01*
X200607714Y-106878380D01*
X206719904Y-106830761D02*
X206862761Y-106878380D01*
X207100857Y-106878380D01*
X207196095Y-106830761D01*
X207243714Y-106783142D01*
X207291333Y-106687904D01*
X207291333Y-106592666D01*
X207243714Y-106497428D01*
X207196095Y-106449809D01*
X207100857Y-106402190D01*
X206910380Y-106354571D01*
X206815142Y-106306952D01*
X206767523Y-106259333D01*
X206719904Y-106164095D01*
X206719904Y-106068857D01*
X206767523Y-105973619D01*
X206815142Y-105926000D01*
X206910380Y-105878380D01*
X207148476Y-105878380D01*
X207291333Y-105926000D01*
X208291333Y-106878380D02*
X207958000Y-106402190D01*
X207719904Y-106878380D02*
X207719904Y-105878380D01*
X208100857Y-105878380D01*
X208196095Y-105926000D01*
X208243714Y-105973619D01*
X208291333Y-106068857D01*
X208291333Y-106211714D01*
X208243714Y-106306952D01*
X208196095Y-106354571D01*
X208100857Y-106402190D01*
X207719904Y-106402190D01*
X209291333Y-106783142D02*
X209243714Y-106830761D01*
X209100857Y-106878380D01*
X209005619Y-106878380D01*
X208862761Y-106830761D01*
X208767523Y-106735523D01*
X208719904Y-106640285D01*
X208672285Y-106449809D01*
X208672285Y-106306952D01*
X208719904Y-106116476D01*
X208767523Y-106021238D01*
X208862761Y-105926000D01*
X209005619Y-105878380D01*
X209100857Y-105878380D01*
X209243714Y-105926000D01*
X209291333Y-105973619D01*
X209719904Y-106354571D02*
X210053238Y-106354571D01*
X210196095Y-106878380D02*
X209719904Y-106878380D01*
X209719904Y-105878380D01*
X210196095Y-105878380D01*
X199083904Y-108656380D02*
X199083904Y-107656380D01*
X199322000Y-107656380D01*
X199464857Y-107704000D01*
X199560095Y-107799238D01*
X199607714Y-107894476D01*
X199655333Y-108084952D01*
X199655333Y-108227809D01*
X199607714Y-108418285D01*
X199560095Y-108513523D01*
X199464857Y-108608761D01*
X199322000Y-108656380D01*
X199083904Y-108656380D01*
X200607714Y-108656380D02*
X200036285Y-108656380D01*
X200322000Y-108656380D02*
X200322000Y-107656380D01*
X200226761Y-107799238D01*
X200131523Y-107894476D01*
X200036285Y-107942095D01*
X207204047Y-110688380D02*
X207204047Y-109688380D01*
X207680238Y-110688380D02*
X207680238Y-109688380D01*
X208251666Y-110688380D01*
X208251666Y-109688380D01*
X208680238Y-110640761D02*
X208823095Y-110688380D01*
X209061190Y-110688380D01*
X209156428Y-110640761D01*
X209204047Y-110593142D01*
X209251666Y-110497904D01*
X209251666Y-110402666D01*
X209204047Y-110307428D01*
X209156428Y-110259809D01*
X209061190Y-110212190D01*
X208870714Y-110164571D01*
X208775476Y-110116952D01*
X208727857Y-110069333D01*
X208680238Y-109974095D01*
X208680238Y-109878857D01*
X208727857Y-109783619D01*
X208775476Y-109736000D01*
X208870714Y-109688380D01*
X209108809Y-109688380D01*
X209251666Y-109736000D01*
X209537380Y-109688380D02*
X210108809Y-109688380D01*
X209823095Y-110688380D02*
X209823095Y-109688380D01*
X191908333Y-149042380D02*
X191575000Y-148566190D01*
X191336904Y-149042380D02*
X191336904Y-148042380D01*
X191717857Y-148042380D01*
X191813095Y-148090000D01*
X191860714Y-148137619D01*
X191908333Y-148232857D01*
X191908333Y-148375714D01*
X191860714Y-148470952D01*
X191813095Y-148518571D01*
X191717857Y-148566190D01*
X191336904Y-148566190D01*
X192860714Y-149042380D02*
X192289285Y-149042380D01*
X192575000Y-149042380D02*
X192575000Y-148042380D01*
X192479761Y-148185238D01*
X192384523Y-148280476D01*
X192289285Y-148328095D01*
X175438095Y-140168380D02*
X175438095Y-140977904D01*
X175485714Y-141073142D01*
X175533333Y-141120761D01*
X175628571Y-141168380D01*
X175819047Y-141168380D01*
X175914285Y-141120761D01*
X175961904Y-141073142D01*
X176009523Y-140977904D01*
X176009523Y-140168380D01*
X177009523Y-141168380D02*
X176438095Y-141168380D01*
X176723809Y-141168380D02*
X176723809Y-140168380D01*
X176628571Y-140311238D01*
X176533333Y-140406476D01*
X176438095Y-140454095D01*
X174992666Y-139471666D02*
X174292666Y-139471666D01*
X174792666Y-139238333D01*
X174292666Y-139005000D01*
X174992666Y-139005000D01*
X174992666Y-138671666D02*
X174292666Y-138671666D01*
X174992666Y-138271666D02*
X174592666Y-138571666D01*
X174292666Y-138271666D02*
X174692666Y-138671666D01*
X174359333Y-138005000D02*
X174326000Y-137971666D01*
X174292666Y-137905000D01*
X174292666Y-137738333D01*
X174326000Y-137671666D01*
X174359333Y-137638333D01*
X174426000Y-137605000D01*
X174492666Y-137605000D01*
X174592666Y-137638333D01*
X174992666Y-138038333D01*
X174992666Y-137605000D01*
X174292666Y-137171666D02*
X174292666Y-137105000D01*
X174326000Y-137038333D01*
X174359333Y-137005000D01*
X174426000Y-136971666D01*
X174559333Y-136938333D01*
X174726000Y-136938333D01*
X174859333Y-136971666D01*
X174926000Y-137005000D01*
X174959333Y-137038333D01*
X174992666Y-137105000D01*
X174992666Y-137171666D01*
X174959333Y-137238333D01*
X174926000Y-137271666D01*
X174859333Y-137305000D01*
X174726000Y-137338333D01*
X174559333Y-137338333D01*
X174426000Y-137305000D01*
X174359333Y-137271666D01*
X174326000Y-137238333D01*
X174292666Y-137171666D01*
X174992666Y-136638333D02*
X174292666Y-136638333D01*
X174292666Y-136471666D01*
X174326000Y-136371666D01*
X174392666Y-136305000D01*
X174459333Y-136271666D01*
X174592666Y-136238333D01*
X174692666Y-136238333D01*
X174826000Y-136271666D01*
X174892666Y-136305000D01*
X174959333Y-136371666D01*
X174992666Y-136471666D01*
X174992666Y-136638333D01*
X174292666Y-136005000D02*
X174992666Y-135538333D01*
X174292666Y-135538333D02*
X174992666Y-136005000D01*
X174992666Y-134905000D02*
X174992666Y-135305000D01*
X174992666Y-135105000D02*
X174292666Y-135105000D01*
X174392666Y-135171666D01*
X174459333Y-135238333D01*
X174492666Y-135305000D01*
X174359333Y-134638333D02*
X174326000Y-134605000D01*
X174292666Y-134538333D01*
X174292666Y-134371666D01*
X174326000Y-134305000D01*
X174359333Y-134271666D01*
X174426000Y-134238333D01*
X174492666Y-134238333D01*
X174592666Y-134271666D01*
X174992666Y-134671666D01*
X174992666Y-134238333D01*
X174592666Y-133838333D02*
X174559333Y-133905000D01*
X174526000Y-133938333D01*
X174459333Y-133971666D01*
X174426000Y-133971666D01*
X174359333Y-133938333D01*
X174326000Y-133905000D01*
X174292666Y-133838333D01*
X174292666Y-133705000D01*
X174326000Y-133638333D01*
X174359333Y-133605000D01*
X174426000Y-133571666D01*
X174459333Y-133571666D01*
X174526000Y-133605000D01*
X174559333Y-133638333D01*
X174592666Y-133705000D01*
X174592666Y-133838333D01*
X174626000Y-133905000D01*
X174659333Y-133938333D01*
X174726000Y-133971666D01*
X174859333Y-133971666D01*
X174926000Y-133938333D01*
X174959333Y-133905000D01*
X174992666Y-133838333D01*
X174992666Y-133705000D01*
X174959333Y-133638333D01*
X174926000Y-133605000D01*
X174859333Y-133571666D01*
X174726000Y-133571666D01*
X174659333Y-133605000D01*
X174626000Y-133638333D01*
X174592666Y-133705000D01*
X174292666Y-133371666D02*
X174992666Y-133138333D01*
X174292666Y-132905000D01*
X174992666Y-132338333D02*
X174992666Y-132671666D01*
X174292666Y-132671666D01*
X174992666Y-132105000D02*
X174292666Y-132105000D01*
X174626000Y-132105000D02*
X174626000Y-131705000D01*
X174992666Y-131705000D02*
X174292666Y-131705000D01*
X174292666Y-131038333D02*
X174292666Y-131371666D01*
X174626000Y-131405000D01*
X174592666Y-131371666D01*
X174559333Y-131305000D01*
X174559333Y-131138333D01*
X174592666Y-131071666D01*
X174626000Y-131038333D01*
X174692666Y-131005000D01*
X174859333Y-131005000D01*
X174926000Y-131038333D01*
X174959333Y-131071666D01*
X174992666Y-131138333D01*
X174992666Y-131305000D01*
X174959333Y-131371666D01*
X174926000Y-131405000D01*
X176262666Y-138988333D02*
X175562666Y-138988333D01*
X176062666Y-138755000D01*
X175562666Y-138521666D01*
X176262666Y-138521666D01*
X176262666Y-138188333D02*
X175562666Y-138188333D01*
X176262666Y-137788333D02*
X175862666Y-138088333D01*
X175562666Y-137788333D02*
X175962666Y-138188333D01*
X176262666Y-137155000D02*
X176262666Y-137488333D01*
X175562666Y-137488333D01*
X175629333Y-136955000D02*
X175596000Y-136921666D01*
X175562666Y-136855000D01*
X175562666Y-136688333D01*
X175596000Y-136621666D01*
X175629333Y-136588333D01*
X175696000Y-136555000D01*
X175762666Y-136555000D01*
X175862666Y-136588333D01*
X176262666Y-136988333D01*
X176262666Y-136555000D01*
X175562666Y-135955000D02*
X175562666Y-136088333D01*
X175596000Y-136155000D01*
X175629333Y-136188333D01*
X175729333Y-136255000D01*
X175862666Y-136288333D01*
X176129333Y-136288333D01*
X176196000Y-136255000D01*
X176229333Y-136221666D01*
X176262666Y-136155000D01*
X176262666Y-136021666D01*
X176229333Y-135955000D01*
X176196000Y-135921666D01*
X176129333Y-135888333D01*
X175962666Y-135888333D01*
X175896000Y-135921666D01*
X175862666Y-135955000D01*
X175829333Y-136021666D01*
X175829333Y-136155000D01*
X175862666Y-136221666D01*
X175896000Y-136255000D01*
X175962666Y-136288333D01*
X175562666Y-135655000D02*
X175562666Y-135188333D01*
X176262666Y-135655000D01*
X176262666Y-135188333D01*
X175562666Y-134621666D02*
X175562666Y-134755000D01*
X175596000Y-134821666D01*
X175629333Y-134855000D01*
X175729333Y-134921666D01*
X175862666Y-134955000D01*
X176129333Y-134955000D01*
X176196000Y-134921666D01*
X176229333Y-134888333D01*
X176262666Y-134821666D01*
X176262666Y-134688333D01*
X176229333Y-134621666D01*
X176196000Y-134588333D01*
X176129333Y-134555000D01*
X175962666Y-134555000D01*
X175896000Y-134588333D01*
X175862666Y-134621666D01*
X175829333Y-134688333D01*
X175829333Y-134821666D01*
X175862666Y-134888333D01*
X175896000Y-134921666D01*
X175962666Y-134955000D01*
X175796000Y-133955000D02*
X176262666Y-133955000D01*
X175529333Y-134121666D02*
X176029333Y-134288333D01*
X176029333Y-133855000D01*
X175562666Y-133688333D02*
X176262666Y-133455000D01*
X175562666Y-133221666D01*
X175896000Y-132755000D02*
X175896000Y-132988333D01*
X176262666Y-132988333D02*
X175562666Y-132988333D01*
X175562666Y-132655000D01*
X175562666Y-132488333D02*
X175562666Y-132088333D01*
X176262666Y-132288333D02*
X175562666Y-132288333D01*
X175796000Y-131555000D02*
X176262666Y-131555000D01*
X175529333Y-131721666D02*
X176029333Y-131888333D01*
X176029333Y-131455000D01*
X173722666Y-139471666D02*
X173022666Y-139471666D01*
X173522666Y-139238333D01*
X173022666Y-139005000D01*
X173722666Y-139005000D01*
X173722666Y-138671666D02*
X173022666Y-138671666D01*
X173722666Y-138271666D02*
X173322666Y-138571666D01*
X173022666Y-138271666D02*
X173422666Y-138671666D01*
X173089333Y-138005000D02*
X173056000Y-137971666D01*
X173022666Y-137905000D01*
X173022666Y-137738333D01*
X173056000Y-137671666D01*
X173089333Y-137638333D01*
X173156000Y-137605000D01*
X173222666Y-137605000D01*
X173322666Y-137638333D01*
X173722666Y-138038333D01*
X173722666Y-137605000D01*
X173022666Y-137171666D02*
X173022666Y-137105000D01*
X173056000Y-137038333D01*
X173089333Y-137005000D01*
X173156000Y-136971666D01*
X173289333Y-136938333D01*
X173456000Y-136938333D01*
X173589333Y-136971666D01*
X173656000Y-137005000D01*
X173689333Y-137038333D01*
X173722666Y-137105000D01*
X173722666Y-137171666D01*
X173689333Y-137238333D01*
X173656000Y-137271666D01*
X173589333Y-137305000D01*
X173456000Y-137338333D01*
X173289333Y-137338333D01*
X173156000Y-137305000D01*
X173089333Y-137271666D01*
X173056000Y-137238333D01*
X173022666Y-137171666D01*
X173722666Y-136638333D02*
X173022666Y-136638333D01*
X173022666Y-136471666D01*
X173056000Y-136371666D01*
X173122666Y-136305000D01*
X173189333Y-136271666D01*
X173322666Y-136238333D01*
X173422666Y-136238333D01*
X173556000Y-136271666D01*
X173622666Y-136305000D01*
X173689333Y-136371666D01*
X173722666Y-136471666D01*
X173722666Y-136638333D01*
X173022666Y-136005000D02*
X173722666Y-135538333D01*
X173022666Y-135538333D02*
X173722666Y-136005000D01*
X173089333Y-135305000D02*
X173056000Y-135271666D01*
X173022666Y-135205000D01*
X173022666Y-135038333D01*
X173056000Y-134971666D01*
X173089333Y-134938333D01*
X173156000Y-134905000D01*
X173222666Y-134905000D01*
X173322666Y-134938333D01*
X173722666Y-135338333D01*
X173722666Y-134905000D01*
X173022666Y-134271666D02*
X173022666Y-134605000D01*
X173356000Y-134638333D01*
X173322666Y-134605000D01*
X173289333Y-134538333D01*
X173289333Y-134371666D01*
X173322666Y-134305000D01*
X173356000Y-134271666D01*
X173422666Y-134238333D01*
X173589333Y-134238333D01*
X173656000Y-134271666D01*
X173689333Y-134305000D01*
X173722666Y-134371666D01*
X173722666Y-134538333D01*
X173689333Y-134605000D01*
X173656000Y-134638333D01*
X173022666Y-133638333D02*
X173022666Y-133771666D01*
X173056000Y-133838333D01*
X173089333Y-133871666D01*
X173189333Y-133938333D01*
X173322666Y-133971666D01*
X173589333Y-133971666D01*
X173656000Y-133938333D01*
X173689333Y-133905000D01*
X173722666Y-133838333D01*
X173722666Y-133705000D01*
X173689333Y-133638333D01*
X173656000Y-133605000D01*
X173589333Y-133571666D01*
X173422666Y-133571666D01*
X173356000Y-133605000D01*
X173322666Y-133638333D01*
X173289333Y-133705000D01*
X173289333Y-133838333D01*
X173322666Y-133905000D01*
X173356000Y-133938333D01*
X173422666Y-133971666D01*
X173022666Y-133371666D02*
X173722666Y-133138333D01*
X173022666Y-132905000D01*
X173722666Y-132338333D02*
X173722666Y-132671666D01*
X173022666Y-132671666D01*
X173722666Y-132105000D02*
X173022666Y-132105000D01*
X173356000Y-132105000D02*
X173356000Y-131705000D01*
X173722666Y-131705000D02*
X173022666Y-131705000D01*
X173022666Y-131438333D02*
X173022666Y-130971666D01*
X173722666Y-131271666D01*
X172183809Y-145502380D02*
X172755238Y-145502380D01*
X172469523Y-146502380D02*
X172469523Y-145502380D01*
X172993333Y-145502380D02*
X173612380Y-145502380D01*
X173279047Y-145883333D01*
X173421904Y-145883333D01*
X173517142Y-145930952D01*
X173564761Y-145978571D01*
X173612380Y-146073809D01*
X173612380Y-146311904D01*
X173564761Y-146407142D01*
X173517142Y-146454761D01*
X173421904Y-146502380D01*
X173136190Y-146502380D01*
X173040952Y-146454761D01*
X172993333Y-146407142D01*
X174040952Y-146407142D02*
X174088571Y-146454761D01*
X174040952Y-146502380D01*
X173993333Y-146454761D01*
X174040952Y-146407142D01*
X174040952Y-146502380D01*
X175040952Y-146502380D02*
X174469523Y-146502380D01*
X174755238Y-146502380D02*
X174755238Y-145502380D01*
X174660000Y-145645238D01*
X174564761Y-145740476D01*
X174469523Y-145788095D01*
X172183809Y-149312380D02*
X172755238Y-149312380D01*
X172469523Y-150312380D02*
X172469523Y-149312380D01*
X172993333Y-149312380D02*
X173612380Y-149312380D01*
X173279047Y-149693333D01*
X173421904Y-149693333D01*
X173517142Y-149740952D01*
X173564761Y-149788571D01*
X173612380Y-149883809D01*
X173612380Y-150121904D01*
X173564761Y-150217142D01*
X173517142Y-150264761D01*
X173421904Y-150312380D01*
X173136190Y-150312380D01*
X173040952Y-150264761D01*
X172993333Y-150217142D01*
X174040952Y-150217142D02*
X174088571Y-150264761D01*
X174040952Y-150312380D01*
X173993333Y-150264761D01*
X174040952Y-150217142D01*
X174040952Y-150312380D01*
X174469523Y-149407619D02*
X174517142Y-149360000D01*
X174612380Y-149312380D01*
X174850476Y-149312380D01*
X174945714Y-149360000D01*
X174993333Y-149407619D01*
X175040952Y-149502857D01*
X175040952Y-149598095D01*
X174993333Y-149740952D01*
X174421904Y-150312380D01*
X175040952Y-150312380D01*
X152601904Y-144597380D02*
X152601904Y-143597380D01*
X152840000Y-143597380D01*
X152982857Y-143645000D01*
X153078095Y-143740238D01*
X153125714Y-143835476D01*
X153173333Y-144025952D01*
X153173333Y-144168809D01*
X153125714Y-144359285D01*
X153078095Y-144454523D01*
X152982857Y-144549761D01*
X152840000Y-144597380D01*
X152601904Y-144597380D01*
X154030476Y-143930714D02*
X154030476Y-144597380D01*
X153792380Y-143549761D02*
X153554285Y-144264047D01*
X154173333Y-144264047D01*
X150736666Y-150947380D02*
X150736666Y-149947380D01*
X151117619Y-149947380D01*
X151212857Y-149995000D01*
X151260476Y-150042619D01*
X151308095Y-150137857D01*
X151308095Y-150280714D01*
X151260476Y-150375952D01*
X151212857Y-150423571D01*
X151117619Y-150471190D01*
X150736666Y-150471190D01*
X151641428Y-149947380D02*
X151879523Y-150947380D01*
X152070000Y-150233095D01*
X152260476Y-150947380D01*
X152498571Y-149947380D01*
X153450952Y-150947380D02*
X153117619Y-150471190D01*
X152879523Y-150947380D02*
X152879523Y-149947380D01*
X153260476Y-149947380D01*
X153355714Y-149995000D01*
X153403333Y-150042619D01*
X153450952Y-150137857D01*
X153450952Y-150280714D01*
X153403333Y-150375952D01*
X153355714Y-150423571D01*
X153260476Y-150471190D01*
X152879523Y-150471190D01*
X153967142Y-100147380D02*
X153633809Y-99671190D01*
X153395714Y-100147380D02*
X153395714Y-99147380D01*
X153776666Y-99147380D01*
X153871904Y-99195000D01*
X153919523Y-99242619D01*
X153967142Y-99337857D01*
X153967142Y-99480714D01*
X153919523Y-99575952D01*
X153871904Y-99623571D01*
X153776666Y-99671190D01*
X153395714Y-99671190D01*
X154919523Y-100147380D02*
X154348095Y-100147380D01*
X154633809Y-100147380D02*
X154633809Y-99147380D01*
X154538571Y-99290238D01*
X154443333Y-99385476D01*
X154348095Y-99433095D01*
X155776666Y-99480714D02*
X155776666Y-100147380D01*
X155538571Y-99099761D02*
X155300476Y-99814047D01*
X155919523Y-99814047D01*
X161587142Y-100274380D02*
X161253809Y-99798190D01*
X161015714Y-100274380D02*
X161015714Y-99274380D01*
X161396666Y-99274380D01*
X161491904Y-99322000D01*
X161539523Y-99369619D01*
X161587142Y-99464857D01*
X161587142Y-99607714D01*
X161539523Y-99702952D01*
X161491904Y-99750571D01*
X161396666Y-99798190D01*
X161015714Y-99798190D01*
X162539523Y-100274380D02*
X161968095Y-100274380D01*
X162253809Y-100274380D02*
X162253809Y-99274380D01*
X162158571Y-99417238D01*
X162063333Y-99512476D01*
X161968095Y-99560095D01*
X162872857Y-99274380D02*
X163491904Y-99274380D01*
X163158571Y-99655333D01*
X163301428Y-99655333D01*
X163396666Y-99702952D01*
X163444285Y-99750571D01*
X163491904Y-99845809D01*
X163491904Y-100083904D01*
X163444285Y-100179142D01*
X163396666Y-100226761D01*
X163301428Y-100274380D01*
X163015714Y-100274380D01*
X162920476Y-100226761D01*
X162872857Y-100179142D01*
X164127142Y-105227380D02*
X163793809Y-104751190D01*
X163555714Y-105227380D02*
X163555714Y-104227380D01*
X163936666Y-104227380D01*
X164031904Y-104275000D01*
X164079523Y-104322619D01*
X164127142Y-104417857D01*
X164127142Y-104560714D01*
X164079523Y-104655952D01*
X164031904Y-104703571D01*
X163936666Y-104751190D01*
X163555714Y-104751190D01*
X165079523Y-105227380D02*
X164508095Y-105227380D01*
X164793809Y-105227380D02*
X164793809Y-104227380D01*
X164698571Y-104370238D01*
X164603333Y-104465476D01*
X164508095Y-104513095D01*
X165984285Y-104227380D02*
X165508095Y-104227380D01*
X165460476Y-104703571D01*
X165508095Y-104655952D01*
X165603333Y-104608333D01*
X165841428Y-104608333D01*
X165936666Y-104655952D01*
X165984285Y-104703571D01*
X166031904Y-104798809D01*
X166031904Y-105036904D01*
X165984285Y-105132142D01*
X165936666Y-105179761D01*
X165841428Y-105227380D01*
X165603333Y-105227380D01*
X165508095Y-105179761D01*
X165460476Y-105132142D01*
X162857142Y-149042380D02*
X162523809Y-148566190D01*
X162285714Y-149042380D02*
X162285714Y-148042380D01*
X162666666Y-148042380D01*
X162761904Y-148090000D01*
X162809523Y-148137619D01*
X162857142Y-148232857D01*
X162857142Y-148375714D01*
X162809523Y-148470952D01*
X162761904Y-148518571D01*
X162666666Y-148566190D01*
X162285714Y-148566190D01*
X163809523Y-149042380D02*
X163238095Y-149042380D01*
X163523809Y-149042380D02*
X163523809Y-148042380D01*
X163428571Y-148185238D01*
X163333333Y-148280476D01*
X163238095Y-148328095D01*
X164190476Y-148137619D02*
X164238095Y-148090000D01*
X164333333Y-148042380D01*
X164571428Y-148042380D01*
X164666666Y-148090000D01*
X164714285Y-148137619D01*
X164761904Y-148232857D01*
X164761904Y-148328095D01*
X164714285Y-148470952D01*
X164142857Y-149042380D01*
X164761904Y-149042380D01*
X191432142Y-151582380D02*
X191098809Y-151106190D01*
X190860714Y-151582380D02*
X190860714Y-150582380D01*
X191241666Y-150582380D01*
X191336904Y-150630000D01*
X191384523Y-150677619D01*
X191432142Y-150772857D01*
X191432142Y-150915714D01*
X191384523Y-151010952D01*
X191336904Y-151058571D01*
X191241666Y-151106190D01*
X190860714Y-151106190D01*
X192384523Y-151582380D02*
X191813095Y-151582380D01*
X192098809Y-151582380D02*
X192098809Y-150582380D01*
X192003571Y-150725238D01*
X191908333Y-150820476D01*
X191813095Y-150868095D01*
X193003571Y-150582380D02*
X193098809Y-150582380D01*
X193194047Y-150630000D01*
X193241666Y-150677619D01*
X193289285Y-150772857D01*
X193336904Y-150963333D01*
X193336904Y-151201428D01*
X193289285Y-151391904D01*
X193241666Y-151487142D01*
X193194047Y-151534761D01*
X193098809Y-151582380D01*
X193003571Y-151582380D01*
X192908333Y-151534761D01*
X192860714Y-151487142D01*
X192813095Y-151391904D01*
X192765476Y-151201428D01*
X192765476Y-150963333D01*
X192813095Y-150772857D01*
X192860714Y-150677619D01*
X192908333Y-150630000D01*
X193003571Y-150582380D01*
X174866666Y-114704761D02*
X175009523Y-114752380D01*
X175247619Y-114752380D01*
X175342857Y-114704761D01*
X175390476Y-114657142D01*
X175438095Y-114561904D01*
X175438095Y-114466666D01*
X175390476Y-114371428D01*
X175342857Y-114323809D01*
X175247619Y-114276190D01*
X175057142Y-114228571D01*
X174961904Y-114180952D01*
X174914285Y-114133333D01*
X174866666Y-114038095D01*
X174866666Y-113942857D01*
X174914285Y-113847619D01*
X174961904Y-113800000D01*
X175057142Y-113752380D01*
X175295238Y-113752380D01*
X175438095Y-113800000D01*
X175771428Y-113752380D02*
X176009523Y-114752380D01*
X176200000Y-114038095D01*
X176390476Y-114752380D01*
X176628571Y-113752380D01*
X176914285Y-113752380D02*
X177533333Y-113752380D01*
X177200000Y-114133333D01*
X177342857Y-114133333D01*
X177438095Y-114180952D01*
X177485714Y-114228571D01*
X177533333Y-114323809D01*
X177533333Y-114561904D01*
X177485714Y-114657142D01*
X177438095Y-114704761D01*
X177342857Y-114752380D01*
X177057142Y-114752380D01*
X176961904Y-114704761D01*
X176914285Y-114657142D01*
D12*
X172080952Y-106088571D02*
X172080952Y-104588571D01*
X172461904Y-104588571D01*
X172557142Y-104660000D01*
X172604761Y-104731428D01*
X172652380Y-104874285D01*
X172652380Y-105088571D01*
X172604761Y-105231428D01*
X172557142Y-105302857D01*
X172461904Y-105374285D01*
X172080952Y-105374285D01*
X173652380Y-106088571D02*
X173319047Y-105374285D01*
X173080952Y-106088571D02*
X173080952Y-104588571D01*
X173461904Y-104588571D01*
X173557142Y-104660000D01*
X173604761Y-104731428D01*
X173652380Y-104874285D01*
X173652380Y-105088571D01*
X173604761Y-105231428D01*
X173557142Y-105302857D01*
X173461904Y-105374285D01*
X173080952Y-105374285D01*
X174604761Y-104660000D02*
X174509523Y-104588571D01*
X174366666Y-104588571D01*
X174223809Y-104660000D01*
X174128571Y-104802857D01*
X174080952Y-104945714D01*
X174033333Y-105231428D01*
X174033333Y-105445714D01*
X174080952Y-105731428D01*
X174128571Y-105874285D01*
X174223809Y-106017142D01*
X174366666Y-106088571D01*
X174461904Y-106088571D01*
X174604761Y-106017142D01*
X174652380Y-105945714D01*
X174652380Y-105445714D01*
X174461904Y-105445714D01*
X175080952Y-105517142D02*
X175842857Y-105517142D01*
X176176190Y-104588571D02*
X176509523Y-106088571D01*
X176842857Y-104588571D01*
X177128571Y-105660000D02*
X177604761Y-105660000D01*
X177033333Y-106088571D02*
X177366666Y-104588571D01*
X177700000Y-106088571D01*
X178509523Y-106088571D02*
X178033333Y-106088571D01*
X178033333Y-104588571D01*
X178842857Y-104588571D02*
X178842857Y-105802857D01*
X178890476Y-105945714D01*
X178938095Y-106017142D01*
X179033333Y-106088571D01*
X179223809Y-106088571D01*
X179319047Y-106017142D01*
X179366666Y-105945714D01*
X179414285Y-105802857D01*
X179414285Y-104588571D01*
X179890476Y-105302857D02*
X180223809Y-105302857D01*
X180366666Y-106088571D02*
X179890476Y-106088571D01*
X179890476Y-104588571D01*
X180366666Y-104588571D01*
D10*
X158086666Y-93432380D02*
X158086666Y-94146666D01*
X158039047Y-94289523D01*
X157943809Y-94384761D01*
X157800952Y-94432380D01*
X157705714Y-94432380D01*
X158467619Y-93432380D02*
X159086666Y-93432380D01*
X158753333Y-93813333D01*
X158896190Y-93813333D01*
X158991428Y-93860952D01*
X159039047Y-93908571D01*
X159086666Y-94003809D01*
X159086666Y-94241904D01*
X159039047Y-94337142D01*
X158991428Y-94384761D01*
X158896190Y-94432380D01*
X158610476Y-94432380D01*
X158515238Y-94384761D01*
X158467619Y-94337142D01*
X207616666Y-92638571D02*
X207283333Y-92638571D01*
X207283333Y-93162380D02*
X207283333Y-92162380D01*
X207759523Y-92162380D01*
X208664285Y-93162380D02*
X208092857Y-93162380D01*
X208378571Y-93162380D02*
X208378571Y-92162380D01*
X208283333Y-92305238D01*
X208188095Y-92400476D01*
X208092857Y-92448095D01*
M02*
