<?xml version="1.0" encoding="UTF-8"?>
<svg xmlns="http://www.w3.org/2000/svg" xmlns:xlink="http://www.w3.org/1999/xlink" width="595.275591pt" height="841.889764pt" viewBox="0 0 595.275591 841.889764" version="1.2">
<g id="surface32929">
<rect x="0" y="0" width="595.275591" height="841.889764" style="fill:rgb(100%,100%,100%);fill-opacity:1;stroke:none;"/>
<path style="fill:none;stroke-width:19;stroke-linecap:round;stroke-linejoin:round;stroke:rgb(0%,0%,0%);stroke-opacity:1;stroke-miterlimit:10;" d="M 20977.083333 12753.125 L 20977.083333 26927.083333 " transform="matrix(0.015,0,0,0.015,0,0)"/>
<path style="fill:none;stroke-width:19;stroke-linecap:round;stroke-linejoin:round;stroke:rgb(0%,0%,0%);stroke-opacity:1;stroke-miterlimit:10;" d="M 35151.041667 12753.125 L 20977.083333 12753.125 " transform="matrix(0.015,0,0,0.015,0,0)"/>
<path style="fill:none;stroke-width:19;stroke-linecap:round;stroke-linejoin:round;stroke:rgb(0%,0%,0%);stroke-opacity:1;stroke-miterlimit:10;" d="M 35151.041667 26927.083333 L 35151.041667 12753.125 " transform="matrix(0.015,0,0,0.015,0,0)"/>
<path style="fill:none;stroke-width:19;stroke-linecap:round;stroke-linejoin:round;stroke:rgb(0%,0%,0%);stroke-opacity:1;stroke-miterlimit:10;" d="M 20977.083333 26927.083333 L 35151.041667 26927.083333 " transform="matrix(0.015,0,0,0.015,0,0)"/>
<path style="fill:none;stroke-width:94;stroke-linecap:round;stroke-linejoin:round;stroke:rgb(0%,0%,0%);stroke-opacity:1;stroke-miterlimit:10;" d="M 20315.885417 25415.104167 L 20504.947917 25415.104167 " transform="matrix(0.015,0,0,0.015,0,0)"/>
<path style="fill:none;stroke-width:94;stroke-linecap:round;stroke-linejoin:round;stroke:rgb(0%,0%,0%);stroke-opacity:1;stroke-miterlimit:10;" d="M 20315.885417 23714.0625 L 20315.885417 25415.104167 " transform="matrix(0.015,0,0,0.015,0,0)"/>
<path style="fill:none;stroke-width:94;stroke-linecap:round;stroke-linejoin:round;stroke:rgb(0%,0%,0%);stroke-opacity:1;stroke-miterlimit:10;" d="M 20504.947917 23714.0625 L 20315.885417 23714.0625 " transform="matrix(0.015,0,0,0.015,0,0)"/>
<path style="fill:none;stroke-width:94;stroke-linecap:round;stroke-linejoin:round;stroke:rgb(0%,0%,0%);stroke-opacity:1;stroke-miterlimit:10;" d="M 19938.541667 25037.5 C 19938.541667 25172.65625 19866.40625 25297.395833 19749.479167 25364.84375 C 19632.552083 25432.291667 19488.541667 25432.291667 19371.614583 25364.84375 C 19254.6875 25297.395833 19182.552083 25172.65625 19182.552083 25037.5 " transform="matrix(0.015,0,0,0.015,0,0)"/>
<path style="fill:none;stroke-width:94;stroke-linecap:round;stroke-linejoin:round;stroke:rgb(0%,0%,0%);stroke-opacity:1;stroke-miterlimit:10;" d="M 19182.552083 24092.447917 C 19182.552083 23957.552083 19254.6875 23832.8125 19371.614583 23765.104167 C 19488.541667 23697.65625 19632.552083 23697.65625 19749.479167 23765.104167 C 19866.40625 23832.8125 19938.541667 23957.552083 19938.541667 24092.447917 " transform="matrix(0.015,0,0,0.015,0,0)"/>
<path style="fill:none;stroke-width:94;stroke-linecap:round;stroke-linejoin:round;stroke:rgb(0%,0%,0%);stroke-opacity:1;stroke-miterlimit:10;" d="M 19182.03125 25036.979167 L 19182.03125 24091.927083 " transform="matrix(0.015,0,0,0.015,0,0)"/>
<path style="fill:none;stroke-width:94;stroke-linecap:round;stroke-linejoin:round;stroke:rgb(0%,0%,0%);stroke-opacity:1;stroke-miterlimit:10;" d="M 19938.020833 25036.979167 L 19938.020833 24091.927083 " transform="matrix(0.015,0,0,0.015,0,0)"/>
<path style="fill:none;stroke-width:94;stroke-linecap:round;stroke-linejoin:round;stroke:rgb(0%,0%,0%);stroke-opacity:1;stroke-miterlimit:10;" d="M 18615.104167 26453.90625 L 20504.947917 27398.958333 " transform="matrix(0.015,0,0,0.015,0,0)"/>
<path style="fill:none;stroke-width:94;stroke-linecap:round;stroke-linejoin:round;stroke:rgb(0%,0%,0%);stroke-opacity:1;stroke-miterlimit:10;" d="M 20315.885417 14265.104167 L 20315.885417 15965.885417 " transform="matrix(0.015,0,0,0.015,0,0)"/>
<path style="fill:none;stroke-width:94;stroke-linecap:round;stroke-linejoin:round;stroke:rgb(0%,0%,0%);stroke-opacity:1;stroke-miterlimit:10;" d="M 21478.125 13480.989583 L 21613.020833 14426.041667 L 21721.09375 13751.041667 L 21828.90625 14426.041667 L 21964.0625 13480.989583 " transform="matrix(0.015,0,0,0.015,0,0)"/>
<path style="fill:none;stroke-width:94;stroke-linecap:round;stroke-linejoin:round;stroke:rgb(0%,0%,0%);stroke-opacity:1;stroke-miterlimit:10;" d="M 22503.90625 14335.9375 L 22477.083333 14380.989583 L 22396.09375 14426.041667 L 22341.927083 14426.041667 L 22260.9375 14380.989583 L 22207.03125 14290.885417 L 22179.947917 14201.041667 L 22153.125 14021.09375 L 22153.125 13885.9375 L 22179.947917 13705.989583 L 22207.03125 13615.885417 L 22260.9375 13526.041667 L 22341.927083 13480.989583 L 22396.09375 13480.989583 L 22477.083333 13526.041667 L 22503.90625 13571.09375 " transform="matrix(0.015,0,0,0.015,0,0)"/>
<path style="fill:none;stroke-width:94;stroke-linecap:round;stroke-linejoin:round;stroke:rgb(0%,0%,0%);stroke-opacity:1;stroke-miterlimit:10;" d="M 22665.885417 13480.989583 L 22990.104167 13480.989583 " transform="matrix(0.015,0,0,0.015,0,0)"/>
<path style="fill:none;stroke-width:94;stroke-linecap:round;stroke-linejoin:round;stroke:rgb(0%,0%,0%);stroke-opacity:1;stroke-miterlimit:10;" d="M 22828.125 14426.041667 L 22828.125 13480.989583 " transform="matrix(0.015,0,0,0.015,0,0)"/>
<path style="fill:none;stroke-width:94;stroke-linecap:round;stroke-linejoin:round;stroke:rgb(0%,0%,0%);stroke-opacity:1;stroke-miterlimit:10;" d="M 23448.958333 14426.041667 L 23178.90625 14426.041667 L 23178.90625 13480.989583 " transform="matrix(0.015,0,0,0.015,0,0)"/>
<path style="fill:none;stroke-width:94;stroke-linecap:round;stroke-linejoin:round;stroke:rgb(0%,0%,0%);stroke-opacity:1;stroke-miterlimit:10;" d="M 20504.947917 14265.104167 L 20315.885417 14265.104167 " transform="matrix(0.015,0,0,0.015,0,0)"/>
<path style="fill:none;stroke-width:94;stroke-linecap:round;stroke-linejoin:round;stroke:rgb(0%,0%,0%);stroke-opacity:1;stroke-miterlimit:10;" d="M 32882.552083 14548.958333 C 32882.552083 14601.302083 32840.104167 14643.489583 32788.020833 14643.489583 C 32735.9375 14643.489583 32693.489583 14601.302083 32693.489583 14548.958333 C 32693.489583 14496.875 32735.9375 14454.427083 32788.020833 14454.427083 C 32840.104167 14454.427083 32882.552083 14496.875 32882.552083 14548.958333 Z M 32882.552083 14548.958333 " transform="matrix(0.015,0,0,0.015,0,0)"/>
<path style="fill:none;stroke-width:71;stroke-linecap:round;stroke-linejoin:round;stroke:rgb(0%,0%,0%);stroke-opacity:1;stroke-miterlimit:10;" d="M 21467.447917 15250.520833 L 21514.583333 14872.395833 L 21629.427083 15250.520833 L 21676.5625 14872.395833 " transform="matrix(0.015,0,0,0.015,0,0)"/>
<path style="fill:none;stroke-width:71;stroke-linecap:round;stroke-linejoin:round;stroke:rgb(0%,0%,0%);stroke-opacity:1;stroke-miterlimit:10;" d="M 21764.583333 15250.520833 L 21811.458333 14872.395833 L 21872.395833 15142.447917 L 22000.520833 14872.395833 L 21953.385417 15250.520833 " transform="matrix(0.015,0,0,0.015,0,0)"/>
<path style="fill:none;stroke-width:71;stroke-linecap:round;stroke-linejoin:round;stroke:rgb(0%,0%,0%);stroke-opacity:1;stroke-miterlimit:10;" d="M 22112.5 15052.604167 L 22207.552083 15052.604167 " transform="matrix(0.015,0,0,0.015,0,0)"/>
<path style="fill:none;stroke-width:71;stroke-linecap:round;stroke-linejoin:round;stroke:rgb(0%,0%,0%);stroke-opacity:1;stroke-miterlimit:10;" d="M 22223.4375 15250.520833 L 22088.541667 15250.520833 L 22135.416667 14872.395833 L 22270.572917 14872.395833 " transform="matrix(0.015,0,0,0.015,0,0)"/>
<path style="fill:none;stroke-width:71;stroke-linecap:round;stroke-linejoin:round;stroke:rgb(0%,0%,0%);stroke-opacity:1;stroke-miterlimit:10;" d="M 22344.53125 15142.447917 L 22479.427083 15142.447917 " transform="matrix(0.015,0,0,0.015,0,0)"/>
<path style="fill:none;stroke-width:71;stroke-linecap:round;stroke-linejoin:round;stroke:rgb(0%,0%,0%);stroke-opacity:1;stroke-miterlimit:10;" d="M 22304.427083 15250.520833 L 22445.572917 14872.395833 L 22493.489583 15250.520833 " transform="matrix(0.015,0,0,0.015,0,0)"/>
<path style="fill:none;stroke-width:71;stroke-linecap:round;stroke-linejoin:round;stroke:rgb(0%,0%,0%);stroke-opacity:1;stroke-miterlimit:10;" d="M 22832.552083 14908.59375 L 22848.4375 14890.625 L 22877.604167 14872.395833 L 22945.572917 14872.395833 L 22969.53125 14890.625 L 22981.510417 14908.59375 L 22990.625 14944.53125 L 22985.416667 14980.46875 L 22965.625 15034.375 L 22776.5625 15250.520833 L 22951.5625 15250.520833 " transform="matrix(0.015,0,0,0.015,0,0)"/>
<path style="fill:none;stroke-width:71;stroke-linecap:round;stroke-linejoin:round;stroke:rgb(0%,0%,0%);stroke-opacity:1;stroke-miterlimit:10;" d="M 23174.479167 14872.395833 L 23201.5625 14872.395833 L 23226.5625 14890.625 L 23237.5 14908.59375 L 23246.614583 14944.53125 L 23251.5625 15016.40625 L 23239.583333 15106.510417 L 23217.447917 15178.385417 L 23199.479167 15214.583333 L 23183.59375 15232.552083 L 23154.427083 15250.520833 L 23127.604167 15250.520833 L 23102.604167 15232.552083 L 23091.40625 15214.583333 L 23082.552083 15178.385417 L 23077.604167 15106.510417 L 23089.583333 15016.40625 L 23111.458333 14944.53125 L 23129.427083 14908.59375 L 23145.572917 14890.625 L 23174.479167 14872.395833 " transform="matrix(0.015,0,0,0.015,0,0)"/>
<path style="fill:none;stroke-width:71;stroke-linecap:round;stroke-linejoin:round;stroke:rgb(0%,0%,0%);stroke-opacity:1;stroke-miterlimit:10;" d="M 23444.53125 14872.395833 L 23471.614583 14872.395833 L 23496.614583 14890.625 L 23507.552083 14908.59375 L 23516.40625 14944.53125 L 23521.614583 15016.40625 L 23509.375 15106.510417 L 23487.5 15178.385417 L 23469.53125 15214.583333 L 23453.385417 15232.552083 L 23424.479167 15250.520833 L 23397.395833 15250.520833 L 23372.395833 15232.552083 L 23361.458333 15214.583333 L 23352.604167 15178.385417 L 23347.395833 15106.510417 L 23359.375 15016.40625 L 23381.510417 14944.53125 L 23399.479167 14908.59375 L 23415.625 14890.625 L 23444.53125 14872.395833 " transform="matrix(0.015,0,0,0.015,0,0)"/>
<path style="fill:none;stroke-width:71;stroke-linecap:round;stroke-linejoin:round;stroke:rgb(0%,0%,0%);stroke-opacity:1;stroke-miterlimit:10;" d="M 23714.583333 14872.395833 L 23741.40625 14872.395833 L 23766.40625 14890.625 L 23777.604167 14908.59375 L 23786.458333 14944.53125 L 23791.40625 15016.40625 L 23779.427083 15106.510417 L 23757.552083 15178.385417 L 23739.583333 15214.583333 L 23723.4375 15232.552083 L 23694.53125 15250.520833 L 23667.447917 15250.520833 L 23642.447917 15232.552083 L 23631.510417 15214.583333 L 23622.395833 15178.385417 L 23617.447917 15106.510417 L 23629.427083 15016.40625 L 23651.5625 14944.53125 L 23669.53125 14908.59375 L 23685.416667 14890.625 L 23714.583333 14872.395833 " transform="matrix(0.015,0,0,0.015,0,0)"/>
<path style="fill:none;stroke-width:71;stroke-linecap:round;stroke-linejoin:round;stroke:rgb(0%,0%,0%);stroke-opacity:1;stroke-miterlimit:10;" d="M 24119.53125 14872.395833 L 24139.583333 15250.520833 L 24227.604167 14980.46875 L 24247.395833 15250.520833 L 24362.5 14872.395833 " transform="matrix(0.015,0,0,0.015,0,0)"/>
<path style="fill:none;stroke-width:71;stroke-linecap:round;stroke-linejoin:round;stroke:rgb(0%,0%,0%);stroke-opacity:1;stroke-miterlimit:10;" d="M 24423.4375 15250.520833 L 24454.427083 14998.4375 " transform="matrix(0.015,0,0,0.015,0,0)"/>
<path style="fill:none;stroke-width:71;stroke-linecap:round;stroke-linejoin:round;stroke:rgb(0%,0%,0%);stroke-opacity:1;stroke-miterlimit:10;" d="M 24470.572917 14872.395833 L 24454.427083 14890.625 L 24466.40625 14908.59375 L 24481.510417 14890.625 L 24470.572917 14872.395833 L 24466.40625 14908.59375 " transform="matrix(0.015,0,0,0.015,0,0)"/>
<path style="fill:none;stroke-width:71;stroke-linecap:round;stroke-linejoin:round;stroke:rgb(0%,0%,0%);stroke-opacity:1;stroke-miterlimit:10;" d="M 24589.583333 14998.4375 L 24558.59375 15250.520833 " transform="matrix(0.015,0,0,0.015,0,0)"/>
<path style="fill:none;stroke-width:71;stroke-linecap:round;stroke-linejoin:round;stroke:rgb(0%,0%,0%);stroke-opacity:1;stroke-miterlimit:10;" d="M 24585.416667 15034.375 L 24601.5625 15016.40625 L 24630.46875 14998.4375 L 24670.572917 14998.4375 L 24695.572917 15016.40625 L 24704.427083 15052.604167 L 24679.427083 15250.520833 " transform="matrix(0.015,0,0,0.015,0,0)"/>
<path style="fill:none;stroke-width:71;stroke-linecap:round;stroke-linejoin:round;stroke:rgb(0%,0%,0%);stroke-opacity:1;stroke-miterlimit:10;" d="M 24936.458333 15250.520833 L 24983.59375 14872.395833 " transform="matrix(0.015,0,0,0.015,0,0)"/>
<path style="fill:none;stroke-width:71;stroke-linecap:round;stroke-linejoin:round;stroke:rgb(0%,0%,0%);stroke-opacity:1;stroke-miterlimit:10;" d="M 24938.541667 15232.552083 L 24909.375 15250.520833 L 24855.46875 15250.520833 L 24830.46875 15232.552083 L 24819.53125 15214.583333 L 24810.416667 15178.385417 L 24823.4375 15070.572917 L 24841.40625 15034.375 L 24857.552083 15016.40625 L 24886.458333 14998.4375 L 24940.625 14998.4375 L 24965.625 15016.40625 " transform="matrix(0.015,0,0,0.015,0,0)"/>
<path style="fill:none;stroke-width:71;stroke-linecap:round;stroke-linejoin:round;stroke:rgb(0%,0%,0%);stroke-opacity:1;stroke-miterlimit:10;" d="M 25111.458333 15250.520833 L 25086.458333 15232.552083 L 25077.604167 15196.614583 L 25118.489583 14872.395833 " transform="matrix(0.015,0,0,0.015,0,0)"/>
<path style="fill:none;stroke-width:71;stroke-linecap:round;stroke-linejoin:round;stroke:rgb(0%,0%,0%);stroke-opacity:1;stroke-miterlimit:10;" d="M 25341.40625 15250.520833 L 25365.625 15052.604167 L 25356.510417 15016.40625 L 25332.552083 14998.4375 L 25278.385417 14998.4375 L 25248.4375 15016.40625 " transform="matrix(0.015,0,0,0.015,0,0)"/>
<path style="fill:none;stroke-width:71;stroke-linecap:round;stroke-linejoin:round;stroke:rgb(0%,0%,0%);stroke-opacity:1;stroke-miterlimit:10;" d="M 25343.489583 15232.552083 L 25314.583333 15250.520833 L 25246.614583 15250.520833 L 25221.614583 15232.552083 L 25212.5 15196.614583 L 25217.447917 15160.416667 L 25235.416667 15124.479167 L 25264.583333 15106.510417 L 25332.552083 15106.510417 L 25361.458333 15088.541667 " transform="matrix(0.015,0,0,0.015,0,0)"/>
<path style="fill:none;stroke-width:71;stroke-linecap:round;stroke-linejoin:round;stroke:rgb(0%,0%,0%);stroke-opacity:1;stroke-miterlimit:10;" d="M 25464.583333 15232.552083 L 25489.583333 15250.520833 L 25543.489583 15250.520833 L 25572.395833 15232.552083 L 25590.625 15196.614583 L 25593.489583 15178.385417 L 25584.375 15142.447917 L 25559.375 15124.479167 L 25518.489583 15124.479167 L 25494.53125 15106.510417 L 25485.416667 15070.572917 L 25487.5 15052.604167 L 25505.46875 15016.40625 L 25534.375 14998.4375 L 25575.520833 14998.4375 L 25599.479167 15016.40625 " transform="matrix(0.015,0,0,0.015,0,0)"/>
<path style="fill:none;stroke-width:71;stroke-linecap:round;stroke-linejoin:round;stroke:rgb(0%,0%,0%);stroke-opacity:1;stroke-miterlimit:10;" d="M 25694.53125 15232.552083 L 25719.53125 15250.520833 L 25773.4375 15250.520833 L 25802.604167 15232.552083 L 25820.572917 15196.614583 L 25822.395833 15178.385417 L 25813.541667 15142.447917 L 25788.541667 15124.479167 L 25748.4375 15124.479167 L 25723.4375 15106.510417 L 25714.583333 15070.572917 L 25716.40625 15052.604167 L 25734.375 15016.40625 L 25764.583333 14998.4375 L 25804.427083 14998.4375 L 25829.427083 15016.40625 " transform="matrix(0.015,0,0,0.015,0,0)"/>
<path style="fill:none;stroke-width:71;stroke-linecap:round;stroke-linejoin:round;stroke:rgb(0%,0%,0%);stroke-opacity:1;stroke-miterlimit:10;" d="M 26317.447917 15214.583333 L 26301.5625 15232.552083 L 26259.375 15250.520833 L 26232.552083 15250.520833 L 26193.489583 15232.552083 L 26171.614583 15196.614583 L 26162.5 15160.416667 L 26157.552083 15088.541667 L 26164.583333 15034.375 L 26187.5 14962.5 L 26205.46875 14926.5625 L 26236.458333 14890.625 L 26279.427083 14872.395833 L 26306.510417 14872.395833 L 26344.53125 14890.625 L 26355.46875 14908.59375 " transform="matrix(0.015,0,0,0.015,0,0)"/>
<path style="fill:none;stroke-width:71;stroke-linecap:round;stroke-linejoin:round;stroke:rgb(0%,0%,0%);stroke-opacity:1;stroke-miterlimit:10;" d="M 26475.520833 15250.520833 L 26450.520833 15232.552083 L 26439.583333 15214.583333 L 26430.46875 15178.385417 L 26443.489583 15070.572917 L 26461.458333 15034.375 L 26477.604167 15016.40625 L 26506.510417 14998.4375 L 26547.395833 14998.4375 L 26571.614583 15016.40625 L 26583.59375 15034.375 L 26592.447917 15070.572917 L 26578.385417 15178.385417 L 26560.416667 15214.583333 L 26544.53125 15232.552083 L 26515.625 15250.520833 L 26475.520833 15250.520833 " transform="matrix(0.015,0,0,0.015,0,0)"/>
<path style="fill:none;stroke-width:71;stroke-linecap:round;stroke-linejoin:round;stroke:rgb(0%,0%,0%);stroke-opacity:1;stroke-miterlimit:10;" d="M 26722.395833 14998.4375 L 26691.40625 15250.520833 " transform="matrix(0.015,0,0,0.015,0,0)"/>
<path style="fill:none;stroke-width:71;stroke-linecap:round;stroke-linejoin:round;stroke:rgb(0%,0%,0%);stroke-opacity:1;stroke-miterlimit:10;" d="M 26717.447917 15034.375 L 26733.59375 15016.40625 L 26762.5 14998.4375 L 26803.385417 14998.4375 L 26828.385417 15016.40625 L 26837.5 15052.604167 L 26812.5 15250.520833 " transform="matrix(0.015,0,0,0.015,0,0)"/>
<path style="fill:none;stroke-width:71;stroke-linecap:round;stroke-linejoin:round;stroke:rgb(0%,0%,0%);stroke-opacity:1;stroke-miterlimit:10;" d="M 26938.541667 14998.4375 L 27046.614583 14998.4375 " transform="matrix(0.015,0,0,0.015,0,0)"/>
<path style="fill:none;stroke-width:71;stroke-linecap:round;stroke-linejoin:round;stroke:rgb(0%,0%,0%);stroke-opacity:1;stroke-miterlimit:10;" d="M 26994.53125 14872.395833 L 26954.427083 15196.614583 L 26963.541667 15232.552083 L 26987.5 15250.520833 L 27014.583333 15250.520833 " transform="matrix(0.015,0,0,0.015,0,0)"/>
<path style="fill:none;stroke-width:71;stroke-linecap:round;stroke-linejoin:round;stroke:rgb(0%,0%,0%);stroke-opacity:1;stroke-miterlimit:10;" d="M 27109.375 15250.520833 L 27140.625 14998.4375 " transform="matrix(0.015,0,0,0.015,0,0)"/>
<path style="fill:none;stroke-width:71;stroke-linecap:round;stroke-linejoin:round;stroke:rgb(0%,0%,0%);stroke-opacity:1;stroke-miterlimit:10;" d="M 27131.510417 15070.572917 L 27149.479167 15034.375 L 27165.625 15016.40625 L 27194.53125 14998.4375 L 27221.614583 14998.4375 " transform="matrix(0.015,0,0,0.015,0,0)"/>
<path style="fill:none;stroke-width:71;stroke-linecap:round;stroke-linejoin:round;stroke:rgb(0%,0%,0%);stroke-opacity:1;stroke-miterlimit:10;" d="M 27325.520833 15250.520833 L 27300.520833 15232.552083 L 27289.583333 15214.583333 L 27280.46875 15178.385417 L 27293.489583 15070.572917 L 27311.458333 15034.375 L 27327.604167 15016.40625 L 27356.510417 14998.4375 L 27397.395833 14998.4375 L 27422.395833 15016.40625 L 27433.59375 15034.375 L 27442.447917 15070.572917 L 27428.385417 15178.385417 L 27410.416667 15214.583333 L 27395.572917 15232.552083 L 27365.625 15250.520833 L 27325.520833 15250.520833 " transform="matrix(0.015,0,0,0.015,0,0)"/>
<path style="fill:none;stroke-width:71;stroke-linecap:round;stroke-linejoin:round;stroke:rgb(0%,0%,0%);stroke-opacity:1;stroke-miterlimit:10;" d="M 27581.510417 15250.520833 L 27557.552083 15232.552083 L 27548.4375 15196.614583 L 27588.541667 14872.395833 " transform="matrix(0.015,0,0,0.015,0,0)"/>
<path style="fill:none;stroke-width:71;stroke-linecap:round;stroke-linejoin:round;stroke:rgb(0%,0%,0%);stroke-opacity:1;stroke-miterlimit:10;" d="M 27905.46875 15250.520833 L 27953.385417 14872.395833 " transform="matrix(0.015,0,0,0.015,0,0)"/>
<path style="fill:none;stroke-width:71;stroke-linecap:round;stroke-linejoin:round;stroke:rgb(0%,0%,0%);stroke-opacity:1;stroke-miterlimit:10;" d="M 28072.395833 14998.4375 L 28040.625 15250.520833 " transform="matrix(0.015,0,0,0.015,0,0)"/>
<path style="fill:none;stroke-width:71;stroke-linecap:round;stroke-linejoin:round;stroke:rgb(0%,0%,0%);stroke-opacity:1;stroke-miterlimit:10;" d="M 28067.447917 15034.375 L 28083.59375 15016.40625 L 28112.5 14998.4375 L 28153.385417 14998.4375 L 28178.385417 15016.40625 L 28187.5 15052.604167 L 28162.5 15250.520833 " transform="matrix(0.015,0,0,0.015,0,0)"/>
<path style="fill:none;stroke-width:71;stroke-linecap:round;stroke-linejoin:round;stroke:rgb(0%,0%,0%);stroke-opacity:1;stroke-miterlimit:10;" d="M 28288.541667 14998.4375 L 28396.614583 14998.4375 " transform="matrix(0.015,0,0,0.015,0,0)"/>
<path style="fill:none;stroke-width:71;stroke-linecap:round;stroke-linejoin:round;stroke:rgb(0%,0%,0%);stroke-opacity:1;stroke-miterlimit:10;" d="M 28344.53125 14872.395833 L 28304.427083 15196.614583 L 28313.541667 15232.552083 L 28337.5 15250.520833 L 28364.583333 15250.520833 " transform="matrix(0.015,0,0,0.015,0,0)"/>
<path style="fill:none;stroke-width:71;stroke-linecap:round;stroke-linejoin:round;stroke:rgb(0%,0%,0%);stroke-opacity:1;stroke-miterlimit:10;" d="M 28569.53125 15232.552083 L 28540.625 15250.520833 L 28486.458333 15250.520833 L 28461.458333 15232.552083 L 28452.604167 15196.614583 L 28470.572917 15052.604167 L 28488.541667 15016.40625 L 28517.447917 14998.4375 L 28571.614583 14998.4375 L 28596.614583 15016.40625 L 28605.46875 15052.604167 L 28601.5625 15088.541667 L 28461.458333 15124.479167 " transform="matrix(0.015,0,0,0.015,0,0)"/>
<path style="fill:none;stroke-width:71;stroke-linecap:round;stroke-linejoin:round;stroke:rgb(0%,0%,0%);stroke-opacity:1;stroke-miterlimit:10;" d="M 28702.604167 15250.520833 L 28733.59375 14998.4375 " transform="matrix(0.015,0,0,0.015,0,0)"/>
<path style="fill:none;stroke-width:71;stroke-linecap:round;stroke-linejoin:round;stroke:rgb(0%,0%,0%);stroke-opacity:1;stroke-miterlimit:10;" d="M 28724.479167 15070.572917 L 28742.447917 15034.375 L 28758.59375 15016.40625 L 28787.5 14998.4375 L 28814.583333 14998.4375 " transform="matrix(0.015,0,0,0.015,0,0)"/>
<path style="fill:none;stroke-width:71;stroke-linecap:round;stroke-linejoin:round;stroke:rgb(0%,0%,0%);stroke-opacity:1;stroke-miterlimit:10;" d="M 28868.489583 14998.4375 L 28976.5625 14998.4375 " transform="matrix(0.015,0,0,0.015,0,0)"/>
<path style="fill:none;stroke-width:71;stroke-linecap:round;stroke-linejoin:round;stroke:rgb(0%,0%,0%);stroke-opacity:1;stroke-miterlimit:10;" d="M 28877.604167 15250.520833 L 28918.489583 14926.5625 L 28936.458333 14890.625 L 28965.625 14872.395833 L 28992.447917 14872.395833 " transform="matrix(0.015,0,0,0.015,0,0)"/>
<path style="fill:none;stroke-width:71;stroke-linecap:round;stroke-linejoin:round;stroke:rgb(0%,0%,0%);stroke-opacity:1;stroke-miterlimit:10;" d="M 29161.458333 15250.520833 L 29185.416667 15052.604167 L 29176.5625 15016.40625 L 29152.604167 14998.4375 L 29098.4375 14998.4375 L 29068.489583 15016.40625 " transform="matrix(0.015,0,0,0.015,0,0)"/>
<path style="fill:none;stroke-width:71;stroke-linecap:round;stroke-linejoin:round;stroke:rgb(0%,0%,0%);stroke-opacity:1;stroke-miterlimit:10;" d="M 29163.541667 15232.552083 L 29134.375 15250.520833 L 29066.40625 15250.520833 L 29041.40625 15232.552083 L 29032.552083 15196.614583 L 29037.5 15160.416667 L 29055.46875 15124.479167 L 29084.375 15106.510417 L 29152.604167 15106.510417 L 29181.510417 15088.541667 " transform="matrix(0.015,0,0,0.015,0,0)"/>
<path style="fill:none;stroke-width:71;stroke-linecap:round;stroke-linejoin:round;stroke:rgb(0%,0%,0%);stroke-opacity:1;stroke-miterlimit:10;" d="M 29419.53125 15232.552083 L 29390.625 15250.520833 L 29336.458333 15250.520833 L 29311.458333 15232.552083 L 29300.520833 15214.583333 L 29291.40625 15178.385417 L 29305.46875 15070.572917 L 29323.4375 15034.375 L 29338.541667 15016.40625 L 29368.489583 14998.4375 L 29422.395833 14998.4375 L 29446.614583 15016.40625 " transform="matrix(0.015,0,0,0.015,0,0)"/>
<path style="fill:none;stroke-width:71;stroke-linecap:round;stroke-linejoin:round;stroke:rgb(0%,0%,0%);stroke-opacity:1;stroke-miterlimit:10;" d="M 29649.479167 15232.552083 L 29620.572917 15250.520833 L 29566.40625 15250.520833 L 29541.40625 15232.552083 L 29532.552083 15196.614583 L 29550.520833 15052.604167 L 29568.489583 15016.40625 L 29597.395833 14998.4375 L 29651.5625 14998.4375 L 29676.5625 15016.40625 L 29685.416667 15052.604167 L 29680.46875 15088.541667 L 29541.40625 15124.479167 " transform="matrix(0.015,0,0,0.015,0,0)"/>
<path style="fill:none;stroke-width:71;stroke-linecap:round;stroke-linejoin:round;stroke:rgb(0%,0%,0%);stroke-opacity:1;stroke-miterlimit:10;" d="M 29998.4375 15250.520833 L 30045.572917 14872.395833 L 30106.510417 15142.447917 L 30234.375 14872.395833 L 30187.5 15250.520833 " transform="matrix(0.015,0,0,0.015,0,0)"/>
<path style="fill:none;stroke-width:71;stroke-linecap:round;stroke-linejoin:round;stroke:rgb(0%,0%,0%);stroke-opacity:1;stroke-miterlimit:10;" d="M 30362.5 15250.520833 L 30337.5 15232.552083 L 30326.5625 15214.583333 L 30317.447917 15178.385417 L 30331.510417 15070.572917 L 30349.479167 15034.375 L 30364.583333 15016.40625 L 30394.53125 14998.4375 L 30434.375 14998.4375 L 30459.375 15016.40625 L 30470.572917 15034.375 L 30479.427083 15070.572917 L 30466.40625 15178.385417 L 30448.4375 15214.583333 L 30432.552083 15232.552083 L 30403.385417 15250.520833 L 30362.5 15250.520833 " transform="matrix(0.015,0,0,0.015,0,0)"/>
<path style="fill:none;stroke-width:71;stroke-linecap:round;stroke-linejoin:round;stroke:rgb(0%,0%,0%);stroke-opacity:1;stroke-miterlimit:10;" d="M 30700.520833 15250.520833 L 30747.395833 14872.395833 " transform="matrix(0.015,0,0,0.015,0,0)"/>
<path style="fill:none;stroke-width:71;stroke-linecap:round;stroke-linejoin:round;stroke:rgb(0%,0%,0%);stroke-opacity:1;stroke-miterlimit:10;" d="M 30702.604167 15232.552083 L 30673.4375 15250.520833 L 30619.53125 15250.520833 L 30594.53125 15232.552083 L 30583.59375 15214.583333 L 30574.479167 15178.385417 L 30587.5 15070.572917 L 30605.46875 15034.375 L 30621.614583 15016.40625 L 30650.520833 14998.4375 L 30704.427083 14998.4375 L 30729.427083 15016.40625 " transform="matrix(0.015,0,0,0.015,0,0)"/>
<path style="fill:none;stroke-width:71;stroke-linecap:round;stroke-linejoin:round;stroke:rgb(0%,0%,0%);stroke-opacity:1;stroke-miterlimit:10;" d="M 30987.5 14998.4375 L 30956.510417 15250.520833 " transform="matrix(0.015,0,0,0.015,0,0)"/>
<path style="fill:none;stroke-width:71;stroke-linecap:round;stroke-linejoin:round;stroke:rgb(0%,0%,0%);stroke-opacity:1;stroke-miterlimit:10;" d="M 30866.40625 14998.4375 L 30841.40625 15196.614583 L 30850.520833 15232.552083 L 30875.520833 15250.520833 L 30915.625 15250.520833 L 30945.572917 15232.552083 L 30960.416667 15214.583333 " transform="matrix(0.015,0,0,0.015,0,0)"/>
<path style="fill:none;stroke-width:71;stroke-linecap:round;stroke-linejoin:round;stroke:rgb(0%,0%,0%);stroke-opacity:1;stroke-miterlimit:10;" d="M 31131.510417 15250.520833 L 31107.552083 15232.552083 L 31098.4375 15196.614583 L 31138.541667 14872.395833 " transform="matrix(0.015,0,0,0.015,0,0)"/>
<path style="fill:none;stroke-width:71;stroke-linecap:round;stroke-linejoin:round;stroke:rgb(0%,0%,0%);stroke-opacity:1;stroke-miterlimit:10;" d="M 31350.520833 15232.552083 L 31320.572917 15250.520833 L 31266.40625 15250.520833 L 31242.447917 15232.552083 L 31233.59375 15196.614583 L 31251.5625 15052.604167 L 31269.53125 15016.40625 L 31298.4375 14998.4375 L 31352.604167 14998.4375 L 31377.604167 15016.40625 L 31386.458333 15052.604167 L 31381.510417 15088.541667 L 31242.447917 15124.479167 " transform="matrix(0.015,0,0,0.015,0,0)"/>
<path style="fill:none;stroke-width:94;stroke-linecap:round;stroke-linejoin:round;stroke:rgb(0%,0%,0%);stroke-opacity:1;stroke-miterlimit:10;" d="M 20504.947917 12280.989583 L 35622.916667 12280.989583 " transform="matrix(0.015,0,0,0.015,0,0)"/>
<path style="fill:none;stroke-width:94;stroke-linecap:round;stroke-linejoin:round;stroke:rgb(0%,0%,0%);stroke-opacity:1;stroke-miterlimit:10;" d="M 19182.03125 15588.020833 L 19182.03125 14642.96875 " transform="matrix(0.015,0,0,0.015,0,0)"/>
<path style="fill:none;stroke-width:94;stroke-linecap:round;stroke-linejoin:round;stroke:rgb(0%,0%,0%);stroke-opacity:1;stroke-miterlimit:10;" d="M 20315.885417 15965.885417 L 20504.947917 15965.885417 " transform="matrix(0.015,0,0,0.015,0,0)"/>
<path style="fill:none;stroke-width:94;stroke-linecap:round;stroke-linejoin:round;stroke:rgb(0%,0%,0%);stroke-opacity:1;stroke-miterlimit:10;" d="M 19938.541667 15588.541667 C 19938.541667 15723.4375 19866.40625 15848.177083 19749.479167 15915.885417 C 19632.552083 15983.333333 19488.541667 15983.333333 19371.614583 15915.885417 C 19254.6875 15848.177083 19182.552083 15723.4375 19182.552083 15588.541667 " transform="matrix(0.015,0,0,0.015,0,0)"/>
<path style="fill:none;stroke-width:94;stroke-linecap:round;stroke-linejoin:round;stroke:rgb(0%,0%,0%);stroke-opacity:1;stroke-miterlimit:10;" d="M 19938.020833 15588.020833 L 19938.020833 14642.96875 " transform="matrix(0.015,0,0,0.015,0,0)"/>
<path style="fill:none;stroke-width:94;stroke-linecap:round;stroke-linejoin:round;stroke:rgb(0%,0%,0%);stroke-opacity:1;stroke-miterlimit:10;" d="M 19182.552083 14643.489583 C 19182.552083 14508.59375 19254.6875 14383.59375 19371.614583 14316.145833 C 19488.541667 14248.697917 19632.552083 14248.697917 19749.479167 14316.145833 C 19866.40625 14383.59375 19938.541667 14508.59375 19938.541667 14643.489583 " transform="matrix(0.015,0,0,0.015,0,0)"/>
<path style="fill:none;stroke-width:94;stroke-linecap:round;stroke-linejoin:round;stroke:rgb(0%,0%,0%);stroke-opacity:1;stroke-miterlimit:10;" d="M 18615.104167 13226.041667 L 18615.104167 26453.90625 " transform="matrix(0.015,0,0,0.015,0,0)"/>
<path style="fill:none;stroke-width:94;stroke-linecap:round;stroke-linejoin:round;stroke:rgb(0%,0%,0%);stroke-opacity:1;stroke-miterlimit:10;" d="M 20504.947917 12280.989583 L 18615.104167 13226.041667 " transform="matrix(0.015,0,0,0.015,0,0)"/>
<path style="fill:none;stroke-width:94;stroke-linecap:round;stroke-linejoin:round;stroke:rgb(0%,0%,0%);stroke-opacity:1;stroke-miterlimit:10;" d="M 20504.947917 27398.958333 L 20504.947917 12280.989583 " transform="matrix(0.015,0,0,0.015,0,0)"/>
<path style="fill:none;stroke-width:71;stroke-linecap:round;stroke-linejoin:round;stroke:rgb(0%,0%,0%);stroke-opacity:1;stroke-miterlimit:10;" d="M 33422.395833 21395.572917 L 33442.447917 21773.4375 L 33530.46875 21503.385417 L 33550.520833 21773.4375 L 33665.625 21395.572917 " transform="matrix(0.015,0,0,0.015,0,0)"/>
<path style="fill:none;stroke-width:71;stroke-linecap:round;stroke-linejoin:round;stroke:rgb(0%,0%,0%);stroke-opacity:1;stroke-miterlimit:10;" d="M 33827.604167 21395.572917 L 33854.427083 21395.572917 L 33879.427083 21413.541667 L 33890.625 21431.510417 L 33899.479167 21467.447917 L 33904.427083 21539.583333 L 33892.447917 21629.427083 L 33870.572917 21701.5625 L 33852.604167 21737.5 L 33836.458333 21755.46875 L 33807.552083 21773.4375 L 33780.46875 21773.4375 L 33755.46875 21755.46875 L 33744.53125 21737.5 L 33735.416667 21701.5625 L 33730.46875 21629.427083 L 33742.447917 21539.583333 L 33764.583333 21467.447917 L 33782.552083 21431.510417 L 33798.4375 21413.541667 L 33827.604167 21395.572917 " transform="matrix(0.015,0,0,0.015,0,0)"/>
<path style="fill:none;stroke-width:71;stroke-linecap:round;stroke-linejoin:round;stroke:rgb(0%,0%,0%);stroke-opacity:1;stroke-miterlimit:10;" d="M 32255.46875 20530.46875 L 32302.604167 20152.604167 L 32410.416667 20152.604167 L 32434.375 20170.572917 L 32446.614583 20188.541667 L 32455.46875 20224.479167 L 32448.4375 20278.385417 L 32430.46875 20314.583333 L 32414.583333 20332.552083 L 32385.416667 20350.520833 L 32277.604167 20350.520833 " transform="matrix(0.015,0,0,0.015,0,0)"/>
<path style="fill:none;stroke-width:71;stroke-linecap:round;stroke-linejoin:round;stroke:rgb(0%,0%,0%);stroke-opacity:1;stroke-miterlimit:10;" d="M 32558.59375 20152.604167 L 32578.385417 20530.46875 L 32666.40625 20260.416667 L 32686.458333 20530.46875 L 32801.5625 20152.604167 " transform="matrix(0.015,0,0,0.015,0,0)"/>
<path style="fill:none;stroke-width:71;stroke-linecap:round;stroke-linejoin:round;stroke:rgb(0%,0%,0%);stroke-opacity:1;stroke-miterlimit:10;" d="M 33024.479167 20530.46875 L 32952.604167 20350.520833 " transform="matrix(0.015,0,0,0.015,0,0)"/>
<path style="fill:none;stroke-width:71;stroke-linecap:round;stroke-linejoin:round;stroke:rgb(0%,0%,0%);stroke-opacity:1;stroke-miterlimit:10;" d="M 32862.5 20530.46875 L 32909.375 20152.604167 L 33017.447917 20152.604167 L 33042.447917 20170.572917 L 33053.385417 20188.541667 L 33062.5 20224.479167 L 33055.46875 20278.385417 L 33037.5 20314.583333 L 33022.395833 20332.552083 L 32992.447917 20350.520833 L 32884.375 20350.520833 " transform="matrix(0.015,0,0,0.015,0,0)"/>
<path style="fill:none;stroke-width:71;stroke-linecap:round;stroke-linejoin:round;stroke:rgb(0%,0%,0%);stroke-opacity:1;stroke-miterlimit:10;" d="M 33397.395833 20134.375 L 33094.53125 20620.572917 " transform="matrix(0.015,0,0,0.015,0,0)"/>
<path style="fill:none;stroke-width:71;stroke-linecap:round;stroke-linejoin:round;stroke:rgb(0%,0%,0%);stroke-opacity:1;stroke-miterlimit:10;" d="M 33604.427083 20530.46875 L 33532.552083 20350.520833 " transform="matrix(0.015,0,0,0.015,0,0)"/>
<path style="fill:none;stroke-width:71;stroke-linecap:round;stroke-linejoin:round;stroke:rgb(0%,0%,0%);stroke-opacity:1;stroke-miterlimit:10;" d="M 33442.447917 20530.46875 L 33490.625 20152.604167 L 33598.4375 20152.604167 L 33622.395833 20170.572917 L 33634.375 20188.541667 L 33643.489583 20224.479167 L 33636.458333 20278.385417 L 33618.489583 20314.583333 L 33602.604167 20332.552083 L 33573.4375 20350.520833 L 33465.625 20350.520833 " transform="matrix(0.015,0,0,0.015,0,0)"/>
<path style="fill:none;stroke-width:71;stroke-linecap:round;stroke-linejoin:round;stroke:rgb(0%,0%,0%);stroke-opacity:1;stroke-miterlimit:10;" d="M 33746.614583 20152.604167 L 33888.541667 20530.46875 " transform="matrix(0.015,0,0,0.015,0,0)"/>
<path style="fill:none;stroke-width:71;stroke-linecap:round;stroke-linejoin:round;stroke:rgb(0%,0%,0%);stroke-opacity:1;stroke-miterlimit:10;" d="M 33935.416667 20152.604167 L 33699.479167 20530.46875 " transform="matrix(0.015,0,0,0.015,0,0)"/>
<path style="fill:none;stroke-width:94;stroke-linecap:round;stroke-linejoin:round;stroke:rgb(0%,0%,0%);stroke-opacity:1;stroke-miterlimit:10;" d="M 34865.625 22759.114583 C 34865.625 22907.291667 34745.3125 23027.604167 34596.875 23027.604167 C 34448.697917 23027.604167 34328.385417 22907.291667 34328.385417 22759.114583 C 34328.385417 22610.677083 34448.697917 22490.625 34596.875 22490.625 C 34745.3125 22490.625 34865.625 22610.677083 34865.625 22759.114583 Z M 34865.625 22759.114583 " transform="matrix(0.015,0,0,0.015,0,0)"/>
<path style="fill:none;stroke-width:94;stroke-linecap:round;stroke-linejoin:round;stroke:rgb(0%,0%,0%);stroke-opacity:1;stroke-miterlimit:10;" d="M 34865.625 21559.114583 C 34865.625 21707.291667 34745.3125 21827.604167 34596.875 21827.604167 C 34448.697917 21827.604167 34328.385417 21707.291667 34328.385417 21559.114583 C 34328.385417 21410.677083 34448.697917 21290.625 34596.875 21290.625 C 34745.3125 21290.625 34865.625 21410.677083 34865.625 21559.114583 Z M 34865.625 21559.114583 " transform="matrix(0.015,0,0,0.015,0,0)"/>
<path style="fill:none;stroke-width:94;stroke-linecap:round;stroke-linejoin:round;stroke:rgb(0%,0%,0%);stroke-opacity:1;stroke-miterlimit:10;" d="M 34865.625 20359.114583 C 34865.625 20507.291667 34745.3125 20627.604167 34596.875 20627.604167 C 34448.697917 20627.604167 34328.385417 20507.291667 34328.385417 20359.114583 C 34328.385417 20210.677083 34448.697917 20090.625 34596.875 20090.625 C 34745.3125 20090.625 34865.625 20210.677083 34865.625 20359.114583 Z M 34865.625 20359.114583 " transform="matrix(0.015,0,0,0.015,0,0)"/>
<path style="fill:none;stroke-width:94;stroke-linecap:round;stroke-linejoin:round;stroke:rgb(0%,0%,0%);stroke-opacity:1;stroke-miterlimit:10;" d="M 35622.916667 27398.958333 L 20504.947917 27398.958333 " transform="matrix(0.015,0,0,0.015,0,0)"/>
<path style="fill:none;stroke-width:94;stroke-linecap:round;stroke-linejoin:round;stroke:rgb(0%,0%,0%);stroke-opacity:1;stroke-miterlimit:10;" d="M 34206.510417 14832.03125 C 34206.510417 15237.239583 33990.364583 15611.71875 33639.322917 15814.583333 C 33288.28125 16017.1875 32855.729167 16017.1875 32504.6875 15814.583333 C 32153.645833 15611.71875 31937.5 15237.239583 31937.5 14832.03125 C 31937.5 14426.5625 32153.645833 14052.083333 32504.6875 13849.479167 C 32855.729167 13646.875 33288.28125 13646.875 33639.322917 13849.479167 C 33990.364583 14052.083333 34206.510417 14426.5625 34206.510417 14832.03125 Z M 34206.510417 14832.03125 " transform="matrix(0.015,0,0,0.015,0,0)"/>
<path style="fill:none;stroke-width:94;stroke-linecap:round;stroke-linejoin:round;stroke:rgb(0%,0%,0%);stroke-opacity:1;stroke-miterlimit:10;" d="M 33449.479167 15115.885417 C 33449.479167 15168.229167 33407.291667 15210.416667 33354.947917 15210.416667 C 33302.864583 15210.416667 33260.416667 15168.229167 33260.416667 15115.885417 C 33260.416667 15063.802083 33302.864583 15021.614583 33354.947917 15021.614583 C 33407.291667 15021.614583 33449.479167 15063.802083 33449.479167 15115.885417 Z M 33449.479167 15115.885417 " transform="matrix(0.015,0,0,0.015,0,0)"/>
<path style="fill:none;stroke-width:94;stroke-linecap:round;stroke-linejoin:round;stroke:rgb(0%,0%,0%);stroke-opacity:1;stroke-miterlimit:10;" d="M 32882.552083 15115.885417 C 32882.552083 15168.229167 32840.104167 15210.416667 32788.020833 15210.416667 C 32735.9375 15210.416667 32693.489583 15168.229167 32693.489583 15115.885417 C 32693.489583 15063.802083 32735.9375 15021.614583 32788.020833 15021.614583 C 32840.104167 15021.614583 32882.552083 15063.802083 32882.552083 15115.885417 Z M 32882.552083 15115.885417 " transform="matrix(0.015,0,0,0.015,0,0)"/>
<path style="fill:none;stroke-width:94;stroke-linecap:round;stroke-linejoin:round;stroke:rgb(0%,0%,0%);stroke-opacity:1;stroke-miterlimit:10;" d="M 33449.479167 14548.958333 C 33449.479167 14601.302083 33407.291667 14643.489583 33354.947917 14643.489583 C 33302.864583 14643.489583 33260.416667 14601.302083 33260.416667 14548.958333 C 33260.416667 14496.875 33302.864583 14454.427083 33354.947917 14454.427083 C 33407.291667 14454.427083 33449.479167 14496.875 33449.479167 14548.958333 Z M 33449.479167 14548.958333 " transform="matrix(0.015,0,0,0.015,0,0)"/>
<path style="fill:none;stroke-width:94;stroke-linecap:round;stroke-linejoin:round;stroke:rgb(0%,0%,0%);stroke-opacity:1;stroke-miterlimit:10;" d="M 33922.395833 14832.03125 C 33922.395833 15135.9375 33760.416667 15416.666667 33497.135417 15568.489583 C 33234.114583 15720.572917 32909.895833 15720.572917 32646.875 15568.489583 C 32383.59375 15416.666667 32221.614583 15135.9375 32221.614583 14832.03125 C 32221.614583 14528.125 32383.59375 14247.395833 32646.875 14095.572917 C 32909.895833 13943.489583 33234.114583 13943.489583 33497.135417 14095.572917 C 33760.416667 14247.395833 33922.395833 14528.125 33922.395833 14832.03125 Z M 33922.395833 14832.03125 " transform="matrix(0.015,0,0,0.015,0,0)"/>
<path style="fill:none;stroke-width:94;stroke-linecap:round;stroke-linejoin:round;stroke:rgb(0%,0%,0%);stroke-opacity:1;stroke-miterlimit:10;" d="M 33740.625 14832.03125 C 33740.625 15070.833333 33613.020833 15291.40625 33406.25 15410.9375 C 33199.479167 15530.46875 32944.53125 15530.46875 32737.760417 15410.9375 C 32530.989583 15291.40625 32403.385417 15070.833333 32403.385417 14832.03125 C 32403.385417 14593.229167 32530.989583 14372.395833 32737.760417 14253.125 C 32944.53125 14133.59375 33199.479167 14133.59375 33406.25 14253.125 C 33613.020833 14372.395833 33740.625 14593.229167 33740.625 14832.03125 Z M 33740.625 14832.03125 " transform="matrix(0.015,0,0,0.015,0,0)"/>
<path style="fill:none;stroke-width:94;stroke-linecap:round;stroke-linejoin:round;stroke:rgb(0%,0%,0%);stroke-opacity:1;stroke-miterlimit:10;" d="M 34111.458333 14832.03125 C 34111.458333 15203.385417 33913.28125 15546.614583 33591.666667 15732.291667 C 33270.052083 15917.96875 32873.958333 15917.96875 32552.34375 15732.291667 C 32230.729167 15546.614583 32032.552083 15203.385417 32032.552083 14832.03125 C 32032.552083 14460.677083 32230.729167 14117.447917 32552.34375 13931.770833 C 32873.958333 13746.09375 33270.052083 13746.09375 33591.666667 13931.770833 C 33913.28125 14117.447917 34111.458333 14460.677083 34111.458333 14832.03125 Z M 34111.458333 14832.03125 " transform="matrix(0.015,0,0,0.015,0,0)"/>
<path style="fill:none;stroke-width:71;stroke-linecap:round;stroke-linejoin:round;stroke:rgb(0%,0%,0%);stroke-opacity:1;stroke-miterlimit:10;" d="M 33422.395833 22552.604167 L 33442.447917 22930.46875 L 33530.46875 22660.416667 L 33550.520833 22930.46875 L 33665.625 22552.604167 " transform="matrix(0.015,0,0,0.015,0,0)"/>
<path style="fill:none;stroke-width:71;stroke-linecap:round;stroke-linejoin:round;stroke:rgb(0%,0%,0%);stroke-opacity:1;stroke-miterlimit:10;" d="M 33874.479167 22930.46875 L 33712.5 22930.46875 " transform="matrix(0.015,0,0,0.015,0,0)"/>
<path style="fill:none;stroke-width:71;stroke-linecap:round;stroke-linejoin:round;stroke:rgb(0%,0%,0%);stroke-opacity:1;stroke-miterlimit:10;" d="M 33793.489583 22930.46875 L 33841.40625 22552.604167 L 33807.552083 22606.510417 L 33775.520833 22642.447917 L 33746.614583 22660.416667 " transform="matrix(0.015,0,0,0.015,0,0)"/>
<path style="fill:none;stroke-width:94;stroke-linecap:round;stroke-linejoin:round;stroke:rgb(0%,0%,0%);stroke-opacity:1;stroke-miterlimit:10;" d="M 36190.625 24092.447917 C 36190.625 23957.552083 36262.5 23832.8125 36379.427083 23765.104167 C 36496.354167 23697.65625 36640.625 23697.65625 36757.552083 23765.104167 C 36874.479167 23832.8125 36946.354167 23957.552083 36946.354167 24092.447917 " transform="matrix(0.015,0,0,0.015,0,0)"/>
<path style="fill:none;stroke-width:94;stroke-linecap:round;stroke-linejoin:round;stroke:rgb(0%,0%,0%);stroke-opacity:1;stroke-miterlimit:10;" d="M 36190.104167 25036.979167 L 36190.104167 24091.927083 " transform="matrix(0.015,0,0,0.015,0,0)"/>
<path style="fill:none;stroke-width:94;stroke-linecap:round;stroke-linejoin:round;stroke:rgb(0%,0%,0%);stroke-opacity:1;stroke-miterlimit:10;" d="M 36190.625 24092.447917 C 36190.625 23957.552083 36262.5 23832.8125 36379.427083 23765.104167 C 36496.354167 23697.65625 36640.625 23697.65625 36757.552083 23765.104167 C 36874.479167 23832.8125 36946.354167 23957.552083 36946.354167 24092.447917 " transform="matrix(0.015,0,0,0.015,0,0)"/>
<path style="fill:none;stroke-width:94;stroke-linecap:round;stroke-linejoin:round;stroke:rgb(0%,0%,0%);stroke-opacity:1;stroke-miterlimit:10;" d="M 36946.354167 15588.541667 C 36946.354167 15723.4375 36874.479167 15848.177083 36757.552083 15915.885417 C 36640.625 15983.333333 36496.354167 15983.333333 36379.427083 15915.885417 C 36262.5 15848.177083 36190.625 15723.4375 36190.625 15588.541667 " transform="matrix(0.015,0,0,0.015,0,0)"/>
<path style="fill:none;stroke-width:94;stroke-linecap:round;stroke-linejoin:round;stroke:rgb(0%,0%,0%);stroke-opacity:1;stroke-miterlimit:10;" d="M 36946.354167 15588.541667 C 36946.354167 15723.4375 36874.479167 15848.177083 36757.552083 15915.885417 C 36640.625 15983.333333 36496.354167 15983.333333 36379.427083 15915.885417 C 36262.5 15848.177083 36190.625 15723.4375 36190.625 15588.541667 " transform="matrix(0.015,0,0,0.015,0,0)"/>
<path style="fill:none;stroke-width:94;stroke-linecap:round;stroke-linejoin:round;stroke:rgb(0%,0%,0%);stroke-opacity:1;stroke-miterlimit:10;" d="M 36190.104167 15588.020833 L 36190.104167 14642.96875 " transform="matrix(0.015,0,0,0.015,0,0)"/>
<path style="fill:none;stroke-width:94;stroke-linecap:round;stroke-linejoin:round;stroke:rgb(0%,0%,0%);stroke-opacity:1;stroke-miterlimit:10;" d="M 37513.020833 13226.041667 L 37513.020833 26453.90625 " transform="matrix(0.015,0,0,0.015,0,0)"/>
<path style="fill:none;stroke-width:94;stroke-linecap:round;stroke-linejoin:round;stroke:rgb(0%,0%,0%);stroke-opacity:1;stroke-miterlimit:10;" d="M 35622.916667 12280.989583 L 35622.916667 27398.958333 " transform="matrix(0.015,0,0,0.015,0,0)"/>
<path style="fill:none;stroke-width:94;stroke-linecap:round;stroke-linejoin:round;stroke:rgb(0%,0%,0%);stroke-opacity:1;stroke-miterlimit:10;" d="M 36190.625 14643.489583 C 36190.625 14508.59375 36262.5 14383.59375 36379.427083 14316.145833 C 36496.354167 14248.697917 36640.625 14248.697917 36757.552083 14316.145833 C 36874.479167 14383.59375 36946.354167 14508.59375 36946.354167 14643.489583 " transform="matrix(0.015,0,0,0.015,0,0)"/>
<path style="fill:none;stroke-width:94;stroke-linecap:round;stroke-linejoin:round;stroke:rgb(0%,0%,0%);stroke-opacity:1;stroke-miterlimit:10;" d="M 36946.09375 15588.020833 L 36946.09375 14642.96875 " transform="matrix(0.015,0,0,0.015,0,0)"/>
<path style="fill:none;stroke-width:94;stroke-linecap:round;stroke-linejoin:round;stroke:rgb(0%,0%,0%);stroke-opacity:1;stroke-miterlimit:10;" d="M 36190.104167 15588.020833 L 36190.104167 14642.96875 " transform="matrix(0.015,0,0,0.015,0,0)"/>
<path style="fill:none;stroke-width:94;stroke-linecap:round;stroke-linejoin:round;stroke:rgb(0%,0%,0%);stroke-opacity:1;stroke-miterlimit:10;" d="M 36946.09375 15588.020833 L 36946.09375 14642.96875 " transform="matrix(0.015,0,0,0.015,0,0)"/>
<path style="fill:none;stroke-width:94;stroke-linecap:round;stroke-linejoin:round;stroke:rgb(0%,0%,0%);stroke-opacity:1;stroke-miterlimit:10;" d="M 36190.625 14643.489583 C 36190.625 14508.59375 36262.5 14383.59375 36379.427083 14316.145833 C 36496.354167 14248.697917 36640.625 14248.697917 36757.552083 14316.145833 C 36874.479167 14383.59375 36946.354167 14508.59375 36946.354167 14643.489583 " transform="matrix(0.015,0,0,0.015,0,0)"/>
<path style="fill:none;stroke-width:94;stroke-linecap:round;stroke-linejoin:round;stroke:rgb(0%,0%,0%);stroke-opacity:1;stroke-miterlimit:10;" d="M 35622.916667 12280.989583 L 37513.020833 13226.041667 " transform="matrix(0.015,0,0,0.015,0,0)"/>
<path style="fill:none;stroke-width:94;stroke-linecap:round;stroke-linejoin:round;stroke:rgb(0%,0%,0%);stroke-opacity:1;stroke-miterlimit:10;" d="M 36946.09375 25036.979167 L 36946.09375 24091.927083 " transform="matrix(0.015,0,0,0.015,0,0)"/>
<path style="fill:none;stroke-width:94;stroke-linecap:round;stroke-linejoin:round;stroke:rgb(0%,0%,0%);stroke-opacity:1;stroke-miterlimit:10;" d="M 36190.104167 25036.979167 L 36190.104167 24091.927083 " transform="matrix(0.015,0,0,0.015,0,0)"/>
<path style="fill:none;stroke-width:94;stroke-linecap:round;stroke-linejoin:round;stroke:rgb(0%,0%,0%);stroke-opacity:1;stroke-miterlimit:10;" d="M 36946.354167 25037.5 C 36946.354167 25172.65625 36874.479167 25297.395833 36757.552083 25364.84375 C 36640.625 25432.291667 36496.354167 25432.291667 36379.427083 25364.84375 C 36262.5 25297.395833 36190.625 25172.65625 36190.625 25037.5 " transform="matrix(0.015,0,0,0.015,0,0)"/>
<path style="fill:none;stroke-width:94;stroke-linecap:round;stroke-linejoin:round;stroke:rgb(0%,0%,0%);stroke-opacity:1;stroke-miterlimit:10;" d="M 36946.354167 25037.5 C 36946.354167 25172.65625 36874.479167 25297.395833 36757.552083 25364.84375 C 36640.625 25432.291667 36496.354167 25432.291667 36379.427083 25364.84375 C 36262.5 25297.395833 36190.625 25172.65625 36190.625 25037.5 " transform="matrix(0.015,0,0,0.015,0,0)"/>
<path style="fill:none;stroke-width:94;stroke-linecap:round;stroke-linejoin:round;stroke:rgb(0%,0%,0%);stroke-opacity:1;stroke-miterlimit:10;" d="M 36946.09375 25036.979167 L 36946.09375 24091.927083 " transform="matrix(0.015,0,0,0.015,0,0)"/>
<path style="fill:none;stroke-width:94;stroke-linecap:round;stroke-linejoin:round;stroke:rgb(0%,0%,0%);stroke-opacity:1;stroke-miterlimit:10;" d="M 37513.020833 26453.90625 L 35622.916667 27398.958333 " transform="matrix(0.015,0,0,0.015,0,0)"/>
</g>
</svg>
