M48
; DRILL file {KiCad 5.1.5-1.fc31} date Fri 14 Aug 2020 17:00:40 BST
; FORMAT={-:-/ absolute / inch / decimal}
; #@! TF.CreationDate,2020-08-14T17:00:40+01:00
; #@! TF.GenerationSoftware,Kicad,Pcbnew,5.1.5-1.fc31
FMAT,2
INCH
T1C0.0157
T2C0.0276
T3C0.0315
T4C0.0354
T5C0.0394
T6C0.0433
T7C0.1063
%
G90
G05
T1
X6.437Y-4.425
X6.562Y-4.525
X6.687Y-4.575
X6.812Y-4.625
X6.887Y-6.2
X7.687Y-4.525
T2
X7.087Y-4.9
X7.187Y-4.8
X7.187Y-5.0
X6.287Y-4.45
X6.287Y-4.65
X6.312Y-4.025
X6.312Y-4.125
X7.987Y-5.55
X8.187Y-5.55
X7.487Y-4.9
X7.587Y-4.8
X7.687Y-4.9
X7.087Y-3.6
X7.087Y-3.8
X7.987Y-4.95
X8.187Y-4.95
X6.987Y-3.6
X6.987Y-3.8
X6.737Y-4.9
X6.937Y-4.9
X7.987Y-5.2559
X8.187Y-5.2559
X6.737Y-4.75
X6.937Y-4.75
T3
X6.437Y-4.025
X6.437Y-4.125
X6.612Y-5.75
X6.612Y-5.85
X6.112Y-4.0266
X6.112Y-4.125
X6.812Y-4.025
X6.812Y-4.125
X6.312Y-3.575
X6.312Y-3.675
X6.312Y-3.775
X6.312Y-3.875
X6.612Y-3.575
X6.612Y-3.675
X6.612Y-3.775
X6.612Y-3.875
X6.937Y-5.25
X6.937Y-5.55
X6.937Y-5.65
X7.137Y-5.25
X7.137Y-5.55
X7.137Y-5.65
X6.337Y-4.875
X6.337Y-4.975
X6.337Y-5.075
X6.337Y-5.175
X6.337Y-5.275
X6.337Y-5.375
X6.337Y-5.475
X6.337Y-5.575
X6.637Y-4.875
X6.637Y-4.975
X6.637Y-5.075
X6.637Y-5.175
X6.637Y-5.275
X6.637Y-5.375
X6.637Y-5.475
X6.637Y-5.575
X6.137Y-3.6766
X6.137Y-3.775
X6.937Y-4.125
X6.937Y-4.425
X7.037Y-4.125
X7.037Y-4.425
X7.137Y-4.125
X7.137Y-4.425
X7.237Y-4.125
X7.237Y-4.425
X7.337Y-4.125
X7.337Y-4.425
X7.437Y-4.125
X7.437Y-4.425
X7.537Y-4.125
X7.537Y-4.425
X7.637Y-4.125
X7.637Y-4.425
X6.487Y-5.75
X6.487Y-5.85
X6.687Y-4.025
X6.687Y-4.125
X6.362Y-5.75
X6.362Y-5.85
X6.737Y-5.75
X6.737Y-5.85
X6.562Y-4.025
X6.562Y-4.125
X6.762Y-3.6
X6.8604Y-3.6
X7.637Y-5.25
X7.637Y-5.55
X7.637Y-5.65
X7.837Y-5.25
X7.837Y-5.55
X7.837Y-5.65
X6.762Y-3.8
X6.8604Y-3.8
T4
X8.037Y-5.4
X8.137Y-5.4
X8.037Y-5.1
X8.137Y-5.1
X8.037Y-5.7
X8.137Y-5.7
T5
X8.1866Y-3.75
X8.187Y-3.55
X8.087Y-4.1
X8.087Y-4.2
X8.087Y-4.3
X8.087Y-4.5
X8.087Y-4.6
X8.087Y-4.7
X8.087Y-4.8
X5.4866Y-6.25
X5.487Y-6.05
T6
X5.537Y-4.45
X5.537Y-4.55
X5.537Y-4.65
X5.537Y-4.75
X5.537Y-4.85
X5.537Y-4.95
X5.537Y-5.05
X5.537Y-5.15
X5.537Y-5.25
X5.537Y-5.35
X5.537Y-5.45
X5.537Y-5.55
X5.537Y-5.65
X5.537Y-5.75
X6.137Y-4.45
X6.137Y-4.55
X6.137Y-4.65
X6.137Y-4.75
X6.137Y-4.85
X6.137Y-4.95
X6.137Y-5.05
X6.137Y-5.15
X6.137Y-5.25
X6.137Y-5.35
X6.137Y-5.45
X6.137Y-5.55
X6.137Y-5.65
X6.137Y-5.75
X7.087Y-6.1
X7.187Y-6.1
X7.287Y-6.1
X7.387Y-6.1
X7.487Y-6.1
X7.587Y-6.1
X7.487Y-5.35
X7.487Y-5.65
X6.487Y-6.1
X6.587Y-6.1
X6.687Y-6.1
X6.787Y-6.1
X6.887Y-6.1
X7.237Y-3.7
X7.337Y-3.7
X7.437Y-3.7
X7.537Y-3.7
X7.287Y-5.35
X7.287Y-5.65
X6.087Y-6.1
X6.187Y-6.1
X6.287Y-6.1
T7
X7.874Y-5.9449
X5.7874Y-5.9449
X7.874Y-3.8583
X5.7874Y-3.8583
T0
M30
