<?xml version="1.0" encoding="UTF-8"?>
<svg xmlns="http://www.w3.org/2000/svg" xmlns:xlink="http://www.w3.org/1999/xlink" width="595.275591pt" height="841.889764pt" viewBox="0 0 595.275591 841.889764" version="1.2">
<g id="surface29914">
<rect x="0" y="0" width="595.275591" height="841.889764" style="fill:rgb(100%,100%,100%);fill-opacity:1;stroke:none;"/>
<path style="fill:none;stroke-width:19;stroke-linecap:round;stroke-linejoin:round;stroke:rgb(76.078431%,76.078431%,0%);stroke-opacity:1;stroke-miterlimit:10;" d="M 35110.9375 26853.125 L 20938.020833 26853.125 " transform="matrix(0.015,0,0,0.015,0,0)"/>
<path style="fill:none;stroke-width:19;stroke-linecap:round;stroke-linejoin:round;stroke:rgb(76.078431%,76.078431%,0%);stroke-opacity:1;stroke-miterlimit:10;" d="M 35110.9375 12679.947917 L 35110.9375 26853.125 " transform="matrix(0.015,0,0,0.015,0,0)"/>
<path style="fill:none;stroke-width:19;stroke-linecap:round;stroke-linejoin:round;stroke:rgb(76.078431%,76.078431%,0%);stroke-opacity:1;stroke-miterlimit:10;" d="M 20938.020833 12679.947917 L 35110.9375 12679.947917 " transform="matrix(0.015,0,0,0.015,0,0)"/>
<path style="fill:none;stroke-width:19;stroke-linecap:round;stroke-linejoin:round;stroke:rgb(76.078431%,76.078431%,0%);stroke-opacity:1;stroke-miterlimit:10;" d="M 20938.020833 26853.125 L 20938.020833 12679.947917 " transform="matrix(0.015,0,0,0.015,0,0)"/>
<path style="fill:none;stroke-width:94;stroke-linecap:round;stroke-linejoin:round;stroke:rgb(76.078431%,76.078431%,0%);stroke-opacity:1;stroke-miterlimit:10;" d="M 34206.510417 24817.96875 C 34206.510417 25223.4375 33990.364583 25597.916667 33639.322917 25800.520833 C 33288.28125 26003.125 32855.729167 26003.125 32504.6875 25800.520833 C 32153.645833 25597.916667 31937.5 25223.4375 31937.5 24817.96875 C 31937.5 24412.760417 32153.645833 24038.28125 32504.6875 23835.416667 C 32855.729167 23632.8125 33288.28125 23632.8125 33639.322917 23835.416667 C 33990.364583 24038.28125 34206.510417 24412.760417 34206.510417 24817.96875 Z M 34206.510417 24817.96875 " transform="matrix(0.015,0,0,0.015,0,0)"/>
<path style="fill:none;stroke-width:94;stroke-linecap:round;stroke-linejoin:round;stroke:rgb(76.078431%,76.078431%,0%);stroke-opacity:1;stroke-miterlimit:10;" d="M 32882.552083 25101.041667 C 32882.552083 25153.125 32840.104167 25195.572917 32788.020833 25195.572917 C 32735.9375 25195.572917 32693.489583 25153.125 32693.489583 25101.041667 C 32693.489583 25048.697917 32735.9375 25006.510417 32788.020833 25006.510417 C 32840.104167 25006.510417 32882.552083 25048.697917 32882.552083 25101.041667 Z M 32882.552083 25101.041667 " transform="matrix(0.015,0,0,0.015,0,0)"/>
<path style="fill:none;stroke-width:94;stroke-linecap:round;stroke-linejoin:round;stroke:rgb(76.078431%,76.078431%,0%);stroke-opacity:1;stroke-miterlimit:10;" d="M 33922.395833 24817.96875 C 33922.395833 25121.875 33760.416667 25402.604167 33497.135417 25554.427083 C 33234.114583 25706.510417 32909.895833 25706.510417 32646.875 25554.427083 C 32383.59375 25402.604167 32221.614583 25121.875 32221.614583 24817.96875 C 32221.614583 24514.0625 32383.59375 24233.333333 32646.875 24081.510417 C 32909.895833 23929.427083 33234.114583 23929.427083 33497.135417 24081.510417 C 33760.416667 24233.333333 33922.395833 24514.0625 33922.395833 24817.96875 Z M 33922.395833 24817.96875 " transform="matrix(0.015,0,0,0.015,0,0)"/>
<path style="fill:none;stroke-width:94;stroke-linecap:round;stroke-linejoin:round;stroke:rgb(76.078431%,76.078431%,0%);stroke-opacity:1;stroke-miterlimit:10;" d="M 33740.625 24817.96875 C 33740.625 25056.770833 33613.020833 25277.604167 33406.25 25396.875 C 33199.479167 25516.40625 32944.53125 25516.40625 32737.760417 25396.875 C 32530.989583 25277.604167 32403.385417 25056.770833 32403.385417 24817.96875 C 32403.385417 24579.166667 32530.989583 24358.59375 32737.760417 24239.0625 C 32944.53125 24119.53125 33199.479167 24119.53125 33406.25 24239.0625 C 33613.020833 24358.59375 33740.625 24579.166667 33740.625 24817.96875 Z M 33740.625 24817.96875 " transform="matrix(0.015,0,0,0.015,0,0)"/>
<path style="fill:none;stroke-width:94;stroke-linecap:round;stroke-linejoin:round;stroke:rgb(76.078431%,76.078431%,0%);stroke-opacity:1;stroke-miterlimit:10;" d="M 34111.458333 24817.96875 C 34111.458333 25189.322917 33913.28125 25532.552083 33591.666667 25718.229167 C 33270.052083 25903.90625 32873.958333 25903.90625 32552.34375 25718.229167 C 32230.729167 25532.552083 32032.552083 25189.322917 32032.552083 24817.96875 C 32032.552083 24446.614583 32230.729167 24103.385417 32552.34375 23917.708333 C 32873.958333 23732.03125 33270.052083 23732.03125 33591.666667 23917.708333 C 33913.28125 24103.385417 34111.458333 24446.614583 34111.458333 24817.96875 Z M 34111.458333 24817.96875 " transform="matrix(0.015,0,0,0.015,0,0)"/>
<path style="fill:none;stroke-width:71;stroke-linecap:round;stroke-linejoin:round;stroke:rgb(76.078431%,76.078431%,0%);stroke-opacity:1;stroke-miterlimit:10;" d="M 32492.447917 22690.625 L 32539.583333 22312.5 L 32607.552083 22312.5 L 32645.572917 22330.46875 L 32668.489583 22366.40625 L 32677.604167 22402.604167 L 32681.510417 22474.479167 L 32674.479167 22528.385417 L 32652.604167 22600.520833 L 32634.375 22636.458333 L 32602.604167 22672.395833 L 32560.416667 22690.625 L 32492.447917 22690.625 " transform="matrix(0.015,0,0,0.015,0,0)"/>
<path style="fill:none;stroke-width:71;stroke-linecap:round;stroke-linejoin:round;stroke:rgb(76.078431%,76.078431%,0%);stroke-opacity:1;stroke-miterlimit:10;" d="M 32877.604167 22312.5 L 32931.510417 22312.5 L 32956.510417 22330.46875 L 32978.385417 22366.40625 L 32983.59375 22438.541667 L 32967.447917 22564.583333 L 32944.53125 22636.458333 L 32913.541667 22672.395833 L 32884.375 22690.625 L 32830.46875 22690.625 L 32805.46875 22672.395833 L 32782.552083 22636.458333 L 32778.385417 22564.583333 L 32794.53125 22438.541667 L 32816.40625 22366.40625 L 32848.4375 22330.46875 L 32877.604167 22312.5 " transform="matrix(0.015,0,0,0.015,0,0)"/>
<path style="fill:none;stroke-width:71;stroke-linecap:round;stroke-linejoin:round;stroke:rgb(76.078431%,76.078431%,0%);stroke-opacity:1;stroke-miterlimit:10;" d="M 33093.489583 22312.5 L 33113.541667 22690.625 L 33201.5625 22420.572917 L 33221.614583 22690.625 L 33336.458333 22312.5 " transform="matrix(0.015,0,0,0.015,0,0)"/>
<path style="fill:none;stroke-width:71;stroke-linecap:round;stroke-linejoin:round;stroke:rgb(76.078431%,76.078431%,0%);stroke-opacity:1;stroke-miterlimit:10;" d="M 33396.614583 22690.625 L 33444.53125 22312.5 L 33558.59375 22690.625 L 33606.510417 22312.5 " transform="matrix(0.015,0,0,0.015,0,0)"/>
<path style="fill:none;stroke-width:71;stroke-linecap:round;stroke-linejoin:round;stroke:rgb(76.078431%,76.078431%,0%);stroke-opacity:1;stroke-miterlimit:10;" d="M 33160.416667 21232.552083 L 33122.395833 21538.541667 L 33131.510417 21574.479167 L 33142.447917 21592.447917 L 33167.447917 21610.416667 L 33221.614583 21610.416667 L 33250.520833 21592.447917 L 33266.40625 21574.479167 L 33284.375 21538.541667 L 33322.395833 21232.552083 " transform="matrix(0.015,0,0,0.015,0,0)"/>
<path style="fill:none;stroke-width:71;stroke-linecap:round;stroke-linejoin:round;stroke:rgb(76.078431%,76.078431%,0%);stroke-opacity:1;stroke-miterlimit:10;" d="M 33410.416667 21610.416667 L 33457.552083 21232.552083 L 33565.625 21232.552083 L 33590.625 21250.520833 L 33601.5625 21268.489583 L 33610.416667 21304.427083 L 33603.385417 21358.59375 L 33585.416667 21394.53125 L 33570.572917 21412.5 L 33540.625 21430.46875 L 33432.552083 21430.46875 " transform="matrix(0.015,0,0,0.015,0,0)"/>
<path style="fill:none;stroke-width:94;stroke-linecap:round;stroke-linejoin:round;stroke:rgb(76.078431%,76.078431%,0%);stroke-opacity:1;stroke-miterlimit:10;" d="M 21478.125 13480.989583 L 21613.020833 14426.041667 L 21721.09375 13751.041667 L 21828.90625 14426.041667 L 21964.0625 13480.989583 " transform="matrix(0.015,0,0,0.015,0,0)"/>
<path style="fill:none;stroke-width:94;stroke-linecap:round;stroke-linejoin:round;stroke:rgb(76.078431%,76.078431%,0%);stroke-opacity:1;stroke-miterlimit:10;" d="M 22179.947917 14426.041667 L 22179.947917 13480.989583 " transform="matrix(0.015,0,0,0.015,0,0)"/>
<path style="fill:none;stroke-width:94;stroke-linecap:round;stroke-linejoin:round;stroke:rgb(76.078431%,76.078431%,0%);stroke-opacity:1;stroke-miterlimit:10;" d="M 22450 14426.041667 L 22450 13480.989583 L 22773.958333 14426.041667 L 22773.958333 13480.989583 " transform="matrix(0.015,0,0,0.015,0,0)"/>
<path style="fill:none;stroke-width:94;stroke-linecap:round;stroke-linejoin:round;stroke:rgb(76.078431%,76.078431%,0%);stroke-opacity:1;stroke-miterlimit:10;" d="M 22963.020833 13480.989583 L 23286.979167 13480.989583 " transform="matrix(0.015,0,0,0.015,0,0)"/>
<path style="fill:none;stroke-width:94;stroke-linecap:round;stroke-linejoin:round;stroke:rgb(76.078431%,76.078431%,0%);stroke-opacity:1;stroke-miterlimit:10;" d="M 23125 14426.041667 L 23125 13480.989583 " transform="matrix(0.015,0,0,0.015,0,0)"/>
<path style="fill:none;stroke-width:94;stroke-linecap:round;stroke-linejoin:round;stroke:rgb(76.078431%,76.078431%,0%);stroke-opacity:1;stroke-miterlimit:10;" d="M 32882.552083 24534.114583 C 32882.552083 24586.197917 32840.104167 24628.385417 32788.020833 24628.385417 C 32735.9375 24628.385417 32693.489583 24586.197917 32693.489583 24534.114583 C 32693.489583 24481.770833 32735.9375 24439.583333 32788.020833 24439.583333 C 32840.104167 24439.583333 32882.552083 24481.770833 32882.552083 24534.114583 Z M 32882.552083 24534.114583 " transform="matrix(0.015,0,0,0.015,0,0)"/>
<path style="fill:none;stroke-width:71;stroke-linecap:round;stroke-linejoin:round;stroke:rgb(76.078431%,76.078431%,0%);stroke-opacity:1;stroke-miterlimit:10;" d="M 21467.447917 15250.520833 L 21514.583333 14872.395833 L 21629.427083 15250.520833 L 21676.5625 14872.395833 " transform="matrix(0.015,0,0,0.015,0,0)"/>
<path style="fill:none;stroke-width:71;stroke-linecap:round;stroke-linejoin:round;stroke:rgb(76.078431%,76.078431%,0%);stroke-opacity:1;stroke-miterlimit:10;" d="M 21764.583333 15250.520833 L 21811.458333 14872.395833 L 21872.395833 15142.447917 L 22000.520833 14872.395833 L 21953.385417 15250.520833 " transform="matrix(0.015,0,0,0.015,0,0)"/>
<path style="fill:none;stroke-width:71;stroke-linecap:round;stroke-linejoin:round;stroke:rgb(76.078431%,76.078431%,0%);stroke-opacity:1;stroke-miterlimit:10;" d="M 22112.5 15052.604167 L 22207.552083 15052.604167 " transform="matrix(0.015,0,0,0.015,0,0)"/>
<path style="fill:none;stroke-width:71;stroke-linecap:round;stroke-linejoin:round;stroke:rgb(76.078431%,76.078431%,0%);stroke-opacity:1;stroke-miterlimit:10;" d="M 22223.4375 15250.520833 L 22088.541667 15250.520833 L 22135.416667 14872.395833 L 22270.572917 14872.395833 " transform="matrix(0.015,0,0,0.015,0,0)"/>
<path style="fill:none;stroke-width:71;stroke-linecap:round;stroke-linejoin:round;stroke:rgb(76.078431%,76.078431%,0%);stroke-opacity:1;stroke-miterlimit:10;" d="M 22344.53125 15142.447917 L 22479.427083 15142.447917 " transform="matrix(0.015,0,0,0.015,0,0)"/>
<path style="fill:none;stroke-width:71;stroke-linecap:round;stroke-linejoin:round;stroke:rgb(76.078431%,76.078431%,0%);stroke-opacity:1;stroke-miterlimit:10;" d="M 22304.427083 15250.520833 L 22445.572917 14872.395833 L 22493.489583 15250.520833 " transform="matrix(0.015,0,0,0.015,0,0)"/>
<path style="fill:none;stroke-width:71;stroke-linecap:round;stroke-linejoin:round;stroke:rgb(76.078431%,76.078431%,0%);stroke-opacity:1;stroke-miterlimit:10;" d="M 22832.552083 14908.59375 L 22848.4375 14890.625 L 22877.604167 14872.395833 L 22945.572917 14872.395833 L 22969.53125 14890.625 L 22981.510417 14908.59375 L 22990.625 14944.53125 L 22985.416667 14980.46875 L 22965.625 15034.375 L 22776.5625 15250.520833 L 22951.5625 15250.520833 " transform="matrix(0.015,0,0,0.015,0,0)"/>
<path style="fill:none;stroke-width:71;stroke-linecap:round;stroke-linejoin:round;stroke:rgb(76.078431%,76.078431%,0%);stroke-opacity:1;stroke-miterlimit:10;" d="M 23174.479167 14872.395833 L 23201.5625 14872.395833 L 23226.5625 14890.625 L 23237.5 14908.59375 L 23246.614583 14944.53125 L 23251.5625 15016.40625 L 23239.583333 15106.510417 L 23217.447917 15178.385417 L 23199.479167 15214.583333 L 23183.59375 15232.552083 L 23154.427083 15250.520833 L 23127.604167 15250.520833 L 23102.604167 15232.552083 L 23091.40625 15214.583333 L 23082.552083 15178.385417 L 23077.604167 15106.510417 L 23089.583333 15016.40625 L 23111.458333 14944.53125 L 23129.427083 14908.59375 L 23145.572917 14890.625 L 23174.479167 14872.395833 " transform="matrix(0.015,0,0,0.015,0,0)"/>
<path style="fill:none;stroke-width:71;stroke-linecap:round;stroke-linejoin:round;stroke:rgb(76.078431%,76.078431%,0%);stroke-opacity:1;stroke-miterlimit:10;" d="M 23444.53125 14872.395833 L 23471.614583 14872.395833 L 23496.614583 14890.625 L 23507.552083 14908.59375 L 23516.40625 14944.53125 L 23521.614583 15016.40625 L 23509.375 15106.510417 L 23487.5 15178.385417 L 23469.53125 15214.583333 L 23453.385417 15232.552083 L 23424.479167 15250.520833 L 23397.395833 15250.520833 L 23372.395833 15232.552083 L 23361.458333 15214.583333 L 23352.604167 15178.385417 L 23347.395833 15106.510417 L 23359.375 15016.40625 L 23381.510417 14944.53125 L 23399.479167 14908.59375 L 23415.625 14890.625 L 23444.53125 14872.395833 " transform="matrix(0.015,0,0,0.015,0,0)"/>
<path style="fill:none;stroke-width:71;stroke-linecap:round;stroke-linejoin:round;stroke:rgb(76.078431%,76.078431%,0%);stroke-opacity:1;stroke-miterlimit:10;" d="M 23714.583333 14872.395833 L 23741.40625 14872.395833 L 23766.40625 14890.625 L 23777.604167 14908.59375 L 23786.458333 14944.53125 L 23791.40625 15016.40625 L 23779.427083 15106.510417 L 23757.552083 15178.385417 L 23739.583333 15214.583333 L 23723.4375 15232.552083 L 23694.53125 15250.520833 L 23667.447917 15250.520833 L 23642.447917 15232.552083 L 23631.510417 15214.583333 L 23622.395833 15178.385417 L 23617.447917 15106.510417 L 23629.427083 15016.40625 L 23651.5625 14944.53125 L 23669.53125 14908.59375 L 23685.416667 14890.625 L 23714.583333 14872.395833 " transform="matrix(0.015,0,0,0.015,0,0)"/>
<path style="fill:none;stroke-width:71;stroke-linecap:round;stroke-linejoin:round;stroke:rgb(76.078431%,76.078431%,0%);stroke-opacity:1;stroke-miterlimit:10;" d="M 24119.53125 14872.395833 L 24139.583333 15250.520833 L 24227.604167 14980.46875 L 24247.395833 15250.520833 L 24362.5 14872.395833 " transform="matrix(0.015,0,0,0.015,0,0)"/>
<path style="fill:none;stroke-width:71;stroke-linecap:round;stroke-linejoin:round;stroke:rgb(76.078431%,76.078431%,0%);stroke-opacity:1;stroke-miterlimit:10;" d="M 24423.4375 15250.520833 L 24454.427083 14998.4375 " transform="matrix(0.015,0,0,0.015,0,0)"/>
<path style="fill:none;stroke-width:71;stroke-linecap:round;stroke-linejoin:round;stroke:rgb(76.078431%,76.078431%,0%);stroke-opacity:1;stroke-miterlimit:10;" d="M 24470.572917 14872.395833 L 24454.427083 14890.625 L 24466.40625 14908.59375 L 24481.510417 14890.625 L 24470.572917 14872.395833 L 24466.40625 14908.59375 " transform="matrix(0.015,0,0,0.015,0,0)"/>
<path style="fill:none;stroke-width:71;stroke-linecap:round;stroke-linejoin:round;stroke:rgb(76.078431%,76.078431%,0%);stroke-opacity:1;stroke-miterlimit:10;" d="M 24589.583333 14998.4375 L 24558.59375 15250.520833 " transform="matrix(0.015,0,0,0.015,0,0)"/>
<path style="fill:none;stroke-width:71;stroke-linecap:round;stroke-linejoin:round;stroke:rgb(76.078431%,76.078431%,0%);stroke-opacity:1;stroke-miterlimit:10;" d="M 24585.416667 15034.375 L 24601.5625 15016.40625 L 24630.46875 14998.4375 L 24670.572917 14998.4375 L 24695.572917 15016.40625 L 24704.427083 15052.604167 L 24679.427083 15250.520833 " transform="matrix(0.015,0,0,0.015,0,0)"/>
<path style="fill:none;stroke-width:71;stroke-linecap:round;stroke-linejoin:round;stroke:rgb(76.078431%,76.078431%,0%);stroke-opacity:1;stroke-miterlimit:10;" d="M 24936.458333 15250.520833 L 24983.59375 14872.395833 " transform="matrix(0.015,0,0,0.015,0,0)"/>
<path style="fill:none;stroke-width:71;stroke-linecap:round;stroke-linejoin:round;stroke:rgb(76.078431%,76.078431%,0%);stroke-opacity:1;stroke-miterlimit:10;" d="M 24938.541667 15232.552083 L 24909.375 15250.520833 L 24855.46875 15250.520833 L 24830.46875 15232.552083 L 24819.53125 15214.583333 L 24810.416667 15178.385417 L 24823.4375 15070.572917 L 24841.40625 15034.375 L 24857.552083 15016.40625 L 24886.458333 14998.4375 L 24940.625 14998.4375 L 24965.625 15016.40625 " transform="matrix(0.015,0,0,0.015,0,0)"/>
<path style="fill:none;stroke-width:71;stroke-linecap:round;stroke-linejoin:round;stroke:rgb(76.078431%,76.078431%,0%);stroke-opacity:1;stroke-miterlimit:10;" d="M 25111.458333 15250.520833 L 25086.458333 15232.552083 L 25077.604167 15196.614583 L 25118.489583 14872.395833 " transform="matrix(0.015,0,0,0.015,0,0)"/>
<path style="fill:none;stroke-width:71;stroke-linecap:round;stroke-linejoin:round;stroke:rgb(76.078431%,76.078431%,0%);stroke-opacity:1;stroke-miterlimit:10;" d="M 25341.40625 15250.520833 L 25365.625 15052.604167 L 25356.510417 15016.40625 L 25332.552083 14998.4375 L 25278.385417 14998.4375 L 25248.4375 15016.40625 " transform="matrix(0.015,0,0,0.015,0,0)"/>
<path style="fill:none;stroke-width:71;stroke-linecap:round;stroke-linejoin:round;stroke:rgb(76.078431%,76.078431%,0%);stroke-opacity:1;stroke-miterlimit:10;" d="M 25343.489583 15232.552083 L 25314.583333 15250.520833 L 25246.614583 15250.520833 L 25221.614583 15232.552083 L 25212.5 15196.614583 L 25217.447917 15160.416667 L 25235.416667 15124.479167 L 25264.583333 15106.510417 L 25332.552083 15106.510417 L 25361.458333 15088.541667 " transform="matrix(0.015,0,0,0.015,0,0)"/>
<path style="fill:none;stroke-width:71;stroke-linecap:round;stroke-linejoin:round;stroke:rgb(76.078431%,76.078431%,0%);stroke-opacity:1;stroke-miterlimit:10;" d="M 25464.583333 15232.552083 L 25489.583333 15250.520833 L 25543.489583 15250.520833 L 25572.395833 15232.552083 L 25590.625 15196.614583 L 25593.489583 15178.385417 L 25584.375 15142.447917 L 25559.375 15124.479167 L 25518.489583 15124.479167 L 25494.53125 15106.510417 L 25485.416667 15070.572917 L 25487.5 15052.604167 L 25505.46875 15016.40625 L 25534.375 14998.4375 L 25575.520833 14998.4375 L 25599.479167 15016.40625 " transform="matrix(0.015,0,0,0.015,0,0)"/>
<path style="fill:none;stroke-width:71;stroke-linecap:round;stroke-linejoin:round;stroke:rgb(76.078431%,76.078431%,0%);stroke-opacity:1;stroke-miterlimit:10;" d="M 25694.53125 15232.552083 L 25719.53125 15250.520833 L 25773.4375 15250.520833 L 25802.604167 15232.552083 L 25820.572917 15196.614583 L 25822.395833 15178.385417 L 25813.541667 15142.447917 L 25788.541667 15124.479167 L 25748.4375 15124.479167 L 25723.4375 15106.510417 L 25714.583333 15070.572917 L 25716.40625 15052.604167 L 25734.375 15016.40625 L 25764.583333 14998.4375 L 25804.427083 14998.4375 L 25829.427083 15016.40625 " transform="matrix(0.015,0,0,0.015,0,0)"/>
<path style="fill:none;stroke-width:71;stroke-linecap:round;stroke-linejoin:round;stroke:rgb(76.078431%,76.078431%,0%);stroke-opacity:1;stroke-miterlimit:10;" d="M 26151.5625 15250.520833 L 26198.4375 14872.395833 " transform="matrix(0.015,0,0,0.015,0,0)"/>
<path style="fill:none;stroke-width:71;stroke-linecap:round;stroke-linejoin:round;stroke:rgb(76.078431%,76.078431%,0%);stroke-opacity:1;stroke-miterlimit:10;" d="M 26317.447917 14998.4375 L 26286.458333 15250.520833 " transform="matrix(0.015,0,0,0.015,0,0)"/>
<path style="fill:none;stroke-width:71;stroke-linecap:round;stroke-linejoin:round;stroke:rgb(76.078431%,76.078431%,0%);stroke-opacity:1;stroke-miterlimit:10;" d="M 26313.541667 15034.375 L 26328.385417 15016.40625 L 26358.59375 14998.4375 L 26398.4375 14998.4375 L 26423.4375 15016.40625 L 26432.552083 15052.604167 L 26407.552083 15250.520833 " transform="matrix(0.015,0,0,0.015,0,0)"/>
<path style="fill:none;stroke-width:71;stroke-linecap:round;stroke-linejoin:round;stroke:rgb(76.078431%,76.078431%,0%);stroke-opacity:1;stroke-miterlimit:10;" d="M 26533.59375 14998.4375 L 26641.40625 14998.4375 " transform="matrix(0.015,0,0,0.015,0,0)"/>
<path style="fill:none;stroke-width:71;stroke-linecap:round;stroke-linejoin:round;stroke:rgb(76.078431%,76.078431%,0%);stroke-opacity:1;stroke-miterlimit:10;" d="M 26589.583333 14872.395833 L 26549.479167 15196.614583 L 26558.59375 15232.552083 L 26583.59375 15250.520833 L 26610.416667 15250.520833 " transform="matrix(0.015,0,0,0.015,0,0)"/>
<path style="fill:none;stroke-width:71;stroke-linecap:round;stroke-linejoin:round;stroke:rgb(76.078431%,76.078431%,0%);stroke-opacity:1;stroke-miterlimit:10;" d="M 26814.583333 15232.552083 L 26785.416667 15250.520833 L 26731.510417 15250.520833 L 26706.510417 15232.552083 L 26697.395833 15196.614583 L 26715.625 15052.604167 L 26733.59375 15016.40625 L 26762.5 14998.4375 L 26816.40625 14998.4375 L 26841.40625 15016.40625 L 26850.520833 15052.604167 L 26846.614583 15088.541667 L 26706.510417 15124.479167 " transform="matrix(0.015,0,0,0.015,0,0)"/>
<path style="fill:none;stroke-width:71;stroke-linecap:round;stroke-linejoin:round;stroke:rgb(76.078431%,76.078431%,0%);stroke-opacity:1;stroke-miterlimit:10;" d="M 26947.395833 15250.520833 L 26978.385417 14998.4375 " transform="matrix(0.015,0,0,0.015,0,0)"/>
<path style="fill:none;stroke-width:71;stroke-linecap:round;stroke-linejoin:round;stroke:rgb(76.078431%,76.078431%,0%);stroke-opacity:1;stroke-miterlimit:10;" d="M 26969.53125 15070.572917 L 26987.5 15034.375 L 27003.385417 15016.40625 L 27032.552083 14998.4375 L 27059.375 14998.4375 " transform="matrix(0.015,0,0,0.015,0,0)"/>
<path style="fill:none;stroke-width:71;stroke-linecap:round;stroke-linejoin:round;stroke:rgb(76.078431%,76.078431%,0%);stroke-opacity:1;stroke-miterlimit:10;" d="M 27113.541667 14998.4375 L 27221.614583 14998.4375 " transform="matrix(0.015,0,0,0.015,0,0)"/>
<path style="fill:none;stroke-width:71;stroke-linecap:round;stroke-linejoin:round;stroke:rgb(76.078431%,76.078431%,0%);stroke-opacity:1;stroke-miterlimit:10;" d="M 27122.395833 15250.520833 L 27163.541667 14926.5625 L 27181.510417 14890.625 L 27210.416667 14872.395833 L 27237.5 14872.395833 " transform="matrix(0.015,0,0,0.015,0,0)"/>
<path style="fill:none;stroke-width:71;stroke-linecap:round;stroke-linejoin:round;stroke:rgb(76.078431%,76.078431%,0%);stroke-opacity:1;stroke-miterlimit:10;" d="M 27406.510417 15250.520833 L 27431.510417 15052.604167 L 27422.395833 15016.40625 L 27397.395833 14998.4375 L 27343.489583 14998.4375 L 27314.583333 15016.40625 " transform="matrix(0.015,0,0,0.015,0,0)"/>
<path style="fill:none;stroke-width:71;stroke-linecap:round;stroke-linejoin:round;stroke:rgb(76.078431%,76.078431%,0%);stroke-opacity:1;stroke-miterlimit:10;" d="M 27408.59375 15232.552083 L 27379.427083 15250.520833 L 27311.458333 15250.520833 L 27287.5 15232.552083 L 27278.385417 15196.614583 L 27282.552083 15160.416667 L 27300.520833 15124.479167 L 27329.427083 15106.510417 L 27397.395833 15106.510417 L 27426.5625 15088.541667 " transform="matrix(0.015,0,0,0.015,0,0)"/>
<path style="fill:none;stroke-width:71;stroke-linecap:round;stroke-linejoin:round;stroke:rgb(76.078431%,76.078431%,0%);stroke-opacity:1;stroke-miterlimit:10;" d="M 27665.625 15232.552083 L 27635.416667 15250.520833 L 27581.510417 15250.520833 L 27557.552083 15232.552083 L 27545.572917 15214.583333 L 27536.458333 15178.385417 L 27550.520833 15070.572917 L 27568.489583 15034.375 L 27584.375 15016.40625 L 27613.541667 14998.4375 L 27667.447917 14998.4375 L 27692.447917 15016.40625 " transform="matrix(0.015,0,0,0.015,0,0)"/>
<path style="fill:none;stroke-width:71;stroke-linecap:round;stroke-linejoin:round;stroke:rgb(76.078431%,76.078431%,0%);stroke-opacity:1;stroke-miterlimit:10;" d="M 27894.53125 15232.552083 L 27865.625 15250.520833 L 27811.458333 15250.520833 L 27786.458333 15232.552083 L 27777.604167 15196.614583 L 27795.572917 15052.604167 L 27813.541667 15016.40625 L 27842.447917 14998.4375 L 27896.614583 14998.4375 L 27921.614583 15016.40625 L 27930.46875 15052.604167 L 27926.5625 15088.541667 L 27786.458333 15124.479167 " transform="matrix(0.015,0,0,0.015,0,0)"/>
<path style="fill:none;stroke-width:71;stroke-linecap:round;stroke-linejoin:round;stroke:rgb(76.078431%,76.078431%,0%);stroke-opacity:1;stroke-miterlimit:10;" d="M 28243.489583 15250.520833 L 28290.625 14872.395833 L 28351.5625 15142.447917 L 28479.427083 14872.395833 L 28432.552083 15250.520833 " transform="matrix(0.015,0,0,0.015,0,0)"/>
<path style="fill:none;stroke-width:71;stroke-linecap:round;stroke-linejoin:round;stroke:rgb(76.078431%,76.078431%,0%);stroke-opacity:1;stroke-miterlimit:10;" d="M 28607.552083 15250.520833 L 28583.59375 15232.552083 L 28571.614583 15214.583333 L 28562.5 15178.385417 L 28576.5625 15070.572917 L 28594.53125 15034.375 L 28610.416667 15016.40625 L 28639.583333 14998.4375 L 28679.427083 14998.4375 L 28704.427083 15016.40625 L 28715.625 15034.375 L 28724.479167 15070.572917 L 28711.458333 15178.385417 L 28693.489583 15214.583333 L 28677.604167 15232.552083 L 28648.4375 15250.520833 L 28607.552083 15250.520833 " transform="matrix(0.015,0,0,0.015,0,0)"/>
<path style="fill:none;stroke-width:71;stroke-linecap:round;stroke-linejoin:round;stroke:rgb(76.078431%,76.078431%,0%);stroke-opacity:1;stroke-miterlimit:10;" d="M 28945.572917 15250.520833 L 28992.447917 14872.395833 " transform="matrix(0.015,0,0,0.015,0,0)"/>
<path style="fill:none;stroke-width:71;stroke-linecap:round;stroke-linejoin:round;stroke:rgb(76.078431%,76.078431%,0%);stroke-opacity:1;stroke-miterlimit:10;" d="M 28947.395833 15232.552083 L 28918.489583 15250.520833 L 28864.583333 15250.520833 L 28839.583333 15232.552083 L 28828.385417 15214.583333 L 28819.53125 15178.385417 L 28832.552083 15070.572917 L 28850.520833 15034.375 L 28866.40625 15016.40625 L 28895.572917 14998.4375 L 28949.479167 14998.4375 L 28974.479167 15016.40625 " transform="matrix(0.015,0,0,0.015,0,0)"/>
<path style="fill:none;stroke-width:71;stroke-linecap:round;stroke-linejoin:round;stroke:rgb(76.078431%,76.078431%,0%);stroke-opacity:1;stroke-miterlimit:10;" d="M 29233.59375 14998.4375 L 29201.5625 15250.520833 " transform="matrix(0.015,0,0,0.015,0,0)"/>
<path style="fill:none;stroke-width:71;stroke-linecap:round;stroke-linejoin:round;stroke:rgb(76.078431%,76.078431%,0%);stroke-opacity:1;stroke-miterlimit:10;" d="M 29111.458333 14998.4375 L 29086.458333 15196.614583 L 29095.572917 15232.552083 L 29120.572917 15250.520833 L 29161.458333 15250.520833 L 29190.625 15232.552083 L 29206.510417 15214.583333 " transform="matrix(0.015,0,0,0.015,0,0)"/>
<path style="fill:none;stroke-width:71;stroke-linecap:round;stroke-linejoin:round;stroke:rgb(76.078431%,76.078431%,0%);stroke-opacity:1;stroke-miterlimit:10;" d="M 29377.604167 15250.520833 L 29352.604167 15232.552083 L 29343.489583 15196.614583 L 29383.59375 14872.395833 " transform="matrix(0.015,0,0,0.015,0,0)"/>
<path style="fill:none;stroke-width:71;stroke-linecap:round;stroke-linejoin:round;stroke:rgb(76.078431%,76.078431%,0%);stroke-opacity:1;stroke-miterlimit:10;" d="M 29595.572917 15232.552083 L 29566.40625 15250.520833 L 29512.5 15250.520833 L 29487.5 15232.552083 L 29478.385417 15196.614583 L 29496.614583 15052.604167 L 29514.583333 15016.40625 L 29543.489583 14998.4375 L 29597.395833 14998.4375 L 29622.395833 15016.40625 L 29631.510417 15052.604167 L 29626.5625 15088.541667 L 29487.5 15124.479167 " transform="matrix(0.015,0,0,0.015,0,0)"/>
<path style="fill:none;stroke-width:71;stroke-linecap:round;stroke-linejoin:round;stroke:rgb(76.078431%,76.078431%,0%);stroke-opacity:1;stroke-miterlimit:10;" d="M 31952.604167 20530.46875 L 31999.479167 20152.604167 L 32107.552083 20152.604167 L 32132.552083 20170.572917 L 32143.489583 20188.541667 L 32152.604167 20224.479167 L 32146.614583 20278.385417 L 32128.385417 20314.583333 L 32112.5 20332.552083 L 32083.59375 20350.520833 L 31975.520833 20350.520833 " transform="matrix(0.015,0,0,0.015,0,0)"/>
<path style="fill:none;stroke-width:71;stroke-linecap:round;stroke-linejoin:round;stroke:rgb(76.078431%,76.078431%,0%);stroke-opacity:1;stroke-miterlimit:10;" d="M 32256.510417 20152.604167 L 32276.5625 20530.46875 L 32364.583333 20260.416667 L 32384.375 20530.46875 L 32499.479167 20152.604167 " transform="matrix(0.015,0,0,0.015,0,0)"/>
<path style="fill:none;stroke-width:71;stroke-linecap:round;stroke-linejoin:round;stroke:rgb(76.078431%,76.078431%,0%);stroke-opacity:1;stroke-miterlimit:10;" d="M 32722.395833 20530.46875 L 32650.520833 20350.520833 " transform="matrix(0.015,0,0,0.015,0,0)"/>
<path style="fill:none;stroke-width:71;stroke-linecap:round;stroke-linejoin:round;stroke:rgb(76.078431%,76.078431%,0%);stroke-opacity:1;stroke-miterlimit:10;" d="M 32560.416667 20530.46875 L 32607.552083 20152.604167 L 32715.625 20152.604167 L 32740.625 20170.572917 L 32751.5625 20188.541667 L 32760.416667 20224.479167 L 32753.385417 20278.385417 L 32735.416667 20314.583333 L 32719.53125 20332.552083 L 32690.625 20350.520833 L 32582.552083 20350.520833 " transform="matrix(0.015,0,0,0.015,0,0)"/>
<path style="fill:none;stroke-width:71;stroke-linecap:round;stroke-linejoin:round;stroke:rgb(76.078431%,76.078431%,0%);stroke-opacity:1;stroke-miterlimit:10;" d="M 33095.572917 20134.375 L 32791.40625 20620.572917 " transform="matrix(0.015,0,0,0.015,0,0)"/>
<path style="fill:none;stroke-width:71;stroke-linecap:round;stroke-linejoin:round;stroke:rgb(76.078431%,76.078431%,0%);stroke-opacity:1;stroke-miterlimit:10;" d="M 33302.604167 20530.46875 L 33230.46875 20350.520833 " transform="matrix(0.015,0,0,0.015,0,0)"/>
<path style="fill:none;stroke-width:71;stroke-linecap:round;stroke-linejoin:round;stroke:rgb(76.078431%,76.078431%,0%);stroke-opacity:1;stroke-miterlimit:10;" d="M 33140.625 20530.46875 L 33187.5 20152.604167 L 33295.572917 20152.604167 L 33320.572917 20170.572917 L 33331.510417 20188.541667 L 33340.625 20224.479167 L 33333.59375 20278.385417 L 33315.625 20314.583333 L 33300.520833 20332.552083 L 33270.572917 20350.520833 L 33162.5 20350.520833 " transform="matrix(0.015,0,0,0.015,0,0)"/>
<path style="fill:none;stroke-width:71;stroke-linecap:round;stroke-linejoin:round;stroke:rgb(76.078431%,76.078431%,0%);stroke-opacity:1;stroke-miterlimit:10;" d="M 33444.53125 20152.604167 L 33585.416667 20530.46875 " transform="matrix(0.015,0,0,0.015,0,0)"/>
<path style="fill:none;stroke-width:71;stroke-linecap:round;stroke-linejoin:round;stroke:rgb(76.078431%,76.078431%,0%);stroke-opacity:1;stroke-miterlimit:10;" d="M 33633.59375 20152.604167 L 33396.614583 20530.46875 " transform="matrix(0.015,0,0,0.015,0,0)"/>
<path style="fill:none;stroke-width:94;stroke-linecap:round;stroke-linejoin:round;stroke:rgb(76.078431%,76.078431%,0%);stroke-opacity:1;stroke-miterlimit:10;" d="M 33449.479167 25101.041667 C 33449.479167 25153.125 33407.291667 25195.572917 33354.947917 25195.572917 C 33302.864583 25195.572917 33260.416667 25153.125 33260.416667 25101.041667 C 33260.416667 25048.697917 33302.864583 25006.510417 33354.947917 25006.510417 C 33407.291667 25006.510417 33449.479167 25048.697917 33449.479167 25101.041667 Z M 33449.479167 25101.041667 " transform="matrix(0.015,0,0,0.015,0,0)"/>
<path style="fill:none;stroke-width:94;stroke-linecap:round;stroke-linejoin:round;stroke:rgb(76.078431%,76.078431%,0%);stroke-opacity:1;stroke-miterlimit:10;" d="M 33449.479167 24534.114583 C 33449.479167 24586.197917 33407.291667 24628.385417 33354.947917 24628.385417 C 33302.864583 24628.385417 33260.416667 24586.197917 33260.416667 24534.114583 C 33260.416667 24481.770833 33302.864583 24439.583333 33354.947917 24439.583333 C 33407.291667 24439.583333 33449.479167 24481.770833 33449.479167 24534.114583 Z M 33449.479167 24534.114583 " transform="matrix(0.015,0,0,0.015,0,0)"/>
<path style="fill:none;stroke-width:94;stroke-linecap:round;stroke-linejoin:round;stroke:rgb(76.078431%,76.078431%,0%);stroke-opacity:1;stroke-miterlimit:10;" d="M 34443.489583 22519.010417 C 34443.489583 22667.1875 34323.177083 22787.5 34175 22787.5 C 34026.822917 22787.5 33906.510417 22667.1875 33906.510417 22519.010417 C 33906.510417 22370.833333 34026.822917 22250.520833 34175 22250.520833 C 34323.177083 22250.520833 34443.489583 22370.833333 34443.489583 22519.010417 Z M 34443.489583 22519.010417 " transform="matrix(0.015,0,0,0.015,0,0)"/>
<path style="fill:none;stroke-width:94;stroke-linecap:round;stroke-linejoin:round;stroke:rgb(76.078431%,76.078431%,0%);stroke-opacity:1;stroke-miterlimit:10;" d="M 34443.489583 21439.0625 C 34443.489583 21587.239583 34323.177083 21707.552083 34175 21707.552083 C 34026.822917 21707.552083 33906.510417 21587.239583 33906.510417 21439.0625 C 33906.510417 21290.625 34026.822917 21170.572917 34175 21170.572917 C 34323.177083 21170.572917 34443.489583 21290.625 34443.489583 21439.0625 Z M 34443.489583 21439.0625 " transform="matrix(0.015,0,0,0.015,0,0)"/>
<path style="fill:none;stroke-width:94;stroke-linecap:round;stroke-linejoin:round;stroke:rgb(76.078431%,76.078431%,0%);stroke-opacity:1;stroke-miterlimit:10;" d="M 34443.489583 20359.114583 C 34443.489583 20507.291667 34323.177083 20627.604167 34175 20627.604167 C 34026.822917 20627.604167 33906.510417 20507.291667 33906.510417 20359.114583 C 33906.510417 20210.677083 34026.822917 20090.625 34175 20090.625 C 34323.177083 20090.625 34443.489583 20210.677083 34443.489583 20359.114583 Z M 34443.489583 20359.114583 " transform="matrix(0.015,0,0,0.015,0,0)"/>
<path style="fill:none;stroke-width:94;stroke-linecap:round;stroke-linejoin:round;stroke:rgb(0%,51.764706%,0%);stroke-opacity:1;stroke-miterlimit:10;" d="M 20315.885417 14265.104167 L 20315.885417 15965.885417 " transform="matrix(0.015,0,0,0.015,0,0)"/>
<path style="fill:none;stroke-width:94;stroke-linecap:round;stroke-linejoin:round;stroke:rgb(0%,51.764706%,0%);stroke-opacity:1;stroke-miterlimit:10;" d="M 20504.947917 14265.104167 L 20315.885417 14265.104167 " transform="matrix(0.015,0,0,0.015,0,0)"/>
<path style="fill:none;stroke-width:94;stroke-linecap:round;stroke-linejoin:round;stroke:rgb(0%,51.764706%,0%);stroke-opacity:1;stroke-miterlimit:10;" d="M 36190.104167 15588.020833 L 36190.104167 14642.96875 " transform="matrix(0.015,0,0,0.015,0,0)"/>
<path style="fill:none;stroke-width:94;stroke-linecap:round;stroke-linejoin:round;stroke:rgb(0%,51.764706%,0%);stroke-opacity:1;stroke-miterlimit:10;" d="M 35622.916667 27398.958333 L 20504.947917 27398.958333 " transform="matrix(0.015,0,0,0.015,0,0)"/>
<path style="fill:none;stroke-width:94;stroke-linecap:round;stroke-linejoin:round;stroke:rgb(0%,51.764706%,0%);stroke-opacity:1;stroke-miterlimit:10;" d="M 20504.947917 12280.989583 L 35622.916667 12280.989583 " transform="matrix(0.015,0,0,0.015,0,0)"/>
<path style="fill:none;stroke-width:94;stroke-linecap:round;stroke-linejoin:round;stroke:rgb(0%,51.764706%,0%);stroke-opacity:1;stroke-miterlimit:10;" d="M 20504.947917 27398.958333 L 20504.947917 12280.989583 " transform="matrix(0.015,0,0,0.015,0,0)"/>
<path style="fill:none;stroke-width:94;stroke-linecap:round;stroke-linejoin:round;stroke:rgb(0%,51.764706%,0%);stroke-opacity:1;stroke-miterlimit:10;" d="M 36190.625 24092.447917 C 36190.625 23957.552083 36262.5 23832.8125 36379.427083 23765.104167 C 36496.354167 23697.65625 36640.625 23697.65625 36757.552083 23765.104167 C 36874.479167 23832.8125 36946.354167 23957.552083 36946.354167 24092.447917 " transform="matrix(0.015,0,0,0.015,0,0)"/>
<path style="fill:none;stroke-width:94;stroke-linecap:round;stroke-linejoin:round;stroke:rgb(0%,51.764706%,0%);stroke-opacity:1;stroke-miterlimit:10;" d="M 36946.354167 15588.541667 C 36946.354167 15723.4375 36874.479167 15848.177083 36757.552083 15915.885417 C 36640.625 15983.333333 36496.354167 15983.333333 36379.427083 15915.885417 C 36262.5 15848.177083 36190.625 15723.4375 36190.625 15588.541667 " transform="matrix(0.015,0,0,0.015,0,0)"/>
<path style="fill:none;stroke-width:94;stroke-linecap:round;stroke-linejoin:round;stroke:rgb(0%,51.764706%,0%);stroke-opacity:1;stroke-miterlimit:10;" d="M 36946.354167 15588.541667 C 36946.354167 15723.4375 36874.479167 15848.177083 36757.552083 15915.885417 C 36640.625 15983.333333 36496.354167 15983.333333 36379.427083 15915.885417 C 36262.5 15848.177083 36190.625 15723.4375 36190.625 15588.541667 " transform="matrix(0.015,0,0,0.015,0,0)"/>
<path style="fill:none;stroke-width:94;stroke-linecap:round;stroke-linejoin:round;stroke:rgb(0%,51.764706%,0%);stroke-opacity:1;stroke-miterlimit:10;" d="M 36190.104167 25036.979167 L 36190.104167 24091.927083 " transform="matrix(0.015,0,0,0.015,0,0)"/>
<path style="fill:none;stroke-width:94;stroke-linecap:round;stroke-linejoin:round;stroke:rgb(0%,51.764706%,0%);stroke-opacity:1;stroke-miterlimit:10;" d="M 36190.625 24092.447917 C 36190.625 23957.552083 36262.5 23832.8125 36379.427083 23765.104167 C 36496.354167 23697.65625 36640.625 23697.65625 36757.552083 23765.104167 C 36874.479167 23832.8125 36946.354167 23957.552083 36946.354167 24092.447917 " transform="matrix(0.015,0,0,0.015,0,0)"/>
<path style="fill:none;stroke-width:94;stroke-linecap:round;stroke-linejoin:round;stroke:rgb(0%,51.764706%,0%);stroke-opacity:1;stroke-miterlimit:10;" d="M 37513.020833 13226.041667 L 37513.020833 26453.90625 " transform="matrix(0.015,0,0,0.015,0,0)"/>
<path style="fill:none;stroke-width:94;stroke-linecap:round;stroke-linejoin:round;stroke:rgb(0%,51.764706%,0%);stroke-opacity:1;stroke-miterlimit:10;" d="M 35622.916667 12280.989583 L 37513.020833 13226.041667 " transform="matrix(0.015,0,0,0.015,0,0)"/>
<path style="fill:none;stroke-width:94;stroke-linecap:round;stroke-linejoin:round;stroke:rgb(0%,51.764706%,0%);stroke-opacity:1;stroke-miterlimit:10;" d="M 35622.916667 12280.989583 L 35622.916667 27398.958333 " transform="matrix(0.015,0,0,0.015,0,0)"/>
<path style="fill:none;stroke-width:94;stroke-linecap:round;stroke-linejoin:round;stroke:rgb(0%,51.764706%,0%);stroke-opacity:1;stroke-miterlimit:10;" d="M 20315.885417 25415.104167 L 20504.947917 25415.104167 " transform="matrix(0.015,0,0,0.015,0,0)"/>
<path style="fill:none;stroke-width:94;stroke-linecap:round;stroke-linejoin:round;stroke:rgb(0%,51.764706%,0%);stroke-opacity:1;stroke-miterlimit:10;" d="M 20315.885417 23714.0625 L 20315.885417 25415.104167 " transform="matrix(0.015,0,0,0.015,0,0)"/>
<path style="fill:none;stroke-width:94;stroke-linecap:round;stroke-linejoin:round;stroke:rgb(0%,51.764706%,0%);stroke-opacity:1;stroke-miterlimit:10;" d="M 20504.947917 23714.0625 L 20315.885417 23714.0625 " transform="matrix(0.015,0,0,0.015,0,0)"/>
<path style="fill:none;stroke-width:94;stroke-linecap:round;stroke-linejoin:round;stroke:rgb(0%,51.764706%,0%);stroke-opacity:1;stroke-miterlimit:10;" d="M 19938.541667 25037.5 C 19938.541667 25172.65625 19866.40625 25297.395833 19749.479167 25364.84375 C 19632.552083 25432.291667 19488.541667 25432.291667 19371.614583 25364.84375 C 19254.6875 25297.395833 19182.552083 25172.65625 19182.552083 25037.5 " transform="matrix(0.015,0,0,0.015,0,0)"/>
<path style="fill:none;stroke-width:94;stroke-linecap:round;stroke-linejoin:round;stroke:rgb(0%,51.764706%,0%);stroke-opacity:1;stroke-miterlimit:10;" d="M 19182.552083 24092.447917 C 19182.552083 23957.552083 19254.6875 23832.8125 19371.614583 23765.104167 C 19488.541667 23697.65625 19632.552083 23697.65625 19749.479167 23765.104167 C 19866.40625 23832.8125 19938.541667 23957.552083 19938.541667 24092.447917 " transform="matrix(0.015,0,0,0.015,0,0)"/>
<path style="fill:none;stroke-width:94;stroke-linecap:round;stroke-linejoin:round;stroke:rgb(0%,51.764706%,0%);stroke-opacity:1;stroke-miterlimit:10;" d="M 19182.03125 25036.979167 L 19182.03125 24091.927083 " transform="matrix(0.015,0,0,0.015,0,0)"/>
<path style="fill:none;stroke-width:94;stroke-linecap:round;stroke-linejoin:round;stroke:rgb(0%,51.764706%,0%);stroke-opacity:1;stroke-miterlimit:10;" d="M 19938.020833 25036.979167 L 19938.020833 24091.927083 " transform="matrix(0.015,0,0,0.015,0,0)"/>
<path style="fill:none;stroke-width:94;stroke-linecap:round;stroke-linejoin:round;stroke:rgb(0%,51.764706%,0%);stroke-opacity:1;stroke-miterlimit:10;" d="M 18615.104167 26453.90625 L 20504.947917 27398.958333 " transform="matrix(0.015,0,0,0.015,0,0)"/>
<path style="fill:none;stroke-width:94;stroke-linecap:round;stroke-linejoin:round;stroke:rgb(0%,51.764706%,0%);stroke-opacity:1;stroke-miterlimit:10;" d="M 36946.09375 25036.979167 L 36946.09375 24091.927083 " transform="matrix(0.015,0,0,0.015,0,0)"/>
<path style="fill:none;stroke-width:94;stroke-linecap:round;stroke-linejoin:round;stroke:rgb(0%,51.764706%,0%);stroke-opacity:1;stroke-miterlimit:10;" d="M 36190.104167 25036.979167 L 36190.104167 24091.927083 " transform="matrix(0.015,0,0,0.015,0,0)"/>
<path style="fill:none;stroke-width:94;stroke-linecap:round;stroke-linejoin:round;stroke:rgb(0%,51.764706%,0%);stroke-opacity:1;stroke-miterlimit:10;" d="M 36946.354167 25037.5 C 36946.354167 25172.65625 36874.479167 25297.395833 36757.552083 25364.84375 C 36640.625 25432.291667 36496.354167 25432.291667 36379.427083 25364.84375 C 36262.5 25297.395833 36190.625 25172.65625 36190.625 25037.5 " transform="matrix(0.015,0,0,0.015,0,0)"/>
<path style="fill:none;stroke-width:94;stroke-linecap:round;stroke-linejoin:round;stroke:rgb(0%,51.764706%,0%);stroke-opacity:1;stroke-miterlimit:10;" d="M 36946.354167 25037.5 C 36946.354167 25172.65625 36874.479167 25297.395833 36757.552083 25364.84375 C 36640.625 25432.291667 36496.354167 25432.291667 36379.427083 25364.84375 C 36262.5 25297.395833 36190.625 25172.65625 36190.625 25037.5 " transform="matrix(0.015,0,0,0.015,0,0)"/>
<path style="fill:none;stroke-width:94;stroke-linecap:round;stroke-linejoin:round;stroke:rgb(0%,51.764706%,0%);stroke-opacity:1;stroke-miterlimit:10;" d="M 36946.09375 25036.979167 L 36946.09375 24091.927083 " transform="matrix(0.015,0,0,0.015,0,0)"/>
<path style="fill:none;stroke-width:94;stroke-linecap:round;stroke-linejoin:round;stroke:rgb(0%,51.764706%,0%);stroke-opacity:1;stroke-miterlimit:10;" d="M 37513.020833 26453.90625 L 35622.916667 27398.958333 " transform="matrix(0.015,0,0,0.015,0,0)"/>
<path style="fill:none;stroke-width:94;stroke-linecap:round;stroke-linejoin:round;stroke:rgb(0%,51.764706%,0%);stroke-opacity:1;stroke-miterlimit:10;" d="M 19182.03125 15588.020833 L 19182.03125 14642.96875 " transform="matrix(0.015,0,0,0.015,0,0)"/>
<path style="fill:none;stroke-width:94;stroke-linecap:round;stroke-linejoin:round;stroke:rgb(0%,51.764706%,0%);stroke-opacity:1;stroke-miterlimit:10;" d="M 20315.885417 15965.885417 L 20504.947917 15965.885417 " transform="matrix(0.015,0,0,0.015,0,0)"/>
<path style="fill:none;stroke-width:94;stroke-linecap:round;stroke-linejoin:round;stroke:rgb(0%,51.764706%,0%);stroke-opacity:1;stroke-miterlimit:10;" d="M 19938.541667 15588.541667 C 19938.541667 15723.4375 19866.40625 15848.177083 19749.479167 15915.885417 C 19632.552083 15983.333333 19488.541667 15983.333333 19371.614583 15915.885417 C 19254.6875 15848.177083 19182.552083 15723.4375 19182.552083 15588.541667 " transform="matrix(0.015,0,0,0.015,0,0)"/>
<path style="fill:none;stroke-width:94;stroke-linecap:round;stroke-linejoin:round;stroke:rgb(0%,51.764706%,0%);stroke-opacity:1;stroke-miterlimit:10;" d="M 19938.020833 15588.020833 L 19938.020833 14642.96875 " transform="matrix(0.015,0,0,0.015,0,0)"/>
<path style="fill:none;stroke-width:94;stroke-linecap:round;stroke-linejoin:round;stroke:rgb(0%,51.764706%,0%);stroke-opacity:1;stroke-miterlimit:10;" d="M 19182.552083 14643.489583 C 19182.552083 14508.59375 19254.6875 14383.59375 19371.614583 14316.145833 C 19488.541667 14248.697917 19632.552083 14248.697917 19749.479167 14316.145833 C 19866.40625 14383.59375 19938.541667 14508.59375 19938.541667 14643.489583 " transform="matrix(0.015,0,0,0.015,0,0)"/>
<path style="fill:none;stroke-width:94;stroke-linecap:round;stroke-linejoin:round;stroke:rgb(0%,51.764706%,0%);stroke-opacity:1;stroke-miterlimit:10;" d="M 18615.104167 13226.041667 L 18615.104167 26453.90625 " transform="matrix(0.015,0,0,0.015,0,0)"/>
<path style="fill:none;stroke-width:94;stroke-linecap:round;stroke-linejoin:round;stroke:rgb(0%,51.764706%,0%);stroke-opacity:1;stroke-miterlimit:10;" d="M 20504.947917 12280.989583 L 18615.104167 13226.041667 " transform="matrix(0.015,0,0,0.015,0,0)"/>
<path style="fill:none;stroke-width:94;stroke-linecap:round;stroke-linejoin:round;stroke:rgb(0%,51.764706%,0%);stroke-opacity:1;stroke-miterlimit:10;" d="M 36190.625 14643.489583 C 36190.625 14508.59375 36262.5 14383.59375 36379.427083 14316.145833 C 36496.354167 14248.697917 36640.625 14248.697917 36757.552083 14316.145833 C 36874.479167 14383.59375 36946.354167 14508.59375 36946.354167 14643.489583 " transform="matrix(0.015,0,0,0.015,0,0)"/>
<path style="fill:none;stroke-width:94;stroke-linecap:round;stroke-linejoin:round;stroke:rgb(0%,51.764706%,0%);stroke-opacity:1;stroke-miterlimit:10;" d="M 36946.09375 15588.020833 L 36946.09375 14642.96875 " transform="matrix(0.015,0,0,0.015,0,0)"/>
<path style="fill:none;stroke-width:94;stroke-linecap:round;stroke-linejoin:round;stroke:rgb(0%,51.764706%,0%);stroke-opacity:1;stroke-miterlimit:10;" d="M 36190.104167 15588.020833 L 36190.104167 14642.96875 " transform="matrix(0.015,0,0,0.015,0,0)"/>
<path style="fill:none;stroke-width:94;stroke-linecap:round;stroke-linejoin:round;stroke:rgb(0%,51.764706%,0%);stroke-opacity:1;stroke-miterlimit:10;" d="M 36946.09375 15588.020833 L 36946.09375 14642.96875 " transform="matrix(0.015,0,0,0.015,0,0)"/>
<path style="fill:none;stroke-width:94;stroke-linecap:round;stroke-linejoin:round;stroke:rgb(0%,51.764706%,0%);stroke-opacity:1;stroke-miterlimit:10;" d="M 36190.625 14643.489583 C 36190.625 14508.59375 36262.5 14383.59375 36379.427083 14316.145833 C 36496.354167 14248.697917 36640.625 14248.697917 36757.552083 14316.145833 C 36874.479167 14383.59375 36946.354167 14508.59375 36946.354167 14643.489583 " transform="matrix(0.015,0,0,0.015,0,0)"/>
</g>
</svg>
