<?xml version="1.0" standalone="no"?>
 <!DOCTYPE svg PUBLIC "-//W3C//DTD SVG 1.1//EN" 
 "http://www.w3.org/Graphics/SVG/1.1/DTD/svg11.dtd"> 
<svg xmlns="http://www.w3.org/2000/svg" version="1.1" 
    width="10.0127cm" height="8.0137cm" viewBox="0 0 39420 31550 ">
<title>SVG Picture created as modint-v1.0-brd.svg date 2020/08/15 10:21:51 </title>
  <desc>Picture generated by PCBNEW </desc>
<g style="fill:#000000; fill-opacity:1;stroke:#000000; stroke-opacity:1;
stroke-linecap:round; stroke-linejoin:round; "
 transform="translate(0 0) scale(1 1)">
</g>
<g style="fill:#000000; fill-opacity:0.0; 
stroke:#000000; stroke-width:-0.000393701; stroke-opacity:1; 
stroke-linecap:round; stroke-linejoin:round;">
</g>
<g style="fill:#008484; fill-opacity:0.0; 
stroke:#008484; stroke-width:-0.000393701; stroke-opacity:1; 
stroke-linecap:round; stroke-linejoin:round;">
</g>
<g style="fill:#008484; fill-opacity:0.0; 
stroke:#008484; stroke-width:59.0551; stroke-opacity:1; 
stroke-linecap:round; stroke-linejoin:round;">
<path d="M13777 29261
L14777 29261
" />
<text x="19277.6" y="30057.1"
textLength="674.916" font-size="524.934" lengthAdjust="spacingAndGlyphs"
text-anchor="middle" opacity="0">ST</text>
<path d="M19015 30000
L19071 30028
L19165 30028
L19202 30000
L19221 29972
L19240 29916
L19240 29860
L19221 29803
L19202 29775
L19165 29747
L19090 29719
L19052 29691
L19033 29663
L19015 29607
L19015 29550
L19033 29494
L19052 29466
L19090 29438
L19183 29438
L19240 29466
" />
<path d="M19352 29438
L19577 29438
" />
<path d="M19465 30028
L19465 29438
" />
</g>
<g style="fill:#008484; fill-opacity:0.0; 
stroke:#008484; stroke-width:78.7402; stroke-opacity:1; 
stroke-linecap:round; stroke-linejoin:round;">
<text x="13777.6" y="20807.1"
textLength="451.725" font-size="524.934" lengthAdjust="spacingAndGlyphs"
text-anchor="middle" opacity="0">5</text>
<path d="M13871 20188
L13683 20188
L13665 20469
L13683 20441
L13721 20413
L13815 20413
L13852 20441
L13871 20469
L13890 20525
L13890 20666
L13871 20722
L13852 20750
L13815 20778
L13721 20778
L13683 20750
L13665 20722
" />
</g>
<g style="fill:#008484; fill-opacity:0.0; 
stroke:#008484; stroke-width:59.0551; stroke-opacity:1; 
stroke-linecap:round; stroke-linejoin:round;">
<text x="23277.6" y="26307.1"
textLength="908.511" font-size="524.934" lengthAdjust="spacingAndGlyphs"
text-anchor="middle" opacity="0">UP</text>
<path d="M22968 25688
L22968 26166
L22986 26222
L23005 26250
L23043 26278
L23118 26278
L23155 26250
L23174 26222
L23193 26166
L23193 25688
" />
<path d="M23380 26278
L23380 25688
L23530 25688
L23568 25716
L23586 25744
L23605 25800
L23605 25885
L23586 25941
L23568 25969
L23530 25997
L23380 25997
" />
<text x="26277.6" y="26307.1"
textLength="882.921" font-size="524.934" lengthAdjust="spacingAndGlyphs"
text-anchor="middle" opacity="0">DN</text>
<path d="M25968 26278
L25968 25688
L26061 25688
L26118 25716
L26155 25772
L26174 25829
L26193 25941
L26193 26025
L26174 26138
L26155 26194
L26118 26250
L26061 26278
L25968 26278
" />
<path d="M26361 26278
L26361 25688
L26586 26278
L26586 25688
" />
</g>
<g style="fill:#008484; fill-opacity:0.0; 
stroke:#008484; stroke-width:78.7402; stroke-opacity:1; 
stroke-linecap:round; stroke-linejoin:round;">
<text x="13777.6" y="22807.1"
textLength="639.201" font-size="787.402" lengthAdjust="spacingAndGlyphs"
text-anchor="middle" opacity="0">7</text>
<path d="M13580 22188
L13974 22188
L13721 22778
" />
<text x="13777.6" y="21807.1"
textLength="664.792" font-size="787.402" lengthAdjust="spacingAndGlyphs"
text-anchor="middle" opacity="0">6</text>
<path d="M13890 21188
L13777 21188
L13721 21216
L13693 21244
L13636 21329
L13608 21441
L13608 21666
L13636 21722
L13665 21750
L13721 21778
L13833 21778
L13890 21750
L13918 21722
L13946 21666
L13946 21525
L13918 21469
L13890 21441
L13833 21413
L13721 21413
L13665 21441
L13636 21469
L13608 21525
" />
<text x="13777.6" y="19807.1"
textLength="664.792" font-size="787.402" lengthAdjust="spacingAndGlyphs"
text-anchor="middle" opacity="0">4</text>
<path d="M13890 19385
L13890 19778
" />
<path d="M13749 19160
L13608 19582
L13974 19582
" />
</g>
<g style="fill:#008484; fill-opacity:0.0; 
stroke:#008484; stroke-width:118.11; stroke-opacity:1; 
stroke-linecap:round; stroke-linejoin:round;">
<text x="21277.6" y="13057.1"
textLength="6767.15" font-size="787.402" lengthAdjust="spacingAndGlyphs"
text-anchor="start" opacity="0">2020 (c) PDJR</text>
<path d="M21466 12494
L21494 12466
L21551 12438
L21691 12438
L21748 12466
L21776 12494
L21804 12550
L21804 12607
L21776 12691
L21438 13028
L21804 13028
" />
<path d="M22169 12438
L22226 12438
L22282 12466
L22310 12494
L22338 12550
L22366 12663
L22366 12803
L22338 12916
L22310 12972
L22282 13000
L22226 13028
L22169 13028
L22113 13000
L22085 12972
L22057 12916
L22029 12803
L22029 12663
L22057 12550
L22085 12494
L22113 12466
L22169 12438
" />
<path d="M22591 12494
L22619 12466
L22676 12438
L22816 12438
L22872 12466
L22901 12494
L22929 12550
L22929 12607
L22901 12691
L22563 13028
L22929 13028
" />
<path d="M23294 12438
L23350 12438
L23407 12466
L23435 12494
L23463 12550
L23491 12663
L23491 12803
L23463 12916
L23435 12972
L23407 13000
L23350 13028
L23294 13028
L23238 13000
L23210 12972
L23182 12916
L23154 12803
L23154 12663
L23182 12550
L23210 12494
L23238 12466
L23294 12438
" />
<path d="M24363 13253
L24335 13225
L24278 13141
L24250 13085
L24222 13000
L24194 12860
L24194 12747
L24222 12607
L24250 12522
L24278 12466
L24335 12382
L24363 12354
" />
<path d="M24841 13000
L24785 13028
L24672 13028
L24616 13000
L24588 12972
L24560 12916
L24560 12747
L24588 12691
L24616 12663
L24672 12635
L24785 12635
L24841 12663
" />
<path d="M25038 13253
L25066 13225
L25122 13141
L25150 13085
L25178 13000
L25206 12860
L25206 12747
L25178 12607
L25150 12522
L25122 12466
L25066 12382
L25038 12354
" />
<path d="M25938 13028
L25938 12438
L26163 12438
L26219 12466
L26247 12494
L26275 12550
L26275 12635
L26247 12691
L26219 12719
L26163 12747
L25938 12747
" />
<path d="M26528 13028
L26528 12438
L26669 12438
L26753 12466
L26809 12522
L26838 12579
L26866 12691
L26866 12775
L26838 12888
L26809 12944
L26753 13000
L26669 13028
L26528 13028
" />
<path d="M27287 12438
L27287 12860
L27259 12944
L27203 13000
L27119 13028
L27062 13028
" />
<path d="M27906 13028
L27709 12747
" />
<path d="M27569 13028
L27569 12438
L27794 12438
L27850 12466
L27878 12494
L27906 12550
L27906 12635
L27878 12691
L27850 12719
L27794 12747
L27569 12747
" />
</g>
<g style="fill:#008484; fill-opacity:0.0; 
stroke:#008484; stroke-width:78.7402; stroke-opacity:1; 
stroke-linecap:round; stroke-linejoin:round;">
<text x="13777.6" y="18807.1"
textLength="715.973" font-size="787.402" lengthAdjust="spacingAndGlyphs"
text-anchor="middle" opacity="0">3</text>
<path d="M13580 18188
L13946 18188
L13749 18413
L13833 18413
L13890 18441
L13918 18469
L13946 18525
L13946 18666
L13918 18722
L13890 18750
L13833 18778
L13665 18778
L13608 18750
L13580 18722
" />
<text x="13777.6" y="17807.1"
textLength="664.792" font-size="787.402" lengthAdjust="spacingAndGlyphs"
text-anchor="middle" opacity="0">2</text>
<path d="M13608 17244
L13636 17216
L13693 17188
L13833 17188
L13890 17216
L13918 17244
L13946 17300
L13946 17357
L13918 17441
L13580 17778
L13946 17778
" />
</g>
<g style="fill:#008484; fill-opacity:0.0; 
stroke:#008484; stroke-width:59.0551; stroke-opacity:1; 
stroke-linecap:round; stroke-linejoin:round;">
<text x="20277.6" y="30057.1"
textLength="514.811" font-size="524.934" lengthAdjust="spacingAndGlyphs"
text-anchor="middle" opacity="0">N</text>
<path d="M20165 30028
L20165 29438
L20390 30028
L20390 29438
" />
</g>
<g style="fill:#008484; fill-opacity:0.0; 
stroke:#008484; stroke-width:118.11; stroke-opacity:1; 
stroke-linecap:round; stroke-linejoin:round;">
<text x="14527.6" y="9905.51"
textLength="5166.76" font-size="787.402" lengthAdjust="spacingAndGlyphs"
text-anchor="start" opacity="0">MODINT 1.0</text>
<path d="M14744 9868
L14744 9080
L14941 9643
L15138 9080
L15138 9868
" />
<path d="M15532 9080
L15644 9080
L15701 9118
L15757 9193
L15785 9343
L15785 9605
L15757 9755
L15701 9830
L15644 9868
L15532 9868
L15476 9830
L15419 9755
L15391 9605
L15391 9343
L15419 9193
L15476 9118
L15532 9080
" />
<path d="M16038 9868
L16038 9080
L16179 9080
L16263 9118
L16319 9193
L16347 9268
L16375 9418
L16375 9530
L16347 9680
L16319 9755
L16263 9830
L16179 9868
L16038 9868
" />
<path d="M16629 9868
L16629 9080
" />
<path d="M16910 9868
L16910 9080
L17247 9868
L17247 9080
" />
<path d="M17444 9080
L17782 9080
" />
<path d="M17613 9868
L17613 9080
" />
<path d="M18738 9868
L18400 9868
" />
<path d="M18569 9868
L18569 9080
L18513 9193
L18456 9268
L18400 9305
" />
<path d="M18991 9793
L19019 9830
L18991 9868
L18963 9830
L18991 9793
L18991 9868
" />
<path d="M19384 9080
L19441 9080
L19497 9118
L19525 9155
L19553 9230
L19581 9380
L19581 9568
L19553 9718
L19525 9793
L19497 9830
L19441 9868
L19384 9868
L19328 9830
L19300 9793
L19272 9718
L19244 9568
L19244 9380
L19272 9230
L19300 9155
L19328 9118
L19384 9080
" />
</g>
<g style="fill:#008484; fill-opacity:0.0; 
stroke:#008484; stroke-width:78.7402; stroke-opacity:1; 
stroke-linecap:round; stroke-linejoin:round;">
<text x="23651.6" y="2057.09"
textLength="472.254" font-size="524.934" lengthAdjust="spacingAndGlyphs"
text-anchor="middle" opacity="0">L</text>
<path d="M23773 2028
L23585 2028
L23585 1438
" />
<text x="24777.6" y="2057.09"
textLength="514.811" font-size="524.934" lengthAdjust="spacingAndGlyphs"
text-anchor="middle" opacity="0">H</text>
<path d="M24665 2028
L24665 1438
" />
<path d="M24665 1719
L24890 1719
" />
<path d="M24890 2028
L24890 1438
" />
<text x="26777.6" y="2057.09"
textLength="477.315" font-size="524.934" lengthAdjust="spacingAndGlyphs"
text-anchor="middle" opacity="0">S</text>
<path d="M26665 2000
L26721 2028
L26815 2028
L26852 2000
L26871 1972
L26890 1916
L26890 1860
L26871 1803
L26852 1775
L26815 1747
L26740 1719
L26702 1691
L26683 1663
L26665 1607
L26665 1550
L26683 1494
L26702 1466
L26740 1438
L26833 1438
L26890 1466
" />
<text x="25777.6" y="2057.09"
textLength="496.063" font-size="524.934" lengthAdjust="spacingAndGlyphs"
text-anchor="middle" opacity="0">C</text>
<path d="M25899 1972
L25880 2000
L25824 2028
L25786 2028
L25730 2000
L25693 1944
L25674 1888
L25655 1775
L25655 1691
L25674 1579
L25693 1522
L25730 1466
L25786 1438
L25824 1438
L25880 1466
L25899 1494
" />
</g>
<g style="fill:#008484; fill-opacity:0.0; 
stroke:#008484; stroke-width:59.0551; stroke-opacity:1; 
stroke-linecap:round; stroke-linejoin:round;">
<text x="25277.6" y="30057.1"
textLength="927.259" font-size="524.934" lengthAdjust="spacingAndGlyphs"
text-anchor="middle" opacity="0">NO</text>
<path d="M24958 30028
L24958 29438
L25183 30028
L25183 29438
" />
<path d="M25446 29438
L25521 29438
L25558 29466
L25596 29522
L25615 29635
L25615 29832
L25596 29944
L25558 30000
L25521 30028
L25446 30028
L25408 30000
L25371 29944
L25352 29832
L25352 29635
L25371 29522
L25408 29466
L25446 29438
" />
<text x="26277.6" y="30057.1"
textLength="882.921" font-size="524.934" lengthAdjust="spacingAndGlyphs"
text-anchor="middle" opacity="0">CO</text>
<path d="M26193 29972
L26174 30000
L26118 30028
L26080 30028
L26024 30000
L25986 29944
L25968 29888
L25949 29775
L25949 29691
L25968 29579
L25986 29522
L26024 29466
L26080 29438
L26118 29438
L26174 29466
L26193 29494
" />
<path d="M26436 29438
L26511 29438
L26549 29466
L26586 29522
L26605 29635
L26605 29832
L26586 29944
L26549 30000
L26511 30028
L26436 30028
L26399 30000
L26361 29944
L26343 29832
L26343 29635
L26361 29522
L26399 29466
L26436 29438
" />
<text x="27277.6" y="30057.1"
textLength="882.921" font-size="524.934" lengthAdjust="spacingAndGlyphs"
text-anchor="middle" opacity="0">NC</text>
<path d="M26968 30028
L26968 29438
L27193 30028
L27193 29438
" />
<path d="M27605 29972
L27586 30000
L27530 30028
L27493 30028
L27436 30000
L27399 29944
L27380 29888
L27361 29775
L27361 29691
L27380 29579
L27399 29522
L27436 29466
L27493 29438
L27530 29438
L27586 29466
L27605 29494
" />
<text x="22277.6" y="30057.1"
textLength="901.669" font-size="524.934" lengthAdjust="spacingAndGlyphs"
text-anchor="middle" opacity="0">NO</text>
<path d="M21958 30028
L21958 29438
L22183 30028
L22183 29438
" />
<path d="M22446 29438
L22521 29438
L22558 29466
L22596 29522
L22615 29635
L22615 29832
L22596 29944
L22558 30000
L22521 30028
L22446 30028
L22408 30000
L22371 29944
L22352 29832
L22352 29635
L22371 29522
L22408 29466
L22446 29438
" />
</g>
<g style="fill:#008484; fill-opacity:0.0; 
stroke:#008484; stroke-width:78.7402; stroke-opacity:1; 
stroke-linecap:round; stroke-linejoin:round;">
<text x="13777.6" y="16807.1"
textLength="639.201" font-size="787.402" lengthAdjust="spacingAndGlyphs"
text-anchor="middle" opacity="0">1</text>
<path d="M13946 16778
L13608 16778
" />
<path d="M13777 16778
L13777 16188
L13721 16272
L13665 16329
L13608 16357
" />
</g>
<g style="fill:#008484; fill-opacity:0.0; 
stroke:#008484; stroke-width:59.0551; stroke-opacity:1; 
stroke-linecap:round; stroke-linejoin:round;">
<text x="23277.6" y="30057.1"
textLength="908.511" font-size="524.934" lengthAdjust="spacingAndGlyphs"
text-anchor="middle" opacity="0">CO</text>
<path d="M23193 29972
L23174 30000
L23118 30028
L23080 30028
L23024 30000
L22986 29944
L22968 29888
L22949 29775
L22949 29691
L22968 29579
L22986 29522
L23024 29466
L23080 29438
L23118 29438
L23174 29466
L23193 29494
" />
<path d="M23436 29438
L23511 29438
L23549 29466
L23586 29522
L23605 29635
L23605 29832
L23586 29944
L23549 30000
L23511 30028
L23436 30028
L23399 30000
L23361 29944
L23343 29832
L23343 29635
L23361 29522
L23399 29466
L23436 29438
" />
<text x="24277.6" y="30057.1"
textLength="882.921" font-size="524.934" lengthAdjust="spacingAndGlyphs"
text-anchor="middle" opacity="0">NC</text>
<path d="M23968 30028
L23968 29438
L24193 30028
L24193 29438
" />
<path d="M24605 29972
L24586 30000
L24530 30028
L24493 30028
L24436 30000
L24399 29944
L24380 29888
L24361 29775
L24361 29691
L24380 29579
L24399 29522
L24436 29466
L24493 29438
L24530 29438
L24586 29466
L24605 29494
" />
</g>
<g style="fill:#008484; fill-opacity:0.0; 
stroke:#008484; stroke-width:78.7402; stroke-opacity:1; 
stroke-linecap:round; stroke-linejoin:round;">
<text x="13777.6" y="15807.1"
textLength="639.201" font-size="787.402" lengthAdjust="spacingAndGlyphs"
text-anchor="middle" opacity="0">0</text>
<path d="M13749 15188
L13805 15188
L13861 15216
L13890 15244
L13918 15300
L13946 15413
L13946 15553
L13918 15666
L13890 15722
L13861 15750
L13805 15778
L13749 15778
L13693 15750
L13665 15722
L13636 15666
L13608 15553
L13608 15413
L13636 15300
L13665 15244
L13693 15216
L13749 15188
" />
</g>
<g style="fill:#008484; fill-opacity:0.0; 
stroke:#008484; stroke-width:59.0551; stroke-opacity:1; 
stroke-linecap:round; stroke-linejoin:round;">
<text x="18277.6" y="30057.1"
textLength="889.764" font-size="524.934" lengthAdjust="spacingAndGlyphs"
text-anchor="middle" opacity="0">DK</text>
<path d="M17977 30028
L17977 29438
L18071 29438
L18127 29466
L18165 29522
L18183 29579
L18202 29691
L18202 29775
L18183 29888
L18165 29944
L18127 30000
L18071 30028
L17977 30028
" />
<path d="M18371 30028
L18371 29438
" />
<path d="M18596 30028
L18427 29691
" />
<path d="M18596 29438
L18371 29775
" />
<text x="17277.6" y="30057.1"
textLength="882.921" font-size="524.934" lengthAdjust="spacingAndGlyphs"
text-anchor="middle" opacity="0">DN</text>
<path d="M16968 30028
L16968 29438
L17061 29438
L17118 29466
L17155 29522
L17174 29579
L17193 29691
L17193 29775
L17174 29888
L17155 29944
L17118 30000
L17061 30028
L16968 30028
" />
<path d="M17361 30028
L17361 29438
L17586 30028
L17586 29438
" />
<text x="16277.6" y="30057.1"
textLength="882.921" font-size="524.934" lengthAdjust="spacingAndGlyphs"
text-anchor="middle" opacity="0">UP</text>
<path d="M15968 29438
L15968 29916
L15986 29972
L16005 30000
L16043 30028
L16118 30028
L16155 30000
L16174 29972
L16193 29916
L16193 29438
" />
<path d="M16380 30028
L16380 29438
L16530 29438
L16568 29466
L16586 29494
L16605 29550
L16605 29635
L16586 29691
L16568 29719
L16530 29747
L16380 29747
" />
<text x="14277.6" y="30057.1"
textLength="1032.9" font-size="524.934" lengthAdjust="spacingAndGlyphs"
text-anchor="middle" opacity="0">SIG</text>
<path d="M13874 30000
L13930 30028
L14024 30028
L14061 30000
L14080 29972
L14099 29916
L14099 29860
L14080 29803
L14061 29775
L14024 29747
L13949 29719
L13911 29691
L13893 29663
L13874 29607
L13874 29550
L13893 29494
L13911 29466
L13949 29438
L14043 29438
L14099 29466
" />
<path d="M14268 30028
L14268 29438
" />
<path d="M14661 29466
L14624 29438
L14568 29438
L14511 29466
L14474 29522
L14455 29579
L14436 29691
L14436 29775
L14455 29888
L14474 29944
L14511 30000
L14568 30028
L14605 30028
L14661 30000
L14680 29972
L14680 29775
L14605 29775
" />
<text x="12277.6" y="30057.1"
textLength="489.22" font-size="524.934" lengthAdjust="spacingAndGlyphs"
text-anchor="middle" opacity="0">N</text>
<path d="M12165 30028
L12165 29438
L12390 30028
L12390 29438
" />
<text x="13277.6" y="30057.1"
textLength="939.164" font-size="524.934" lengthAdjust="spacingAndGlyphs"
text-anchor="middle" opacity="0">+5</text>
<path d="M12940 29803
L13240 29803
" />
<path d="M13090 30028
L13090 29579
" />
<path d="M13615 29438
L13427 29438
L13408 29719
L13427 29691
L13465 29663
L13558 29663
L13596 29691
L13615 29719
L13633 29775
L13633 29916
L13615 29972
L13596 30000
L13558 30028
L13465 30028
L13427 30000
L13408 29972
" />
</g>
<g style="fill:#008484; fill-opacity:0.0; 
stroke:#008484; stroke-width:47.2441; stroke-opacity:1; 
stroke-linecap:round; stroke-linejoin:round;">
<path d="M11663 28785
L11966 28785
" />
<path d="M12588 28785
L12966 28785
" />
<path d="M13588 28785
L13966 28785
" />
<path d="M14588 28785
L14891 28785
" />
<path d="M11663 26698
L14891 26698
" />
<path d="M11663 26517
L14891 26517
" />
<path d="M11663 29005
L11966 29005
" />
<path d="M12588 29005
L12966 29005
" />
<path d="M13588 29005
L13966 29005
" />
<path d="M14588 29005
L14891 29005
" />
<path d="M11663 26517
L11663 29005
" />
<path d="M14891 26517
L14891 29005
" />
<path d="M11568 28809
L11568 29100
" />
<path d="M11568 29100
L11765 29100
" />
<path d="M18513 2082
L18513 2279
" />
<path d="M18415 2181
L18612 2181
" />
<path d="M20543 2650
L20543 2873
" />
<path d="M20527 2557
L20527 2965
" />
<path d="M20512 2495
L20512 3028
" />
<path d="M20496 2444
L20496 3078
" />
<path d="M20480 2401
L20480 3122
" />
<path d="M20464 2363
L20464 3159
" />
<path d="M20449 2329
L20449 3194
" />
<path d="M20433 2298
L20433 3225
" />
<path d="M20417 3171
L20417 3254
" />
<path d="M20417 2269
L20417 2352
" />
<path d="M20401 3171
L20401 3281
" />
<path d="M20401 2242
L20401 2352
" />
<path d="M20386 3171
L20386 3306
" />
<path d="M20386 2217
L20386 2352
" />
<path d="M20370 3171
L20370 3329
" />
<path d="M20370 2193
L20370 2352
" />
<path d="M20354 3171
L20354 3352
" />
<path d="M20354 2171
L20354 2352
" />
<path d="M20338 3171
L20338 3373
" />
<path d="M20338 2150
L20338 2352
" />
<path d="M20323 3171
L20323 3393
" />
<path d="M20323 2129
L20323 2352
" />
<path d="M20307 3171
L20307 3412
" />
<path d="M20307 2111
L20307 2352
" />
<path d="M20291 3171
L20291 3430
" />
<path d="M20291 2092
L20291 2352
" />
<path d="M20275 3171
L20275 3448
" />
<path d="M20275 2075
L20275 2352
" />
<path d="M20260 3171
L20260 3464
" />
<path d="M20260 2059
L20260 2352
" />
<path d="M20244 3171
L20244 3480
" />
<path d="M20244 2042
L20244 2352
" />
<path d="M20228 3171
L20228 3495
" />
<path d="M20228 2027
L20228 2352
" />
<path d="M20212 3171
L20212 3510
" />
<path d="M20212 2013
L20212 2352
" />
<path d="M20197 3171
L20197 3524
" />
<path d="M20197 1999
L20197 2352
" />
<path d="M20181 3171
L20181 3537
" />
<path d="M20181 1985
L20181 2352
" />
<path d="M20165 3171
L20165 3550
" />
<path d="M20165 1972
L20165 2352
" />
<path d="M20150 3171
L20150 3562
" />
<path d="M20150 1960
L20150 2352
" />
<path d="M20134 3171
L20134 3574
" />
<path d="M20134 1948
L20134 2352
" />
<path d="M20118 3171
L20118 3586
" />
<path d="M20118 1937
L20118 2352
" />
<path d="M20102 3171
L20102 3597
" />
<path d="M20102 1926
L20102 2352
" />
<path d="M20087 3171
L20087 3607
" />
<path d="M20087 1915
L20087 2352
" />
<path d="M20071 3171
L20071 3618
" />
<path d="M20071 1905
L20071 2352
" />
<path d="M20055 3171
L20055 3627
" />
<path d="M20055 1895
L20055 2352
" />
<path d="M20039 3171
L20039 3637
" />
<path d="M20039 1886
L20039 2352
" />
<path d="M20024 3171
L20024 3646
" />
<path d="M20024 1877
L20024 2352
" />
<path d="M20008 3171
L20008 3654
" />
<path d="M20008 1868
L20008 2352
" />
<path d="M19992 3171
L19992 3663
" />
<path d="M19992 1860
L19992 2352
" />
<path d="M19976 3171
L19976 3671
" />
<path d="M19976 1852
L19976 2352
" />
<path d="M19961 3171
L19961 3678
" />
<path d="M19961 1844
L19961 2352
" />
<path d="M19945 3171
L19945 3686
" />
<path d="M19945 1837
L19945 2352
" />
<path d="M19929 3171
L19929 3692
" />
<path d="M19929 1830
L19929 2352
" />
<path d="M19913 3171
L19913 3699
" />
<path d="M19913 1824
L19913 2352
" />
<path d="M19898 3171
L19898 3705
" />
<path d="M19898 1817
L19898 2352
" />
<path d="M19882 3171
L19882 3712
" />
<path d="M19882 1811
L19882 2352
" />
<path d="M19866 3171
L19866 3717
" />
<path d="M19866 1805
L19866 2352
" />
<path d="M19850 3171
L19850 3723
" />
<path d="M19850 1800
L19850 2352
" />
<path d="M19835 3171
L19835 3728
" />
<path d="M19835 1795
L19835 2352
" />
<path d="M19819 3171
L19819 3733
" />
<path d="M19819 1790
L19819 2352
" />
<path d="M19803 3171
L19803 3738
" />
<path d="M19803 1785
L19803 2352
" />
<path d="M19787 3171
L19787 3742
" />
<path d="M19787 1781
L19787 2352
" />
<path d="M19771 3171
L19771 3746
" />
<path d="M19771 1777
L19771 2352
" />
<path d="M19755 3171
L19755 3750
" />
<path d="M19755 1773
L19755 2352
" />
<path d="M19740 3171
L19740 3753
" />
<path d="M19740 1769
L19740 2352
" />
<path d="M19724 3171
L19724 3757
" />
<path d="M19724 1766
L19724 2352
" />
<path d="M19708 3171
L19708 3760
" />
<path d="M19708 1763
L19708 2352
" />
<path d="M19692 3171
L19692 3762
" />
<path d="M19692 1760
L19692 2352
" />
<path d="M19677 3171
L19677 3765
" />
<path d="M19677 1757
L19677 2352
" />
<path d="M19661 3171
L19661 3768
" />
<path d="M19661 1755
L19661 2352
" />
<path d="M19645 3171
L19645 3770
" />
<path d="M19645 1753
L19645 2352
" />
<path d="M19629 3171
L19629 3771
" />
<path d="M19629 1751
L19629 2352
" />
<path d="M19614 3171
L19614 3773
" />
<path d="M19614 1750
L19614 2352
" />
<path d="M19598 1748
L19598 3774
" />
<path d="M19582 1747
L19582 3775
" />
<path d="M19566 1746
L19566 3776
" />
<path d="M19551 1746
L19551 3777
" />
<path d="M19535 1746
L19535 3777
" />
<path d="M19519 1746
L19519 3777
" />
<circle cx="19519.7" cy="2761.81" r="1031.5" /> 
<path d="M25801 5539
L25683 5421
" />
<path d="M25919 5421
L25683 5421
" />
<path d="M25801 5539
L25919 5421
" />
<path d="M26096 5618
L26096 6405
" />
<path d="M24482 5618
L26096 5618
" />
<path d="M24482 6405
L24482 5618
" />
<path d="M26096 6405
L24482 6405
" />
<path d="M14527 7649
L14527 7405
" />
<circle cx="14527.6" cy="8011.81" r="362.205" /> 
<path d="M11848 8525
L12045 8525
" />
<path d="M11946 8623
L11946 8427
" />
<path d="M12415 6495
L12639 6495
" />
<path d="M12323 6511
L12731 6511
" />
<path d="M12261 6527
L12794 6527
" />
<path d="M12210 6542
L12844 6542
" />
<path d="M12167 6558
L12887 6558
" />
<path d="M12129 6574
L12925 6574
" />
<path d="M12095 6590
L12959 6590
" />
<path d="M12063 6605
L12991 6605
" />
<path d="M12937 6621
L13020 6621
" />
<path d="M12035 6621
L12118 6621
" />
<path d="M12937 6637
L13046 6637
" />
<path d="M12008 6637
L12118 6637
" />
<path d="M12937 6653
L13072 6653
" />
<path d="M11983 6653
L12118 6653
" />
<path d="M12937 6668
L13095 6668
" />
<path d="M11959 6668
L12118 6668
" />
<path d="M12937 6684
L13118 6684
" />
<path d="M11937 6684
L12118 6684
" />
<path d="M12937 6700
L13139 6700
" />
<path d="M11915 6700
L12118 6700
" />
<path d="M12937 6716
L13159 6716
" />
<path d="M11895 6716
L12118 6716
" />
<path d="M12937 6731
L13178 6731
" />
<path d="M11876 6731
L12118 6731
" />
<path d="M12937 6747
L13196 6747
" />
<path d="M11858 6747
L12118 6747
" />
<path d="M12937 6763
L13213 6763
" />
<path d="M11841 6763
L12118 6763
" />
<path d="M12937 6779
L13230 6779
" />
<path d="M11824 6779
L12118 6779
" />
<path d="M12937 6794
L13246 6794
" />
<path d="M11808 6794
L12118 6794
" />
<path d="M12937 6810
L13261 6810
" />
<path d="M11793 6810
L12118 6810
" />
<path d="M12937 6826
L13275 6826
" />
<path d="M11779 6826
L12118 6826
" />
<path d="M12937 6842
L13290 6842
" />
<path d="M11764 6842
L12118 6842
" />
<path d="M12937 6857
L13303 6857
" />
<path d="M11751 6857
L12118 6857
" />
<path d="M12937 6873
L13316 6873
" />
<path d="M11738 6873
L12118 6873
" />
<path d="M12937 6889
L13328 6889
" />
<path d="M11726 6889
L12118 6889
" />
<path d="M12937 6905
L13340 6905
" />
<path d="M11714 6905
L12118 6905
" />
<path d="M12937 6920
L13352 6920
" />
<path d="M11702 6920
L12118 6920
" />
<path d="M12937 6936
L13362 6936
" />
<path d="M11692 6936
L12118 6936
" />
<path d="M12937 6952
L13373 6952
" />
<path d="M11681 6952
L12118 6952
" />
<path d="M12937 6968
L13383 6968
" />
<path d="M11671 6968
L12118 6968
" />
<path d="M12937 6983
L13393 6983
" />
<path d="M11661 6983
L12118 6983
" />
<path d="M12937 6999
L13403 6999
" />
<path d="M11651 6999
L12118 6999
" />
<path d="M12937 7015
L13412 7015
" />
<path d="M11642 7015
L12118 7015
" />
<path d="M12937 7031
L13420 7031
" />
<path d="M11634 7031
L12118 7031
" />
<path d="M12937 7046
L13429 7046
" />
<path d="M11625 7046
L12118 7046
" />
<path d="M12937 7062
L13437 7062
" />
<path d="M11618 7062
L12118 7062
" />
<path d="M12937 7078
L13444 7078
" />
<path d="M11610 7078
L12118 7078
" />
<path d="M12937 7094
L13451 7094
" />
<path d="M11603 7094
L12118 7094
" />
<path d="M12937 7109
L13458 7109
" />
<path d="M11596 7109
L12118 7109
" />
<path d="M12937 7125
L13465 7125
" />
<path d="M11589 7125
L12118 7125
" />
<path d="M12937 7141
L13471 7141
" />
<path d="M11583 7141
L12118 7141
" />
<path d="M12937 7157
L13477 7157
" />
<path d="M11577 7157
L12118 7157
" />
<path d="M12937 7172
L13483 7172
" />
<path d="M11571 7172
L12118 7172
" />
<path d="M12937 7188
L13488 7188
" />
<path d="M11566 7188
L12118 7188
" />
<path d="M12937 7204
L13494 7204
" />
<path d="M11561 7204
L12118 7204
" />
<path d="M12937 7220
L13499 7220
" />
<path d="M11555 7220
L12118 7220
" />
<path d="M12937 7235
L13503 7235
" />
<path d="M11551 7235
L12118 7235
" />
<path d="M12937 7251
L13508 7251
" />
<path d="M11546 7251
L12118 7251
" />
<path d="M12937 7267
L13512 7267
" />
<path d="M11542 7267
L12118 7267
" />
<path d="M12937 7283
L13516 7283
" />
<path d="M11538 7283
L12118 7283
" />
<path d="M12937 7299
L13519 7299
" />
<path d="M11535 7299
L12118 7299
" />
<path d="M12937 7314
L13522 7314
" />
<path d="M11532 7314
L12118 7314
" />
<path d="M12937 7330
L13525 7330
" />
<path d="M11529 7330
L12118 7330
" />
<path d="M12937 7346
L13528 7346
" />
<path d="M11526 7346
L12118 7346
" />
<path d="M12937 7362
L13531 7362
" />
<path d="M11523 7362
L12118 7362
" />
<path d="M12937 7377
L13533 7377
" />
<path d="M11521 7377
L12118 7377
" />
<path d="M12937 7393
L13535 7393
" />
<path d="M11519 7393
L12118 7393
" />
<path d="M12937 7409
L13537 7409
" />
<path d="M11517 7409
L12118 7409
" />
<path d="M12937 7425
L13538 7425
" />
<path d="M11516 7425
L12118 7425
" />
<path d="M11514 7440
L13540 7440
" />
<path d="M11513 7456
L13541 7456
" />
<path d="M11512 7472
L13542 7472
" />
<path d="M11512 7488
L13542 7488
" />
<path d="M11511 7503
L13543 7503
" />
<path d="M11511 7519
L13543 7519
" />
<circle cx="12527.6" cy="7519.69" r="1031.5" /> 
<path d="M12098 5025
L12295 5025
" />
<path d="M12196 5123
L12196 4927
" />
<path d="M12665 2995
L12889 2995
" />
<path d="M12573 3011
L12981 3011
" />
<path d="M12511 3027
L13044 3027
" />
<path d="M12460 3042
L13094 3042
" />
<path d="M12417 3058
L13137 3058
" />
<path d="M12379 3074
L13175 3074
" />
<path d="M12345 3090
L13209 3090
" />
<path d="M12313 3105
L13241 3105
" />
<path d="M13187 3121
L13270 3121
" />
<path d="M12285 3121
L12368 3121
" />
<path d="M13187 3137
L13296 3137
" />
<path d="M12258 3137
L12368 3137
" />
<path d="M13187 3153
L13322 3153
" />
<path d="M12233 3153
L12368 3153
" />
<path d="M13187 3168
L13345 3168
" />
<path d="M12209 3168
L12368 3168
" />
<path d="M13187 3184
L13368 3184
" />
<path d="M12187 3184
L12368 3184
" />
<path d="M13187 3200
L13389 3200
" />
<path d="M12165 3200
L12368 3200
" />
<path d="M13187 3216
L13409 3216
" />
<path d="M12145 3216
L12368 3216
" />
<path d="M13187 3231
L13428 3231
" />
<path d="M12126 3231
L12368 3231
" />
<path d="M13187 3247
L13446 3247
" />
<path d="M12108 3247
L12368 3247
" />
<path d="M13187 3263
L13463 3263
" />
<path d="M12091 3263
L12368 3263
" />
<path d="M13187 3279
L13480 3279
" />
<path d="M12074 3279
L12368 3279
" />
<path d="M13187 3294
L13496 3294
" />
<path d="M12058 3294
L12368 3294
" />
<path d="M13187 3310
L13511 3310
" />
<path d="M12043 3310
L12368 3310
" />
<path d="M13187 3326
L13525 3326
" />
<path d="M12029 3326
L12368 3326
" />
<path d="M13187 3342
L13540 3342
" />
<path d="M12014 3342
L12368 3342
" />
<path d="M13187 3357
L13553 3357
" />
<path d="M12001 3357
L12368 3357
" />
<path d="M13187 3373
L13566 3373
" />
<path d="M11988 3373
L12368 3373
" />
<path d="M13187 3389
L13578 3389
" />
<path d="M11976 3389
L12368 3389
" />
<path d="M13187 3405
L13590 3405
" />
<path d="M11964 3405
L12368 3405
" />
<path d="M13187 3420
L13602 3420
" />
<path d="M11952 3420
L12368 3420
" />
<path d="M13187 3436
L13612 3436
" />
<path d="M11942 3436
L12368 3436
" />
<path d="M13187 3452
L13623 3452
" />
<path d="M11931 3452
L12368 3452
" />
<path d="M13187 3468
L13633 3468
" />
<path d="M11921 3468
L12368 3468
" />
<path d="M13187 3483
L13643 3483
" />
<path d="M11911 3483
L12368 3483
" />
<path d="M13187 3499
L13653 3499
" />
<path d="M11901 3499
L12368 3499
" />
<path d="M13187 3515
L13662 3515
" />
<path d="M11892 3515
L12368 3515
" />
<path d="M13187 3531
L13670 3531
" />
<path d="M11884 3531
L12368 3531
" />
<path d="M13187 3546
L13679 3546
" />
<path d="M11875 3546
L12368 3546
" />
<path d="M13187 3562
L13687 3562
" />
<path d="M11868 3562
L12368 3562
" />
<path d="M13187 3578
L13694 3578
" />
<path d="M11860 3578
L12368 3578
" />
<path d="M13187 3594
L13701 3594
" />
<path d="M11853 3594
L12368 3594
" />
<path d="M13187 3609
L13708 3609
" />
<path d="M11846 3609
L12368 3609
" />
<path d="M13187 3625
L13715 3625
" />
<path d="M11839 3625
L12368 3625
" />
<path d="M13187 3641
L13721 3641
" />
<path d="M11833 3641
L12368 3641
" />
<path d="M13187 3657
L13727 3657
" />
<path d="M11827 3657
L12368 3657
" />
<path d="M13187 3672
L13733 3672
" />
<path d="M11821 3672
L12368 3672
" />
<path d="M13187 3688
L13738 3688
" />
<path d="M11816 3688
L12368 3688
" />
<path d="M13187 3704
L13744 3704
" />
<path d="M11811 3704
L12368 3704
" />
<path d="M13187 3720
L13749 3720
" />
<path d="M11805 3720
L12368 3720
" />
<path d="M13187 3735
L13753 3735
" />
<path d="M11801 3735
L12368 3735
" />
<path d="M13187 3751
L13758 3751
" />
<path d="M11796 3751
L12368 3751
" />
<path d="M13187 3767
L13762 3767
" />
<path d="M11792 3767
L12368 3767
" />
<path d="M13187 3783
L13766 3783
" />
<path d="M11788 3783
L12368 3783
" />
<path d="M13187 3799
L13769 3799
" />
<path d="M11785 3799
L12368 3799
" />
<path d="M13187 3814
L13772 3814
" />
<path d="M11782 3814
L12368 3814
" />
<path d="M13187 3830
L13775 3830
" />
<path d="M11779 3830
L12368 3830
" />
<path d="M13187 3846
L13778 3846
" />
<path d="M11776 3846
L12368 3846
" />
<path d="M13187 3862
L13781 3862
" />
<path d="M11773 3862
L12368 3862
" />
<path d="M13187 3877
L13783 3877
" />
<path d="M11771 3877
L12368 3877
" />
<path d="M13187 3893
L13785 3893
" />
<path d="M11769 3893
L12368 3893
" />
<path d="M13187 3909
L13787 3909
" />
<path d="M11767 3909
L12368 3909
" />
<path d="M13187 3925
L13788 3925
" />
<path d="M11766 3925
L12368 3925
" />
<path d="M11764 3940
L13790 3940
" />
<path d="M11763 3956
L13791 3956
" />
<path d="M11762 3972
L13792 3972
" />
<path d="M11762 3988
L13792 3988
" />
<path d="M11761 4003
L13793 4003
" />
<path d="M11761 4019
L13793 4019
" />
<circle cx="12777.6" cy="4019.69" r="1031.5" /> 
<path d="M18513 4082
L18513 4279
" />
<path d="M18415 4181
L18612 4181
" />
<path d="M20543 4650
L20543 4873
" />
<path d="M20527 4557
L20527 4965
" />
<path d="M20512 4495
L20512 5028
" />
<path d="M20496 4444
L20496 5078
" />
<path d="M20480 4401
L20480 5122
" />
<path d="M20464 4363
L20464 5159
" />
<path d="M20449 4329
L20449 5194
" />
<path d="M20433 4298
L20433 5225
" />
<path d="M20417 5171
L20417 5254
" />
<path d="M20417 4269
L20417 4352
" />
<path d="M20401 5171
L20401 5281
" />
<path d="M20401 4242
L20401 4352
" />
<path d="M20386 5171
L20386 5306
" />
<path d="M20386 4217
L20386 4352
" />
<path d="M20370 5171
L20370 5329
" />
<path d="M20370 4193
L20370 4352
" />
<path d="M20354 5171
L20354 5352
" />
<path d="M20354 4171
L20354 4352
" />
<path d="M20338 5171
L20338 5373
" />
<path d="M20338 4150
L20338 4352
" />
<path d="M20323 5171
L20323 5393
" />
<path d="M20323 4129
L20323 4352
" />
<path d="M20307 5171
L20307 5412
" />
<path d="M20307 4111
L20307 4352
" />
<path d="M20291 5171
L20291 5430
" />
<path d="M20291 4092
L20291 4352
" />
<path d="M20275 5171
L20275 5448
" />
<path d="M20275 4075
L20275 4352
" />
<path d="M20260 5171
L20260 5464
" />
<path d="M20260 4059
L20260 4352
" />
<path d="M20244 5171
L20244 5480
" />
<path d="M20244 4042
L20244 4352
" />
<path d="M20228 5171
L20228 5495
" />
<path d="M20228 4027
L20228 4352
" />
<path d="M20212 5171
L20212 5510
" />
<path d="M20212 4013
L20212 4352
" />
<path d="M20197 5171
L20197 5524
" />
<path d="M20197 3999
L20197 4352
" />
<path d="M20181 5171
L20181 5537
" />
<path d="M20181 3985
L20181 4352
" />
<path d="M20165 5171
L20165 5550
" />
<path d="M20165 3972
L20165 4352
" />
<path d="M20150 5171
L20150 5562
" />
<path d="M20150 3960
L20150 4352
" />
<path d="M20134 5171
L20134 5574
" />
<path d="M20134 3948
L20134 4352
" />
<path d="M20118 5171
L20118 5586
" />
<path d="M20118 3937
L20118 4352
" />
<path d="M20102 5171
L20102 5597
" />
<path d="M20102 3926
L20102 4352
" />
<path d="M20087 5171
L20087 5607
" />
<path d="M20087 3915
L20087 4352
" />
<path d="M20071 5171
L20071 5618
" />
<path d="M20071 3905
L20071 4352
" />
<path d="M20055 5171
L20055 5627
" />
<path d="M20055 3895
L20055 4352
" />
<path d="M20039 5171
L20039 5637
" />
<path d="M20039 3886
L20039 4352
" />
<path d="M20024 5171
L20024 5646
" />
<path d="M20024 3877
L20024 4352
" />
<path d="M20008 5171
L20008 5654
" />
<path d="M20008 3868
L20008 4352
" />
<path d="M19992 5171
L19992 5663
" />
<path d="M19992 3860
L19992 4352
" />
<path d="M19976 5171
L19976 5671
" />
<path d="M19976 3852
L19976 4352
" />
<path d="M19961 5171
L19961 5678
" />
<path d="M19961 3844
L19961 4352
" />
<path d="M19945 5171
L19945 5686
" />
<path d="M19945 3837
L19945 4352
" />
<path d="M19929 5171
L19929 5692
" />
<path d="M19929 3830
L19929 4352
" />
<path d="M19913 5171
L19913 5699
" />
<path d="M19913 3824
L19913 4352
" />
<path d="M19898 5171
L19898 5705
" />
<path d="M19898 3817
L19898 4352
" />
<path d="M19882 5171
L19882 5712
" />
<path d="M19882 3811
L19882 4352
" />
<path d="M19866 5171
L19866 5717
" />
<path d="M19866 3805
L19866 4352
" />
<path d="M19850 5171
L19850 5723
" />
<path d="M19850 3800
L19850 4352
" />
<path d="M19835 5171
L19835 5728
" />
<path d="M19835 3795
L19835 4352
" />
<path d="M19819 5171
L19819 5733
" />
<path d="M19819 3790
L19819 4352
" />
<path d="M19803 5171
L19803 5738
" />
<path d="M19803 3785
L19803 4352
" />
<path d="M19787 5171
L19787 5742
" />
<path d="M19787 3781
L19787 4352
" />
<path d="M19771 5171
L19771 5746
" />
<path d="M19771 3777
L19771 4352
" />
<path d="M19755 5171
L19755 5750
" />
<path d="M19755 3773
L19755 4352
" />
<path d="M19740 5171
L19740 5753
" />
<path d="M19740 3769
L19740 4352
" />
<path d="M19724 5171
L19724 5757
" />
<path d="M19724 3766
L19724 4352
" />
<path d="M19708 5171
L19708 5760
" />
<path d="M19708 3763
L19708 4352
" />
<path d="M19692 5171
L19692 5762
" />
<path d="M19692 3760
L19692 4352
" />
<path d="M19677 5171
L19677 5765
" />
<path d="M19677 3757
L19677 4352
" />
<path d="M19661 5171
L19661 5768
" />
<path d="M19661 3755
L19661 4352
" />
<path d="M19645 5171
L19645 5770
" />
<path d="M19645 3753
L19645 4352
" />
<path d="M19629 5171
L19629 5771
" />
<path d="M19629 3751
L19629 4352
" />
<path d="M19614 5171
L19614 5773
" />
<path d="M19614 3750
L19614 4352
" />
<path d="M19598 3748
L19598 5774
" />
<path d="M19582 3747
L19582 5775
" />
<path d="M19566 3746
L19566 5776
" />
<path d="M19551 3746
L19551 5777
" />
<path d="M19535 3746
L19535 5777
" />
<path d="M19519 3746
L19519 5777
" />
<circle cx="19519.7" cy="4761.81" r="1031.5" /> 
<path d="M14639 13017
L14639 11505
" />
<path d="M13915 13017
L13915 11505
" />
<path d="M20253 8625
L20253 9118
" />
<path d="M28301 8625
L20253 8625
" />
<path d="M28301 10397
L28301 8625
" />
<path d="M20253 10397
L28301 10397
" />
<path d="M20253 9905
L20253 10397
" />
<path d="M20253.9 9905.51 A393.701 393.701 0.0 0 0 20253.9 9118.11 " />
<path d="M32202 18179
L32490 18179
" />
<path d="M32202 17344
L32490 17344
" />
<path d="M16515 15761
L16515 15261
" />
<path d="M16990 15289
L16515 15289
" />
<path d="M16990 15336
L16515 15336
" />
<path d="M16990 15383
L16515 15383
" />
<path d="M16990 15431
L16515 15431
" />
<path d="M16990 15478
L16515 15478
" />
<path d="M16990 15525
L16515 15525
" />
<path d="M16990 15572
L16515 15572
" />
<path d="M16990 15620
L16515 15620
" />
<path d="M16990 15667
L16515 15667
" />
<path d="M16990 15714
L16515 15714
" />
<path d="M15564 15761
L16990 15761
" />
<path d="M15564 15261
L15564 15761
" />
<path d="M16990 15261
L15564 15261
" />
<path d="M16990 15761
L16990 15261
" />
<path d="M16515 16761
L16515 16261
" />
<path d="M16990 16289
L16515 16289
" />
<path d="M16990 16336
L16515 16336
" />
<path d="M16990 16383
L16515 16383
" />
<path d="M16990 16431
L16515 16431
" />
<path d="M16990 16478
L16515 16478
" />
<path d="M16990 16525
L16515 16525
" />
<path d="M16990 16572
L16515 16572
" />
<path d="M16990 16620
L16515 16620
" />
<path d="M16990 16667
L16515 16667
" />
<path d="M16990 16714
L16515 16714
" />
<path d="M15564 16761
L16990 16761
" />
<path d="M15564 16261
L15564 16761
" />
<path d="M16990 16261
L15564 16261
" />
<path d="M16990 16761
L16990 16261
" />
<path d="M16515 17761
L16515 17261
" />
<path d="M16990 17289
L16515 17289
" />
<path d="M16990 17336
L16515 17336
" />
<path d="M16990 17383
L16515 17383
" />
<path d="M16990 17431
L16515 17431
" />
<path d="M16990 17478
L16515 17478
" />
<path d="M16990 17525
L16515 17525
" />
<path d="M16990 17572
L16515 17572
" />
<path d="M16990 17620
L16515 17620
" />
<path d="M16990 17667
L16515 17667
" />
<path d="M16990 17714
L16515 17714
" />
<path d="M15564 17761
L16990 17761
" />
<path d="M15564 17261
L15564 17761
" />
<path d="M16990 17261
L15564 17261
" />
<path d="M16990 17761
L16990 17261
" />
<path d="M16515 18761
L16515 18261
" />
<path d="M16990 18289
L16515 18289
" />
<path d="M16990 18336
L16515 18336
" />
<path d="M16990 18383
L16515 18383
" />
<path d="M16990 18431
L16515 18431
" />
<path d="M16990 18478
L16515 18478
" />
<path d="M16990 18525
L16515 18525
" />
<path d="M16990 18572
L16515 18572
" />
<path d="M16990 18620
L16515 18620
" />
<path d="M16990 18667
L16515 18667
" />
<path d="M16990 18714
L16515 18714
" />
<path d="M15564 18761
L16990 18761
" />
<path d="M15564 18261
L15564 18761
" />
<path d="M16990 18261
L15564 18261
" />
<path d="M16990 18761
L16990 18261
" />
<path d="M16515 19761
L16515 19261
" />
<path d="M16990 19289
L16515 19289
" />
<path d="M16990 19336
L16515 19336
" />
<path d="M16990 19383
L16515 19383
" />
<path d="M16990 19431
L16515 19431
" />
<path d="M16990 19478
L16515 19478
" />
<path d="M16990 19525
L16515 19525
" />
<path d="M16990 19572
L16515 19572
" />
<path d="M16990 19620
L16515 19620
" />
<path d="M16990 19667
L16515 19667
" />
<path d="M16990 19714
L16515 19714
" />
<path d="M15564 19761
L16990 19761
" />
<path d="M15564 19261
L15564 19761
" />
<path d="M16990 19261
L15564 19261
" />
<path d="M16990 19761
L16990 19261
" />
<path d="M16515 20761
L16515 20261
" />
<path d="M16990 20289
L16515 20289
" />
<path d="M16990 20336
L16515 20336
" />
<path d="M16990 20383
L16515 20383
" />
<path d="M16990 20431
L16515 20431
" />
<path d="M16990 20478
L16515 20478
" />
<path d="M16990 20525
L16515 20525
" />
<path d="M16990 20572
L16515 20572
" />
<path d="M16990 20620
L16515 20620
" />
<path d="M16990 20667
L16515 20667
" />
<path d="M16990 20714
L16515 20714
" />
<path d="M15564 20761
L16990 20761
" />
<path d="M15564 20261
L15564 20761
" />
<path d="M16990 20261
L15564 20261
" />
<path d="M16990 20761
L16990 20261
" />
<path d="M16515 21761
L16515 21261
" />
<path d="M16990 21289
L16515 21289
" />
<path d="M16990 21336
L16515 21336
" />
<path d="M16990 21383
L16515 21383
" />
<path d="M16990 21431
L16515 21431
" />
<path d="M16990 21478
L16515 21478
" />
<path d="M16990 21525
L16515 21525
" />
<path d="M16990 21572
L16515 21572
" />
<path d="M16990 21620
L16515 21620
" />
<path d="M16990 21667
L16515 21667
" />
<path d="M16990 21714
L16515 21714
" />
<path d="M15564 21761
L16990 21761
" />
<path d="M15564 21261
L15564 21761
" />
<path d="M16990 21261
L15564 21261
" />
<path d="M16990 21761
L16990 21261
" />
<path d="M16515 22761
L16515 22261
" />
<path d="M16990 22289
L16515 22289
" />
<path d="M16990 22336
L16515 22336
" />
<path d="M16990 22383
L16515 22383
" />
<path d="M16990 22431
L16515 22431
" />
<path d="M16990 22478
L16515 22478
" />
<path d="M16990 22525
L16515 22525
" />
<path d="M16990 22572
L16515 22572
" />
<path d="M16990 22620
L16515 22620
" />
<path d="M16990 22667
L16515 22667
" />
<path d="M16990 22714
L16515 22714
" />
<path d="M15564 22761
L16990 22761
" />
<path d="M15564 22261
L15564 22761
" />
<path d="M16990 22261
L15564 22261
" />
<path d="M16990 22761
L16990 22261
" />
<path d="M17714 23437
L17714 22921
" />
<path d="M17714 23437
L17170 23437
" />
<path d="M14934 22121
L14934 21901
" />
<path d="M14934 23342
L14934 22901
" />
<path d="M14934 21121
L14934 20901
" />
<path d="M14934 20121
L14934 19901
" />
<path d="M14934 19121
L14934 18901
" />
<path d="M14934 18121
L14934 17901
" />
<path d="M14934 17121
L14934 16901
" />
<path d="M14934 16121
L14934 15901
" />
<path d="M14934 15121
L14934 14680
" />
<path d="M17620 15122
L17620 14680
" />
<path d="M17620 16122
L17620 15901
" />
<path d="M17620 17122
L17620 16901
" />
<path d="M17620 18122
L17620 17901
" />
<path d="M17620 19122
L17620 18901
" />
<path d="M17620 20122
L17620 19901
" />
<path d="M17620 21122
L17620 20901
" />
<path d="M17620 22102
L17620 21901
" />
<path d="M17620 23342
L17620 22921
" />
<path d="M17620 14680
L14934 14680
" />
<path d="M17620 23342
L14934 23342
" />
<path d="M27486 2423
L27289 2423
" />
<path d="M27486 2714
L27486 2423
" />
<path d="M23163 5005
L23163 2517
" />
<path d="M27391 5005
L27391 2517
" />
<path d="M27391 2517
L23163 2517
" />
<path d="M27391 5005
L23163 5005
" />
<path d="M27391 4824
L23163 4824
" />
<path d="M27391 2738
L23163 2738
" />
<path d="M29307 23694
L30368 23694
" />
<path d="M29307 23553
L29307 23694
" />
<path d="M28247 23553
L29307 23553
" />
<path d="M28247 23694
L28247 23553
" />
<path d="M27187 23694
L28247 23694
" />
<path d="M27187 18828
L27187 23694
" />
<path d="M30368 18828
L27187 18828
" />
<path d="M30368 23694
L30368 18828
" />
<path d="M22307 23694
L23368 23694
" />
<path d="M22307 23553
L22307 23694
" />
<path d="M21247 23553
L22307 23553
" />
<path d="M21247 23694
L21247 23553
" />
<path d="M20187 23694
L21247 23694
" />
<path d="M20187 18828
L20187 23694
" />
<path d="M23368 18828
L20187 18828
" />
<path d="M23368 23694
L23368 18828
" />
<path d="M17527 24801
L17527 24828
" />
<circle cx="17527.6" cy="24261.8" r="539.37" /> 
<path d="M19527 7489
L19527 7444
" />
<circle cx="19527.6" cy="8011.81" r="522.193" /> 
<path d="M18277 7489
L18277 7444
" />
<circle cx="18277.6" cy="8011.81" r="522.193" /> 
<path d="M17027 7489
L17027 7444
" />
<circle cx="17027.6" cy="8011.81" r="522.193" /> 
<path d="M15777 7489
L15777 7444
" />
<circle cx="15777.6" cy="8011.81" r="522.193" /> 
<path d="M28763.7 16941.9 A1897.64 1897.64 0.0 1 0 28457.5 17248 " />
<path d="M29114 17292
L28763 16941
" />
<path d="M28808 17598
L29114 17292
" />
<path d="M28457 17247
L28808 17598
" />
<path d="M18777 24801
L18777 24828
" />
<circle cx="18777.6" cy="24261.8" r="539.37" /> 
<path d="M16277 24801
L16277 24828
" />
<circle cx="16277.6" cy="24261.8" r="539.37" /> 
<path d="M15027 24801
L15027 24828
" />
<circle cx="15027.6" cy="24261.8" r="539.37" /> 
<path d="M32671 6777
L31883 6777
" />
<path d="M33584 6927
L33584 15604
" />
<path d="M33584 15604
L29868 15604
" />
<path d="M29868 15604
L29868 6927
" />
<path d="M29868 6927
L33584 6927
" />
</g>
<g style="fill:#008484; fill-opacity:1.0; 
stroke:#008484; stroke-width:39.3701; stroke-opacity:1; 
stroke-linecap:round; stroke-linejoin:round;">
<path style="fill:#008484; fill-opacity:1.0; 
stroke:#008484; stroke-width:39.3701; stroke-opacity:1; 
stroke-linecap:round; stroke-linejoin:round;fill-rule:evenodd;"
d="M 8627.56,19661.8
8727.56,19561.8
8827.56,19711.8
8727.56,19811.8
" /> 
<path style="fill:#008484; fill-opacity:1.0; 
stroke:#008484; stroke-width:39.3701; stroke-opacity:1; 
stroke-linecap:round; stroke-linejoin:round;fill-rule:evenodd;"
d="M 8327.56,19261.8
8427.56,19161.8
8527.56,19311.8
8427.56,19411.8
" /> 
<path style="fill:#008484; fill-opacity:1.0; 
stroke:#008484; stroke-width:39.3701; stroke-opacity:1; 
stroke-linecap:round; stroke-linejoin:round;fill-rule:evenodd;"
d="M 8027.56,19561.8
8127.56,19461.8
8227.56,19611.8
8127.56,19711.8
" /> 
<path style="fill:#008484; fill-opacity:1.0; 
stroke:#008484; stroke-width:39.3701; stroke-opacity:1; 
stroke-linecap:round; stroke-linejoin:round;fill-rule:evenodd;"
d="M 8777.56,19511.8
8877.56,19411.8
8977.56,19561.8
8877.56,19661.8
" /> 
<path style="fill:#008484; fill-opacity:1.0; 
stroke:#008484; stroke-width:39.3701; stroke-opacity:1; 
stroke-linecap:round; stroke-linejoin:round;fill-rule:evenodd;"
d="M 8177.56,19411.8
8277.56,19311.8
8377.56,19461.8
8277.56,19561.8
" /> 
<path style="fill:#008484; fill-opacity:1.0; 
stroke:#008484; stroke-width:39.3701; stroke-opacity:1; 
stroke-linecap:round; stroke-linejoin:round;fill-rule:evenodd;"
d="M 8927.56,19711.8
9027.56,19611.8
9127.56,19761.8
9027.56,19861.8
" /> 
<path style="fill:#008484; fill-opacity:1.0; 
stroke:#008484; stroke-width:39.3701; stroke-opacity:1; 
stroke-linecap:round; stroke-linejoin:round;fill-rule:evenodd;"
d="M 8477.56,19461.8
8577.56,19361.8
8677.56,19511.8
8577.56,19611.8
" /> 
<path style="fill:#008484; fill-opacity:1.0; 
stroke:#008484; stroke-width:39.3701; stroke-opacity:1; 
stroke-linecap:round; stroke-linejoin:round;fill-rule:evenodd;"
d="M 8627.56,19311.8
8727.56,19211.8
8827.56,19361.8
8727.56,19461.8
" /> 
</g>
<g style="fill:#008484; fill-opacity:1.0; 
stroke:#008484; stroke-width:59.0551; stroke-opacity:1; 
stroke-linecap:round; stroke-linejoin:round;">
</g>
<g style="fill:#008484; fill-opacity:0.0; 
stroke:#008484; stroke-width:59.0551; stroke-opacity:1; 
stroke-linecap:round; stroke-linejoin:round;">
<path d="M6277 10761
L13277 10761
" />
<path d="M6277 24761
L6277 10761
" />
<path d="M13277 24761
L6277 24761
" />
<path d="M13277 10761
L13277 24761
" />
<path d="M7777 21261
L7777 17761
" />
<path d="M11777 21261
L11777 17761
" />
<path d="M11777 17761
L7777 17761
" />
<path d="M7777 21261
L11777 21261
" />
<path d="M10777 22761
L10777 23761
" />
<path d="M8777 22761
L10777 22761
" />
<path d="M8777 23761
L8777 22761
" />
<path d="M10777 23761
L8777 23761
" />
<path d="M8777 13261
L7777 13261
" />
<path d="M8777 14261
L8777 13261
" />
<path d="M7777 14261
L8777 14261
" />
<path d="M7777 13261
L7777 14261
" />
<path d="M8277 12761
L8277 10761
" />
<path d="M11277 12761
L11277 10761
" />
<path d="M8277 12761
L11277 12761
" />
<path d="M8777 15261
L7777 15261
" />
<path d="M8777 16761
L8777 15261
" />
<path d="M7777 16761
L8777 16761
" />
<path d="M7777 15261
L7777 16761
" />
<path d="M11277 10261
L11277 10761
" />
<path d="M8277 10261
L11277 10261
" />
<path d="M8277 10761
L8277 10261
" />
</g>
<g style="fill:#008484; fill-opacity:0.0; 
stroke:#008484; stroke-width:47.2441; stroke-opacity:1; 
stroke-linecap:round; stroke-linejoin:round;">
<path d="M15568 29100
L15765 29100
" />
<path d="M15568 28809
L15568 29100
" />
<path d="M20891 26517
L20891 29005
" />
<path d="M15663 26517
L15663 29005
" />
<path d="M15663 29005
L20891 29005
" />
<path d="M15663 26517
L20891 26517
" />
<path d="M15663 26698
L20891 26698
" />
<path d="M15663 28785
L20891 28785
" />
<path d="M25698 22525
L26856 22525
" />
<path d="M25698 22431
L26856 22431
" />
<path d="M25698 22478
L26856 22478
" />
<path d="M26856 20690
L26805 20690
" />
<path d="M26856 22832
L26856 20690
" />
<path d="M26805 22832
L26856 22832
" />
<path d="M25698 20690
L25750 20690
" />
<path d="M25698 22832
L25698 20690
" />
<path d="M25750 22832
L25698 22832
" />
<path d="M23698 22525
L24856 22525
" />
<path d="M23698 22431
L24856 22431
" />
<path d="M23698 22478
L24856 22478
" />
<path d="M24856 20690
L24805 20690
" />
<path d="M24856 22832
L24856 20690
" />
<path d="M24805 22832
L24856 22832
" />
<path d="M23698 20690
L23750 20690
" />
<path d="M23698 22832
L23698 20690
" />
<path d="M23750 22832
L23698 22832
" />
<path d="M21568 29100
L21765 29100
" />
<path d="M21568 28809
L21568 29100
" />
<path d="M27891 26517
L27891 29005
" />
<path d="M21663 26517
L21663 29005
" />
<path d="M21663 29005
L27891 29005
" />
<path d="M21663 26517
L27891 26517
" />
<path d="M21663 26698
L27891 26698
" />
<path d="M21663 28785
L27891 28785
" />
<path d="M24457.6 14275.7 A1897.64 1897.64 0.0 1 0 24763.7 14581.9 " />
<path d="M24808 13924
L24457 14275
" />
<path d="M25114 14231
L24808 13924
" />
<path d="M24763 14581
L25114 14231
" />
<path d="M32442 4982
L32442 1541
" />
<path d="M32442 4982
L34112 4982
" />
<path d="M34112 1541
L32442 1541
" />
<path d="M34112 1541
L34112 4982
" />
<path d="M33033 15899
L31521 15899
" />
<path d="M33033 16624
L31521 16624
" />
<path d="M17070 1988
L16421 1988
" />
<path d="M17070 6035
L17070 1988
" />
<path d="M14984 6035
L17070 6035
" />
<path d="M14984 1988
L14984 6035
" />
<path d="M15633 1988
L14984 1988
" />
<path d="M15633.9 1988.19 A393.701 393.701 0.0 0 0 16421.3 1988.19 " />
<path d="M32202 24179
L32490 24179
" />
<path d="M32202 23344
L32490 23344
" />
<path d="M32202 21179
L32490 21179
" />
<path d="M32202 20344
L32490 20344
" />
<path d="M33033 21899
L31521 21899
" />
<path d="M33033 22624
L31521 22624
" />
<path d="M33033 18958
L31521 18958
" />
<path d="M33033 19683
L31521 19683
" />
<path d="M20533 13899
L19021 13899
" />
<path d="M20533 14624
L19021 14624
" />
<path d="M20533 15399
L19021 15399
" />
<path d="M20533 16124
L19021 16124
" />
<path d="M5442 29982
L5442 26541
" />
<path d="M5442 29982
L7112 29982
" />
<path d="M7112 26541
L5442 26541
" />
<path d="M7112 26541
L7112 29982
" />
<path d="M22639 4517
L22639 3005
" />
<path d="M21915 4517
L21915 3005
" />
<path d="M21639 4517
L21639 3005
" />
<path d="M20915 4517
L20915 3005
" />
</g>
<g style="fill:#008484; fill-opacity:0.0; 
stroke:#008484; stroke-width:59.0551; stroke-opacity:1; 
stroke-linecap:round; stroke-linejoin:round;">
<text x="13277.6" y="27208.7"
textLength="751.687" font-size="524.934" lengthAdjust="spacingAndGlyphs"
text-anchor="middle" opacity="0">J1</text>
<path d="M13146 26796
L13146 27077
L13127 27133
L13090 27171
L13033 27189
L12996 27189
" />
<path d="M13540 27189
L13315 27189
" />
<path d="M13427 27189
L13427 26796
L13390 26852
L13352 26889
L13315 26908
" />
<text x="19027.6" y="3708.66"
textLength="845.426" font-size="524.934" lengthAdjust="spacingAndGlyphs"
text-anchor="middle" opacity="0">C1</text>
<path d="M18961 3652
L18943 3671
L18886 3689
L18849 3689
L18793 3671
L18755 3633
L18736 3596
L18718 3521
L18718 3464
L18736 3389
L18755 3352
L18793 3314
L18849 3296
L18886 3296
L18943 3314
L18961 3333
" />
<path d="M19336 3689
L19111 3689
" />
<path d="M19224 3689
L19224 3296
L19186 3352
L19149 3389
L19111 3408
" />
<text x="25289.4" y="6917.32"
textLength="1145.39" font-size="524.934" lengthAdjust="spacingAndGlyphs"
text-anchor="middle" opacity="0">JP1</text>
<path d="M24961 6504
L24961 6786
L24942 6842
L24905 6879
L24848 6898
L24811 6898
" />
<path d="M25148 6898
L25148 6504
L25298 6504
L25336 6523
L25354 6542
L25373 6579
L25373 6636
L25354 6673
L25336 6692
L25298 6711
L25148 6711
" />
<path d="M25748 6898
L25523 6898
" />
<path d="M25636 6898
L25636 6504
L25598 6561
L25561 6598
L25523 6617
" />
<text x="15027.6" y="6708.66"
textLength="845.426" font-size="524.934" lengthAdjust="spacingAndGlyphs"
text-anchor="middle" opacity="0">R8</text>
<path d="M14961 6689
L14830 6502
" />
<path d="M14736 6689
L14736 6296
L14886 6296
L14924 6314
L14943 6333
L14961 6371
L14961 6427
L14943 6464
L14924 6483
L14886 6502
L14736 6502
" />
<path d="M15186 6464
L15149 6446
L15130 6427
L15111 6389
L15111 6371
L15130 6333
L15149 6314
L15186 6296
L15261 6296
L15299 6314
L15318 6333
L15336 6371
L15336 6389
L15318 6427
L15299 6446
L15261 6464
L15186 6464
L15149 6483
L15130 6502
L15111 6539
L15111 6614
L15130 6652
L15149 6671
L15186 6689
L15261 6689
L15299 6671
L15318 6652
L15336 6614
L15336 6539
L15318 6502
L15299 6483
L15261 6464
" />
<text x="11777.6" y="8208.66"
textLength="845.426" font-size="524.934" lengthAdjust="spacingAndGlyphs"
text-anchor="middle" opacity="0">C4</text>
<path d="M11711 8152
L11693 8171
L11636 8189
L11599 8189
L11543 8171
L11505 8133
L11486 8096
L11468 8021
L11468 7964
L11486 7889
L11505 7852
L11543 7814
L11599 7796
L11636 7796
L11693 7814
L11711 7833
" />
<path d="M12049 7927
L12049 8189
" />
<path d="M11955 7777
L11861 8058
L12105 8058
" />
<text x="12027.6" y="4708.66"
textLength="845.426" font-size="524.934" lengthAdjust="spacingAndGlyphs"
text-anchor="middle" opacity="0">C3</text>
<path d="M11961 4652
L11943 4671
L11886 4689
L11849 4689
L11793 4671
L11755 4633
L11736 4596
L11718 4521
L11718 4464
L11736 4389
L11755 4352
L11793 4314
L11849 4296
L11886 4296
L11943 4314
L11961 4333
" />
<path d="M12093 4296
L12336 4296
L12205 4446
L12261 4446
L12299 4464
L12318 4483
L12336 4521
L12336 4614
L12318 4652
L12299 4671
L12261 4689
L12149 4689
L12111 4671
L12093 4652
" />
<text x="19027.6" y="5708.66"
textLength="845.426" font-size="524.934" lengthAdjust="spacingAndGlyphs"
text-anchor="middle" opacity="0">C2</text>
<path d="M18961 5652
L18943 5671
L18886 5689
L18849 5689
L18793 5671
L18755 5633
L18736 5596
L18718 5521
L18718 5464
L18736 5389
L18755 5352
L18793 5314
L18849 5296
L18886 5296
L18943 5314
L18961 5333
" />
<path d="M19111 5333
L19130 5314
L19168 5296
L19261 5296
L19299 5314
L19318 5333
L19336 5371
L19336 5408
L19318 5464
L19093 5689
L19336 5689
" />
<g transform="rotate(-90 14277.6 12261.8)">
<text x="14277.6" y="12458.7"
textLength="1220.38" font-size="524.934" lengthAdjust="spacingAndGlyphs"
text-anchor="middle" opacity="0">R13</text>
</g>
<path d="M14455 12514
L14268 12646
" />
<path d="M14455 12739
L14061 12739
L14061 12589
L14080 12552
L14099 12533
L14136 12514
L14193 12514
L14230 12533
L14249 12552
L14268 12589
L14268 12739
" />
<path d="M14455 12139
L14455 12364
" />
<path d="M14455 12252
L14061 12252
L14118 12289
L14155 12327
L14174 12364
" />
<path d="M14061 12008
L14061 11764
L14211 11896
L14211 11839
L14230 11802
L14249 11783
L14286 11764
L14380 11764
L14418 11783
L14436 11802
L14455 11839
L14455 11952
L14436 11989
L14418 12008
" />
<text x="24277.6" y="9708.66"
textLength="864.173" font-size="524.934" lengthAdjust="spacingAndGlyphs"
text-anchor="middle" opacity="0">U1</text>
<path d="M23977 9296
L23977 9614
L23996 9652
L24015 9671
L24052 9689
L24127 9689
L24165 9671
L24183 9652
L24202 9614
L24202 9296
" />
<path d="M24596 9689
L24371 9689
" />
<path d="M24483 9689
L24483 9296
L24446 9352
L24408 9389
L24371 9408
" />
<text x="31027.6" y="17958.7"
textLength="845.426" font-size="524.934" lengthAdjust="spacingAndGlyphs"
text-anchor="middle" opacity="0">D5</text>
<path d="M30736 17939
L30736 17546
L30830 17546
L30886 17564
L30924 17602
L30943 17639
L30961 17714
L30961 17771
L30943 17846
L30924 17883
L30886 17921
L30830 17939
L30736 17939
" />
<path d="M31318 17546
L31130 17546
L31111 17733
L31130 17714
L31168 17696
L31261 17696
L31299 17714
L31318 17733
L31336 17771
L31336 17864
L31318 17902
L31299 17921
L31261 17939
L31168 17939
L31130 17921
L31111 17902
" />
</g>
<g style="fill:#008484; fill-opacity:0.0; 
stroke:#008484; stroke-width:78.7402; stroke-opacity:1; 
stroke-linecap:round; stroke-linejoin:round;">
<text x="33777.6" y="18155.5"
textLength="2401.48" font-size="524.934" lengthAdjust="spacingAndGlyphs"
text-anchor="middle" opacity="0">PWR/TX</text>
<path d="M32708 18118
L32708 17330
L32858 17330
L32896 17368
L32915 17405
L32933 17480
L32933 17593
L32915 17668
L32896 17705
L32858 17743
L32708 17743
" />
<path d="M33065 17330
L33158 18118
L33233 17555
L33308 18118
L33402 17330
" />
<path d="M33777 18118
L33646 17743
" />
<path d="M33552 18118
L33552 17330
L33702 17330
L33740 17368
L33758 17405
L33777 17480
L33777 17593
L33758 17668
L33740 17705
L33702 17743
L33552 17743
" />
<path d="M34227 17293
L33890 18305
" />
<path d="M34302 17330
L34527 17330
" />
<path d="M34414 18118
L34414 17330
" />
<path d="M34621 17330
L34883 18118
" />
<path d="M34883 17330
L34621 18118
" />
</g>
<g style="fill:#008484; fill-opacity:0.0; 
stroke:#008484; stroke-width:59.0551; stroke-opacity:1; 
stroke-linecap:round; stroke-linejoin:round;">
<text x="16277.6" y="19208.7"
textLength="1302.21" font-size="524.934" lengthAdjust="spacingAndGlyphs"
text-anchor="middle" opacity="0">SW1</text>
<path d="M15752 19171
L15808 19189
L15902 19189
L15940 19171
L15958 19152
L15977 19114
L15977 19077
L15958 19039
L15940 19021
L15902 19002
L15827 18983
L15790 18964
L15771 18946
L15752 18908
L15752 18871
L15771 18833
L15790 18814
L15827 18796
L15921 18796
L15977 18814
" />
<path d="M16108 18796
L16202 19189
L16277 18908
L16352 19189
L16446 18796
" />
<path d="M16802 19189
L16577 19189
" />
<path d="M16690 19189
L16690 18796
L16652 18852
L16615 18889
L16577 18908
" />
</g>
<g style="fill:#008484; fill-opacity:0.0; 
stroke:#008484; stroke-width:78.7402; stroke-opacity:1; 
stroke-linecap:round; stroke-linejoin:round;">
<text x="16277.6" y="14405.5"
textLength="2851.42" font-size="524.934" lengthAdjust="spacingAndGlyphs"
text-anchor="middle" opacity="0">INSTANCE</text>
<path d="M14983 14368
L14983 13580
" />
<path d="M15171 14368
L15171 13580
L15396 14368
L15396 13580
" />
<path d="M15565 14330
L15621 14368
L15715 14368
L15752 14330
L15771 14293
L15790 14218
L15790 14143
L15771 14068
L15752 14030
L15715 13993
L15640 13955
L15602 13918
L15583 13880
L15565 13805
L15565 13730
L15583 13655
L15602 13618
L15640 13580
L15733 13580
L15790 13618
" />
<path d="M15902 13580
L16127 13580
" />
<path d="M16015 14368
L16015 13580
" />
<path d="M16240 14143
L16427 14143
" />
<path d="M16202 14368
L16333 13580
L16465 14368
" />
<path d="M16596 14368
L16596 13580
L16821 14368
L16821 13580
" />
<path d="M17233 14293
L17214 14330
L17158 14368
L17121 14368
L17064 14330
L17027 14255
L17008 14180
L16989 14030
L16989 13918
L17008 13768
L17027 13693
L17064 13618
L17121 13580
L17158 13580
L17214 13618
L17233 13655
" />
<path d="M17402 13955
L17533 13955
" />
<path d="M17589 14368
L17402 14368
L17402 13580
L17589 13580
" />
</g>
<g style="fill:#008484; fill-opacity:0.0; 
stroke:#008484; stroke-width:59.0551; stroke-opacity:1; 
stroke-linecap:round; stroke-linejoin:round;">
<text x="25277.6" y="3208.66"
textLength="777.278" font-size="524.934" lengthAdjust="spacingAndGlyphs"
text-anchor="middle" opacity="0">J3</text>
<path d="M25146 2796
L25146 3077
L25127 3133
L25090 3171
L25033 3189
L24996 3189
" />
<path d="M25296 2796
L25540 2796
L25408 2946
L25465 2946
L25502 2964
L25521 2983
L25540 3021
L25540 3114
L25521 3152
L25502 3171
L25465 3189
L25352 3189
L25315 3171
L25296 3152
" />
<text x="28777.6" y="21458.7"
textLength="845.426" font-size="524.934" lengthAdjust="spacingAndGlyphs"
text-anchor="middle" opacity="0">K2</text>
<path d="M28486 21439
L28486 21046
" />
<path d="M28711 21439
L28543 21214
" />
<path d="M28711 21046
L28486 21271
" />
<path d="M28861 21083
L28880 21064
L28918 21046
L29011 21046
L29049 21064
L29068 21083
L29086 21121
L29086 21158
L29068 21214
L28843 21439
L29086 21439
" />
<text x="21777.6" y="21458.7"
textLength="845.426" font-size="524.934" lengthAdjust="spacingAndGlyphs"
text-anchor="middle" opacity="0">K1</text>
<path d="M21486 21439
L21486 21046
" />
<path d="M21711 21439
L21543 21214
" />
<path d="M21711 21046
L21486 21271
" />
<path d="M22086 21439
L21861 21439
" />
<path d="M21974 21439
L21974 21046
L21936 21102
L21899 21139
L21861 21158
" />
<text x="17527.6" y="26208.7"
textLength="845.426" font-size="524.934" lengthAdjust="spacingAndGlyphs"
text-anchor="middle" opacity="0">R3</text>
<path d="M17461 26189
L17330 26002
" />
<path d="M17236 26189
L17236 25796
L17386 25796
L17424 25814
L17443 25833
L17461 25871
L17461 25927
L17443 25964
L17424 25983
L17386 26002
L17236 26002
" />
<path d="M17593 25796
L17836 25796
L17705 25946
L17761 25946
L17799 25964
L17818 25983
L17836 26021
L17836 26114
L17818 26152
L17799 26171
L17761 26189
L17649 26189
L17611 26171
L17593 26152
" />
<text x="20027.6" y="6708.66"
textLength="845.426" font-size="524.934" lengthAdjust="spacingAndGlyphs"
text-anchor="middle" opacity="0">D4</text>
<path d="M19736 6689
L19736 6296
L19830 6296
L19886 6314
L19924 6352
L19943 6389
L19961 6464
L19961 6521
L19943 6596
L19924 6633
L19886 6671
L19830 6689
L19736 6689
" />
<path d="M20299 6427
L20299 6689
" />
<path d="M20205 6277
L20111 6558
L20355 6558
" />
<text x="18777.6" y="6708.66"
textLength="845.426" font-size="524.934" lengthAdjust="spacingAndGlyphs"
text-anchor="middle" opacity="0">D3</text>
<path d="M18486 6689
L18486 6296
L18580 6296
L18636 6314
L18674 6352
L18693 6389
L18711 6464
L18711 6521
L18693 6596
L18674 6633
L18636 6671
L18580 6689
L18486 6689
" />
<path d="M18843 6296
L19086 6296
L18955 6446
L19011 6446
L19049 6464
L19068 6483
L19086 6521
L19086 6614
L19068 6652
L19049 6671
L19011 6689
L18899 6689
L18861 6671
L18843 6652
" />
<text x="17527.6" y="6708.66"
textLength="845.426" font-size="524.934" lengthAdjust="spacingAndGlyphs"
text-anchor="middle" opacity="0">D2</text>
<path d="M17236 6689
L17236 6296
L17330 6296
L17386 6314
L17424 6352
L17443 6389
L17461 6464
L17461 6521
L17443 6596
L17424 6633
L17386 6671
L17330 6689
L17236 6689
" />
<path d="M17611 6333
L17630 6314
L17668 6296
L17761 6296
L17799 6314
L17818 6333
L17836 6371
L17836 6408
L17818 6464
L17593 6689
L17836 6689
" />
<text x="16277.6" y="6708.66"
textLength="845.426" font-size="524.934" lengthAdjust="spacingAndGlyphs"
text-anchor="middle" opacity="0">D1</text>
<path d="M15986 6689
L15986 6296
L16080 6296
L16136 6314
L16174 6352
L16193 6389
L16211 6464
L16211 6521
L16193 6596
L16174 6633
L16136 6671
L16080 6689
L15986 6689
" />
<path d="M16586 6689
L16361 6689
" />
<path d="M16474 6689
L16474 6296
L16436 6352
L16399 6389
L16361 6408
" />
<text x="27277.6" y="15958.7"
textLength="864.173" font-size="524.934" lengthAdjust="spacingAndGlyphs"
text-anchor="middle" opacity="0">Q2</text>
<path d="M27240 15977
L27202 15958
L27165 15921
L27108 15864
L27071 15846
L27033 15846
" />
<path d="M27052 15939
L27015 15921
L26977 15883
L26958 15808
L26958 15677
L26977 15602
L27015 15564
L27052 15546
L27127 15546
L27165 15564
L27202 15602
L27221 15677
L27221 15808
L27202 15883
L27165 15921
L27127 15939
L27052 15939
" />
<path d="M27371 15583
L27390 15564
L27427 15546
L27521 15546
L27558 15564
L27577 15583
L27596 15621
L27596 15658
L27577 15714
L27352 15939
L27596 15939
" />
<text x="18777.6" y="26208.7"
textLength="845.426" font-size="524.934" lengthAdjust="spacingAndGlyphs"
text-anchor="middle" opacity="0">R4</text>
<path d="M18711 26189
L18580 26002
" />
<path d="M18486 26189
L18486 25796
L18636 25796
L18674 25814
L18693 25833
L18711 25871
L18711 25927
L18693 25964
L18674 25983
L18636 26002
L18486 26002
" />
<path d="M19049 25927
L19049 26189
" />
<path d="M18955 25777
L18861 26058
L19105 26058
" />
<text x="16277.6" y="26208.7"
textLength="845.426" font-size="524.934" lengthAdjust="spacingAndGlyphs"
text-anchor="middle" opacity="0">R2</text>
<path d="M16211 26189
L16080 26002
" />
<path d="M15986 26189
L15986 25796
L16136 25796
L16174 25814
L16193 25833
L16211 25871
L16211 25927
L16193 25964
L16174 25983
L16136 26002
L15986 26002
" />
<path d="M16361 25833
L16380 25814
L16418 25796
L16511 25796
L16549 25814
L16568 25833
L16586 25871
L16586 25908
L16568 25964
L16343 26189
L16586 26189
" />
<text x="15027.6" y="26208.7"
textLength="845.426" font-size="524.934" lengthAdjust="spacingAndGlyphs"
text-anchor="middle" opacity="0">R1</text>
<path d="M14961 26189
L14830 26002
" />
<path d="M14736 26189
L14736 25796
L14886 25796
L14924 25814
L14943 25833
L14961 25871
L14961 25927
L14943 25964
L14924 25983
L14886 26002
L14736 26002
" />
<path d="M15336 26189
L15111 26189
" />
<path d="M15224 26189
L15224 25796
L15186 25852
L15149 25889
L15111 25908
" />
<text x="31777.6" y="10958.7"
textLength="864.173" font-size="524.934" lengthAdjust="spacingAndGlyphs"
text-anchor="middle" opacity="0">U3</text>
<path d="M31477 10546
L31477 10864
L31496 10902
L31515 10921
L31552 10939
L31627 10939
L31665 10921
L31683 10902
L31702 10864
L31702 10546
" />
<path d="M31852 10546
L32096 10546
L31965 10696
L32021 10696
L32058 10714
L32077 10733
L32096 10771
L32096 10864
L32077 10902
L32058 10921
L32021 10939
L31908 10939
L31871 10921
L31852 10902
" />
<text x="9777.56" y="15958.7"
textLength="864.173" font-size="524.934" lengthAdjust="spacingAndGlyphs"
text-anchor="middle" opacity="0">U2</text>
<path d="M9477 15546
L9477 15864
L9496 15902
L9515 15921
L9552 15939
L9627 15939
L9665 15921
L9683 15902
L9702 15864
L9702 15546
" />
<path d="M9871 15583
L9890 15564
L9927 15546
L10021 15546
L10058 15564
L10077 15583
L10096 15621
L10096 15658
L10077 15714
L9852 15939
L10096 15939
" />
<g transform="rotate(-90 10377.6 19511.8)">
<text x="10377.6" y="19649.6"
textLength="3528.22" font-size="367.454" lengthAdjust="spacingAndGlyphs"
text-anchor="middle" opacity="0">MK20DX128VLH5</text>
</g>
<path d="M10502 21171
L10226 21171
L10423 21080
L10226 20988
L10502 20988
" />
<path d="M10502 20856
L10226 20856
" />
<path d="M10502 20699
L10344 20817
" />
<path d="M10226 20699
L10384 20856
" />
<path d="M10252 20594
L10239 20581
L10226 20555
L10226 20489
L10239 20463
L10252 20450
L10279 20437
L10305 20437
L10344 20450
L10502 20607
L10502 20437
" />
<path d="M10226 20266
L10226 20240
L10239 20213
L10252 20200
L10279 20187
L10331 20174
L10397 20174
L10449 20187
L10475 20200
L10489 20213
L10502 20240
L10502 20266
L10489 20292
L10475 20305
L10449 20318
L10397 20332
L10331 20332
L10279 20318
L10252 20305
L10239 20292
L10226 20266
" />
<path d="M10502 20056
L10226 20056
L10226 19990
L10239 19951
L10266 19925
L10292 19912
L10344 19898
L10384 19898
L10436 19912
L10462 19925
L10489 19951
L10502 19990
L10502 20056
" />
<path d="M10226 19807
L10502 19623
" />
<path d="M10226 19623
L10502 19807
" />
<path d="M10502 19374
L10502 19531
" />
<path d="M10502 19452
L10226 19452
L10266 19479
L10292 19505
L10305 19531
" />
<path d="M10252 19269
L10239 19255
L10226 19229
L10226 19164
L10239 19137
L10252 19124
L10279 19111
L10305 19111
L10344 19124
L10502 19282
L10502 19111
" />
<path d="M10344 18954
L10331 18980
L10318 18993
L10292 19006
L10279 19006
L10252 18993
L10239 18980
L10226 18954
L10226 18901
L10239 18875
L10252 18862
L10279 18849
L10292 18849
L10318 18862
L10331 18875
L10344 18901
L10344 18954
L10357 18980
L10370 18993
L10397 19006
L10449 19006
L10475 18993
L10489 18980
L10502 18954
L10502 18901
L10489 18875
L10475 18862
L10449 18849
L10397 18849
L10370 18862
L10357 18875
L10344 18901
" />
<path d="M10226 18770
L10502 18678
L10226 18586
" />
<path d="M10502 18363
L10502 18494
L10226 18494
" />
<path d="M10502 18271
L10226 18271
" />
<path d="M10357 18271
L10357 18114
" />
<path d="M10502 18114
L10226 18114
" />
<path d="M10226 17851
L10226 17982
L10357 17996
L10344 17982
L10331 17956
L10331 17891
L10344 17864
L10357 17851
L10384 17838
L10449 17838
L10475 17851
L10489 17864
L10502 17891
L10502 17956
L10489 17982
L10475 17996
" />
<g transform="rotate(-90 9877.56 19511.8)">
<text x="9877.56" y="19649.6"
textLength="3147.64" font-size="367.454" lengthAdjust="spacingAndGlyphs"
text-anchor="middle" opacity="0">MKL26Z64VFT4</text>
</g>
<path d="M10002 20981
L9726 20981
L9923 20889
L9726 20797
L10002 20797
" />
<path d="M10002 20666
L9726 20666
" />
<path d="M10002 20509
L9844 20627
" />
<path d="M9726 20509
L9884 20666
" />
<path d="M10002 20259
L10002 20391
L9726 20391
" />
<path d="M9752 20181
L9739 20167
L9726 20141
L9726 20076
L9739 20049
L9752 20036
L9779 20023
L9805 20023
L9844 20036
L10002 20194
L10002 20023
" />
<path d="M9726 19787
L9726 19839
L9739 19866
L9752 19879
L9792 19905
L9844 19918
L9949 19918
L9975 19905
L9989 19892
L10002 19866
L10002 19813
L9989 19787
L9975 19774
L9949 19761
L9884 19761
L9857 19774
L9844 19787
L9831 19813
L9831 19866
L9844 19892
L9857 19905
L9884 19918
" />
<path d="M9726 19669
L9726 19485
L10002 19669
L10002 19485
" />
<path d="M9726 19262
L9726 19314
L9739 19341
L9752 19354
L9792 19380
L9844 19393
L9949 19393
L9975 19380
L9989 19367
L10002 19341
L10002 19288
L9989 19262
L9975 19249
L9949 19236
L9884 19236
L9857 19249
L9844 19262
L9831 19288
L9831 19341
L9844 19367
L9857 19380
L9884 19393
" />
<path d="M9818 19000
L10002 19000
" />
<path d="M9713 19065
L9910 19131
L9910 18960
" />
<path d="M9726 18895
L10002 18803
L9726 18711
" />
<path d="M9857 18527
L9857 18619
" />
<path d="M10002 18619
L9726 18619
L9726 18488
" />
<path d="M9726 18422
L9726 18265
" />
<path d="M10002 18343
L9726 18343
" />
<path d="M9818 18055
L10002 18055
" />
<path d="M9713 18120
L9910 18186
L9910 18015
" />
<g transform="rotate(-90 10877.6 19511.8)">
<text x="10877.6" y="19649.6"
textLength="3528.22" font-size="367.454" lengthAdjust="spacingAndGlyphs"
text-anchor="middle" opacity="0">MK20DX256VLH7</text>
</g>
<path d="M11002 21171
L10726 21171
L10923 21080
L10726 20988
L11002 20988
" />
<path d="M11002 20856
L10726 20856
" />
<path d="M11002 20699
L10844 20817
" />
<path d="M10726 20699
L10884 20856
" />
<path d="M10752 20594
L10739 20581
L10726 20555
L10726 20489
L10739 20463
L10752 20450
L10779 20437
L10805 20437
L10844 20450
L11002 20607
L11002 20437
" />
<path d="M10726 20266
L10726 20240
L10739 20213
L10752 20200
L10779 20187
L10831 20174
L10897 20174
L10949 20187
L10975 20200
L10989 20213
L11002 20240
L11002 20266
L10989 20292
L10975 20305
L10949 20318
L10897 20332
L10831 20332
L10779 20318
L10752 20305
L10739 20292
L10726 20266
" />
<path d="M11002 20056
L10726 20056
L10726 19990
L10739 19951
L10766 19925
L10792 19912
L10844 19898
L10884 19898
L10936 19912
L10962 19925
L10989 19951
L11002 19990
L11002 20056
" />
<path d="M10726 19807
L11002 19623
" />
<path d="M10726 19623
L11002 19807
" />
<path d="M10752 19531
L10739 19518
L10726 19492
L10726 19426
L10739 19400
L10752 19387
L10779 19374
L10805 19374
L10844 19387
L11002 19544
L11002 19374
" />
<path d="M10726 19124
L10726 19255
L10857 19269
L10844 19255
L10831 19229
L10831 19164
L10844 19137
L10857 19124
L10884 19111
L10949 19111
L10975 19124
L10989 19137
L11002 19164
L11002 19229
L10989 19255
L10975 19269
" />
<path d="M10726 18875
L10726 18927
L10739 18954
L10752 18967
L10792 18993
L10844 19006
L10949 19006
L10975 18993
L10989 18980
L11002 18954
L11002 18901
L10989 18875
L10975 18862
L10949 18849
L10884 18849
L10857 18862
L10844 18875
L10831 18901
L10831 18954
L10844 18980
L10857 18993
L10884 19006
" />
<path d="M10726 18770
L11002 18678
L10726 18586
" />
<path d="M11002 18363
L11002 18494
L10726 18494
" />
<path d="M11002 18271
L10726 18271
" />
<path d="M10857 18271
L10857 18114
" />
<path d="M11002 18114
L10726 18114
" />
<path d="M10726 18009
L10726 17825
L11002 17943
" />
<text x="18277.6" y="27208.7"
textLength="751.687" font-size="524.934" lengthAdjust="spacingAndGlyphs"
text-anchor="middle" opacity="0">J2</text>
<path d="M18146 26796
L18146 27077
L18127 27133
L18090 27171
L18033 27189
L17996 27189
" />
<path d="M18315 26833
L18333 26814
L18371 26796
L18465 26796
L18502 26814
L18521 26833
L18540 26871
L18540 26908
L18521 26964
L18296 27189
L18540 27189
" />
<g transform="rotate(-90 26277.6 21761.8)">
<text x="26277.6" y="21958.7"
textLength="845.426" font-size="524.934" lengthAdjust="spacingAndGlyphs"
text-anchor="middle" opacity="0">D9</text>
</g>
<path d="M26455 22052
L26061 22052
L26061 21958
L26080 21902
L26118 21864
L26155 21846
L26230 21827
L26286 21827
L26361 21846
L26399 21864
L26436 21902
L26455 21958
L26455 22052
" />
<path d="M26455 21639
L26455 21564
L26436 21527
L26418 21508
L26361 21471
L26286 21452
L26136 21452
L26099 21471
L26080 21489
L26061 21527
L26061 21602
L26080 21639
L26099 21658
L26136 21677
L26230 21677
L26268 21658
L26286 21639
L26305 21602
L26305 21527
L26286 21489
L26268 21471
L26230 21452
" />
<g transform="rotate(-90 24277.6 21761.8)">
<text x="24277.6" y="21958.7"
textLength="845.426" font-size="524.934" lengthAdjust="spacingAndGlyphs"
text-anchor="middle" opacity="0">D8</text>
</g>
<path d="M24455 22052
L24061 22052
L24061 21958
L24080 21902
L24118 21864
L24155 21846
L24230 21827
L24286 21827
L24361 21846
L24399 21864
L24436 21902
L24455 21958
L24455 22052
" />
<path d="M24230 21602
L24211 21639
L24193 21658
L24155 21677
L24136 21677
L24099 21658
L24080 21639
L24061 21602
L24061 21527
L24080 21489
L24099 21471
L24136 21452
L24155 21452
L24193 21471
L24211 21489
L24230 21527
L24230 21602
L24249 21639
L24268 21658
L24305 21677
L24380 21677
L24418 21658
L24436 21639
L24455 21602
L24455 21527
L24436 21489
L24418 21471
L24380 21452
L24305 21452
L24268 21471
L24249 21489
L24230 21527
" />
<text x="24777.6" y="27208.7"
textLength="751.687" font-size="524.934" lengthAdjust="spacingAndGlyphs"
text-anchor="middle" opacity="0">J4</text>
<path d="M24646 26796
L24646 27077
L24627 27133
L24590 27171
L24533 27189
L24496 27189
" />
<path d="M25002 26927
L25002 27189
" />
<path d="M24908 26777
L24815 27058
L25058 27058
" />
<text x="23277.6" y="15958.7"
textLength="864.173" font-size="524.934" lengthAdjust="spacingAndGlyphs"
text-anchor="middle" opacity="0">Q1</text>
<path d="M23240 15977
L23202 15958
L23165 15921
L23108 15864
L23071 15846
L23033 15846
" />
<path d="M23052 15939
L23015 15921
L22977 15883
L22958 15808
L22958 15677
L22977 15602
L23015 15564
L23052 15546
L23127 15546
L23165 15564
L23202 15602
L23221 15677
L23221 15808
L23202 15883
L23165 15921
L23127 15939
L23052 15939
" />
<path d="M23596 15939
L23371 15939
" />
<path d="M23483 15939
L23483 15546
L23446 15602
L23408 15639
L23371 15658
" />
<g transform="rotate(-90 33277.6 3305.12)">
<text x="33277.6" y="3501.97"
textLength="789.183" font-size="524.934" lengthAdjust="spacingAndGlyphs"
text-anchor="middle" opacity="0">F2</text>
</g>
<path d="M33249 3436
L33249 3567
" />
<path d="M33455 3567
L33061 3567
L33061 3380
" />
<path d="M33099 3248
L33080 3230
L33061 3192
L33061 3098
L33080 3061
L33099 3042
L33136 3023
L33174 3023
L33230 3042
L33455 3267
L33455 3023
" />
<text x="32277.6" y="16458.7"
textLength="845.426" font-size="524.934" lengthAdjust="spacingAndGlyphs"
text-anchor="middle" opacity="0">R7</text>
<path d="M32211 16439
L32080 16252
" />
<path d="M31986 16439
L31986 16046
L32136 16046
L32174 16064
L32193 16083
L32211 16121
L32211 16177
L32193 16214
L32174 16233
L32136 16252
L31986 16252
" />
<path d="M32343 16046
L32605 16046
L32436 16439
" />
<text x="16027.6" y="4208.66"
textLength="864.173" font-size="524.934" lengthAdjust="spacingAndGlyphs"
text-anchor="middle" opacity="0">U4</text>
<path d="M15727 3796
L15727 4114
L15746 4152
L15765 4171
L15802 4189
L15877 4189
L15915 4171
L15933 4152
L15952 4114
L15952 3796
" />
<path d="M16308 3927
L16308 4189
" />
<path d="M16215 3777
L16121 4058
L16365 4058
" />
<text x="31027.6" y="23958.7"
textLength="845.426" font-size="524.934" lengthAdjust="spacingAndGlyphs"
text-anchor="middle" opacity="0">D7</text>
<path d="M30736 23939
L30736 23546
L30830 23546
L30886 23564
L30924 23602
L30943 23639
L30961 23714
L30961 23771
L30943 23846
L30924 23883
L30886 23921
L30830 23939
L30736 23939
" />
<path d="M31093 23546
L31355 23546
L31186 23939
" />
</g>
<g style="fill:#008484; fill-opacity:0.0; 
stroke:#008484; stroke-width:78.7402; stroke-opacity:1; 
stroke-linecap:round; stroke-linejoin:round;">
<text x="33777.6" y="24155.5"
textLength="882.921" font-size="524.934" lengthAdjust="spacingAndGlyphs"
text-anchor="middle" opacity="0">UP</text>
<path d="M33468 23330
L33468 23968
L33486 24043
L33505 24080
L33543 24118
L33618 24118
L33655 24080
L33674 24043
L33693 23968
L33693 23330
" />
<path d="M33880 24118
L33880 23330
L34030 23330
L34068 23368
L34086 23405
L34105 23480
L34105 23593
L34086 23668
L34068 23705
L34030 23743
L33880 23743
" />
</g>
<g style="fill:#008484; fill-opacity:0.0; 
stroke:#008484; stroke-width:59.0551; stroke-opacity:1; 
stroke-linecap:round; stroke-linejoin:round;">
<text x="31027.6" y="20958.7"
textLength="871.016" font-size="524.934" lengthAdjust="spacingAndGlyphs"
text-anchor="middle" opacity="0">D6</text>
<path d="M30736 20939
L30736 20546
L30830 20546
L30886 20564
L30924 20602
L30943 20639
L30961 20714
L30961 20771
L30943 20846
L30924 20883
L30886 20921
L30830 20939
L30736 20939
" />
<path d="M31299 20546
L31224 20546
L31186 20564
L31168 20583
L31130 20639
L31111 20714
L31111 20864
L31130 20902
L31149 20921
L31186 20939
L31261 20939
L31299 20921
L31318 20902
L31336 20864
L31336 20771
L31318 20733
L31299 20714
L31261 20696
L31186 20696
L31149 20714
L31130 20733
L31111 20771
" />
</g>
<g style="fill:#008484; fill-opacity:0.0; 
stroke:#008484; stroke-width:78.7402; stroke-opacity:1; 
stroke-linecap:round; stroke-linejoin:round;">
<text x="33777.6" y="21155.5"
textLength="882.921" font-size="524.934" lengthAdjust="spacingAndGlyphs"
text-anchor="middle" opacity="0">DN</text>
<path d="M33468 21118
L33468 20330
L33561 20330
L33618 20368
L33655 20443
L33674 20518
L33693 20668
L33693 20780
L33674 20930
L33655 21005
L33618 21080
L33561 21118
L33468 21118
" />
<path d="M33861 21118
L33861 20330
L34086 21118
L34086 20330
" />
</g>
<g style="fill:#008484; fill-opacity:0.0; 
stroke:#008484; stroke-width:59.0551; stroke-opacity:1; 
stroke-linecap:round; stroke-linejoin:round;">
<text x="32277.6" y="22458.7"
textLength="1245.97" font-size="524.934" lengthAdjust="spacingAndGlyphs"
text-anchor="middle" opacity="0">R10</text>
<path d="M32024 22439
L31893 22252
" />
<path d="M31799 22439
L31799 22046
L31949 22046
L31986 22064
L32005 22083
L32024 22121
L32024 22177
L32005 22214
L31986 22233
L31949 22252
L31799 22252
" />
<path d="M32399 22439
L32174 22439
" />
<path d="M32286 22439
L32286 22046
L32249 22102
L32211 22139
L32174 22158
" />
<path d="M32643 22046
L32680 22046
L32718 22064
L32736 22083
L32755 22121
L32774 22196
L32774 22289
L32755 22364
L32736 22402
L32718 22421
L32680 22439
L32643 22439
L32605 22421
L32586 22402
L32568 22364
L32549 22289
L32549 22196
L32568 22121
L32586 22083
L32605 22064
L32643 22046
" />
<text x="32277.6" y="19458.7"
textLength="845.426" font-size="524.934" lengthAdjust="spacingAndGlyphs"
text-anchor="middle" opacity="0">R9</text>
<path d="M32211 19439
L32080 19252
" />
<path d="M31986 19439
L31986 19046
L32136 19046
L32174 19064
L32193 19083
L32211 19121
L32211 19177
L32193 19214
L32174 19233
L32136 19252
L31986 19252
" />
<path d="M32399 19439
L32474 19439
L32511 19421
L32530 19402
L32568 19346
L32586 19271
L32586 19121
L32568 19083
L32549 19064
L32511 19046
L32436 19046
L32399 19064
L32380 19083
L32361 19121
L32361 19214
L32380 19252
L32399 19271
L32436 19289
L32511 19289
L32549 19271
L32568 19252
L32586 19214
" />
<text x="19777.6" y="14458.7"
textLength="845.426" font-size="524.934" lengthAdjust="spacingAndGlyphs"
text-anchor="middle" opacity="0">R6</text>
<path d="M19711 14439
L19580 14252
" />
<path d="M19486 14439
L19486 14046
L19636 14046
L19674 14064
L19693 14083
L19711 14121
L19711 14177
L19693 14214
L19674 14233
L19636 14252
L19486 14252
" />
<path d="M20049 14046
L19974 14046
L19936 14064
L19918 14083
L19880 14139
L19861 14214
L19861 14364
L19880 14402
L19899 14421
L19936 14439
L20011 14439
L20049 14421
L20068 14402
L20086 14364
L20086 14271
L20068 14233
L20049 14214
L20011 14196
L19936 14196
L19899 14214
L19880 14233
L19861 14271
" />
<text x="19777.6" y="15958.7"
textLength="845.426" font-size="524.934" lengthAdjust="spacingAndGlyphs"
text-anchor="middle" opacity="0">R5</text>
<path d="M19711 15939
L19580 15752
" />
<path d="M19486 15939
L19486 15546
L19636 15546
L19674 15564
L19693 15583
L19711 15621
L19711 15677
L19693 15714
L19674 15733
L19636 15752
L19486 15752
" />
<path d="M20068 15546
L19880 15546
L19861 15733
L19880 15714
L19918 15696
L20011 15696
L20049 15714
L20068 15733
L20086 15771
L20086 15864
L20068 15902
L20049 15921
L20011 15939
L19918 15939
L19880 15921
L19861 15902
" />
<g transform="rotate(-90 6277.56 28261.8)">
<text x="6277.56" y="28458.7"
textLength="789.183" font-size="524.934" lengthAdjust="spacingAndGlyphs"
text-anchor="middle" opacity="0">F1</text>
</g>
<path d="M6249 28393
L6249 28524
" />
<path d="M6455 28524
L6061 28524
L6061 28336
" />
<path d="M6455 27980
L6455 28205
" />
<path d="M6455 28093
L6061 28093
L6118 28130
L6155 28168
L6174 28205
" />
<g transform="rotate(-90 22277.6 3761.81)">
<text x="22277.6" y="3958.66"
textLength="1220.38" font-size="524.934" lengthAdjust="spacingAndGlyphs"
text-anchor="middle" opacity="0">R12</text>
</g>
<path d="M22455 4014
L22268 4146
" />
<path d="M22455 4239
L22061 4239
L22061 4089
L22080 4052
L22099 4033
L22136 4014
L22193 4014
L22230 4033
L22249 4052
L22268 4089
L22268 4239
" />
<path d="M22455 3639
L22455 3864
" />
<path d="M22455 3752
L22061 3752
L22118 3789
L22155 3827
L22174 3864
" />
<path d="M22099 3489
L22080 3471
L22061 3433
L22061 3339
L22080 3302
L22099 3283
L22136 3264
L22174 3264
L22230 3283
L22455 3508
L22455 3264
" />
<g transform="rotate(-90 21277.6 3761.81)">
<text x="21277.6" y="3958.66"
textLength="1220.38" font-size="524.934" lengthAdjust="spacingAndGlyphs"
text-anchor="middle" opacity="0">R11</text>
</g>
<path d="M21455 4014
L21268 4146
" />
<path d="M21455 4239
L21061 4239
L21061 4089
L21080 4052
L21099 4033
L21136 4014
L21193 4014
L21230 4033
L21249 4052
L21268 4089
L21268 4239
" />
<path d="M21455 3639
L21455 3864
" />
<path d="M21455 3752
L21061 3752
L21118 3789
L21155 3827
L21174 3864
" />
<path d="M21455 3264
L21455 3489
" />
<path d="M21455 3377
L21061 3377
L21118 3414
L21155 3452
L21174 3489
" />
<g >
</g>
</g>
<g style="fill:#000000; fill-opacity:0.0; 
stroke:#000000; stroke-width:59.0551; stroke-opacity:1; 
stroke-linecap:round; stroke-linejoin:round;">
</g>
<g style="fill:#748430; fill-opacity:0.0; 
stroke:#748430; stroke-width:59.0551; stroke-opacity:1; 
stroke-linecap:round; stroke-linejoin:round;">
<path d="M29 30344
L3966 31525
" />
<path d="M29 1210
L29 30344
" />
<path d="M3966 29
L29 1210
" />
<path d="M39399 30344
L35462 31525
" />
<path d="M39399 1210
L39399 30344
" />
<path d="M35462 29
L39399 1210
" />
<path d="M3966 29
L3966 31525
" />
<path d="M35462 29
L3966 29
" />
<path d="M35462 31525
L35462 29
" />
<path d="M3966 31525
L35462 31525
" />
<g >
</g>
<g >
</g>
<g >
</g>
<g >
</g>
<g >
</g>
<g >
</g>
<g >
</g>
<g >
</g>
<g >
</g>
<g >
</g>
<g >
</g>
<g >
</g>
<g >
</g>
<g >
</g>
<g >
</g>
<g >
</g>
<g >
</g>
<g >
</g>
<g >
</g>
<g >
</g>
<g >
</g>
<g >
</g>
<g >
</g>
<g >
</g>
<g >
</g>
<g >
</g>
<g >
</g>
<g >
</g>
<g >
</g>
<g >
</g>
<g >
</g>
<g >
</g>
<g >
</g>
<g >
</g>
<g >
</g>
<g >
</g>
<g >
</g>
<g >
</g>
<g >
</g>
<g >
</g>
<g >
</g>
<g >
</g>
<g >
</g>
<g >
</g>
<g >
</g>
<g >
</g>
<g >
</g>
</g>
<g style="fill:#000000; fill-opacity:0.0; 
stroke:#000000; stroke-width:59.0551; stroke-opacity:1; 
stroke-linecap:round; stroke-linejoin:round;">
</g>
<g style="fill:#008400; fill-opacity:0.0; 
stroke:#008400; stroke-width:59.0551; stroke-opacity:1; 
stroke-linecap:round; stroke-linejoin:round;">
<circle cx="30147.6" cy="5344.49" r="1500" /> 
<path d="M28647 5094
L31647 5094
" />
<path d="M28647 5594
L31647 5594
" />
<circle cx="9281.5" cy="5344.49" r="1500" /> 
<path d="M7781 5094
L10781 5094
" />
<path d="M7781 5594
L10781 5594
" />
<circle cx="9281.5" cy="26210.6" r="1500" /> 
<path d="M7781 25960
L10781 25960
" />
<path d="M7781 26460
L10781 26460
" />
<circle cx="30147.6" cy="26210.6" r="1500" /> 
<path d="M28647 25960
L31647 25960
" />
<path d="M28647 26460
L31647 26460
" />
<g >
</g>
<g >
</g>
<g >
</g>
<g >
</g>
<g >
</g>
<g >
</g>
<g >
</g>
<g >
</g>
<g >
</g>
<g >
</g>
<g >
</g>
<g >
</g>
<g >
</g>
<g >
</g>
<g >
</g>
<g >
</g>
<g >
</g>
<g >
</g>
<g >
</g>
<g >
</g>
<g >
</g>
<g >
</g>
<g >
</g>
<g >
</g>
<g >
</g>
<g >
</g>
<g >
</g>
<g >
</g>
<g >
</g>
<g >
</g>
<g >
</g>
<g >
</g>
<g >
</g>
<g >
</g>
<g >
</g>
<g >
</g>
<g >
</g>
<g >
</g>
<g >
</g>
<g >
</g>
<g >
</g>
<g >
</g>
<g >
</g>
<g >
</g>
<g >
</g>
<g >
</g>
<g >
</g>
</g>
<g style="fill:#000000; fill-opacity:0.0; 
stroke:#000000; stroke-width:59.0551; stroke-opacity:1; 
stroke-linecap:round; stroke-linejoin:round;">
</g>
<g style="fill:#C2C200; fill-opacity:0.0; 
stroke:#C2C200; stroke-width:59.0551; stroke-opacity:1; 
stroke-linecap:round; stroke-linejoin:round;">
</g>
<g style="fill:#C2C200; fill-opacity:0.0; 
stroke:#C2C200; stroke-width:39.3701; stroke-opacity:1; 
stroke-linecap:round; stroke-linejoin:round;">
<path d="M34478 30541
L4950 30541
" />
<path d="M34478 1013
L34478 30541
" />
<path d="M4950 1013
L34478 1013
" />
<path d="M4950 30541
L4950 1013
" />
<g >
</g>
<g >
</g>
<g >
</g>
<g >
</g>
<g >
</g>
<g >
</g>
<g >
</g>
<g >
</g>
<g >
</g>
<g >
</g>
<g >
</g>
<g >
</g>
<g >
</g>
<g >
</g>
<g >
</g>
<g >
</g>
<g >
</g>
<g >
</g>
<g >
</g>
<g >
</g>
<g >
</g>
<g >
</g>
<g >
</g>
<g >
</g>
<g >
</g>
<g >
</g>
<g >
</g>
<g >
</g>
<g >
</g>
<g >
</g>
<g >
</g>
<g >
</g>
<g >
</g>
<g >
</g>
<g >
</g>
<g >
</g>
<g >
</g>
<g >
</g>
<g >
</g>
<g >
</g>
<g >
</g>
<g >
</g>
<g >
</g>
<g >
</g>
<g >
</g>
<g >
</g>
<g >
</g>
</g> 
</svg>
