G04 #@! TF.GenerationSoftware,KiCad,Pcbnew,5.1.5-1.fc31*
G04 #@! TF.CreationDate,2020-09-16T10:50:50+01:00*
G04 #@! TF.ProjectId,winctl-1.0,77696e63-746c-42d3-912e-302e6b696361,1.0*
G04 #@! TF.SameCoordinates,Original*
G04 #@! TF.FileFunction,Legend,Top*
G04 #@! TF.FilePolarity,Positive*
%FSLAX46Y46*%
G04 Gerber Fmt 4.6, Leading zero omitted, Abs format (unit mm)*
G04 Created by KiCad (PCBNEW 5.1.5-1.fc31) date 2020-09-16 10:50:50*
%MOMM*%
%LPD*%
G04 APERTURE LIST*
%ADD10C,0.300000*%
%ADD11C,0.175000*%
%ADD12C,0.200000*%
%ADD13C,0.120000*%
%ADD14C,0.100000*%
%ADD15C,0.150000*%
G04 APERTURE END LIST*
D10*
X35480714Y-87804523D02*
X35695000Y-87899761D01*
X36052142Y-87899761D01*
X36195000Y-87804523D01*
X36266428Y-87709285D01*
X36337857Y-87518809D01*
X36337857Y-87328333D01*
X36266428Y-87137857D01*
X36195000Y-87042619D01*
X36052142Y-86947380D01*
X35766428Y-86852142D01*
X35623571Y-86756904D01*
X35552142Y-86661666D01*
X35480714Y-86471190D01*
X35480714Y-86280714D01*
X35552142Y-86090238D01*
X35623571Y-85995000D01*
X35766428Y-85899761D01*
X36123571Y-85899761D01*
X36337857Y-85995000D01*
X37552142Y-87804523D02*
X37409285Y-87899761D01*
X37123571Y-87899761D01*
X36980714Y-87804523D01*
X36909285Y-87614047D01*
X36909285Y-86852142D01*
X36980714Y-86661666D01*
X37123571Y-86566428D01*
X37409285Y-86566428D01*
X37552142Y-86661666D01*
X37623571Y-86852142D01*
X37623571Y-87042619D01*
X36909285Y-87233095D01*
X38266428Y-86566428D02*
X38266428Y-88566428D01*
X38266428Y-86661666D02*
X38409285Y-86566428D01*
X38695000Y-86566428D01*
X38837857Y-86661666D01*
X38909285Y-86756904D01*
X38980714Y-86947380D01*
X38980714Y-87518809D01*
X38909285Y-87709285D01*
X38837857Y-87804523D01*
X38695000Y-87899761D01*
X38409285Y-87899761D01*
X38266428Y-87804523D01*
X40695000Y-86090238D02*
X40766428Y-85995000D01*
X40909285Y-85899761D01*
X41266428Y-85899761D01*
X41409285Y-85995000D01*
X41480714Y-86090238D01*
X41552142Y-86280714D01*
X41552142Y-86471190D01*
X41480714Y-86756904D01*
X40623571Y-87899761D01*
X41552142Y-87899761D01*
X42480714Y-85899761D02*
X42623571Y-85899761D01*
X42766428Y-85995000D01*
X42837857Y-86090238D01*
X42909285Y-86280714D01*
X42980714Y-86661666D01*
X42980714Y-87137857D01*
X42909285Y-87518809D01*
X42837857Y-87709285D01*
X42766428Y-87804523D01*
X42623571Y-87899761D01*
X42480714Y-87899761D01*
X42337857Y-87804523D01*
X42266428Y-87709285D01*
X42195000Y-87518809D01*
X42123571Y-87137857D01*
X42123571Y-86661666D01*
X42195000Y-86280714D01*
X42266428Y-86090238D01*
X42337857Y-85995000D01*
X42480714Y-85899761D01*
X43552142Y-86090238D02*
X43623571Y-85995000D01*
X43766428Y-85899761D01*
X44123571Y-85899761D01*
X44266428Y-85995000D01*
X44337857Y-86090238D01*
X44409285Y-86280714D01*
X44409285Y-86471190D01*
X44337857Y-86756904D01*
X43480714Y-87899761D01*
X44409285Y-87899761D01*
X45337857Y-85899761D02*
X45480714Y-85899761D01*
X45623571Y-85995000D01*
X45695000Y-86090238D01*
X45766428Y-86280714D01*
X45837857Y-86661666D01*
X45837857Y-87137857D01*
X45766428Y-87518809D01*
X45695000Y-87709285D01*
X45623571Y-87804523D01*
X45480714Y-87899761D01*
X45337857Y-87899761D01*
X45195000Y-87804523D01*
X45123571Y-87709285D01*
X45052142Y-87518809D01*
X44980714Y-87137857D01*
X44980714Y-86661666D01*
X45052142Y-86280714D01*
X45123571Y-86090238D01*
X45195000Y-85995000D01*
X45337857Y-85899761D01*
D11*
X36692000Y-17879142D02*
X36792000Y-17950571D01*
X36958666Y-17950571D01*
X37025333Y-17879142D01*
X37058666Y-17807714D01*
X37092000Y-17664857D01*
X37092000Y-17522000D01*
X37058666Y-17379142D01*
X37025333Y-17307714D01*
X36958666Y-17236285D01*
X36825333Y-17164857D01*
X36758666Y-17093428D01*
X36725333Y-17022000D01*
X36692000Y-16879142D01*
X36692000Y-16736285D01*
X36725333Y-16593428D01*
X36758666Y-16522000D01*
X36825333Y-16450571D01*
X36992000Y-16450571D01*
X37092000Y-16522000D01*
X37792000Y-17807714D02*
X37758666Y-17879142D01*
X37658666Y-17950571D01*
X37592000Y-17950571D01*
X37492000Y-17879142D01*
X37425333Y-17736285D01*
X37392000Y-17593428D01*
X37358666Y-17307714D01*
X37358666Y-17093428D01*
X37392000Y-16807714D01*
X37425333Y-16664857D01*
X37492000Y-16522000D01*
X37592000Y-16450571D01*
X37658666Y-16450571D01*
X37758666Y-16522000D01*
X37792000Y-16593428D01*
X38492000Y-17950571D02*
X38258666Y-17236285D01*
X38092000Y-17950571D02*
X38092000Y-16450571D01*
X38358666Y-16450571D01*
X38425333Y-16522000D01*
X38458666Y-16593428D01*
X38492000Y-16736285D01*
X38492000Y-16950571D01*
X38458666Y-17093428D01*
X38425333Y-17164857D01*
X38358666Y-17236285D01*
X38092000Y-17236285D01*
D10*
X-17227857Y-87899761D02*
X-17227857Y-85899761D01*
X-16656428Y-85899761D01*
X-16513571Y-85995000D01*
X-16442142Y-86090238D01*
X-16370714Y-86280714D01*
X-16370714Y-86566428D01*
X-16442142Y-86756904D01*
X-16513571Y-86852142D01*
X-16656428Y-86947380D01*
X-17227857Y-86947380D01*
X-15727857Y-87899761D02*
X-15727857Y-85899761D01*
X-15370714Y-85899761D01*
X-15156428Y-85995000D01*
X-15013571Y-86185476D01*
X-14942142Y-86375952D01*
X-14870714Y-86756904D01*
X-14870714Y-87042619D01*
X-14942142Y-87423571D01*
X-15013571Y-87614047D01*
X-15156428Y-87804523D01*
X-15370714Y-87899761D01*
X-15727857Y-87899761D01*
X-13799285Y-85899761D02*
X-13799285Y-87328333D01*
X-13870714Y-87614047D01*
X-14013571Y-87804523D01*
X-14227857Y-87899761D01*
X-14370714Y-87899761D01*
X-12227857Y-87899761D02*
X-12727857Y-86947380D01*
X-13085000Y-87899761D02*
X-13085000Y-85899761D01*
X-12513571Y-85899761D01*
X-12370714Y-85995000D01*
X-12299285Y-86090238D01*
X-12227857Y-86280714D01*
X-12227857Y-86566428D01*
X-12299285Y-86756904D01*
X-12370714Y-86852142D01*
X-12513571Y-86947380D01*
X-13085000Y-86947380D01*
X-11585000Y-87709285D02*
X-11513571Y-87804523D01*
X-11585000Y-87899761D01*
X-11656428Y-87804523D01*
X-11585000Y-87709285D01*
X-11585000Y-87899761D01*
X-10870714Y-86852142D02*
X-10370714Y-86852142D01*
X-10156428Y-87899761D02*
X-10870714Y-87899761D01*
X-10870714Y-85899761D01*
X-10156428Y-85899761D01*
X-9513571Y-85899761D02*
X-9513571Y-87518809D01*
X-9442142Y-87709285D01*
X-9370714Y-87804523D01*
X-9227857Y-87899761D01*
X-8942142Y-87899761D01*
X-8799285Y-87804523D01*
X-8727857Y-87709285D01*
X-8656428Y-87518809D01*
X-8656428Y-85899761D01*
X35409285Y-82404761D02*
X35766428Y-84404761D01*
X36052142Y-82976190D01*
X36337857Y-84404761D01*
X36695000Y-82404761D01*
X37266428Y-84404761D02*
X37266428Y-82404761D01*
X37980714Y-84404761D02*
X37980714Y-82404761D01*
X38837857Y-84404761D01*
X38837857Y-82404761D01*
X40409285Y-84214285D02*
X40337857Y-84309523D01*
X40123571Y-84404761D01*
X39980714Y-84404761D01*
X39766428Y-84309523D01*
X39623571Y-84119047D01*
X39552142Y-83928571D01*
X39480714Y-83547619D01*
X39480714Y-83261904D01*
X39552142Y-82880952D01*
X39623571Y-82690476D01*
X39766428Y-82500000D01*
X39980714Y-82404761D01*
X40123571Y-82404761D01*
X40337857Y-82500000D01*
X40409285Y-82595238D01*
X40837857Y-82404761D02*
X41695000Y-82404761D01*
X41266428Y-84404761D02*
X41266428Y-82404761D01*
X42909285Y-84404761D02*
X42195000Y-84404761D01*
X42195000Y-82404761D01*
X45337857Y-84404761D02*
X44480714Y-84404761D01*
X44909285Y-84404761D02*
X44909285Y-82404761D01*
X44766428Y-82690476D01*
X44623571Y-82880952D01*
X44480714Y-82976190D01*
X45980714Y-84214285D02*
X46052142Y-84309523D01*
X45980714Y-84404761D01*
X45909285Y-84309523D01*
X45980714Y-84214285D01*
X45980714Y-84404761D01*
X46980714Y-82404761D02*
X47123571Y-82404761D01*
X47266428Y-82500000D01*
X47337857Y-82595238D01*
X47409285Y-82785714D01*
X47480714Y-83166666D01*
X47480714Y-83642857D01*
X47409285Y-84023809D01*
X47337857Y-84214285D01*
X47266428Y-84309523D01*
X47123571Y-84404761D01*
X46980714Y-84404761D01*
X46837857Y-84309523D01*
X46766428Y-84214285D01*
X46695000Y-84023809D01*
X46623571Y-83642857D01*
X46623571Y-83166666D01*
X46695000Y-82785714D01*
X46766428Y-82595238D01*
X46837857Y-82500000D01*
X46980714Y-82404761D01*
D12*
X6135714Y-88943571D02*
X5564285Y-88943571D01*
X5850000Y-88943571D02*
X5850000Y-87443571D01*
X5754761Y-87657857D01*
X5659523Y-87800714D01*
X5564285Y-87872142D01*
X6564285Y-88943571D02*
X6564285Y-87443571D01*
X6802380Y-87443571D01*
X6945238Y-87515000D01*
X7040476Y-87657857D01*
X7088095Y-87800714D01*
X7135714Y-88086428D01*
X7135714Y-88300714D01*
X7088095Y-88586428D01*
X7040476Y-88729285D01*
X6945238Y-88872142D01*
X6802380Y-88943571D01*
X6564285Y-88943571D01*
X3571904Y-88943571D02*
X3000476Y-88943571D01*
X3286190Y-88943571D02*
X3286190Y-87443571D01*
X3190952Y-87657857D01*
X3095714Y-87800714D01*
X3000476Y-87872142D01*
X4000476Y-87443571D02*
X4000476Y-88657857D01*
X4048095Y-88800714D01*
X4095714Y-88872142D01*
X4190952Y-88943571D01*
X4381428Y-88943571D01*
X4476666Y-88872142D01*
X4524285Y-88800714D01*
X4571904Y-88657857D01*
X4571904Y-87443571D01*
X722380Y-87443571D02*
X817619Y-87443571D01*
X912857Y-87515000D01*
X960476Y-87586428D01*
X1008095Y-87729285D01*
X1055714Y-88015000D01*
X1055714Y-88372142D01*
X1008095Y-88657857D01*
X960476Y-88800714D01*
X912857Y-88872142D01*
X817619Y-88943571D01*
X722380Y-88943571D01*
X627142Y-88872142D01*
X579523Y-88800714D01*
X531904Y-88657857D01*
X484285Y-88372142D01*
X484285Y-88015000D01*
X531904Y-87729285D01*
X579523Y-87586428D01*
X627142Y-87515000D01*
X722380Y-87443571D01*
X1484285Y-88943571D02*
X1484285Y-87443571D01*
X1722380Y-87443571D01*
X1865238Y-87515000D01*
X1960476Y-87657857D01*
X2008095Y-87800714D01*
X2055714Y-88086428D01*
X2055714Y-88300714D01*
X2008095Y-88586428D01*
X1960476Y-88729285D01*
X1865238Y-88872142D01*
X1722380Y-88943571D01*
X1484285Y-88943571D01*
X-1841428Y-87443571D02*
X-1746190Y-87443571D01*
X-1650952Y-87515000D01*
X-1603333Y-87586428D01*
X-1555714Y-87729285D01*
X-1508095Y-88015000D01*
X-1508095Y-88372142D01*
X-1555714Y-88657857D01*
X-1603333Y-88800714D01*
X-1650952Y-88872142D01*
X-1746190Y-88943571D01*
X-1841428Y-88943571D01*
X-1936666Y-88872142D01*
X-1984285Y-88800714D01*
X-2031904Y-88657857D01*
X-2079523Y-88372142D01*
X-2079523Y-88015000D01*
X-2031904Y-87729285D01*
X-1984285Y-87586428D01*
X-1936666Y-87515000D01*
X-1841428Y-87443571D01*
X-1079523Y-87443571D02*
X-1079523Y-88657857D01*
X-1031904Y-88800714D01*
X-984285Y-88872142D01*
X-889047Y-88943571D01*
X-698571Y-88943571D01*
X-603333Y-88872142D01*
X-555714Y-88800714D01*
X-508095Y-88657857D01*
X-508095Y-87443571D01*
X8128095Y-87515000D02*
X8032857Y-87443571D01*
X7889999Y-87443571D01*
X7747142Y-87515000D01*
X7651904Y-87657857D01*
X7604285Y-87800714D01*
X7556666Y-88086428D01*
X7556666Y-88300714D01*
X7604285Y-88586428D01*
X7651904Y-88729285D01*
X7747142Y-88872142D01*
X7889999Y-88943571D01*
X7985238Y-88943571D01*
X8128095Y-88872142D01*
X8175714Y-88800714D01*
X8175714Y-88300714D01*
X7985238Y-88300714D01*
X8604285Y-88943571D02*
X8604285Y-87443571D01*
X9175714Y-88943571D01*
X9175714Y-87443571D01*
X9651904Y-88943571D02*
X9651904Y-87443571D01*
X9890000Y-87443571D01*
X10032857Y-87515000D01*
X10128095Y-87657857D01*
X10175714Y-87800714D01*
X10223333Y-88086428D01*
X10223333Y-88300714D01*
X10175714Y-88586428D01*
X10128095Y-88729285D01*
X10032857Y-88872142D01*
X9890000Y-88943571D01*
X9651904Y-88943571D01*
X45246666Y-66488571D02*
X45056190Y-66488571D01*
X44960952Y-66560000D01*
X44913333Y-66631428D01*
X44818095Y-66845714D01*
X44770476Y-67131428D01*
X44770476Y-67702857D01*
X44818095Y-67845714D01*
X44865714Y-67917142D01*
X44960952Y-67988571D01*
X45151428Y-67988571D01*
X45246666Y-67917142D01*
X45294285Y-67845714D01*
X45341904Y-67702857D01*
X45341904Y-67345714D01*
X45294285Y-67202857D01*
X45246666Y-67131428D01*
X45151428Y-67060000D01*
X44960952Y-67060000D01*
X44865714Y-67131428D01*
X44818095Y-67202857D01*
X44770476Y-67345714D01*
X46199047Y-66988571D02*
X46199047Y-67988571D01*
X45960952Y-66417142D02*
X45722857Y-67488571D01*
X46341904Y-67488571D01*
X44722857Y-63948571D02*
X45341904Y-63948571D01*
X45008571Y-64520000D01*
X45151428Y-64520000D01*
X45246666Y-64591428D01*
X45294285Y-64662857D01*
X45341904Y-64805714D01*
X45341904Y-65162857D01*
X45294285Y-65305714D01*
X45246666Y-65377142D01*
X45151428Y-65448571D01*
X44865714Y-65448571D01*
X44770476Y-65377142D01*
X44722857Y-65305714D01*
X45722857Y-64091428D02*
X45770476Y-64020000D01*
X45865714Y-63948571D01*
X46103809Y-63948571D01*
X46199047Y-64020000D01*
X46246666Y-64091428D01*
X46294285Y-64234285D01*
X46294285Y-64377142D01*
X46246666Y-64591428D01*
X45675238Y-65448571D01*
X46294285Y-65448571D01*
X45341904Y-62908571D02*
X44770476Y-62908571D01*
X45056190Y-62908571D02*
X45056190Y-61408571D01*
X44960952Y-61622857D01*
X44865714Y-61765714D01*
X44770476Y-61837142D01*
X46199047Y-61408571D02*
X46008571Y-61408571D01*
X45913333Y-61480000D01*
X45865714Y-61551428D01*
X45770476Y-61765714D01*
X45722857Y-62051428D01*
X45722857Y-62622857D01*
X45770476Y-62765714D01*
X45818095Y-62837142D01*
X45913333Y-62908571D01*
X46103809Y-62908571D01*
X46199047Y-62837142D01*
X46246666Y-62765714D01*
X46294285Y-62622857D01*
X46294285Y-62265714D01*
X46246666Y-62122857D01*
X46199047Y-62051428D01*
X46103809Y-61980000D01*
X45913333Y-61980000D01*
X45818095Y-62051428D01*
X45770476Y-62122857D01*
X45722857Y-62265714D01*
X45595952Y-59511428D02*
X45500714Y-59440000D01*
X45453095Y-59368571D01*
X45405476Y-59225714D01*
X45405476Y-59154285D01*
X45453095Y-59011428D01*
X45500714Y-58940000D01*
X45595952Y-58868571D01*
X45786428Y-58868571D01*
X45881666Y-58940000D01*
X45929285Y-59011428D01*
X45976904Y-59154285D01*
X45976904Y-59225714D01*
X45929285Y-59368571D01*
X45881666Y-59440000D01*
X45786428Y-59511428D01*
X45595952Y-59511428D01*
X45500714Y-59582857D01*
X45453095Y-59654285D01*
X45405476Y-59797142D01*
X45405476Y-60082857D01*
X45453095Y-60225714D01*
X45500714Y-60297142D01*
X45595952Y-60368571D01*
X45786428Y-60368571D01*
X45881666Y-60297142D01*
X45929285Y-60225714D01*
X45976904Y-60082857D01*
X45976904Y-59797142D01*
X45929285Y-59654285D01*
X45881666Y-59582857D01*
X45786428Y-59511428D01*
X45881666Y-56828571D02*
X45881666Y-57828571D01*
X45643571Y-56257142D02*
X45405476Y-57328571D01*
X46024523Y-57328571D01*
X45405476Y-53931428D02*
X45453095Y-53860000D01*
X45548333Y-53788571D01*
X45786428Y-53788571D01*
X45881666Y-53860000D01*
X45929285Y-53931428D01*
X45976904Y-54074285D01*
X45976904Y-54217142D01*
X45929285Y-54431428D01*
X45357857Y-55288571D01*
X45976904Y-55288571D01*
X45976904Y-52748571D02*
X45405476Y-52748571D01*
X45691190Y-52748571D02*
X45691190Y-51248571D01*
X45595952Y-51462857D01*
X45500714Y-51605714D01*
X45405476Y-51677142D01*
X32821523Y-17950571D02*
X32345333Y-17950571D01*
X32345333Y-16450571D01*
X34766285Y-17950571D02*
X34766285Y-16450571D01*
X34766285Y-17164857D02*
X35337714Y-17164857D01*
X35337714Y-17950571D02*
X35337714Y-16450571D01*
X30281523Y-17680714D02*
X30233904Y-17752142D01*
X30091047Y-17823571D01*
X29995809Y-17823571D01*
X29852952Y-17752142D01*
X29757714Y-17609285D01*
X29710095Y-17466428D01*
X29662476Y-17180714D01*
X29662476Y-16966428D01*
X29710095Y-16680714D01*
X29757714Y-16537857D01*
X29852952Y-16395000D01*
X29995809Y-16323571D01*
X30091047Y-16323571D01*
X30233904Y-16395000D01*
X30281523Y-16466428D01*
X27146285Y-17752142D02*
X27289142Y-17823571D01*
X27527238Y-17823571D01*
X27622476Y-17752142D01*
X27670095Y-17680714D01*
X27717714Y-17537857D01*
X27717714Y-17395000D01*
X27670095Y-17252142D01*
X27622476Y-17180714D01*
X27527238Y-17109285D01*
X27336761Y-17037857D01*
X27241523Y-16966428D01*
X27193904Y-16895000D01*
X27146285Y-16752142D01*
X27146285Y-16609285D01*
X27193904Y-16466428D01*
X27241523Y-16395000D01*
X27336761Y-16323571D01*
X27574857Y-16323571D01*
X27717714Y-16395000D01*
X17708809Y-18323571D02*
X17708809Y-16180714D01*
X18946904Y-17823571D02*
X18375476Y-17823571D01*
X18661190Y-17823571D02*
X18661190Y-16323571D01*
X18565952Y-16537857D01*
X18470714Y-16680714D01*
X18375476Y-16752142D01*
X19375476Y-17823571D02*
X19375476Y-16323571D01*
X19613571Y-16323571D01*
X19756428Y-16395000D01*
X19851666Y-16537857D01*
X19899285Y-16680714D01*
X19946904Y-16966428D01*
X19946904Y-17180714D01*
X19899285Y-17466428D01*
X19851666Y-17609285D01*
X19756428Y-17752142D01*
X19613571Y-17823571D01*
X19375476Y-17823571D01*
X20375476Y-17823571D02*
X20375476Y-16323571D01*
X20946904Y-17823571D01*
X20946904Y-16323571D01*
X21661190Y-18323571D02*
X21661190Y-16180714D01*
X12628809Y-18323571D02*
X12628809Y-16180714D01*
X13866904Y-17823571D02*
X13295476Y-17823571D01*
X13581190Y-17823571D02*
X13581190Y-16323571D01*
X13485952Y-16537857D01*
X13390714Y-16680714D01*
X13295476Y-16752142D01*
X14295476Y-16323571D02*
X14295476Y-17537857D01*
X14343095Y-17680714D01*
X14390714Y-17752142D01*
X14485952Y-17823571D01*
X14676428Y-17823571D01*
X14771666Y-17752142D01*
X14819285Y-17680714D01*
X14866904Y-17537857D01*
X14866904Y-16323571D01*
X15343095Y-17823571D02*
X15343095Y-16323571D01*
X15724047Y-16323571D01*
X15819285Y-16395000D01*
X15866904Y-16466428D01*
X15914523Y-16609285D01*
X15914523Y-16823571D01*
X15866904Y-16966428D01*
X15819285Y-17037857D01*
X15724047Y-17109285D01*
X15343095Y-17109285D01*
X16581190Y-18323571D02*
X16581190Y-16180714D01*
X7548809Y-18323571D02*
X7548809Y-16180714D01*
X8453571Y-16323571D02*
X8548809Y-16323571D01*
X8644047Y-16395000D01*
X8691666Y-16466428D01*
X8739285Y-16609285D01*
X8786904Y-16895000D01*
X8786904Y-17252142D01*
X8739285Y-17537857D01*
X8691666Y-17680714D01*
X8644047Y-17752142D01*
X8548809Y-17823571D01*
X8453571Y-17823571D01*
X8358333Y-17752142D01*
X8310714Y-17680714D01*
X8263095Y-17537857D01*
X8215476Y-17252142D01*
X8215476Y-16895000D01*
X8263095Y-16609285D01*
X8310714Y-16466428D01*
X8358333Y-16395000D01*
X8453571Y-16323571D01*
X9215476Y-17823571D02*
X9215476Y-16323571D01*
X9453571Y-16323571D01*
X9596428Y-16395000D01*
X9691666Y-16537857D01*
X9739285Y-16680714D01*
X9786904Y-16966428D01*
X9786904Y-17180714D01*
X9739285Y-17466428D01*
X9691666Y-17609285D01*
X9596428Y-17752142D01*
X9453571Y-17823571D01*
X9215476Y-17823571D01*
X10215476Y-17823571D02*
X10215476Y-16323571D01*
X10786904Y-17823571D01*
X10786904Y-16323571D01*
X11501190Y-18323571D02*
X11501190Y-16180714D01*
X2468809Y-18323571D02*
X2468809Y-16180714D01*
X3373571Y-16323571D02*
X3468809Y-16323571D01*
X3564047Y-16395000D01*
X3611666Y-16466428D01*
X3659285Y-16609285D01*
X3706904Y-16895000D01*
X3706904Y-17252142D01*
X3659285Y-17537857D01*
X3611666Y-17680714D01*
X3564047Y-17752142D01*
X3468809Y-17823571D01*
X3373571Y-17823571D01*
X3278333Y-17752142D01*
X3230714Y-17680714D01*
X3183095Y-17537857D01*
X3135476Y-17252142D01*
X3135476Y-16895000D01*
X3183095Y-16609285D01*
X3230714Y-16466428D01*
X3278333Y-16395000D01*
X3373571Y-16323571D01*
X4135476Y-16323571D02*
X4135476Y-17537857D01*
X4183095Y-17680714D01*
X4230714Y-17752142D01*
X4325952Y-17823571D01*
X4516428Y-17823571D01*
X4611666Y-17752142D01*
X4659285Y-17680714D01*
X4706904Y-17537857D01*
X4706904Y-16323571D01*
X5183095Y-17823571D02*
X5183095Y-16323571D01*
X5564047Y-16323571D01*
X5659285Y-16395000D01*
X5706904Y-16466428D01*
X5754523Y-16609285D01*
X5754523Y-16823571D01*
X5706904Y-16966428D01*
X5659285Y-17037857D01*
X5564047Y-17109285D01*
X5183095Y-17109285D01*
X6421190Y-18323571D02*
X6421190Y-16180714D01*
X-2682619Y-18323571D02*
X-2682619Y-16180714D01*
X-1968333Y-17823571D02*
X-1968333Y-16323571D01*
X-1587380Y-16323571D01*
X-1492142Y-16395000D01*
X-1444523Y-16466428D01*
X-1396904Y-16609285D01*
X-1396904Y-16823571D01*
X-1444523Y-16966428D01*
X-1492142Y-17037857D01*
X-1587380Y-17109285D01*
X-1968333Y-17109285D01*
X-1063571Y-16323571D02*
X-825476Y-17823571D01*
X-635000Y-16752142D01*
X-444523Y-17823571D01*
X-206428Y-16323571D01*
X745952Y-17823571D02*
X412619Y-17109285D01*
X174523Y-17823571D02*
X174523Y-16323571D01*
X555476Y-16323571D01*
X650714Y-16395000D01*
X698333Y-16466428D01*
X745952Y-16609285D01*
X745952Y-16823571D01*
X698333Y-16966428D01*
X650714Y-17037857D01*
X555476Y-17109285D01*
X174523Y-17109285D01*
X1412619Y-18323571D02*
X1412619Y-16180714D01*
D13*
X13910000Y-30420000D02*
X15240000Y-30420000D01*
X13910000Y-31750000D02*
X13910000Y-30420000D01*
X13910000Y-33020000D02*
X16570000Y-33020000D01*
X16570000Y-33020000D02*
X16570000Y-35620000D01*
X13910000Y-33020000D02*
X13910000Y-35620000D01*
X13910000Y-35620000D02*
X16570000Y-35620000D01*
X25505000Y-25625000D02*
X26005000Y-25625000D01*
X25505000Y-24885000D02*
X25505000Y-25625000D01*
X39025000Y-19065000D02*
X39025000Y-25385000D01*
X25745000Y-19065000D02*
X25745000Y-25385000D01*
X25745000Y-25385000D02*
X39025000Y-25385000D01*
X25745000Y-19065000D02*
X39025000Y-19065000D01*
X25745000Y-19525000D02*
X39025000Y-19525000D01*
X25745000Y-24825000D02*
X39025000Y-24825000D01*
X-11490000Y-52010000D02*
X-10160000Y-52010000D01*
X-11490000Y-53340000D02*
X-11490000Y-52010000D01*
X-11490000Y-54610000D02*
X-8830000Y-54610000D01*
X-8830000Y-54610000D02*
X-8830000Y-57210000D01*
X-11490000Y-54610000D02*
X-11490000Y-57210000D01*
X-11490000Y-57210000D02*
X-8830000Y-57210000D01*
X-60000Y-52010000D02*
X1270000Y-52010000D01*
X-60000Y-53340000D02*
X-60000Y-52010000D01*
X-60000Y-54610000D02*
X2600000Y-54610000D01*
X2600000Y-54610000D02*
X2600000Y-57210000D01*
X-60000Y-54610000D02*
X-60000Y-57210000D01*
X-60000Y-57210000D02*
X2600000Y-57210000D01*
X-5775000Y-52010000D02*
X-4445000Y-52010000D01*
X-5775000Y-53340000D02*
X-5775000Y-52010000D01*
X-5775000Y-54610000D02*
X-3115000Y-54610000D01*
X-3115000Y-54610000D02*
X-3115000Y-57210000D01*
X-5775000Y-54610000D02*
X-5775000Y-57210000D01*
X-5775000Y-57210000D02*
X-3115000Y-57210000D01*
X5655000Y-52010000D02*
X6985000Y-52010000D01*
X5655000Y-53340000D02*
X5655000Y-52010000D01*
X5655000Y-54610000D02*
X8315000Y-54610000D01*
X8315000Y-54610000D02*
X8315000Y-57210000D01*
X5655000Y-54610000D02*
X5655000Y-57210000D01*
X5655000Y-57210000D02*
X8315000Y-57210000D01*
X19670000Y-37115000D02*
X23510000Y-37115000D01*
X19670000Y-35275000D02*
X23510000Y-35275000D01*
X43875000Y-50680000D02*
X33595000Y-50680000D01*
X43875000Y-68700000D02*
X43875000Y-50680000D01*
X33595000Y-68700000D02*
X43875000Y-68700000D01*
X33595000Y-50680000D02*
X33595000Y-68700000D01*
X41385000Y-50740000D02*
X39735000Y-50740000D01*
X41385000Y-68640000D02*
X41385000Y-50740000D01*
X36085000Y-68640000D02*
X41385000Y-68640000D01*
X36085000Y-50740000D02*
X36085000Y-68640000D01*
X37735000Y-50740000D02*
X36085000Y-50740000D01*
X39735000Y-50740000D02*
G75*
G02X37735000Y-50740000I-1000000J0D01*
G01*
X11430000Y-76143629D02*
X11430000Y-76030000D01*
X12756371Y-77470000D02*
G75*
G03X12756371Y-77470000I-1326371J0D01*
G01*
X4485000Y-30640000D02*
X6985000Y-30640000D01*
X4485000Y-50640000D02*
X4485000Y-30640000D01*
X9485000Y-50640000D02*
X4485000Y-50640000D01*
X9485000Y-30640000D02*
X9485000Y-50640000D01*
X6985000Y-30640000D02*
X9485000Y-30640000D01*
X8485000Y-34290000D02*
X5485000Y-34290000D01*
X5485000Y-31920000D02*
X8485000Y-31920000D01*
X5485000Y-49360000D02*
X5485000Y-31920000D01*
X8485000Y-49360000D02*
X5485000Y-49360000D01*
X8485000Y-31920000D02*
X8485000Y-49360000D01*
X-1230000Y-30640000D02*
X1270000Y-30640000D01*
X-1230000Y-50640000D02*
X-1230000Y-30640000D01*
X3770000Y-50640000D02*
X-1230000Y-50640000D01*
X3770000Y-30640000D02*
X3770000Y-50640000D01*
X1270000Y-30640000D02*
X3770000Y-30640000D01*
X2770000Y-34290000D02*
X-230000Y-34290000D01*
X-230000Y-31920000D02*
X2770000Y-31920000D01*
X-230000Y-49360000D02*
X-230000Y-31920000D01*
X2770000Y-49360000D02*
X-230000Y-49360000D01*
X2770000Y-31920000D02*
X2770000Y-49360000D01*
X-6945000Y-30640000D02*
X-4445000Y-30640000D01*
X-6945000Y-50640000D02*
X-6945000Y-30640000D01*
X-1945000Y-50640000D02*
X-6945000Y-50640000D01*
X-1945000Y-30640000D02*
X-1945000Y-50640000D01*
X-4445000Y-30640000D02*
X-1945000Y-30640000D01*
X-2945000Y-34290000D02*
X-5945000Y-34290000D01*
X-5945000Y-31920000D02*
X-2945000Y-31920000D01*
X-5945000Y-49360000D02*
X-5945000Y-31920000D01*
X-2945000Y-49360000D02*
X-5945000Y-49360000D01*
X-2945000Y-31920000D02*
X-2945000Y-49360000D01*
X-12660000Y-30640000D02*
X-10160000Y-30640000D01*
X-12660000Y-50640000D02*
X-12660000Y-30640000D01*
X-7660000Y-50640000D02*
X-12660000Y-50640000D01*
X-7660000Y-30640000D02*
X-7660000Y-50640000D01*
X-10160000Y-30640000D02*
X-7660000Y-30640000D01*
X-8660000Y-34290000D02*
X-11660000Y-34290000D01*
X-11660000Y-31920000D02*
X-8660000Y-31920000D01*
X-11660000Y-49360000D02*
X-11660000Y-31920000D01*
X-8660000Y-49360000D02*
X-11660000Y-49360000D01*
X-8660000Y-31920000D02*
X-8660000Y-49360000D01*
X-18375000Y-30640000D02*
X-15875000Y-30640000D01*
X-18375000Y-50640000D02*
X-18375000Y-30640000D01*
X-13375000Y-50640000D02*
X-18375000Y-50640000D01*
X-13375000Y-30640000D02*
X-13375000Y-50640000D01*
X-15875000Y-30640000D02*
X-13375000Y-30640000D01*
X-14375000Y-34290000D02*
X-17375000Y-34290000D01*
X-17375000Y-31920000D02*
X-14375000Y-31920000D01*
X-17375000Y-49360000D02*
X-17375000Y-31920000D01*
X-14375000Y-49360000D02*
X-17375000Y-49360000D01*
X-14375000Y-31920000D02*
X-14375000Y-49360000D01*
D14*
G36*
X26416000Y-63754000D02*
G01*
X26162000Y-64008000D01*
X25908000Y-63627000D01*
X26162000Y-63373000D01*
X26416000Y-63754000D01*
G37*
X26416000Y-63754000D02*
X26162000Y-64008000D01*
X25908000Y-63627000D01*
X26162000Y-63373000D01*
X26416000Y-63754000D01*
G36*
X27178000Y-64770000D02*
G01*
X26924000Y-65024000D01*
X26670000Y-64643000D01*
X26924000Y-64389000D01*
X27178000Y-64770000D01*
G37*
X27178000Y-64770000D02*
X26924000Y-65024000D01*
X26670000Y-64643000D01*
X26924000Y-64389000D01*
X27178000Y-64770000D01*
G36*
X27940000Y-64008000D02*
G01*
X27686000Y-64262000D01*
X27432000Y-63881000D01*
X27686000Y-63627000D01*
X27940000Y-64008000D01*
G37*
X27940000Y-64008000D02*
X27686000Y-64262000D01*
X27432000Y-63881000D01*
X27686000Y-63627000D01*
X27940000Y-64008000D01*
G36*
X26035000Y-64135000D02*
G01*
X25781000Y-64389000D01*
X25527000Y-64008000D01*
X25781000Y-63754000D01*
X26035000Y-64135000D01*
G37*
X26035000Y-64135000D02*
X25781000Y-64389000D01*
X25527000Y-64008000D01*
X25781000Y-63754000D01*
X26035000Y-64135000D01*
G36*
X27559000Y-64389000D02*
G01*
X27305000Y-64643000D01*
X27051000Y-64262000D01*
X27305000Y-64008000D01*
X27559000Y-64389000D01*
G37*
X27559000Y-64389000D02*
X27305000Y-64643000D01*
X27051000Y-64262000D01*
X27305000Y-64008000D01*
X27559000Y-64389000D01*
G36*
X25654000Y-63627000D02*
G01*
X25400000Y-63881000D01*
X25146000Y-63500000D01*
X25400000Y-63246000D01*
X25654000Y-63627000D01*
G37*
X25654000Y-63627000D02*
X25400000Y-63881000D01*
X25146000Y-63500000D01*
X25400000Y-63246000D01*
X25654000Y-63627000D01*
G36*
X26797000Y-64262000D02*
G01*
X26543000Y-64516000D01*
X26289000Y-64135000D01*
X26543000Y-63881000D01*
X26797000Y-64262000D01*
G37*
X26797000Y-64262000D02*
X26543000Y-64516000D01*
X26289000Y-64135000D01*
X26543000Y-63881000D01*
X26797000Y-64262000D01*
G36*
X26416000Y-64643000D02*
G01*
X26162000Y-64897000D01*
X25908000Y-64516000D01*
X26162000Y-64262000D01*
X26416000Y-64643000D01*
G37*
X26416000Y-64643000D02*
X26162000Y-64897000D01*
X25908000Y-64516000D01*
X26162000Y-64262000D01*
X26416000Y-64643000D01*
D15*
X32385000Y-86360000D02*
X14605000Y-86360000D01*
X32385000Y-50800000D02*
X32385000Y-86360000D01*
X14605000Y-50800000D02*
X32385000Y-50800000D01*
X14605000Y-86360000D02*
X14605000Y-50800000D01*
X28575000Y-59690000D02*
X28575000Y-68580000D01*
X18415000Y-59690000D02*
X18415000Y-68580000D01*
X18415000Y-68580000D02*
X28575000Y-68580000D01*
X28575000Y-59690000D02*
X18415000Y-59690000D01*
X20955000Y-55880000D02*
X20955000Y-53340000D01*
X26035000Y-55880000D02*
X20955000Y-55880000D01*
X26035000Y-53340000D02*
X26035000Y-55880000D01*
X20955000Y-53340000D02*
X26035000Y-53340000D01*
X26035000Y-80010000D02*
X28575000Y-80010000D01*
X26035000Y-77470000D02*
X26035000Y-80010000D01*
X28575000Y-77470000D02*
X26035000Y-77470000D01*
X28575000Y-80010000D02*
X28575000Y-77470000D01*
X27305000Y-81280000D02*
X27305000Y-86360000D01*
X19685000Y-81280000D02*
X19685000Y-86360000D01*
X27305000Y-81280000D02*
X19685000Y-81280000D01*
X26035000Y-74930000D02*
X28575000Y-74930000D01*
X26035000Y-71120000D02*
X26035000Y-74930000D01*
X28575000Y-71120000D02*
X26035000Y-71120000D01*
X28575000Y-74930000D02*
X28575000Y-71120000D01*
X19685000Y-87630000D02*
X19685000Y-86360000D01*
X27305000Y-87630000D02*
X19685000Y-87630000D01*
X27305000Y-86360000D02*
X27305000Y-87630000D01*
D13*
X52000000Y-28615000D02*
X50000000Y-28615000D01*
X54320000Y-28995000D02*
X54320000Y-51035000D01*
X54320000Y-51035000D02*
X44880000Y-51035000D01*
X44880000Y-51035000D02*
X44880000Y-28995000D01*
X44880000Y-28995000D02*
X54320000Y-28995000D01*
X47340000Y-64755000D02*
X47340000Y-68595000D01*
X49180000Y-64755000D02*
X49180000Y-68595000D01*
X47340000Y-55865000D02*
X47340000Y-59705000D01*
X49180000Y-55865000D02*
X49180000Y-59705000D01*
X50990000Y-60035000D02*
X50834000Y-60035000D01*
X53306000Y-60035000D02*
X53150000Y-60035000D01*
X50990163Y-62636130D02*
G75*
G02X50990000Y-60554039I1079837J1041130D01*
G01*
X53149837Y-62636130D02*
G75*
G03X53150000Y-60554039I-1079837J1041130D01*
G01*
X50991392Y-63267335D02*
G75*
G02X50834484Y-60035000I1078608J1672335D01*
G01*
X53148608Y-63267335D02*
G75*
G03X53305516Y-60035000I-1078608J1672335D01*
G01*
X50990000Y-53685000D02*
X50834000Y-53685000D01*
X53306000Y-53685000D02*
X53150000Y-53685000D01*
X50990163Y-56286130D02*
G75*
G02X50990000Y-54204039I1079837J1041130D01*
G01*
X53149837Y-56286130D02*
G75*
G03X53150000Y-54204039I-1079837J1041130D01*
G01*
X50991392Y-56917335D02*
G75*
G02X50834484Y-53685000I1078608J1672335D01*
G01*
X53148608Y-56917335D02*
G75*
G03X53305516Y-53685000I-1078608J1672335D01*
G01*
X51150000Y-73010000D02*
X51150000Y-76850000D01*
X52990000Y-73010000D02*
X52990000Y-76850000D01*
X50990000Y-66385000D02*
X50834000Y-66385000D01*
X53306000Y-66385000D02*
X53150000Y-66385000D01*
X50990163Y-68986130D02*
G75*
G02X50990000Y-66904039I1079837J1041130D01*
G01*
X53149837Y-68986130D02*
G75*
G03X53150000Y-66904039I-1079837J1041130D01*
G01*
X50991392Y-69617335D02*
G75*
G02X50834484Y-66385000I1078608J1672335D01*
G01*
X53148608Y-69617335D02*
G75*
G03X53305516Y-66385000I-1078608J1672335D01*
G01*
X-3705000Y-25625000D02*
X-3205000Y-25625000D01*
X-3705000Y-24885000D02*
X-3705000Y-25625000D01*
X22515000Y-19065000D02*
X22515000Y-25385000D01*
X-3465000Y-19065000D02*
X-3465000Y-25385000D01*
X-3465000Y-25385000D02*
X22515000Y-25385000D01*
X-3465000Y-19065000D02*
X22515000Y-19065000D01*
X-3465000Y-19525000D02*
X22515000Y-19525000D01*
X-3465000Y-24825000D02*
X22515000Y-24825000D01*
X28465000Y-37525000D02*
X30115000Y-37525000D01*
X28465000Y-27245000D02*
X28465000Y-37525000D01*
X33765000Y-27245000D02*
X28465000Y-27245000D01*
X33765000Y-37525000D02*
X33765000Y-27245000D01*
X32115000Y-37525000D02*
X33765000Y-37525000D01*
X30115000Y-37525000D02*
G75*
G02X32115000Y-37525000I1000000J0D01*
G01*
X-14665000Y-64440000D02*
X-14665000Y-65690000D01*
X5775000Y-64440000D02*
X-14665000Y-64440000D01*
X5775000Y-68940000D02*
X5775000Y-64440000D01*
X-14665000Y-68940000D02*
X5775000Y-68940000D01*
X-14665000Y-67690000D02*
X-14665000Y-68940000D01*
X-14665000Y-65690000D02*
G75*
G02X-14665000Y-67690000I0J-1000000D01*
G01*
X40735000Y-42545000D02*
G75*
G03X40735000Y-42545000I-2000000J0D01*
G01*
X43815000Y-46355000D02*
X43815000Y-38735000D01*
X33655000Y-46355000D02*
X43815000Y-46355000D01*
X33655000Y-46355000D02*
X33655000Y-38735000D01*
X43815000Y-38735000D02*
X33655000Y-38735000D01*
X29305000Y-42545000D02*
G75*
G03X29305000Y-42545000I-2000000J0D01*
G01*
X32385000Y-46355000D02*
X32385000Y-38735000D01*
X22225000Y-46355000D02*
X32385000Y-46355000D01*
X22225000Y-46355000D02*
X22225000Y-38735000D01*
X32385000Y-38735000D02*
X22225000Y-38735000D01*
X19670000Y-32035000D02*
X23510000Y-32035000D01*
X19670000Y-30195000D02*
X23510000Y-30195000D01*
X23510000Y-32735000D02*
X19670000Y-32735000D01*
X23510000Y-34575000D02*
X19670000Y-34575000D01*
X8255000Y-76100000D02*
X8255000Y-76030000D01*
X9625000Y-77470000D02*
G75*
G03X9625000Y-77470000I-1370000J0D01*
G01*
X5080000Y-76100000D02*
X5080000Y-76030000D01*
X6450000Y-77470000D02*
G75*
G03X6450000Y-77470000I-1370000J0D01*
G01*
X1905000Y-76100000D02*
X1905000Y-76030000D01*
X3275000Y-77470000D02*
G75*
G03X3275000Y-77470000I-1370000J0D01*
G01*
X-1270000Y-76100000D02*
X-1270000Y-76030000D01*
X100000Y-77470000D02*
G75*
G03X100000Y-77470000I-1370000J0D01*
G01*
X-3070000Y-86585000D02*
X-2570000Y-86585000D01*
X-3070000Y-85845000D02*
X-3070000Y-86585000D01*
X10450000Y-80025000D02*
X10450000Y-86345000D01*
X-2830000Y-80025000D02*
X-2830000Y-86345000D01*
X-2830000Y-86345000D02*
X10450000Y-86345000D01*
X-2830000Y-80025000D02*
X10450000Y-80025000D01*
X-2830000Y-80485000D02*
X10450000Y-80485000D01*
X-2830000Y-85785000D02*
X10450000Y-85785000D01*
X49315000Y-24690000D02*
X49315000Y-15950000D01*
X49315000Y-24690000D02*
X53555000Y-24690000D01*
X53555000Y-15950000D02*
X49315000Y-15950000D01*
X53555000Y-15950000D02*
X53555000Y-24690000D01*
X16725000Y-37695225D02*
X16225000Y-37695225D01*
X16475000Y-37445225D02*
X16475000Y-37945225D01*
X15284000Y-42851000D02*
X14716000Y-42851000D01*
X15518000Y-42811000D02*
X14482000Y-42811000D01*
X15677000Y-42771000D02*
X14323000Y-42771000D01*
X15805000Y-42731000D02*
X14195000Y-42731000D01*
X15915000Y-42691000D02*
X14085000Y-42691000D01*
X16011000Y-42651000D02*
X13989000Y-42651000D01*
X16098000Y-42611000D02*
X13902000Y-42611000D01*
X16178000Y-42571000D02*
X13822000Y-42571000D01*
X13960000Y-42531000D02*
X13749000Y-42531000D01*
X16251000Y-42531000D02*
X16040000Y-42531000D01*
X13960000Y-42491000D02*
X13681000Y-42491000D01*
X16319000Y-42491000D02*
X16040000Y-42491000D01*
X13960000Y-42451000D02*
X13617000Y-42451000D01*
X16383000Y-42451000D02*
X16040000Y-42451000D01*
X13960000Y-42411000D02*
X13557000Y-42411000D01*
X16443000Y-42411000D02*
X16040000Y-42411000D01*
X13960000Y-42371000D02*
X13500000Y-42371000D01*
X16500000Y-42371000D02*
X16040000Y-42371000D01*
X13960000Y-42331000D02*
X13446000Y-42331000D01*
X16554000Y-42331000D02*
X16040000Y-42331000D01*
X13960000Y-42291000D02*
X13395000Y-42291000D01*
X16605000Y-42291000D02*
X16040000Y-42291000D01*
X13960000Y-42251000D02*
X13347000Y-42251000D01*
X16653000Y-42251000D02*
X16040000Y-42251000D01*
X13960000Y-42211000D02*
X13301000Y-42211000D01*
X16699000Y-42211000D02*
X16040000Y-42211000D01*
X13960000Y-42171000D02*
X13257000Y-42171000D01*
X16743000Y-42171000D02*
X16040000Y-42171000D01*
X13960000Y-42131000D02*
X13215000Y-42131000D01*
X16785000Y-42131000D02*
X16040000Y-42131000D01*
X13960000Y-42091000D02*
X13174000Y-42091000D01*
X16826000Y-42091000D02*
X16040000Y-42091000D01*
X13960000Y-42051000D02*
X13136000Y-42051000D01*
X16864000Y-42051000D02*
X16040000Y-42051000D01*
X13960000Y-42011000D02*
X13099000Y-42011000D01*
X16901000Y-42011000D02*
X16040000Y-42011000D01*
X13960000Y-41971000D02*
X13063000Y-41971000D01*
X16937000Y-41971000D02*
X16040000Y-41971000D01*
X13960000Y-41931000D02*
X13029000Y-41931000D01*
X16971000Y-41931000D02*
X16040000Y-41931000D01*
X13960000Y-41891000D02*
X12996000Y-41891000D01*
X17004000Y-41891000D02*
X16040000Y-41891000D01*
X13960000Y-41851000D02*
X12965000Y-41851000D01*
X17035000Y-41851000D02*
X16040000Y-41851000D01*
X13960000Y-41811000D02*
X12935000Y-41811000D01*
X17065000Y-41811000D02*
X16040000Y-41811000D01*
X13960000Y-41771000D02*
X12905000Y-41771000D01*
X17095000Y-41771000D02*
X16040000Y-41771000D01*
X13960000Y-41731000D02*
X12878000Y-41731000D01*
X17122000Y-41731000D02*
X16040000Y-41731000D01*
X13960000Y-41691000D02*
X12851000Y-41691000D01*
X17149000Y-41691000D02*
X16040000Y-41691000D01*
X13960000Y-41651000D02*
X12825000Y-41651000D01*
X17175000Y-41651000D02*
X16040000Y-41651000D01*
X13960000Y-41611000D02*
X12800000Y-41611000D01*
X17200000Y-41611000D02*
X16040000Y-41611000D01*
X13960000Y-41571000D02*
X12776000Y-41571000D01*
X17224000Y-41571000D02*
X16040000Y-41571000D01*
X13960000Y-41531000D02*
X12753000Y-41531000D01*
X17247000Y-41531000D02*
X16040000Y-41531000D01*
X13960000Y-41491000D02*
X12732000Y-41491000D01*
X17268000Y-41491000D02*
X16040000Y-41491000D01*
X13960000Y-41451000D02*
X12710000Y-41451000D01*
X17290000Y-41451000D02*
X16040000Y-41451000D01*
X13960000Y-41411000D02*
X12690000Y-41411000D01*
X17310000Y-41411000D02*
X16040000Y-41411000D01*
X13960000Y-41371000D02*
X12671000Y-41371000D01*
X17329000Y-41371000D02*
X16040000Y-41371000D01*
X13960000Y-41331000D02*
X12652000Y-41331000D01*
X17348000Y-41331000D02*
X16040000Y-41331000D01*
X13960000Y-41291000D02*
X12635000Y-41291000D01*
X17365000Y-41291000D02*
X16040000Y-41291000D01*
X13960000Y-41251000D02*
X12618000Y-41251000D01*
X17382000Y-41251000D02*
X16040000Y-41251000D01*
X13960000Y-41211000D02*
X12602000Y-41211000D01*
X17398000Y-41211000D02*
X16040000Y-41211000D01*
X13960000Y-41171000D02*
X12586000Y-41171000D01*
X17414000Y-41171000D02*
X16040000Y-41171000D01*
X13960000Y-41131000D02*
X12572000Y-41131000D01*
X17428000Y-41131000D02*
X16040000Y-41131000D01*
X13960000Y-41091000D02*
X12558000Y-41091000D01*
X17442000Y-41091000D02*
X16040000Y-41091000D01*
X13960000Y-41051000D02*
X12545000Y-41051000D01*
X17455000Y-41051000D02*
X16040000Y-41051000D01*
X13960000Y-41011000D02*
X12532000Y-41011000D01*
X17468000Y-41011000D02*
X16040000Y-41011000D01*
X13960000Y-40971000D02*
X12520000Y-40971000D01*
X17480000Y-40971000D02*
X16040000Y-40971000D01*
X13960000Y-40930000D02*
X12509000Y-40930000D01*
X17491000Y-40930000D02*
X16040000Y-40930000D01*
X13960000Y-40890000D02*
X12499000Y-40890000D01*
X17501000Y-40890000D02*
X16040000Y-40890000D01*
X13960000Y-40850000D02*
X12489000Y-40850000D01*
X17511000Y-40850000D02*
X16040000Y-40850000D01*
X13960000Y-40810000D02*
X12480000Y-40810000D01*
X17520000Y-40810000D02*
X16040000Y-40810000D01*
X13960000Y-40770000D02*
X12472000Y-40770000D01*
X17528000Y-40770000D02*
X16040000Y-40770000D01*
X13960000Y-40730000D02*
X12464000Y-40730000D01*
X17536000Y-40730000D02*
X16040000Y-40730000D01*
X13960000Y-40690000D02*
X12457000Y-40690000D01*
X17543000Y-40690000D02*
X16040000Y-40690000D01*
X13960000Y-40650000D02*
X12450000Y-40650000D01*
X17550000Y-40650000D02*
X16040000Y-40650000D01*
X13960000Y-40610000D02*
X12444000Y-40610000D01*
X17556000Y-40610000D02*
X16040000Y-40610000D01*
X13960000Y-40570000D02*
X12439000Y-40570000D01*
X17561000Y-40570000D02*
X16040000Y-40570000D01*
X13960000Y-40530000D02*
X12435000Y-40530000D01*
X17565000Y-40530000D02*
X16040000Y-40530000D01*
X13960000Y-40490000D02*
X12431000Y-40490000D01*
X17569000Y-40490000D02*
X16040000Y-40490000D01*
X17573000Y-40450000D02*
X12427000Y-40450000D01*
X17576000Y-40410000D02*
X12424000Y-40410000D01*
X17578000Y-40370000D02*
X12422000Y-40370000D01*
X17579000Y-40330000D02*
X12421000Y-40330000D01*
X17580000Y-40290000D02*
X12420000Y-40290000D01*
X17580000Y-40250000D02*
X12420000Y-40250000D01*
X17620000Y-40250000D02*
G75*
G03X17620000Y-40250000I-2620000J0D01*
G01*
X16725000Y-43780225D02*
X16225000Y-43780225D01*
X16475000Y-43530225D02*
X16475000Y-44030225D01*
X15284000Y-48936000D02*
X14716000Y-48936000D01*
X15518000Y-48896000D02*
X14482000Y-48896000D01*
X15677000Y-48856000D02*
X14323000Y-48856000D01*
X15805000Y-48816000D02*
X14195000Y-48816000D01*
X15915000Y-48776000D02*
X14085000Y-48776000D01*
X16011000Y-48736000D02*
X13989000Y-48736000D01*
X16098000Y-48696000D02*
X13902000Y-48696000D01*
X16178000Y-48656000D02*
X13822000Y-48656000D01*
X13960000Y-48616000D02*
X13749000Y-48616000D01*
X16251000Y-48616000D02*
X16040000Y-48616000D01*
X13960000Y-48576000D02*
X13681000Y-48576000D01*
X16319000Y-48576000D02*
X16040000Y-48576000D01*
X13960000Y-48536000D02*
X13617000Y-48536000D01*
X16383000Y-48536000D02*
X16040000Y-48536000D01*
X13960000Y-48496000D02*
X13557000Y-48496000D01*
X16443000Y-48496000D02*
X16040000Y-48496000D01*
X13960000Y-48456000D02*
X13500000Y-48456000D01*
X16500000Y-48456000D02*
X16040000Y-48456000D01*
X13960000Y-48416000D02*
X13446000Y-48416000D01*
X16554000Y-48416000D02*
X16040000Y-48416000D01*
X13960000Y-48376000D02*
X13395000Y-48376000D01*
X16605000Y-48376000D02*
X16040000Y-48376000D01*
X13960000Y-48336000D02*
X13347000Y-48336000D01*
X16653000Y-48336000D02*
X16040000Y-48336000D01*
X13960000Y-48296000D02*
X13301000Y-48296000D01*
X16699000Y-48296000D02*
X16040000Y-48296000D01*
X13960000Y-48256000D02*
X13257000Y-48256000D01*
X16743000Y-48256000D02*
X16040000Y-48256000D01*
X13960000Y-48216000D02*
X13215000Y-48216000D01*
X16785000Y-48216000D02*
X16040000Y-48216000D01*
X13960000Y-48176000D02*
X13174000Y-48176000D01*
X16826000Y-48176000D02*
X16040000Y-48176000D01*
X13960000Y-48136000D02*
X13136000Y-48136000D01*
X16864000Y-48136000D02*
X16040000Y-48136000D01*
X13960000Y-48096000D02*
X13099000Y-48096000D01*
X16901000Y-48096000D02*
X16040000Y-48096000D01*
X13960000Y-48056000D02*
X13063000Y-48056000D01*
X16937000Y-48056000D02*
X16040000Y-48056000D01*
X13960000Y-48016000D02*
X13029000Y-48016000D01*
X16971000Y-48016000D02*
X16040000Y-48016000D01*
X13960000Y-47976000D02*
X12996000Y-47976000D01*
X17004000Y-47976000D02*
X16040000Y-47976000D01*
X13960000Y-47936000D02*
X12965000Y-47936000D01*
X17035000Y-47936000D02*
X16040000Y-47936000D01*
X13960000Y-47896000D02*
X12935000Y-47896000D01*
X17065000Y-47896000D02*
X16040000Y-47896000D01*
X13960000Y-47856000D02*
X12905000Y-47856000D01*
X17095000Y-47856000D02*
X16040000Y-47856000D01*
X13960000Y-47816000D02*
X12878000Y-47816000D01*
X17122000Y-47816000D02*
X16040000Y-47816000D01*
X13960000Y-47776000D02*
X12851000Y-47776000D01*
X17149000Y-47776000D02*
X16040000Y-47776000D01*
X13960000Y-47736000D02*
X12825000Y-47736000D01*
X17175000Y-47736000D02*
X16040000Y-47736000D01*
X13960000Y-47696000D02*
X12800000Y-47696000D01*
X17200000Y-47696000D02*
X16040000Y-47696000D01*
X13960000Y-47656000D02*
X12776000Y-47656000D01*
X17224000Y-47656000D02*
X16040000Y-47656000D01*
X13960000Y-47616000D02*
X12753000Y-47616000D01*
X17247000Y-47616000D02*
X16040000Y-47616000D01*
X13960000Y-47576000D02*
X12732000Y-47576000D01*
X17268000Y-47576000D02*
X16040000Y-47576000D01*
X13960000Y-47536000D02*
X12710000Y-47536000D01*
X17290000Y-47536000D02*
X16040000Y-47536000D01*
X13960000Y-47496000D02*
X12690000Y-47496000D01*
X17310000Y-47496000D02*
X16040000Y-47496000D01*
X13960000Y-47456000D02*
X12671000Y-47456000D01*
X17329000Y-47456000D02*
X16040000Y-47456000D01*
X13960000Y-47416000D02*
X12652000Y-47416000D01*
X17348000Y-47416000D02*
X16040000Y-47416000D01*
X13960000Y-47376000D02*
X12635000Y-47376000D01*
X17365000Y-47376000D02*
X16040000Y-47376000D01*
X13960000Y-47336000D02*
X12618000Y-47336000D01*
X17382000Y-47336000D02*
X16040000Y-47336000D01*
X13960000Y-47296000D02*
X12602000Y-47296000D01*
X17398000Y-47296000D02*
X16040000Y-47296000D01*
X13960000Y-47256000D02*
X12586000Y-47256000D01*
X17414000Y-47256000D02*
X16040000Y-47256000D01*
X13960000Y-47216000D02*
X12572000Y-47216000D01*
X17428000Y-47216000D02*
X16040000Y-47216000D01*
X13960000Y-47176000D02*
X12558000Y-47176000D01*
X17442000Y-47176000D02*
X16040000Y-47176000D01*
X13960000Y-47136000D02*
X12545000Y-47136000D01*
X17455000Y-47136000D02*
X16040000Y-47136000D01*
X13960000Y-47096000D02*
X12532000Y-47096000D01*
X17468000Y-47096000D02*
X16040000Y-47096000D01*
X13960000Y-47056000D02*
X12520000Y-47056000D01*
X17480000Y-47056000D02*
X16040000Y-47056000D01*
X13960000Y-47015000D02*
X12509000Y-47015000D01*
X17491000Y-47015000D02*
X16040000Y-47015000D01*
X13960000Y-46975000D02*
X12499000Y-46975000D01*
X17501000Y-46975000D02*
X16040000Y-46975000D01*
X13960000Y-46935000D02*
X12489000Y-46935000D01*
X17511000Y-46935000D02*
X16040000Y-46935000D01*
X13960000Y-46895000D02*
X12480000Y-46895000D01*
X17520000Y-46895000D02*
X16040000Y-46895000D01*
X13960000Y-46855000D02*
X12472000Y-46855000D01*
X17528000Y-46855000D02*
X16040000Y-46855000D01*
X13960000Y-46815000D02*
X12464000Y-46815000D01*
X17536000Y-46815000D02*
X16040000Y-46815000D01*
X13960000Y-46775000D02*
X12457000Y-46775000D01*
X17543000Y-46775000D02*
X16040000Y-46775000D01*
X13960000Y-46735000D02*
X12450000Y-46735000D01*
X17550000Y-46735000D02*
X16040000Y-46735000D01*
X13960000Y-46695000D02*
X12444000Y-46695000D01*
X17556000Y-46695000D02*
X16040000Y-46695000D01*
X13960000Y-46655000D02*
X12439000Y-46655000D01*
X17561000Y-46655000D02*
X16040000Y-46655000D01*
X13960000Y-46615000D02*
X12435000Y-46615000D01*
X17565000Y-46615000D02*
X16040000Y-46615000D01*
X13960000Y-46575000D02*
X12431000Y-46575000D01*
X17569000Y-46575000D02*
X16040000Y-46575000D01*
X17573000Y-46535000D02*
X12427000Y-46535000D01*
X17576000Y-46495000D02*
X12424000Y-46495000D01*
X17578000Y-46455000D02*
X12422000Y-46455000D01*
X17579000Y-46415000D02*
X12421000Y-46415000D01*
X17580000Y-46375000D02*
X12420000Y-46375000D01*
X17580000Y-46335000D02*
X12420000Y-46335000D01*
X17620000Y-46335000D02*
G75*
G03X17620000Y-46335000I-2620000J0D01*
G01*
X41730000Y-31715225D02*
X41230000Y-31715225D01*
X41480000Y-31465225D02*
X41480000Y-31965225D01*
X40289000Y-36871000D02*
X39721000Y-36871000D01*
X40523000Y-36831000D02*
X39487000Y-36831000D01*
X40682000Y-36791000D02*
X39328000Y-36791000D01*
X40810000Y-36751000D02*
X39200000Y-36751000D01*
X40920000Y-36711000D02*
X39090000Y-36711000D01*
X41016000Y-36671000D02*
X38994000Y-36671000D01*
X41103000Y-36631000D02*
X38907000Y-36631000D01*
X41183000Y-36591000D02*
X38827000Y-36591000D01*
X38965000Y-36551000D02*
X38754000Y-36551000D01*
X41256000Y-36551000D02*
X41045000Y-36551000D01*
X38965000Y-36511000D02*
X38686000Y-36511000D01*
X41324000Y-36511000D02*
X41045000Y-36511000D01*
X38965000Y-36471000D02*
X38622000Y-36471000D01*
X41388000Y-36471000D02*
X41045000Y-36471000D01*
X38965000Y-36431000D02*
X38562000Y-36431000D01*
X41448000Y-36431000D02*
X41045000Y-36431000D01*
X38965000Y-36391000D02*
X38505000Y-36391000D01*
X41505000Y-36391000D02*
X41045000Y-36391000D01*
X38965000Y-36351000D02*
X38451000Y-36351000D01*
X41559000Y-36351000D02*
X41045000Y-36351000D01*
X38965000Y-36311000D02*
X38400000Y-36311000D01*
X41610000Y-36311000D02*
X41045000Y-36311000D01*
X38965000Y-36271000D02*
X38352000Y-36271000D01*
X41658000Y-36271000D02*
X41045000Y-36271000D01*
X38965000Y-36231000D02*
X38306000Y-36231000D01*
X41704000Y-36231000D02*
X41045000Y-36231000D01*
X38965000Y-36191000D02*
X38262000Y-36191000D01*
X41748000Y-36191000D02*
X41045000Y-36191000D01*
X38965000Y-36151000D02*
X38220000Y-36151000D01*
X41790000Y-36151000D02*
X41045000Y-36151000D01*
X38965000Y-36111000D02*
X38179000Y-36111000D01*
X41831000Y-36111000D02*
X41045000Y-36111000D01*
X38965000Y-36071000D02*
X38141000Y-36071000D01*
X41869000Y-36071000D02*
X41045000Y-36071000D01*
X38965000Y-36031000D02*
X38104000Y-36031000D01*
X41906000Y-36031000D02*
X41045000Y-36031000D01*
X38965000Y-35991000D02*
X38068000Y-35991000D01*
X41942000Y-35991000D02*
X41045000Y-35991000D01*
X38965000Y-35951000D02*
X38034000Y-35951000D01*
X41976000Y-35951000D02*
X41045000Y-35951000D01*
X38965000Y-35911000D02*
X38001000Y-35911000D01*
X42009000Y-35911000D02*
X41045000Y-35911000D01*
X38965000Y-35871000D02*
X37970000Y-35871000D01*
X42040000Y-35871000D02*
X41045000Y-35871000D01*
X38965000Y-35831000D02*
X37940000Y-35831000D01*
X42070000Y-35831000D02*
X41045000Y-35831000D01*
X38965000Y-35791000D02*
X37910000Y-35791000D01*
X42100000Y-35791000D02*
X41045000Y-35791000D01*
X38965000Y-35751000D02*
X37883000Y-35751000D01*
X42127000Y-35751000D02*
X41045000Y-35751000D01*
X38965000Y-35711000D02*
X37856000Y-35711000D01*
X42154000Y-35711000D02*
X41045000Y-35711000D01*
X38965000Y-35671000D02*
X37830000Y-35671000D01*
X42180000Y-35671000D02*
X41045000Y-35671000D01*
X38965000Y-35631000D02*
X37805000Y-35631000D01*
X42205000Y-35631000D02*
X41045000Y-35631000D01*
X38965000Y-35591000D02*
X37781000Y-35591000D01*
X42229000Y-35591000D02*
X41045000Y-35591000D01*
X38965000Y-35551000D02*
X37758000Y-35551000D01*
X42252000Y-35551000D02*
X41045000Y-35551000D01*
X38965000Y-35511000D02*
X37737000Y-35511000D01*
X42273000Y-35511000D02*
X41045000Y-35511000D01*
X38965000Y-35471000D02*
X37715000Y-35471000D01*
X42295000Y-35471000D02*
X41045000Y-35471000D01*
X38965000Y-35431000D02*
X37695000Y-35431000D01*
X42315000Y-35431000D02*
X41045000Y-35431000D01*
X38965000Y-35391000D02*
X37676000Y-35391000D01*
X42334000Y-35391000D02*
X41045000Y-35391000D01*
X38965000Y-35351000D02*
X37657000Y-35351000D01*
X42353000Y-35351000D02*
X41045000Y-35351000D01*
X38965000Y-35311000D02*
X37640000Y-35311000D01*
X42370000Y-35311000D02*
X41045000Y-35311000D01*
X38965000Y-35271000D02*
X37623000Y-35271000D01*
X42387000Y-35271000D02*
X41045000Y-35271000D01*
X38965000Y-35231000D02*
X37607000Y-35231000D01*
X42403000Y-35231000D02*
X41045000Y-35231000D01*
X38965000Y-35191000D02*
X37591000Y-35191000D01*
X42419000Y-35191000D02*
X41045000Y-35191000D01*
X38965000Y-35151000D02*
X37577000Y-35151000D01*
X42433000Y-35151000D02*
X41045000Y-35151000D01*
X38965000Y-35111000D02*
X37563000Y-35111000D01*
X42447000Y-35111000D02*
X41045000Y-35111000D01*
X38965000Y-35071000D02*
X37550000Y-35071000D01*
X42460000Y-35071000D02*
X41045000Y-35071000D01*
X38965000Y-35031000D02*
X37537000Y-35031000D01*
X42473000Y-35031000D02*
X41045000Y-35031000D01*
X38965000Y-34991000D02*
X37525000Y-34991000D01*
X42485000Y-34991000D02*
X41045000Y-34991000D01*
X38965000Y-34950000D02*
X37514000Y-34950000D01*
X42496000Y-34950000D02*
X41045000Y-34950000D01*
X38965000Y-34910000D02*
X37504000Y-34910000D01*
X42506000Y-34910000D02*
X41045000Y-34910000D01*
X38965000Y-34870000D02*
X37494000Y-34870000D01*
X42516000Y-34870000D02*
X41045000Y-34870000D01*
X38965000Y-34830000D02*
X37485000Y-34830000D01*
X42525000Y-34830000D02*
X41045000Y-34830000D01*
X38965000Y-34790000D02*
X37477000Y-34790000D01*
X42533000Y-34790000D02*
X41045000Y-34790000D01*
X38965000Y-34750000D02*
X37469000Y-34750000D01*
X42541000Y-34750000D02*
X41045000Y-34750000D01*
X38965000Y-34710000D02*
X37462000Y-34710000D01*
X42548000Y-34710000D02*
X41045000Y-34710000D01*
X38965000Y-34670000D02*
X37455000Y-34670000D01*
X42555000Y-34670000D02*
X41045000Y-34670000D01*
X38965000Y-34630000D02*
X37449000Y-34630000D01*
X42561000Y-34630000D02*
X41045000Y-34630000D01*
X38965000Y-34590000D02*
X37444000Y-34590000D01*
X42566000Y-34590000D02*
X41045000Y-34590000D01*
X38965000Y-34550000D02*
X37440000Y-34550000D01*
X42570000Y-34550000D02*
X41045000Y-34550000D01*
X38965000Y-34510000D02*
X37436000Y-34510000D01*
X42574000Y-34510000D02*
X41045000Y-34510000D01*
X42578000Y-34470000D02*
X37432000Y-34470000D01*
X42581000Y-34430000D02*
X37429000Y-34430000D01*
X42583000Y-34390000D02*
X37427000Y-34390000D01*
X42584000Y-34350000D02*
X37426000Y-34350000D01*
X42585000Y-34310000D02*
X37425000Y-34310000D01*
X42585000Y-34270000D02*
X37425000Y-34270000D01*
X42625000Y-34270000D02*
G75*
G03X42625000Y-34270000I-2620000J0D01*
G01*
X11464775Y-70940000D02*
X11464775Y-70440000D01*
X11714775Y-70690000D02*
X11214775Y-70690000D01*
X6309000Y-69499000D02*
X6309000Y-68931000D01*
X6349000Y-69733000D02*
X6349000Y-68697000D01*
X6389000Y-69892000D02*
X6389000Y-68538000D01*
X6429000Y-70020000D02*
X6429000Y-68410000D01*
X6469000Y-70130000D02*
X6469000Y-68300000D01*
X6509000Y-70226000D02*
X6509000Y-68204000D01*
X6549000Y-70313000D02*
X6549000Y-68117000D01*
X6589000Y-70393000D02*
X6589000Y-68037000D01*
X6629000Y-68175000D02*
X6629000Y-67964000D01*
X6629000Y-70466000D02*
X6629000Y-70255000D01*
X6669000Y-68175000D02*
X6669000Y-67896000D01*
X6669000Y-70534000D02*
X6669000Y-70255000D01*
X6709000Y-68175000D02*
X6709000Y-67832000D01*
X6709000Y-70598000D02*
X6709000Y-70255000D01*
X6749000Y-68175000D02*
X6749000Y-67772000D01*
X6749000Y-70658000D02*
X6749000Y-70255000D01*
X6789000Y-68175000D02*
X6789000Y-67715000D01*
X6789000Y-70715000D02*
X6789000Y-70255000D01*
X6829000Y-68175000D02*
X6829000Y-67661000D01*
X6829000Y-70769000D02*
X6829000Y-70255000D01*
X6869000Y-68175000D02*
X6869000Y-67610000D01*
X6869000Y-70820000D02*
X6869000Y-70255000D01*
X6909000Y-68175000D02*
X6909000Y-67562000D01*
X6909000Y-70868000D02*
X6909000Y-70255000D01*
X6949000Y-68175000D02*
X6949000Y-67516000D01*
X6949000Y-70914000D02*
X6949000Y-70255000D01*
X6989000Y-68175000D02*
X6989000Y-67472000D01*
X6989000Y-70958000D02*
X6989000Y-70255000D01*
X7029000Y-68175000D02*
X7029000Y-67430000D01*
X7029000Y-71000000D02*
X7029000Y-70255000D01*
X7069000Y-68175000D02*
X7069000Y-67389000D01*
X7069000Y-71041000D02*
X7069000Y-70255000D01*
X7109000Y-68175000D02*
X7109000Y-67351000D01*
X7109000Y-71079000D02*
X7109000Y-70255000D01*
X7149000Y-68175000D02*
X7149000Y-67314000D01*
X7149000Y-71116000D02*
X7149000Y-70255000D01*
X7189000Y-68175000D02*
X7189000Y-67278000D01*
X7189000Y-71152000D02*
X7189000Y-70255000D01*
X7229000Y-68175000D02*
X7229000Y-67244000D01*
X7229000Y-71186000D02*
X7229000Y-70255000D01*
X7269000Y-68175000D02*
X7269000Y-67211000D01*
X7269000Y-71219000D02*
X7269000Y-70255000D01*
X7309000Y-68175000D02*
X7309000Y-67180000D01*
X7309000Y-71250000D02*
X7309000Y-70255000D01*
X7349000Y-68175000D02*
X7349000Y-67150000D01*
X7349000Y-71280000D02*
X7349000Y-70255000D01*
X7389000Y-68175000D02*
X7389000Y-67120000D01*
X7389000Y-71310000D02*
X7389000Y-70255000D01*
X7429000Y-68175000D02*
X7429000Y-67093000D01*
X7429000Y-71337000D02*
X7429000Y-70255000D01*
X7469000Y-68175000D02*
X7469000Y-67066000D01*
X7469000Y-71364000D02*
X7469000Y-70255000D01*
X7509000Y-68175000D02*
X7509000Y-67040000D01*
X7509000Y-71390000D02*
X7509000Y-70255000D01*
X7549000Y-68175000D02*
X7549000Y-67015000D01*
X7549000Y-71415000D02*
X7549000Y-70255000D01*
X7589000Y-68175000D02*
X7589000Y-66991000D01*
X7589000Y-71439000D02*
X7589000Y-70255000D01*
X7629000Y-68175000D02*
X7629000Y-66968000D01*
X7629000Y-71462000D02*
X7629000Y-70255000D01*
X7669000Y-68175000D02*
X7669000Y-66947000D01*
X7669000Y-71483000D02*
X7669000Y-70255000D01*
X7709000Y-68175000D02*
X7709000Y-66925000D01*
X7709000Y-71505000D02*
X7709000Y-70255000D01*
X7749000Y-68175000D02*
X7749000Y-66905000D01*
X7749000Y-71525000D02*
X7749000Y-70255000D01*
X7789000Y-68175000D02*
X7789000Y-66886000D01*
X7789000Y-71544000D02*
X7789000Y-70255000D01*
X7829000Y-68175000D02*
X7829000Y-66867000D01*
X7829000Y-71563000D02*
X7829000Y-70255000D01*
X7869000Y-68175000D02*
X7869000Y-66850000D01*
X7869000Y-71580000D02*
X7869000Y-70255000D01*
X7909000Y-68175000D02*
X7909000Y-66833000D01*
X7909000Y-71597000D02*
X7909000Y-70255000D01*
X7949000Y-68175000D02*
X7949000Y-66817000D01*
X7949000Y-71613000D02*
X7949000Y-70255000D01*
X7989000Y-68175000D02*
X7989000Y-66801000D01*
X7989000Y-71629000D02*
X7989000Y-70255000D01*
X8029000Y-68175000D02*
X8029000Y-66787000D01*
X8029000Y-71643000D02*
X8029000Y-70255000D01*
X8069000Y-68175000D02*
X8069000Y-66773000D01*
X8069000Y-71657000D02*
X8069000Y-70255000D01*
X8109000Y-68175000D02*
X8109000Y-66760000D01*
X8109000Y-71670000D02*
X8109000Y-70255000D01*
X8149000Y-68175000D02*
X8149000Y-66747000D01*
X8149000Y-71683000D02*
X8149000Y-70255000D01*
X8189000Y-68175000D02*
X8189000Y-66735000D01*
X8189000Y-71695000D02*
X8189000Y-70255000D01*
X8230000Y-68175000D02*
X8230000Y-66724000D01*
X8230000Y-71706000D02*
X8230000Y-70255000D01*
X8270000Y-68175000D02*
X8270000Y-66714000D01*
X8270000Y-71716000D02*
X8270000Y-70255000D01*
X8310000Y-68175000D02*
X8310000Y-66704000D01*
X8310000Y-71726000D02*
X8310000Y-70255000D01*
X8350000Y-68175000D02*
X8350000Y-66695000D01*
X8350000Y-71735000D02*
X8350000Y-70255000D01*
X8390000Y-68175000D02*
X8390000Y-66687000D01*
X8390000Y-71743000D02*
X8390000Y-70255000D01*
X8430000Y-68175000D02*
X8430000Y-66679000D01*
X8430000Y-71751000D02*
X8430000Y-70255000D01*
X8470000Y-68175000D02*
X8470000Y-66672000D01*
X8470000Y-71758000D02*
X8470000Y-70255000D01*
X8510000Y-68175000D02*
X8510000Y-66665000D01*
X8510000Y-71765000D02*
X8510000Y-70255000D01*
X8550000Y-68175000D02*
X8550000Y-66659000D01*
X8550000Y-71771000D02*
X8550000Y-70255000D01*
X8590000Y-68175000D02*
X8590000Y-66654000D01*
X8590000Y-71776000D02*
X8590000Y-70255000D01*
X8630000Y-68175000D02*
X8630000Y-66650000D01*
X8630000Y-71780000D02*
X8630000Y-70255000D01*
X8670000Y-68175000D02*
X8670000Y-66646000D01*
X8670000Y-71784000D02*
X8670000Y-70255000D01*
X8710000Y-71788000D02*
X8710000Y-66642000D01*
X8750000Y-71791000D02*
X8750000Y-66639000D01*
X8790000Y-71793000D02*
X8790000Y-66637000D01*
X8830000Y-71794000D02*
X8830000Y-66636000D01*
X8870000Y-71795000D02*
X8870000Y-66635000D01*
X8910000Y-71795000D02*
X8910000Y-66635000D01*
X11530000Y-69215000D02*
G75*
G03X11530000Y-69215000I-2620000J0D01*
G01*
D15*
X12152380Y-33853333D02*
X12866666Y-33853333D01*
X13009523Y-33900952D01*
X13104761Y-33996190D01*
X13152380Y-34139047D01*
X13152380Y-34234285D01*
X13152380Y-33377142D02*
X12152380Y-33377142D01*
X12152380Y-32996190D01*
X12200000Y-32900952D01*
X12247619Y-32853333D01*
X12342857Y-32805714D01*
X12485714Y-32805714D01*
X12580952Y-32853333D01*
X12628571Y-32900952D01*
X12676190Y-32996190D01*
X12676190Y-33377142D01*
X12152380Y-31900952D02*
X12152380Y-32377142D01*
X12628571Y-32424761D01*
X12580952Y-32377142D01*
X12533333Y-32281904D01*
X12533333Y-32043809D01*
X12580952Y-31948571D01*
X12628571Y-31900952D01*
X12723809Y-31853333D01*
X12961904Y-31853333D01*
X13057142Y-31900952D01*
X13104761Y-31948571D01*
X13152380Y-32043809D01*
X13152380Y-32281904D01*
X13104761Y-32377142D01*
X13057142Y-32424761D01*
D12*
X13954285Y-28749523D02*
X14097142Y-28844761D01*
X14335238Y-28844761D01*
X14430476Y-28749523D01*
X14478095Y-28654285D01*
X14525714Y-28463809D01*
X14525714Y-28273333D01*
X14478095Y-28082857D01*
X14430476Y-27987619D01*
X14335238Y-27892380D01*
X14144761Y-27797142D01*
X14049523Y-27701904D01*
X14001904Y-27606666D01*
X13954285Y-27416190D01*
X13954285Y-27225714D01*
X14001904Y-27035238D01*
X14049523Y-26940000D01*
X14144761Y-26844761D01*
X14382857Y-26844761D01*
X14525714Y-26940000D01*
X15525714Y-28654285D02*
X15478095Y-28749523D01*
X15335238Y-28844761D01*
X15240000Y-28844761D01*
X15097142Y-28749523D01*
X15001904Y-28559047D01*
X14954285Y-28368571D01*
X14906666Y-27987619D01*
X14906666Y-27701904D01*
X14954285Y-27320952D01*
X15001904Y-27130476D01*
X15097142Y-26940000D01*
X15240000Y-26844761D01*
X15335238Y-26844761D01*
X15478095Y-26940000D01*
X15525714Y-27035238D01*
X16525714Y-28844761D02*
X16192380Y-27892380D01*
X15954285Y-28844761D02*
X15954285Y-26844761D01*
X16335238Y-26844761D01*
X16430476Y-26940000D01*
X16478095Y-27035238D01*
X16525714Y-27225714D01*
X16525714Y-27511428D01*
X16478095Y-27701904D01*
X16430476Y-27797142D01*
X16335238Y-27892380D01*
X15954285Y-27892380D01*
D15*
X32051666Y-19772380D02*
X32051666Y-20486666D01*
X32004047Y-20629523D01*
X31908809Y-20724761D01*
X31765952Y-20772380D01*
X31670714Y-20772380D01*
X32432619Y-19772380D02*
X33051666Y-19772380D01*
X32718333Y-20153333D01*
X32861190Y-20153333D01*
X32956428Y-20200952D01*
X33004047Y-20248571D01*
X33051666Y-20343809D01*
X33051666Y-20581904D01*
X33004047Y-20677142D01*
X32956428Y-20724761D01*
X32861190Y-20772380D01*
X32575476Y-20772380D01*
X32480238Y-20724761D01*
X32432619Y-20677142D01*
X-13247619Y-55443333D02*
X-12533333Y-55443333D01*
X-12390476Y-55490952D01*
X-12295238Y-55586190D01*
X-12247619Y-55729047D01*
X-12247619Y-55824285D01*
X-12247619Y-54967142D02*
X-13247619Y-54967142D01*
X-13247619Y-54586190D01*
X-13200000Y-54490952D01*
X-13152380Y-54443333D01*
X-13057142Y-54395714D01*
X-12914285Y-54395714D01*
X-12819047Y-54443333D01*
X-12771428Y-54490952D01*
X-12723809Y-54586190D01*
X-12723809Y-54967142D01*
X-12247619Y-53443333D02*
X-12247619Y-54014761D01*
X-12247619Y-53729047D02*
X-13247619Y-53729047D01*
X-13104761Y-53824285D01*
X-13009523Y-53919523D01*
X-12961904Y-54014761D01*
D12*
X-11540952Y-58376428D02*
X-11493333Y-58305000D01*
X-11398095Y-58233571D01*
X-11160000Y-58233571D01*
X-11064761Y-58305000D01*
X-11017142Y-58376428D01*
X-10969523Y-58519285D01*
X-10969523Y-58662142D01*
X-11017142Y-58876428D01*
X-11588571Y-59733571D01*
X-10969523Y-59733571D01*
X-10540952Y-59162142D02*
X-9779047Y-59162142D01*
X-8874285Y-58733571D02*
X-8874285Y-59733571D01*
X-9112380Y-58162142D02*
X-9350476Y-59233571D01*
X-8731428Y-59233571D01*
D15*
X-1817619Y-55443333D02*
X-1103333Y-55443333D01*
X-960476Y-55490952D01*
X-865238Y-55586190D01*
X-817619Y-55729047D01*
X-817619Y-55824285D01*
X-817619Y-54967142D02*
X-1817619Y-54967142D01*
X-1817619Y-54586190D01*
X-1770000Y-54490952D01*
X-1722380Y-54443333D01*
X-1627142Y-54395714D01*
X-1484285Y-54395714D01*
X-1389047Y-54443333D01*
X-1341428Y-54490952D01*
X-1293809Y-54586190D01*
X-1293809Y-54967142D01*
X-1817619Y-54062380D02*
X-1817619Y-53443333D01*
X-1436666Y-53776666D01*
X-1436666Y-53633809D01*
X-1389047Y-53538571D01*
X-1341428Y-53490952D01*
X-1246190Y-53443333D01*
X-1008095Y-53443333D01*
X-912857Y-53490952D01*
X-865238Y-53538571D01*
X-817619Y-53633809D01*
X-817619Y-53919523D01*
X-865238Y-54014761D01*
X-912857Y-54062380D01*
D12*
X-110952Y-58376428D02*
X-63333Y-58305000D01*
X31904Y-58233571D01*
X269999Y-58233571D01*
X365238Y-58305000D01*
X412857Y-58376428D01*
X460476Y-58519285D01*
X460476Y-58662142D01*
X412857Y-58876428D01*
X-158571Y-59733571D01*
X460476Y-59733571D01*
X889047Y-59162142D02*
X1650952Y-59162142D01*
X2270000Y-58876428D02*
X2174761Y-58805000D01*
X2127142Y-58733571D01*
X2079523Y-58590714D01*
X2079523Y-58519285D01*
X2127142Y-58376428D01*
X2174761Y-58305000D01*
X2270000Y-58233571D01*
X2460476Y-58233571D01*
X2555714Y-58305000D01*
X2603333Y-58376428D01*
X2650952Y-58519285D01*
X2650952Y-58590714D01*
X2603333Y-58733571D01*
X2555714Y-58805000D01*
X2460476Y-58876428D01*
X2270000Y-58876428D01*
X2174761Y-58947857D01*
X2127142Y-59019285D01*
X2079523Y-59162142D01*
X2079523Y-59447857D01*
X2127142Y-59590714D01*
X2174761Y-59662142D01*
X2270000Y-59733571D01*
X2460476Y-59733571D01*
X2555714Y-59662142D01*
X2603333Y-59590714D01*
X2650952Y-59447857D01*
X2650952Y-59162142D01*
X2603333Y-59019285D01*
X2555714Y-58947857D01*
X2460476Y-58876428D01*
D15*
X-7532619Y-55443333D02*
X-6818333Y-55443333D01*
X-6675476Y-55490952D01*
X-6580238Y-55586190D01*
X-6532619Y-55729047D01*
X-6532619Y-55824285D01*
X-6532619Y-54967142D02*
X-7532619Y-54967142D01*
X-7532619Y-54586190D01*
X-7485000Y-54490952D01*
X-7437380Y-54443333D01*
X-7342142Y-54395714D01*
X-7199285Y-54395714D01*
X-7104047Y-54443333D01*
X-7056428Y-54490952D01*
X-7008809Y-54586190D01*
X-7008809Y-54967142D01*
X-7437380Y-54014761D02*
X-7485000Y-53967142D01*
X-7532619Y-53871904D01*
X-7532619Y-53633809D01*
X-7485000Y-53538571D01*
X-7437380Y-53490952D01*
X-7342142Y-53443333D01*
X-7246904Y-53443333D01*
X-7104047Y-53490952D01*
X-6532619Y-54062380D01*
X-6532619Y-53443333D01*
D12*
X-5825952Y-58376428D02*
X-5778333Y-58305000D01*
X-5683095Y-58233571D01*
X-5445000Y-58233571D01*
X-5349761Y-58305000D01*
X-5302142Y-58376428D01*
X-5254523Y-58519285D01*
X-5254523Y-58662142D01*
X-5302142Y-58876428D01*
X-5873571Y-59733571D01*
X-5254523Y-59733571D01*
X-4825952Y-59162142D02*
X-4064047Y-59162142D01*
X-3159285Y-58233571D02*
X-3349761Y-58233571D01*
X-3445000Y-58305000D01*
X-3492619Y-58376428D01*
X-3587857Y-58590714D01*
X-3635476Y-58876428D01*
X-3635476Y-59447857D01*
X-3587857Y-59590714D01*
X-3540238Y-59662142D01*
X-3445000Y-59733571D01*
X-3254523Y-59733571D01*
X-3159285Y-59662142D01*
X-3111666Y-59590714D01*
X-3064047Y-59447857D01*
X-3064047Y-59090714D01*
X-3111666Y-58947857D01*
X-3159285Y-58876428D01*
X-3254523Y-58805000D01*
X-3445000Y-58805000D01*
X-3540238Y-58876428D01*
X-3587857Y-58947857D01*
X-3635476Y-59090714D01*
D15*
X3897380Y-55443333D02*
X4611666Y-55443333D01*
X4754523Y-55490952D01*
X4849761Y-55586190D01*
X4897380Y-55729047D01*
X4897380Y-55824285D01*
X4897380Y-54967142D02*
X3897380Y-54967142D01*
X3897380Y-54586190D01*
X3945000Y-54490952D01*
X3992619Y-54443333D01*
X4087857Y-54395714D01*
X4230714Y-54395714D01*
X4325952Y-54443333D01*
X4373571Y-54490952D01*
X4421190Y-54586190D01*
X4421190Y-54967142D01*
X4230714Y-53538571D02*
X4897380Y-53538571D01*
X3849761Y-53776666D02*
X4564047Y-54014761D01*
X4564047Y-53395714D01*
D12*
X5127857Y-58376428D02*
X5175476Y-58305000D01*
X5270714Y-58233571D01*
X5508809Y-58233571D01*
X5604047Y-58305000D01*
X5651666Y-58376428D01*
X5699285Y-58519285D01*
X5699285Y-58662142D01*
X5651666Y-58876428D01*
X5080238Y-59733571D01*
X5699285Y-59733571D01*
X6127857Y-59162142D02*
X6889761Y-59162142D01*
X7889761Y-59733571D02*
X7318333Y-59733571D01*
X7604047Y-59733571D02*
X7604047Y-58233571D01*
X7508809Y-58447857D01*
X7413571Y-58590714D01*
X7318333Y-58662142D01*
X8508809Y-58233571D02*
X8604047Y-58233571D01*
X8699285Y-58305000D01*
X8746904Y-58376428D01*
X8794523Y-58519285D01*
X8842142Y-58805000D01*
X8842142Y-59162142D01*
X8794523Y-59447857D01*
X8746904Y-59590714D01*
X8699285Y-59662142D01*
X8604047Y-59733571D01*
X8508809Y-59733571D01*
X8413571Y-59662142D01*
X8365952Y-59590714D01*
X8318333Y-59447857D01*
X8270714Y-59162142D01*
X8270714Y-58805000D01*
X8318333Y-58519285D01*
X8365952Y-58376428D01*
X8413571Y-58305000D01*
X8508809Y-58233571D01*
D15*
X21423333Y-36647380D02*
X21090000Y-36171190D01*
X20851904Y-36647380D02*
X20851904Y-35647380D01*
X21232857Y-35647380D01*
X21328095Y-35695000D01*
X21375714Y-35742619D01*
X21423333Y-35837857D01*
X21423333Y-35980714D01*
X21375714Y-36075952D01*
X21328095Y-36123571D01*
X21232857Y-36171190D01*
X20851904Y-36171190D01*
X21994761Y-36075952D02*
X21899523Y-36028333D01*
X21851904Y-35980714D01*
X21804285Y-35885476D01*
X21804285Y-35837857D01*
X21851904Y-35742619D01*
X21899523Y-35695000D01*
X21994761Y-35647380D01*
X22185238Y-35647380D01*
X22280476Y-35695000D01*
X22328095Y-35742619D01*
X22375714Y-35837857D01*
X22375714Y-35885476D01*
X22328095Y-35980714D01*
X22280476Y-36028333D01*
X22185238Y-36075952D01*
X21994761Y-36075952D01*
X21899523Y-36123571D01*
X21851904Y-36171190D01*
X21804285Y-36266428D01*
X21804285Y-36456904D01*
X21851904Y-36552142D01*
X21899523Y-36599761D01*
X21994761Y-36647380D01*
X22185238Y-36647380D01*
X22280476Y-36599761D01*
X22328095Y-36552142D01*
X22375714Y-36456904D01*
X22375714Y-36266428D01*
X22328095Y-36171190D01*
X22280476Y-36123571D01*
X22185238Y-36075952D01*
X37401666Y-60094761D02*
X37544523Y-60142380D01*
X37782619Y-60142380D01*
X37877857Y-60094761D01*
X37925476Y-60047142D01*
X37973095Y-59951904D01*
X37973095Y-59856666D01*
X37925476Y-59761428D01*
X37877857Y-59713809D01*
X37782619Y-59666190D01*
X37592142Y-59618571D01*
X37496904Y-59570952D01*
X37449285Y-59523333D01*
X37401666Y-59428095D01*
X37401666Y-59332857D01*
X37449285Y-59237619D01*
X37496904Y-59190000D01*
X37592142Y-59142380D01*
X37830238Y-59142380D01*
X37973095Y-59190000D01*
X38306428Y-59142380D02*
X38544523Y-60142380D01*
X38735000Y-59428095D01*
X38925476Y-60142380D01*
X39163571Y-59142380D01*
X39449285Y-59142380D02*
X40068333Y-59142380D01*
X39735000Y-59523333D01*
X39877857Y-59523333D01*
X39973095Y-59570952D01*
X40020714Y-59618571D01*
X40068333Y-59713809D01*
X40068333Y-59951904D01*
X40020714Y-60047142D01*
X39973095Y-60094761D01*
X39877857Y-60142380D01*
X39592142Y-60142380D01*
X39496904Y-60094761D01*
X39449285Y-60047142D01*
D12*
X35449285Y-71163571D02*
X35449285Y-69663571D01*
X35925476Y-71163571D02*
X35925476Y-69663571D01*
X36496904Y-71163571D01*
X36496904Y-69663571D01*
X36925476Y-71092142D02*
X37068333Y-71163571D01*
X37306428Y-71163571D01*
X37401666Y-71092142D01*
X37449285Y-71020714D01*
X37496904Y-70877857D01*
X37496904Y-70735000D01*
X37449285Y-70592142D01*
X37401666Y-70520714D01*
X37306428Y-70449285D01*
X37115952Y-70377857D01*
X37020714Y-70306428D01*
X36973095Y-70235000D01*
X36925476Y-70092142D01*
X36925476Y-69949285D01*
X36973095Y-69806428D01*
X37020714Y-69735000D01*
X37115952Y-69663571D01*
X37354047Y-69663571D01*
X37496904Y-69735000D01*
X37782619Y-69663571D02*
X38354047Y-69663571D01*
X38068333Y-71163571D02*
X38068333Y-69663571D01*
X38639761Y-70735000D02*
X39115952Y-70735000D01*
X38544523Y-71163571D02*
X38877857Y-69663571D01*
X39211190Y-71163571D01*
X39544523Y-71163571D02*
X39544523Y-69663571D01*
X40115952Y-71163571D01*
X40115952Y-69663571D01*
X41163571Y-71020714D02*
X41115952Y-71092142D01*
X40973095Y-71163571D01*
X40877857Y-71163571D01*
X40735000Y-71092142D01*
X40639761Y-70949285D01*
X40592142Y-70806428D01*
X40544523Y-70520714D01*
X40544523Y-70306428D01*
X40592142Y-70020714D01*
X40639761Y-69877857D01*
X40735000Y-69735000D01*
X40877857Y-69663571D01*
X40973095Y-69663571D01*
X41115952Y-69735000D01*
X41163571Y-69806428D01*
X41592142Y-70377857D02*
X41925476Y-70377857D01*
X42068333Y-71163571D02*
X41592142Y-71163571D01*
X41592142Y-69663571D01*
X42068333Y-69663571D01*
D15*
X37401666Y-60094761D02*
X37544523Y-60142380D01*
X37782619Y-60142380D01*
X37877857Y-60094761D01*
X37925476Y-60047142D01*
X37973095Y-59951904D01*
X37973095Y-59856666D01*
X37925476Y-59761428D01*
X37877857Y-59713809D01*
X37782619Y-59666190D01*
X37592142Y-59618571D01*
X37496904Y-59570952D01*
X37449285Y-59523333D01*
X37401666Y-59428095D01*
X37401666Y-59332857D01*
X37449285Y-59237619D01*
X37496904Y-59190000D01*
X37592142Y-59142380D01*
X37830238Y-59142380D01*
X37973095Y-59190000D01*
X38306428Y-59142380D02*
X38544523Y-60142380D01*
X38735000Y-59428095D01*
X38925476Y-60142380D01*
X39163571Y-59142380D01*
X39449285Y-59142380D02*
X40068333Y-59142380D01*
X39735000Y-59523333D01*
X39877857Y-59523333D01*
X39973095Y-59570952D01*
X40020714Y-59618571D01*
X40068333Y-59713809D01*
X40068333Y-59951904D01*
X40020714Y-60047142D01*
X39973095Y-60094761D01*
X39877857Y-60142380D01*
X39592142Y-60142380D01*
X39496904Y-60094761D01*
X39449285Y-60047142D01*
X10691904Y-73477380D02*
X10691904Y-72477380D01*
X10930000Y-72477380D01*
X11072857Y-72525000D01*
X11168095Y-72620238D01*
X11215714Y-72715476D01*
X11263333Y-72905952D01*
X11263333Y-73048809D01*
X11215714Y-73239285D01*
X11168095Y-73334523D01*
X11072857Y-73429761D01*
X10930000Y-73477380D01*
X10691904Y-73477380D01*
X12215714Y-73477380D02*
X11644285Y-73477380D01*
X11930000Y-73477380D02*
X11930000Y-72477380D01*
X11834761Y-72620238D01*
X11739523Y-72715476D01*
X11644285Y-72763095D01*
X13096904Y-75096666D02*
X13573095Y-75096666D01*
X13001666Y-75382380D02*
X13335000Y-74382380D01*
X13668333Y-75382380D01*
X6223095Y-40092380D02*
X6223095Y-40901904D01*
X6270714Y-40997142D01*
X6318333Y-41044761D01*
X6413571Y-41092380D01*
X6604047Y-41092380D01*
X6699285Y-41044761D01*
X6746904Y-40997142D01*
X6794523Y-40901904D01*
X6794523Y-40092380D01*
X7699285Y-40092380D02*
X7508809Y-40092380D01*
X7413571Y-40140000D01*
X7365952Y-40187619D01*
X7270714Y-40330476D01*
X7223095Y-40520952D01*
X7223095Y-40901904D01*
X7270714Y-40997142D01*
X7318333Y-41044761D01*
X7413571Y-41092380D01*
X7604047Y-41092380D01*
X7699285Y-41044761D01*
X7746904Y-40997142D01*
X7794523Y-40901904D01*
X7794523Y-40663809D01*
X7746904Y-40568571D01*
X7699285Y-40520952D01*
X7604047Y-40473333D01*
X7413571Y-40473333D01*
X7318333Y-40520952D01*
X7270714Y-40568571D01*
X7223095Y-40663809D01*
X5056428Y-29297380D02*
X5294523Y-30297380D01*
X5485000Y-29583095D01*
X5675476Y-30297380D01*
X5913571Y-29297380D01*
X6818333Y-30297380D02*
X6246904Y-30297380D01*
X6532619Y-30297380D02*
X6532619Y-29297380D01*
X6437380Y-29440238D01*
X6342142Y-29535476D01*
X6246904Y-29583095D01*
X7246904Y-30297380D02*
X7246904Y-29297380D01*
X7485000Y-29297380D01*
X7627857Y-29345000D01*
X7723095Y-29440238D01*
X7770714Y-29535476D01*
X7818333Y-29725952D01*
X7818333Y-29868809D01*
X7770714Y-30059285D01*
X7723095Y-30154523D01*
X7627857Y-30249761D01*
X7485000Y-30297380D01*
X7246904Y-30297380D01*
X8246904Y-30297380D02*
X8246904Y-29297380D01*
X8818333Y-30297380D01*
X8818333Y-29297380D01*
X508095Y-40092380D02*
X508095Y-40901904D01*
X555714Y-40997142D01*
X603333Y-41044761D01*
X698571Y-41092380D01*
X889047Y-41092380D01*
X984285Y-41044761D01*
X1031904Y-40997142D01*
X1079523Y-40901904D01*
X1079523Y-40092380D01*
X2031904Y-40092380D02*
X1555714Y-40092380D01*
X1508095Y-40568571D01*
X1555714Y-40520952D01*
X1650952Y-40473333D01*
X1889047Y-40473333D01*
X1984285Y-40520952D01*
X2031904Y-40568571D01*
X2079523Y-40663809D01*
X2079523Y-40901904D01*
X2031904Y-40997142D01*
X1984285Y-41044761D01*
X1889047Y-41092380D01*
X1650952Y-41092380D01*
X1555714Y-41044761D01*
X1508095Y-40997142D01*
X-658571Y-29297380D02*
X-420476Y-30297380D01*
X-229999Y-29583095D01*
X-39523Y-30297380D01*
X198571Y-29297380D01*
X1103333Y-30297380D02*
X531904Y-30297380D01*
X817619Y-30297380D02*
X817619Y-29297380D01*
X722380Y-29440238D01*
X627142Y-29535476D01*
X531904Y-29583095D01*
X1531904Y-29297380D02*
X1531904Y-30106904D01*
X1579523Y-30202142D01*
X1627142Y-30249761D01*
X1722380Y-30297380D01*
X1912857Y-30297380D01*
X2008095Y-30249761D01*
X2055714Y-30202142D01*
X2103333Y-30106904D01*
X2103333Y-29297380D01*
X2579523Y-30297380D02*
X2579523Y-29297380D01*
X2960476Y-29297380D01*
X3055714Y-29345000D01*
X3103333Y-29392619D01*
X3150952Y-29487857D01*
X3150952Y-29630714D01*
X3103333Y-29725952D01*
X3055714Y-29773571D01*
X2960476Y-29821190D01*
X2579523Y-29821190D01*
X-5206904Y-40092380D02*
X-5206904Y-40901904D01*
X-5159285Y-40997142D01*
X-5111666Y-41044761D01*
X-5016428Y-41092380D01*
X-4825952Y-41092380D01*
X-4730714Y-41044761D01*
X-4683095Y-40997142D01*
X-4635476Y-40901904D01*
X-4635476Y-40092380D01*
X-3730714Y-40425714D02*
X-3730714Y-41092380D01*
X-3968809Y-40044761D02*
X-4206904Y-40759047D01*
X-3587857Y-40759047D01*
X-6373571Y-29297380D02*
X-6135476Y-30297380D01*
X-5945000Y-29583095D01*
X-5754523Y-30297380D01*
X-5516428Y-29297380D01*
X-4945000Y-29297380D02*
X-4849761Y-29297380D01*
X-4754523Y-29345000D01*
X-4706904Y-29392619D01*
X-4659285Y-29487857D01*
X-4611666Y-29678333D01*
X-4611666Y-29916428D01*
X-4659285Y-30106904D01*
X-4706904Y-30202142D01*
X-4754523Y-30249761D01*
X-4849761Y-30297380D01*
X-4945000Y-30297380D01*
X-5040238Y-30249761D01*
X-5087857Y-30202142D01*
X-5135476Y-30106904D01*
X-5183095Y-29916428D01*
X-5183095Y-29678333D01*
X-5135476Y-29487857D01*
X-5087857Y-29392619D01*
X-5040238Y-29345000D01*
X-4945000Y-29297380D01*
X-4183095Y-30297380D02*
X-4183095Y-29297380D01*
X-3944999Y-29297380D01*
X-3802142Y-29345000D01*
X-3706904Y-29440238D01*
X-3659285Y-29535476D01*
X-3611666Y-29725952D01*
X-3611666Y-29868809D01*
X-3659285Y-30059285D01*
X-3706904Y-30154523D01*
X-3802142Y-30249761D01*
X-3944999Y-30297380D01*
X-4183095Y-30297380D01*
X-3183095Y-30297380D02*
X-3183095Y-29297380D01*
X-2611666Y-30297380D01*
X-2611666Y-29297380D01*
X-10921904Y-40092380D02*
X-10921904Y-40901904D01*
X-10874285Y-40997142D01*
X-10826666Y-41044761D01*
X-10731428Y-41092380D01*
X-10540952Y-41092380D01*
X-10445714Y-41044761D01*
X-10398095Y-40997142D01*
X-10350476Y-40901904D01*
X-10350476Y-40092380D01*
X-9921904Y-40187619D02*
X-9874285Y-40140000D01*
X-9779047Y-40092380D01*
X-9540952Y-40092380D01*
X-9445714Y-40140000D01*
X-9398095Y-40187619D01*
X-9350476Y-40282857D01*
X-9350476Y-40378095D01*
X-9398095Y-40520952D01*
X-9969523Y-41092380D01*
X-9350476Y-41092380D01*
X-12088571Y-29297380D02*
X-11850476Y-30297380D01*
X-11660000Y-29583095D01*
X-11469523Y-30297380D01*
X-11231428Y-29297380D01*
X-10660000Y-29297380D02*
X-10564761Y-29297380D01*
X-10469523Y-29345000D01*
X-10421904Y-29392619D01*
X-10374285Y-29487857D01*
X-10326666Y-29678333D01*
X-10326666Y-29916428D01*
X-10374285Y-30106904D01*
X-10421904Y-30202142D01*
X-10469523Y-30249761D01*
X-10564761Y-30297380D01*
X-10660000Y-30297380D01*
X-10755238Y-30249761D01*
X-10802857Y-30202142D01*
X-10850476Y-30106904D01*
X-10898095Y-29916428D01*
X-10898095Y-29678333D01*
X-10850476Y-29487857D01*
X-10802857Y-29392619D01*
X-10755238Y-29345000D01*
X-10660000Y-29297380D01*
X-9898095Y-29297380D02*
X-9898095Y-30106904D01*
X-9850476Y-30202142D01*
X-9802857Y-30249761D01*
X-9707619Y-30297380D01*
X-9517142Y-30297380D01*
X-9421904Y-30249761D01*
X-9374285Y-30202142D01*
X-9326666Y-30106904D01*
X-9326666Y-29297380D01*
X-8850476Y-30297380D02*
X-8850476Y-29297380D01*
X-8469523Y-29297380D01*
X-8374285Y-29345000D01*
X-8326666Y-29392619D01*
X-8279047Y-29487857D01*
X-8279047Y-29630714D01*
X-8326666Y-29725952D01*
X-8374285Y-29773571D01*
X-8469523Y-29821190D01*
X-8850476Y-29821190D01*
X-16636904Y-40092380D02*
X-16636904Y-40901904D01*
X-16589285Y-40997142D01*
X-16541666Y-41044761D01*
X-16446428Y-41092380D01*
X-16255952Y-41092380D01*
X-16160714Y-41044761D01*
X-16113095Y-40997142D01*
X-16065476Y-40901904D01*
X-16065476Y-40092380D01*
X-15065476Y-41092380D02*
X-15636904Y-41092380D01*
X-15351190Y-41092380D02*
X-15351190Y-40092380D01*
X-15446428Y-40235238D01*
X-15541666Y-40330476D01*
X-15636904Y-40378095D01*
X-18184523Y-30297380D02*
X-18184523Y-29297380D01*
X-17803571Y-29297380D01*
X-17708333Y-29345000D01*
X-17660714Y-29392619D01*
X-17613095Y-29487857D01*
X-17613095Y-29630714D01*
X-17660714Y-29725952D01*
X-17708333Y-29773571D01*
X-17803571Y-29821190D01*
X-18184523Y-29821190D01*
X-16994047Y-29297380D02*
X-16803571Y-29297380D01*
X-16708333Y-29345000D01*
X-16613095Y-29440238D01*
X-16565476Y-29630714D01*
X-16565476Y-29964047D01*
X-16613095Y-30154523D01*
X-16708333Y-30249761D01*
X-16803571Y-30297380D01*
X-16994047Y-30297380D01*
X-17089285Y-30249761D01*
X-17184523Y-30154523D01*
X-17232142Y-29964047D01*
X-17232142Y-29630714D01*
X-17184523Y-29440238D01*
X-17089285Y-29345000D01*
X-16994047Y-29297380D01*
X-16232142Y-29297380D02*
X-15994047Y-30297380D01*
X-15803571Y-29583095D01*
X-15613095Y-30297380D01*
X-15375000Y-29297380D01*
X-14994047Y-29773571D02*
X-14660714Y-29773571D01*
X-14517857Y-30297380D02*
X-14994047Y-30297380D01*
X-14994047Y-29297380D01*
X-14517857Y-29297380D01*
X-13517857Y-30297380D02*
X-13851190Y-29821190D01*
X-14089285Y-30297380D02*
X-14089285Y-29297380D01*
X-13708333Y-29297380D01*
X-13613095Y-29345000D01*
X-13565476Y-29392619D01*
X-13517857Y-29487857D01*
X-13517857Y-29630714D01*
X-13565476Y-29725952D01*
X-13613095Y-29773571D01*
X-13708333Y-29821190D01*
X-14089285Y-29821190D01*
X22733095Y-57872380D02*
X22733095Y-58681904D01*
X22780714Y-58777142D01*
X22828333Y-58824761D01*
X22923571Y-58872380D01*
X23114047Y-58872380D01*
X23209285Y-58824761D01*
X23256904Y-58777142D01*
X23304523Y-58681904D01*
X23304523Y-57872380D01*
X23685476Y-57872380D02*
X24352142Y-57872380D01*
X23923571Y-58872380D01*
X19542619Y-69302380D02*
X20114047Y-69302380D01*
X19828333Y-70302380D02*
X19828333Y-69302380D01*
X20828333Y-70254761D02*
X20733095Y-70302380D01*
X20542619Y-70302380D01*
X20447380Y-70254761D01*
X20399761Y-70159523D01*
X20399761Y-69778571D01*
X20447380Y-69683333D01*
X20542619Y-69635714D01*
X20733095Y-69635714D01*
X20828333Y-69683333D01*
X20875952Y-69778571D01*
X20875952Y-69873809D01*
X20399761Y-69969047D01*
X21685476Y-70254761D02*
X21590238Y-70302380D01*
X21399761Y-70302380D01*
X21304523Y-70254761D01*
X21256904Y-70159523D01*
X21256904Y-69778571D01*
X21304523Y-69683333D01*
X21399761Y-69635714D01*
X21590238Y-69635714D01*
X21685476Y-69683333D01*
X21733095Y-69778571D01*
X21733095Y-69873809D01*
X21256904Y-69969047D01*
X22161666Y-69635714D02*
X22161666Y-70302380D01*
X22161666Y-69730952D02*
X22209285Y-69683333D01*
X22304523Y-69635714D01*
X22447380Y-69635714D01*
X22542619Y-69683333D01*
X22590238Y-69778571D01*
X22590238Y-70302380D01*
X23018809Y-70254761D02*
X23114047Y-70302380D01*
X23304523Y-70302380D01*
X23399761Y-70254761D01*
X23447380Y-70159523D01*
X23447380Y-70111904D01*
X23399761Y-70016666D01*
X23304523Y-69969047D01*
X23161666Y-69969047D01*
X23066428Y-69921428D01*
X23018809Y-69826190D01*
X23018809Y-69778571D01*
X23066428Y-69683333D01*
X23161666Y-69635714D01*
X23304523Y-69635714D01*
X23399761Y-69683333D01*
X23780714Y-69635714D02*
X24018809Y-70302380D01*
X24256904Y-69635714D02*
X24018809Y-70302380D01*
X23923571Y-70540476D01*
X23875952Y-70588095D01*
X23780714Y-70635714D01*
X24399761Y-70397619D02*
X25161666Y-70397619D01*
X25304523Y-69302380D02*
X25923571Y-69302380D01*
X25590238Y-69683333D01*
X25733095Y-69683333D01*
X25828333Y-69730952D01*
X25875952Y-69778571D01*
X25923571Y-69873809D01*
X25923571Y-70111904D01*
X25875952Y-70207142D01*
X25828333Y-70254761D01*
X25733095Y-70302380D01*
X25447380Y-70302380D01*
X25352142Y-70254761D01*
X25304523Y-70207142D01*
X26352142Y-70207142D02*
X26399761Y-70254761D01*
X26352142Y-70302380D01*
X26304523Y-70254761D01*
X26352142Y-70207142D01*
X26352142Y-70302380D01*
X26780714Y-69397619D02*
X26828333Y-69350000D01*
X26923571Y-69302380D01*
X27161666Y-69302380D01*
X27256904Y-69350000D01*
X27304523Y-69397619D01*
X27352142Y-69492857D01*
X27352142Y-69588095D01*
X27304523Y-69730952D01*
X26733095Y-70302380D01*
X27352142Y-70302380D01*
X22287666Y-68351666D02*
X21587666Y-68351666D01*
X22087666Y-68118333D01*
X21587666Y-67885000D01*
X22287666Y-67885000D01*
X22287666Y-67551666D02*
X21587666Y-67551666D01*
X22287666Y-67151666D02*
X21887666Y-67451666D01*
X21587666Y-67151666D02*
X21987666Y-67551666D01*
X21654333Y-66885000D02*
X21621000Y-66851666D01*
X21587666Y-66785000D01*
X21587666Y-66618333D01*
X21621000Y-66551666D01*
X21654333Y-66518333D01*
X21721000Y-66485000D01*
X21787666Y-66485000D01*
X21887666Y-66518333D01*
X22287666Y-66918333D01*
X22287666Y-66485000D01*
X21587666Y-66051666D02*
X21587666Y-65985000D01*
X21621000Y-65918333D01*
X21654333Y-65885000D01*
X21721000Y-65851666D01*
X21854333Y-65818333D01*
X22021000Y-65818333D01*
X22154333Y-65851666D01*
X22221000Y-65885000D01*
X22254333Y-65918333D01*
X22287666Y-65985000D01*
X22287666Y-66051666D01*
X22254333Y-66118333D01*
X22221000Y-66151666D01*
X22154333Y-66185000D01*
X22021000Y-66218333D01*
X21854333Y-66218333D01*
X21721000Y-66185000D01*
X21654333Y-66151666D01*
X21621000Y-66118333D01*
X21587666Y-66051666D01*
X22287666Y-65518333D02*
X21587666Y-65518333D01*
X21587666Y-65351666D01*
X21621000Y-65251666D01*
X21687666Y-65185000D01*
X21754333Y-65151666D01*
X21887666Y-65118333D01*
X21987666Y-65118333D01*
X22121000Y-65151666D01*
X22187666Y-65185000D01*
X22254333Y-65251666D01*
X22287666Y-65351666D01*
X22287666Y-65518333D01*
X21587666Y-64885000D02*
X22287666Y-64418333D01*
X21587666Y-64418333D02*
X22287666Y-64885000D01*
X22287666Y-63785000D02*
X22287666Y-64185000D01*
X22287666Y-63985000D02*
X21587666Y-63985000D01*
X21687666Y-64051666D01*
X21754333Y-64118333D01*
X21787666Y-64185000D01*
X21654333Y-63518333D02*
X21621000Y-63485000D01*
X21587666Y-63418333D01*
X21587666Y-63251666D01*
X21621000Y-63185000D01*
X21654333Y-63151666D01*
X21721000Y-63118333D01*
X21787666Y-63118333D01*
X21887666Y-63151666D01*
X22287666Y-63551666D01*
X22287666Y-63118333D01*
X21887666Y-62718333D02*
X21854333Y-62785000D01*
X21821000Y-62818333D01*
X21754333Y-62851666D01*
X21721000Y-62851666D01*
X21654333Y-62818333D01*
X21621000Y-62785000D01*
X21587666Y-62718333D01*
X21587666Y-62585000D01*
X21621000Y-62518333D01*
X21654333Y-62485000D01*
X21721000Y-62451666D01*
X21754333Y-62451666D01*
X21821000Y-62485000D01*
X21854333Y-62518333D01*
X21887666Y-62585000D01*
X21887666Y-62718333D01*
X21921000Y-62785000D01*
X21954333Y-62818333D01*
X22021000Y-62851666D01*
X22154333Y-62851666D01*
X22221000Y-62818333D01*
X22254333Y-62785000D01*
X22287666Y-62718333D01*
X22287666Y-62585000D01*
X22254333Y-62518333D01*
X22221000Y-62485000D01*
X22154333Y-62451666D01*
X22021000Y-62451666D01*
X21954333Y-62485000D01*
X21921000Y-62518333D01*
X21887666Y-62585000D01*
X21587666Y-62251666D02*
X22287666Y-62018333D01*
X21587666Y-61785000D01*
X22287666Y-61218333D02*
X22287666Y-61551666D01*
X21587666Y-61551666D01*
X22287666Y-60985000D02*
X21587666Y-60985000D01*
X21921000Y-60985000D02*
X21921000Y-60585000D01*
X22287666Y-60585000D02*
X21587666Y-60585000D01*
X21587666Y-59918333D02*
X21587666Y-60251666D01*
X21921000Y-60285000D01*
X21887666Y-60251666D01*
X21854333Y-60185000D01*
X21854333Y-60018333D01*
X21887666Y-59951666D01*
X21921000Y-59918333D01*
X21987666Y-59885000D01*
X22154333Y-59885000D01*
X22221000Y-59918333D01*
X22254333Y-59951666D01*
X22287666Y-60018333D01*
X22287666Y-60185000D01*
X22254333Y-60251666D01*
X22221000Y-60285000D01*
X23557666Y-67868333D02*
X22857666Y-67868333D01*
X23357666Y-67635000D01*
X22857666Y-67401666D01*
X23557666Y-67401666D01*
X23557666Y-67068333D02*
X22857666Y-67068333D01*
X23557666Y-66668333D02*
X23157666Y-66968333D01*
X22857666Y-66668333D02*
X23257666Y-67068333D01*
X23557666Y-66035000D02*
X23557666Y-66368333D01*
X22857666Y-66368333D01*
X22924333Y-65835000D02*
X22891000Y-65801666D01*
X22857666Y-65735000D01*
X22857666Y-65568333D01*
X22891000Y-65501666D01*
X22924333Y-65468333D01*
X22991000Y-65435000D01*
X23057666Y-65435000D01*
X23157666Y-65468333D01*
X23557666Y-65868333D01*
X23557666Y-65435000D01*
X22857666Y-64835000D02*
X22857666Y-64968333D01*
X22891000Y-65035000D01*
X22924333Y-65068333D01*
X23024333Y-65135000D01*
X23157666Y-65168333D01*
X23424333Y-65168333D01*
X23491000Y-65135000D01*
X23524333Y-65101666D01*
X23557666Y-65035000D01*
X23557666Y-64901666D01*
X23524333Y-64835000D01*
X23491000Y-64801666D01*
X23424333Y-64768333D01*
X23257666Y-64768333D01*
X23191000Y-64801666D01*
X23157666Y-64835000D01*
X23124333Y-64901666D01*
X23124333Y-65035000D01*
X23157666Y-65101666D01*
X23191000Y-65135000D01*
X23257666Y-65168333D01*
X22857666Y-64535000D02*
X22857666Y-64068333D01*
X23557666Y-64535000D01*
X23557666Y-64068333D01*
X22857666Y-63501666D02*
X22857666Y-63635000D01*
X22891000Y-63701666D01*
X22924333Y-63735000D01*
X23024333Y-63801666D01*
X23157666Y-63835000D01*
X23424333Y-63835000D01*
X23491000Y-63801666D01*
X23524333Y-63768333D01*
X23557666Y-63701666D01*
X23557666Y-63568333D01*
X23524333Y-63501666D01*
X23491000Y-63468333D01*
X23424333Y-63435000D01*
X23257666Y-63435000D01*
X23191000Y-63468333D01*
X23157666Y-63501666D01*
X23124333Y-63568333D01*
X23124333Y-63701666D01*
X23157666Y-63768333D01*
X23191000Y-63801666D01*
X23257666Y-63835000D01*
X23091000Y-62835000D02*
X23557666Y-62835000D01*
X22824333Y-63001666D02*
X23324333Y-63168333D01*
X23324333Y-62735000D01*
X22857666Y-62568333D02*
X23557666Y-62335000D01*
X22857666Y-62101666D01*
X23191000Y-61635000D02*
X23191000Y-61868333D01*
X23557666Y-61868333D02*
X22857666Y-61868333D01*
X22857666Y-61535000D01*
X22857666Y-61368333D02*
X22857666Y-60968333D01*
X23557666Y-61168333D02*
X22857666Y-61168333D01*
X23091000Y-60435000D02*
X23557666Y-60435000D01*
X22824333Y-60601666D02*
X23324333Y-60768333D01*
X23324333Y-60335000D01*
X48768095Y-38187380D02*
X48768095Y-38996904D01*
X48815714Y-39092142D01*
X48863333Y-39139761D01*
X48958571Y-39187380D01*
X49149047Y-39187380D01*
X49244285Y-39139761D01*
X49291904Y-39092142D01*
X49339523Y-38996904D01*
X49339523Y-38187380D01*
X49958571Y-38615952D02*
X49863333Y-38568333D01*
X49815714Y-38520714D01*
X49768095Y-38425476D01*
X49768095Y-38377857D01*
X49815714Y-38282619D01*
X49863333Y-38235000D01*
X49958571Y-38187380D01*
X50149047Y-38187380D01*
X50244285Y-38235000D01*
X50291904Y-38282619D01*
X50339523Y-38377857D01*
X50339523Y-38425476D01*
X50291904Y-38520714D01*
X50244285Y-38568333D01*
X50149047Y-38615952D01*
X49958571Y-38615952D01*
X49863333Y-38663571D01*
X49815714Y-38711190D01*
X49768095Y-38806428D01*
X49768095Y-38996904D01*
X49815714Y-39092142D01*
X49863333Y-39139761D01*
X49958571Y-39187380D01*
X50149047Y-39187380D01*
X50244285Y-39139761D01*
X50291904Y-39092142D01*
X50339523Y-38996904D01*
X50339523Y-38806428D01*
X50291904Y-38711190D01*
X50244285Y-38663571D01*
X50149047Y-38615952D01*
X48712380Y-66841666D02*
X48236190Y-67175000D01*
X48712380Y-67413095D02*
X47712380Y-67413095D01*
X47712380Y-67032142D01*
X47760000Y-66936904D01*
X47807619Y-66889285D01*
X47902857Y-66841666D01*
X48045714Y-66841666D01*
X48140952Y-66889285D01*
X48188571Y-66936904D01*
X48236190Y-67032142D01*
X48236190Y-67413095D01*
X47712380Y-66508333D02*
X47712380Y-65841666D01*
X48712380Y-66270238D01*
X48712380Y-57951666D02*
X48236190Y-58285000D01*
X48712380Y-58523095D02*
X47712380Y-58523095D01*
X47712380Y-58142142D01*
X47760000Y-58046904D01*
X47807619Y-57999285D01*
X47902857Y-57951666D01*
X48045714Y-57951666D01*
X48140952Y-57999285D01*
X48188571Y-58046904D01*
X48236190Y-58142142D01*
X48236190Y-58523095D01*
X47712380Y-57094523D02*
X47712380Y-57285000D01*
X47760000Y-57380238D01*
X47807619Y-57427857D01*
X47950476Y-57523095D01*
X48140952Y-57570714D01*
X48521904Y-57570714D01*
X48617142Y-57523095D01*
X48664761Y-57475476D01*
X48712380Y-57380238D01*
X48712380Y-57189761D01*
X48664761Y-57094523D01*
X48617142Y-57046904D01*
X48521904Y-56999285D01*
X48283809Y-56999285D01*
X48188571Y-57046904D01*
X48140952Y-57094523D01*
X48093333Y-57189761D01*
X48093333Y-57380238D01*
X48140952Y-57475476D01*
X48188571Y-57523095D01*
X48283809Y-57570714D01*
X51331904Y-58872380D02*
X51331904Y-57872380D01*
X51570000Y-57872380D01*
X51712857Y-57920000D01*
X51808095Y-58015238D01*
X51855714Y-58110476D01*
X51903333Y-58300952D01*
X51903333Y-58443809D01*
X51855714Y-58634285D01*
X51808095Y-58729523D01*
X51712857Y-58824761D01*
X51570000Y-58872380D01*
X51331904Y-58872380D01*
X52760476Y-58205714D02*
X52760476Y-58872380D01*
X52522380Y-57824761D02*
X52284285Y-58539047D01*
X52903333Y-58539047D01*
X51331904Y-52522380D02*
X51331904Y-51522380D01*
X51570000Y-51522380D01*
X51712857Y-51570000D01*
X51808095Y-51665238D01*
X51855714Y-51760476D01*
X51903333Y-51950952D01*
X51903333Y-52093809D01*
X51855714Y-52284285D01*
X51808095Y-52379523D01*
X51712857Y-52474761D01*
X51570000Y-52522380D01*
X51331904Y-52522380D01*
X52236666Y-51522380D02*
X52855714Y-51522380D01*
X52522380Y-51903333D01*
X52665238Y-51903333D01*
X52760476Y-51950952D01*
X52808095Y-51998571D01*
X52855714Y-52093809D01*
X52855714Y-52331904D01*
X52808095Y-52427142D01*
X52760476Y-52474761D01*
X52665238Y-52522380D01*
X52379523Y-52522380D01*
X52284285Y-52474761D01*
X52236666Y-52427142D01*
X52522380Y-75096666D02*
X52046190Y-75430000D01*
X52522380Y-75668095D02*
X51522380Y-75668095D01*
X51522380Y-75287142D01*
X51570000Y-75191904D01*
X51617619Y-75144285D01*
X51712857Y-75096666D01*
X51855714Y-75096666D01*
X51950952Y-75144285D01*
X51998571Y-75191904D01*
X52046190Y-75287142D01*
X52046190Y-75668095D01*
X51522380Y-74191904D02*
X51522380Y-74668095D01*
X51998571Y-74715714D01*
X51950952Y-74668095D01*
X51903333Y-74572857D01*
X51903333Y-74334761D01*
X51950952Y-74239523D01*
X51998571Y-74191904D01*
X52093809Y-74144285D01*
X52331904Y-74144285D01*
X52427142Y-74191904D01*
X52474761Y-74239523D01*
X52522380Y-74334761D01*
X52522380Y-74572857D01*
X52474761Y-74668095D01*
X52427142Y-74715714D01*
X51331904Y-65222380D02*
X51331904Y-64222380D01*
X51570000Y-64222380D01*
X51712857Y-64270000D01*
X51808095Y-64365238D01*
X51855714Y-64460476D01*
X51903333Y-64650952D01*
X51903333Y-64793809D01*
X51855714Y-64984285D01*
X51808095Y-65079523D01*
X51712857Y-65174761D01*
X51570000Y-65222380D01*
X51331904Y-65222380D01*
X52284285Y-64317619D02*
X52331904Y-64270000D01*
X52427142Y-64222380D01*
X52665238Y-64222380D01*
X52760476Y-64270000D01*
X52808095Y-64317619D01*
X52855714Y-64412857D01*
X52855714Y-64508095D01*
X52808095Y-64650952D01*
X52236666Y-65222380D01*
X52855714Y-65222380D01*
X9286666Y-19997380D02*
X9286666Y-20711666D01*
X9239047Y-20854523D01*
X9143809Y-20949761D01*
X9000952Y-20997380D01*
X8905714Y-20997380D01*
X9715238Y-20092619D02*
X9762857Y-20045000D01*
X9858095Y-19997380D01*
X10096190Y-19997380D01*
X10191428Y-20045000D01*
X10239047Y-20092619D01*
X10286666Y-20187857D01*
X10286666Y-20283095D01*
X10239047Y-20425952D01*
X9667619Y-20997380D01*
X10286666Y-20997380D01*
X30353095Y-31837380D02*
X30353095Y-32646904D01*
X30400714Y-32742142D01*
X30448333Y-32789761D01*
X30543571Y-32837380D01*
X30734047Y-32837380D01*
X30829285Y-32789761D01*
X30876904Y-32742142D01*
X30924523Y-32646904D01*
X30924523Y-31837380D01*
X31448333Y-32837380D02*
X31638809Y-32837380D01*
X31734047Y-32789761D01*
X31781666Y-32742142D01*
X31876904Y-32599285D01*
X31924523Y-32408809D01*
X31924523Y-32027857D01*
X31876904Y-31932619D01*
X31829285Y-31885000D01*
X31734047Y-31837380D01*
X31543571Y-31837380D01*
X31448333Y-31885000D01*
X31400714Y-31932619D01*
X31353095Y-32027857D01*
X31353095Y-32265952D01*
X31400714Y-32361190D01*
X31448333Y-32408809D01*
X31543571Y-32456428D01*
X31734047Y-32456428D01*
X31829285Y-32408809D01*
X31876904Y-32361190D01*
X31924523Y-32265952D01*
X-5206904Y-66142380D02*
X-5206904Y-66951904D01*
X-5159285Y-67047142D01*
X-5111666Y-67094761D01*
X-5016428Y-67142380D01*
X-4825952Y-67142380D01*
X-4730714Y-67094761D01*
X-4683095Y-67047142D01*
X-4635476Y-66951904D01*
X-4635476Y-66142380D01*
X-4254523Y-66142380D02*
X-3635476Y-66142380D01*
X-3968809Y-66523333D01*
X-3825952Y-66523333D01*
X-3730714Y-66570952D01*
X-3683095Y-66618571D01*
X-3635476Y-66713809D01*
X-3635476Y-66951904D01*
X-3683095Y-67047142D01*
X-3730714Y-67094761D01*
X-3825952Y-67142380D01*
X-4111666Y-67142380D01*
X-4206904Y-67094761D01*
X-4254523Y-67047142D01*
X37401666Y-42949761D02*
X37544523Y-42997380D01*
X37782619Y-42997380D01*
X37877857Y-42949761D01*
X37925476Y-42902142D01*
X37973095Y-42806904D01*
X37973095Y-42711666D01*
X37925476Y-42616428D01*
X37877857Y-42568809D01*
X37782619Y-42521190D01*
X37592142Y-42473571D01*
X37496904Y-42425952D01*
X37449285Y-42378333D01*
X37401666Y-42283095D01*
X37401666Y-42187857D01*
X37449285Y-42092619D01*
X37496904Y-42045000D01*
X37592142Y-41997380D01*
X37830238Y-41997380D01*
X37973095Y-42045000D01*
X38306428Y-41997380D02*
X38544523Y-42997380D01*
X38735000Y-42283095D01*
X38925476Y-42997380D01*
X39163571Y-41997380D01*
X39496904Y-42092619D02*
X39544523Y-42045000D01*
X39639761Y-41997380D01*
X39877857Y-41997380D01*
X39973095Y-42045000D01*
X40020714Y-42092619D01*
X40068333Y-42187857D01*
X40068333Y-42283095D01*
X40020714Y-42425952D01*
X39449285Y-42997380D01*
X40068333Y-42997380D01*
D12*
X36425476Y-48938571D02*
X36425476Y-47438571D01*
X36806428Y-47438571D01*
X36901666Y-47510000D01*
X36949285Y-47581428D01*
X36996904Y-47724285D01*
X36996904Y-47938571D01*
X36949285Y-48081428D01*
X36901666Y-48152857D01*
X36806428Y-48224285D01*
X36425476Y-48224285D01*
X37996904Y-48938571D02*
X37663571Y-48224285D01*
X37425476Y-48938571D02*
X37425476Y-47438571D01*
X37806428Y-47438571D01*
X37901666Y-47510000D01*
X37949285Y-47581428D01*
X37996904Y-47724285D01*
X37996904Y-47938571D01*
X37949285Y-48081428D01*
X37901666Y-48152857D01*
X37806428Y-48224285D01*
X37425476Y-48224285D01*
X38949285Y-47510000D02*
X38854047Y-47438571D01*
X38711190Y-47438571D01*
X38568333Y-47510000D01*
X38473095Y-47652857D01*
X38425476Y-47795714D01*
X38377857Y-48081428D01*
X38377857Y-48295714D01*
X38425476Y-48581428D01*
X38473095Y-48724285D01*
X38568333Y-48867142D01*
X38711190Y-48938571D01*
X38806428Y-48938571D01*
X38949285Y-48867142D01*
X38996904Y-48795714D01*
X38996904Y-48295714D01*
X38806428Y-48295714D01*
X39330238Y-47438571D02*
X39568333Y-48938571D01*
X39758809Y-47867142D01*
X39949285Y-48938571D01*
X40187380Y-47438571D01*
X41092142Y-48938571D02*
X40520714Y-48938571D01*
X40806428Y-48938571D02*
X40806428Y-47438571D01*
X40711190Y-47652857D01*
X40615952Y-47795714D01*
X40520714Y-47867142D01*
D15*
X25971666Y-42949761D02*
X26114523Y-42997380D01*
X26352619Y-42997380D01*
X26447857Y-42949761D01*
X26495476Y-42902142D01*
X26543095Y-42806904D01*
X26543095Y-42711666D01*
X26495476Y-42616428D01*
X26447857Y-42568809D01*
X26352619Y-42521190D01*
X26162142Y-42473571D01*
X26066904Y-42425952D01*
X26019285Y-42378333D01*
X25971666Y-42283095D01*
X25971666Y-42187857D01*
X26019285Y-42092619D01*
X26066904Y-42045000D01*
X26162142Y-41997380D01*
X26400238Y-41997380D01*
X26543095Y-42045000D01*
X26876428Y-41997380D02*
X27114523Y-42997380D01*
X27305000Y-42283095D01*
X27495476Y-42997380D01*
X27733571Y-41997380D01*
X28638333Y-42997380D02*
X28066904Y-42997380D01*
X28352619Y-42997380D02*
X28352619Y-41997380D01*
X28257380Y-42140238D01*
X28162142Y-42235476D01*
X28066904Y-42283095D01*
D12*
X24995476Y-48938571D02*
X24995476Y-47438571D01*
X25376428Y-47438571D01*
X25471666Y-47510000D01*
X25519285Y-47581428D01*
X25566904Y-47724285D01*
X25566904Y-47938571D01*
X25519285Y-48081428D01*
X25471666Y-48152857D01*
X25376428Y-48224285D01*
X24995476Y-48224285D01*
X26566904Y-48938571D02*
X26233571Y-48224285D01*
X25995476Y-48938571D02*
X25995476Y-47438571D01*
X26376428Y-47438571D01*
X26471666Y-47510000D01*
X26519285Y-47581428D01*
X26566904Y-47724285D01*
X26566904Y-47938571D01*
X26519285Y-48081428D01*
X26471666Y-48152857D01*
X26376428Y-48224285D01*
X25995476Y-48224285D01*
X27519285Y-47510000D02*
X27424047Y-47438571D01*
X27281190Y-47438571D01*
X27138333Y-47510000D01*
X27043095Y-47652857D01*
X26995476Y-47795714D01*
X26947857Y-48081428D01*
X26947857Y-48295714D01*
X26995476Y-48581428D01*
X27043095Y-48724285D01*
X27138333Y-48867142D01*
X27281190Y-48938571D01*
X27376428Y-48938571D01*
X27519285Y-48867142D01*
X27566904Y-48795714D01*
X27566904Y-48295714D01*
X27376428Y-48295714D01*
X27900238Y-47438571D02*
X28138333Y-48938571D01*
X28328809Y-47867142D01*
X28519285Y-48938571D01*
X28757380Y-47438571D01*
X29328809Y-47438571D02*
X29424047Y-47438571D01*
X29519285Y-47510000D01*
X29566904Y-47581428D01*
X29614523Y-47724285D01*
X29662142Y-48010000D01*
X29662142Y-48367142D01*
X29614523Y-48652857D01*
X29566904Y-48795714D01*
X29519285Y-48867142D01*
X29424047Y-48938571D01*
X29328809Y-48938571D01*
X29233571Y-48867142D01*
X29185952Y-48795714D01*
X29138333Y-48652857D01*
X29090714Y-48367142D01*
X29090714Y-48010000D01*
X29138333Y-47724285D01*
X29185952Y-47581428D01*
X29233571Y-47510000D01*
X29328809Y-47438571D01*
D15*
X20947142Y-31567380D02*
X20613809Y-31091190D01*
X20375714Y-31567380D02*
X20375714Y-30567380D01*
X20756666Y-30567380D01*
X20851904Y-30615000D01*
X20899523Y-30662619D01*
X20947142Y-30757857D01*
X20947142Y-30900714D01*
X20899523Y-30995952D01*
X20851904Y-31043571D01*
X20756666Y-31091190D01*
X20375714Y-31091190D01*
X21899523Y-31567380D02*
X21328095Y-31567380D01*
X21613809Y-31567380D02*
X21613809Y-30567380D01*
X21518571Y-30710238D01*
X21423333Y-30805476D01*
X21328095Y-30853095D01*
X22518571Y-30567380D02*
X22613809Y-30567380D01*
X22709047Y-30615000D01*
X22756666Y-30662619D01*
X22804285Y-30757857D01*
X22851904Y-30948333D01*
X22851904Y-31186428D01*
X22804285Y-31376904D01*
X22756666Y-31472142D01*
X22709047Y-31519761D01*
X22613809Y-31567380D01*
X22518571Y-31567380D01*
X22423333Y-31519761D01*
X22375714Y-31472142D01*
X22328095Y-31376904D01*
X22280476Y-31186428D01*
X22280476Y-30948333D01*
X22328095Y-30757857D01*
X22375714Y-30662619D01*
X22423333Y-30615000D01*
X22518571Y-30567380D01*
X21423333Y-34107380D02*
X21090000Y-33631190D01*
X20851904Y-34107380D02*
X20851904Y-33107380D01*
X21232857Y-33107380D01*
X21328095Y-33155000D01*
X21375714Y-33202619D01*
X21423333Y-33297857D01*
X21423333Y-33440714D01*
X21375714Y-33535952D01*
X21328095Y-33583571D01*
X21232857Y-33631190D01*
X20851904Y-33631190D01*
X21899523Y-34107380D02*
X22090000Y-34107380D01*
X22185238Y-34059761D01*
X22232857Y-34012142D01*
X22328095Y-33869285D01*
X22375714Y-33678809D01*
X22375714Y-33297857D01*
X22328095Y-33202619D01*
X22280476Y-33155000D01*
X22185238Y-33107380D01*
X21994761Y-33107380D01*
X21899523Y-33155000D01*
X21851904Y-33202619D01*
X21804285Y-33297857D01*
X21804285Y-33535952D01*
X21851904Y-33631190D01*
X21899523Y-33678809D01*
X21994761Y-33726428D01*
X22185238Y-33726428D01*
X22280476Y-33678809D01*
X22328095Y-33631190D01*
X22375714Y-33535952D01*
X8088333Y-73477380D02*
X7755000Y-73001190D01*
X7516904Y-73477380D02*
X7516904Y-72477380D01*
X7897857Y-72477380D01*
X7993095Y-72525000D01*
X8040714Y-72572619D01*
X8088333Y-72667857D01*
X8088333Y-72810714D01*
X8040714Y-72905952D01*
X7993095Y-72953571D01*
X7897857Y-73001190D01*
X7516904Y-73001190D01*
X8945476Y-72810714D02*
X8945476Y-73477380D01*
X8707380Y-72429761D02*
X8469285Y-73144047D01*
X9088333Y-73144047D01*
X4913333Y-73477380D02*
X4580000Y-73001190D01*
X4341904Y-73477380D02*
X4341904Y-72477380D01*
X4722857Y-72477380D01*
X4818095Y-72525000D01*
X4865714Y-72572619D01*
X4913333Y-72667857D01*
X4913333Y-72810714D01*
X4865714Y-72905952D01*
X4818095Y-72953571D01*
X4722857Y-73001190D01*
X4341904Y-73001190D01*
X5246666Y-72477380D02*
X5865714Y-72477380D01*
X5532380Y-72858333D01*
X5675238Y-72858333D01*
X5770476Y-72905952D01*
X5818095Y-72953571D01*
X5865714Y-73048809D01*
X5865714Y-73286904D01*
X5818095Y-73382142D01*
X5770476Y-73429761D01*
X5675238Y-73477380D01*
X5389523Y-73477380D01*
X5294285Y-73429761D01*
X5246666Y-73382142D01*
X1738333Y-73477380D02*
X1405000Y-73001190D01*
X1166904Y-73477380D02*
X1166904Y-72477380D01*
X1547857Y-72477380D01*
X1643095Y-72525000D01*
X1690714Y-72572619D01*
X1738333Y-72667857D01*
X1738333Y-72810714D01*
X1690714Y-72905952D01*
X1643095Y-72953571D01*
X1547857Y-73001190D01*
X1166904Y-73001190D01*
X2119285Y-72572619D02*
X2166904Y-72525000D01*
X2262142Y-72477380D01*
X2500238Y-72477380D01*
X2595476Y-72525000D01*
X2643095Y-72572619D01*
X2690714Y-72667857D01*
X2690714Y-72763095D01*
X2643095Y-72905952D01*
X2071666Y-73477380D01*
X2690714Y-73477380D01*
X-1436666Y-73477380D02*
X-1770000Y-73001190D01*
X-2008095Y-73477380D02*
X-2008095Y-72477380D01*
X-1627142Y-72477380D01*
X-1531904Y-72525000D01*
X-1484285Y-72572619D01*
X-1436666Y-72667857D01*
X-1436666Y-72810714D01*
X-1484285Y-72905952D01*
X-1531904Y-72953571D01*
X-1627142Y-73001190D01*
X-2008095Y-73001190D01*
X-484285Y-73477380D02*
X-1055714Y-73477380D01*
X-770000Y-73477380D02*
X-770000Y-72477380D01*
X-865238Y-72620238D01*
X-960476Y-72715476D01*
X-1055714Y-72763095D01*
X3476666Y-80732380D02*
X3476666Y-81446666D01*
X3429047Y-81589523D01*
X3333809Y-81684761D01*
X3190952Y-81732380D01*
X3095714Y-81732380D01*
X4476666Y-81732380D02*
X3905238Y-81732380D01*
X4190952Y-81732380D02*
X4190952Y-80732380D01*
X4095714Y-80875238D01*
X4000476Y-80970476D01*
X3905238Y-81018095D01*
X51101666Y-20358571D02*
X50768333Y-20358571D01*
X50768333Y-20882380D02*
X50768333Y-19882380D01*
X51244523Y-19882380D01*
X52149285Y-20882380D02*
X51577857Y-20882380D01*
X51863571Y-20882380D02*
X51863571Y-19882380D01*
X51768333Y-20025238D01*
X51673095Y-20120476D01*
X51577857Y-20168095D01*
X11898333Y-38457142D02*
X11850714Y-38504761D01*
X11707857Y-38552380D01*
X11612619Y-38552380D01*
X11469761Y-38504761D01*
X11374523Y-38409523D01*
X11326904Y-38314285D01*
X11279285Y-38123809D01*
X11279285Y-37980952D01*
X11326904Y-37790476D01*
X11374523Y-37695238D01*
X11469761Y-37600000D01*
X11612619Y-37552380D01*
X11707857Y-37552380D01*
X11850714Y-37600000D01*
X11898333Y-37647619D01*
X12755476Y-37885714D02*
X12755476Y-38552380D01*
X12517380Y-37504761D02*
X12279285Y-38219047D01*
X12898333Y-38219047D01*
X11898333Y-44172142D02*
X11850714Y-44219761D01*
X11707857Y-44267380D01*
X11612619Y-44267380D01*
X11469761Y-44219761D01*
X11374523Y-44124523D01*
X11326904Y-44029285D01*
X11279285Y-43838809D01*
X11279285Y-43695952D01*
X11326904Y-43505476D01*
X11374523Y-43410238D01*
X11469761Y-43315000D01*
X11612619Y-43267380D01*
X11707857Y-43267380D01*
X11850714Y-43315000D01*
X11898333Y-43362619D01*
X12231666Y-43267380D02*
X12850714Y-43267380D01*
X12517380Y-43648333D01*
X12660238Y-43648333D01*
X12755476Y-43695952D01*
X12803095Y-43743571D01*
X12850714Y-43838809D01*
X12850714Y-44076904D01*
X12803095Y-44172142D01*
X12755476Y-44219761D01*
X12660238Y-44267380D01*
X12374523Y-44267380D01*
X12279285Y-44219761D01*
X12231666Y-44172142D01*
X37298333Y-32107142D02*
X37250714Y-32154761D01*
X37107857Y-32202380D01*
X37012619Y-32202380D01*
X36869761Y-32154761D01*
X36774523Y-32059523D01*
X36726904Y-31964285D01*
X36679285Y-31773809D01*
X36679285Y-31630952D01*
X36726904Y-31440476D01*
X36774523Y-31345238D01*
X36869761Y-31250000D01*
X37012619Y-31202380D01*
X37107857Y-31202380D01*
X37250714Y-31250000D01*
X37298333Y-31297619D01*
X37679285Y-31297619D02*
X37726904Y-31250000D01*
X37822142Y-31202380D01*
X38060238Y-31202380D01*
X38155476Y-31250000D01*
X38203095Y-31297619D01*
X38250714Y-31392857D01*
X38250714Y-31488095D01*
X38203095Y-31630952D01*
X37631666Y-32202380D01*
X38250714Y-32202380D01*
X8723333Y-65762142D02*
X8675714Y-65809761D01*
X8532857Y-65857380D01*
X8437619Y-65857380D01*
X8294761Y-65809761D01*
X8199523Y-65714523D01*
X8151904Y-65619285D01*
X8104285Y-65428809D01*
X8104285Y-65285952D01*
X8151904Y-65095476D01*
X8199523Y-65000238D01*
X8294761Y-64905000D01*
X8437619Y-64857380D01*
X8532857Y-64857380D01*
X8675714Y-64905000D01*
X8723333Y-64952619D01*
X9675714Y-65857380D02*
X9104285Y-65857380D01*
X9390000Y-65857380D02*
X9390000Y-64857380D01*
X9294761Y-65000238D01*
X9199523Y-65095476D01*
X9104285Y-65143095D01*
M02*
